<svg width="24" height="24" fill="none" xmlns="http://www.w3.org/2000/svg"><path d="M11.7246 6.2615v-.8154c0-.4325-.1776-.8473-.4939-1.1531-.3163-.3059-.7452-.4777-1.1925-.4777-.4473 0-.8762.1718-1.1925.4777-.3163.3058-.494.7206-.494 1.1531v7.7651a.794.794 0 01-.0984.3819.826.826 0 01-.272.2928.8683.8683 0 01-.7855.0819l-2.1444-.8292a1.5422 1.5422 0 00-.8563-.0739 1.5118 1.5118 0 00-.7567.3943c-.2685.2594-.4249.6077-.4376.9744-.0126.3668.1194.7244.3693 1.0005l2.7134 2.9991c.7124.7872 1.5906 1.418 2.5758 1.8502a7.8102 7.8102 0 003.1362.6555h3.302v0c3.2599 0 5.9025-2.6426 5.9025-5.9025v-8.367c0-.3244-.1333-.6355-.3705-.8649-.2372-.2293-.5589-.3582-.8943-.3582-.3355 0-.6572.1289-.8944.3582-.2372.2294-.3704.5405-.3704.865v.4076" stroke="#262B62" stroke-width="2" stroke-miterlimit="10" stroke-linecap="round" stroke-linejoin="round"/><path d="M11.7246 11.154V4.6308c0-.4325.1777-.8473.494-1.1531C12.5348 3.1718 12.9638 3 13.411 3c.4473 0 .8763.1718 1.1925.4777.3163.3058.494.7206.494 1.1531v6.5232" stroke="#262B62" stroke-width="2" stroke-miterlimit="10" stroke-linecap="round" stroke-linejoin="round"/><path d="M15.0974 6.2615v-.8154c0-.4325.1777-.8473.494-1.1531.3162-.3059.7452-.4777 1.1924-.4777v0c.4473 0 .8763.1718 1.1925.4777.3163.3058.494.7206.494 1.1531v5.7078" stroke="#262B62" stroke-width="2" stroke-miterlimit="10" stroke-linecap="round" stroke-linejoin="round"/></svg>