<svg width="16" height="17" fill="none" xmlns="http://www.w3.org/2000/svg"><g clip-path="url(#clip0)" fill="#37394F"><path d="M6.5 7.9S8 7.8 8 6c0-1.8-1.4-2.5-3-2.5H0v10h5s3.3-.1 3.3-3.1c0 0 .2-2.5-1.8-2.5zM2.3 5.1h2.9s.7 0 .7 1-.4 1.2-.9 1.2H2.3V5.1zM5 11.5H2.3V8.9h2.9s1 0 1 1.4c0 1.1-.8 1.2-1.2 1.2zM12.5 5.8999c-3.8 0-3.8 3.8-3.8 3.8s-.3 3.8 3.8 3.8c0 0 3.4.2 3.4-2.6h-1.7s.1 1.1-1.6 1.1c0 0-1.7.1-1.7-1.7H16c0-.1.5-4.4-3.5-4.4zm1.6 3h-3.3s.2-1.5 1.7-1.5c1.6-.1 1.6 1.5 1.6 1.5zM15 3.5h-5v1h5v-1z"/></g><defs><clipPath id="clip0"><path fill="#fff" transform="translate(0 .5)" d="M0 0h16v16H0z"/></clipPath></defs></svg>