<svg width="16" height="17" viewBox="0 0 16 17" fill="none" xmlns="http://www.w3.org/2000/svg">
<g clip-path="url(#clip0)">
<path fill-rule="evenodd" clip-rule="evenodd" d="M8 0.5C3.6 0.5 0 4.1 0 8.5C0 12.9 3.6 16.5 8 16.5C12.4 16.5 16 12.9 16 8.5C16 4.1 12.4 0.5 8 0.5ZM10.2 7.9C10.2 7.9 10 7.3 9.9 7.1C11.6 6.3 12.7 5.4 13.1 4.9C13.8 5.8 14.2 6.9 14.3 8.1C13.5 7.9 11.7 7.6 10.2 7.9ZM9.1 5.6C8.3 4.2 7.4 3 7 2.3C8.9 1.8 10.6 2.4 11.9 3.6C11.5 4.1 10.7 4.9 9.1 5.6ZM5.1 3C5.5 3.5 6.3 4.7 7.1 6.2C4.9 6.7 2.9 6.8 2 6.8C2.4 5.2 3.6 3.8 5.1 3ZM8 7.8C8.1 8 8.2 8.2 8.3 8.3C5.5 9.2 3.7 11.5 3.1 12.4C2.3 11.3 1.8 10 1.8 8.7C2.7 8.6 5.3 8.5 8 7.8ZM9 10C9.7 12 10.1 13.6 10.2 14.4C8.1 15.1 5.7 14.7 4.4 13.6C4.8 12.9 6.1 11.1 9 10ZM11.9 13.4C11.7 12.6 11.4 11.2 10.8 9.5C11.9 9.3 13.5 9.5 14.1 9.7C13.8 11.2 13 12.5 11.9 13.4Z" fill="#37394F"/>
</g>
<defs>
<clipPath id="clip0">
<rect width="16" height="16" fill="white" transform="translate(0 0.5)"/>
</clipPath>
</defs>
</svg>
