<svg width="16" height="17" fill="none" xmlns="http://www.w3.org/2000/svg"><g clip-path="url(#clip0)" fill="#37394F"><path d="M.01 7.98l.02-.22-.02.22zM7.66 16.49h.74l-.36.01-.38-.01zM7.56 16.49l-.2-.02.2.02zM7.35 16.47zM0 8.24l.01-.26-.01.26zM.03 7.76l.01-.11-.01.11z"/><path d="M15.9 6.9C15.23 3.34 11.75.59 8 .5A8.03 8.03 0 00.05 7.65l-.01.11-.02.22-.01.26v.32a8 8 0 007.35 7.9l.2.01h.1l.39.02c.13 0 .24 0 .36-.02 2.6-.13 4.48-1.7 3.22-4.6-3.57 2.46-9.66.76-9.7-5.16a9.63 9.63 0 011.59 0c.13-.65.35-1.29.65-1.88.79.28 1.54.65 2.24 1.11.45-.7.98-1.34 1.6-1.9.66.55 1.23 1.2 1.66 1.95a9.4 9.4 0 012.32-1.23c.34.6.57 1.24.7 1.9.5-.02.98-.02 1.48 0a6.1 6.1 0 01-2.06 4.86c2.38 1.17 4.4-1.32 3.8-4.62z"/><path d="M7.86 7.03h-.11c-.71.31-1.32.8-1.6 1.37a6.77 6.77 0 012.12 2.34C10.24 9.6 10.18 7.7 10.2 7.7c-1.06-.13-1.99.69-2.1.69l-.24-1.37z"/></g><defs><clipPath id="clip0"><path fill="#fff" transform="translate(0 .5)" d="M0 0h16v16H0z"/></clipPath></defs></svg>