<svg width="88" height="88" viewBox="0 0 88 88" fill="none" xmlns="http://www.w3.org/2000/svg">
<path d="M44 0C68.3004 0 88 19.6996 88 44C88 68.3004 68.3004 88 44 88C19.6996 88 0 68.3004 0 44C0 19.6996 19.6996 0 44 0Z" fill="#262B62"/>
<path fill-rule="evenodd" clip-rule="evenodd" d="M62.7535 59.488C63.5084 58.5172 63.3338 57.1203 62.3644 56.3654C61.5449 55.7287 60.4243 55.7562 59.6392 56.3612L59.6268 56.3475C59.4522 56.5221 59.1758 56.7256 59.0465 56.8054C59.0105 56.8272 58.993 56.8403 58.9781 56.8514C58.9395 56.8802 58.9186 56.8957 58.6409 57.0158C58.2559 57.1808 57.831 57.2729 57.3842 57.2715C55.6352 57.2687 54.2189 55.847 54.223 54.098L54.2547 36.6754C54.2684 29.8952 48.7822 24.3884 42.0034 24.376C37.5718 24.3677 33.6874 26.7094 31.5218 30.2239L31.5204 30.2225C31.5204 30.2225 31.4805 30.2871 31.4145 30.3999C31.101 30.9402 30.1963 32.626 30.1935 34.078C30.188 36.8926 32.2973 38.4807 34.4093 38.4849C35.3223 38.4862 35.9603 38.2511 36.8389 37.4165C37.7162 36.5819 38.2868 35.3994 38.2882 34.4011C38.2923 32.3527 37.2887 31.3569 37.2695 31.3379L37.2693 31.3376C38.2153 30.2252 39.626 29.5199 41.2018 29.5226C44.0439 29.5281 46.3443 31.8367 46.3388 34.6802L46.3278 40.7908C44.8675 40.6835 42.8628 40.5804 40.5157 40.5762C33.1897 40.5611 26.5828 44.5087 26.5677 52.1647C26.5525 59.8207 32.2285 63.5924 37.3642 63.602C41.8315 63.6116 45.6018 62.1748 47.5185 58.6438C49.0888 61.3649 52.0244 63.2019 55.3932 63.2074C57.6729 63.2115 59.7588 62.3782 61.3593 60.9964C61.879 60.5481 62.3479 60.0421 62.7535 59.488ZM46.3278 54.7388C44.895 56.6871 42.893 57.904 40.4098 57.8999C37.3298 57.8944 34.3158 55.7095 34.3227 52.1455C34.3309 47.5695 38.2029 45.4547 41.848 45.4616C43.7414 45.4658 45.2182 45.5207 46.3182 45.5867L46.303 54.0829C46.303 54.3042 46.3127 54.5229 46.3278 54.7388ZM60.5714 43.7209C60.57 45.034 59.5044 46.0955 58.1912 46.0928C56.8795 46.09 55.818 45.0244 55.8207 43.7126C55.8221 42.4009 56.8891 41.338 58.2009 41.3407C59.5126 41.3435 60.5741 42.4091 60.5714 43.7209Z" fill="#FAFCFE"/>
</svg>
