<svg width="184" height="460" viewBox="0 0 184 460" fill="none" xmlns="http://www.w3.org/2000/svg">
<g opacity="0.3">
<circle cx="2" cy="2" r="2" fill="#FAFCFE"/>
<circle cx="14" cy="2" r="2" fill="#FAFCFE"/>
<circle cx="26" cy="2" r="2" fill="#FAFCFE"/>
<circle cx="38" cy="2" r="2" fill="#FAFCFE"/>
<circle cx="50" cy="2" r="2" fill="#FAFCFE"/>
<circle cx="62" cy="2" r="2" fill="#FAFCFE"/>
<circle cx="74" cy="2" r="2" fill="#FAFCFE"/>
<circle cx="86" cy="2" r="2" fill="#FAFCFE"/>
<circle cx="2" cy="14" r="2" fill="#FAFCFE"/>
<circle cx="14" cy="14" r="2" fill="#FAFCFE"/>
<circle cx="26" cy="14" r="2" fill="#FAFCFE"/>
<circle cx="38" cy="14" r="2" fill="#FAFCFE"/>
<circle cx="50" cy="14" r="2" fill="#FAFCFE"/>
<circle cx="62" cy="14" r="2" fill="#FAFCFE"/>
<circle cx="74" cy="14" r="2" fill="#FAFCFE"/>
<circle cx="86" cy="14" r="2" fill="#FAFCFE"/>
<circle cx="2" cy="26" r="2" fill="#FAFCFE"/>
<circle cx="14" cy="26" r="2" fill="#FAFCFE"/>
<circle cx="26" cy="26" r="2" fill="#FAFCFE"/>
<circle cx="38" cy="26" r="2" fill="#FAFCFE"/>
<circle cx="50" cy="26" r="2" fill="#FAFCFE"/>
<circle cx="62" cy="26" r="2" fill="#FAFCFE"/>
<circle cx="74" cy="26" r="2" fill="#FAFCFE"/>
<circle cx="86" cy="26" r="2" fill="#FAFCFE"/>
<circle cx="2" cy="38" r="2" fill="#FAFCFE"/>
<circle cx="14" cy="38" r="2" fill="#FAFCFE"/>
<circle cx="26" cy="38" r="2" fill="#FAFCFE"/>
<circle cx="38" cy="38" r="2" fill="#FAFCFE"/>
<circle cx="50" cy="38" r="2" fill="#FAFCFE"/>
<circle cx="62" cy="38" r="2" fill="#FAFCFE"/>
<circle cx="74" cy="38" r="2" fill="#FAFCFE"/>
<circle cx="86" cy="38" r="2" fill="#FAFCFE"/>
<circle cx="2" cy="50" r="2" fill="#FAFCFE"/>
<circle cx="14" cy="50" r="2" fill="#FAFCFE"/>
<circle cx="26" cy="50" r="2" fill="#FAFCFE"/>
<circle cx="38" cy="50" r="2" fill="#FAFCFE"/>
<circle cx="50" cy="50" r="2" fill="#FAFCFE"/>
<circle cx="62" cy="50" r="2" fill="#FAFCFE"/>
<circle cx="74" cy="50" r="2" fill="#FAFCFE"/>
<circle cx="86" cy="50" r="2" fill="#FAFCFE"/>
<circle cx="2" cy="62" r="2" fill="#FAFCFE"/>
<circle cx="14" cy="62" r="2" fill="#FAFCFE"/>
<circle cx="26" cy="62" r="2" fill="#FAFCFE"/>
<circle cx="38" cy="62" r="2" fill="#FAFCFE"/>
<circle cx="50" cy="62" r="2" fill="#FAFCFE"/>
<circle cx="62" cy="62" r="2" fill="#FAFCFE"/>
<circle cx="74" cy="62" r="2" fill="#FAFCFE"/>
<circle cx="86" cy="62" r="2" fill="#FAFCFE"/>
<circle cx="2" cy="74" r="2" fill="#FAFCFE"/>
<circle cx="14" cy="74" r="2" fill="#FAFCFE"/>
<circle cx="26" cy="74" r="2" fill="#FAFCFE"/>
<circle cx="38" cy="74" r="2" fill="#FAFCFE"/>
<circle cx="50" cy="74" r="2" fill="#FAFCFE"/>
<circle cx="62" cy="74" r="2" fill="#FAFCFE"/>
<circle cx="74" cy="74" r="2" fill="#FAFCFE"/>
<circle cx="86" cy="74" r="2" fill="#FAFCFE"/>
<circle cx="2" cy="86" r="2" fill="#FAFCFE"/>
<circle cx="14" cy="86" r="2" fill="#FAFCFE"/>
<circle cx="26" cy="86" r="2" fill="#FAFCFE"/>
<circle cx="38" cy="86" r="2" fill="#FAFCFE"/>
<circle cx="50" cy="86" r="2" fill="#FAFCFE"/>
<circle cx="62" cy="86" r="2" fill="#FAFCFE"/>
<circle cx="74" cy="86" r="2" fill="#FAFCFE"/>
<circle cx="86" cy="86" r="2" fill="#FAFCFE"/>
<circle cx="2" cy="98" r="2" fill="#FAFCFE"/>
<circle cx="14" cy="98" r="2" fill="#FAFCFE"/>
<circle cx="26" cy="98" r="2" fill="#FAFCFE"/>
<circle cx="38" cy="98" r="2" fill="#FAFCFE"/>
<circle cx="50" cy="98" r="2" fill="#FAFCFE"/>
<circle cx="62" cy="98" r="2" fill="#FAFCFE"/>
<circle cx="74" cy="98" r="2" fill="#FAFCFE"/>
<circle cx="86" cy="98" r="2" fill="#FAFCFE"/>
<circle cx="2" cy="110" r="2" fill="#FAFCFE"/>
<circle cx="14" cy="110" r="2" fill="#FAFCFE"/>
<circle cx="26" cy="110" r="2" fill="#FAFCFE"/>
<circle cx="38" cy="110" r="2" fill="#FAFCFE"/>
<circle cx="50" cy="110" r="2" fill="#FAFCFE"/>
<circle cx="62" cy="110" r="2" fill="#FAFCFE"/>
<circle cx="74" cy="110" r="2" fill="#FAFCFE"/>
<circle cx="86" cy="110" r="2" fill="#FAFCFE"/>
<circle cx="2" cy="122" r="2" fill="#FAFCFE"/>
<circle cx="14" cy="122" r="2" fill="#FAFCFE"/>
<circle cx="26" cy="122" r="2" fill="#FAFCFE"/>
<circle cx="38" cy="122" r="2" fill="#FAFCFE"/>
<circle cx="50" cy="122" r="2" fill="#FAFCFE"/>
<circle cx="62" cy="122" r="2" fill="#FAFCFE"/>
<circle cx="74" cy="122" r="2" fill="#FAFCFE"/>
<circle cx="86" cy="122" r="2" fill="#FAFCFE"/>
<circle cx="2" cy="134" r="2" fill="#FAFCFE"/>
<circle cx="14" cy="134" r="2" fill="#FAFCFE"/>
<circle cx="26" cy="134" r="2" fill="#FAFCFE"/>
<circle cx="38" cy="134" r="2" fill="#FAFCFE"/>
<circle cx="50" cy="134" r="2" fill="#FAFCFE"/>
<circle cx="62" cy="134" r="2" fill="#FAFCFE"/>
<circle cx="74" cy="134" r="2" fill="#FAFCFE"/>
<circle cx="86" cy="134" r="2" fill="#FAFCFE"/>
<circle cx="2" cy="146" r="2" fill="#FAFCFE"/>
<circle cx="14" cy="146" r="2" fill="#FAFCFE"/>
<circle cx="26" cy="146" r="2" fill="#FAFCFE"/>
<circle cx="38" cy="146" r="2" fill="#FAFCFE"/>
<circle cx="50" cy="146" r="2" fill="#FAFCFE"/>
<circle cx="62" cy="146" r="2" fill="#FAFCFE"/>
<circle cx="74" cy="146" r="2" fill="#FAFCFE"/>
<circle cx="86" cy="146" r="2" fill="#FAFCFE"/>
<circle cx="2" cy="158" r="2" fill="#FAFCFE"/>
<circle cx="14" cy="158" r="2" fill="#FAFCFE"/>
<circle cx="26" cy="158" r="2" fill="#FAFCFE"/>
<circle cx="38" cy="158" r="2" fill="#FAFCFE"/>
<circle cx="50" cy="158" r="2" fill="#FAFCFE"/>
<circle cx="62" cy="158" r="2" fill="#FAFCFE"/>
<circle cx="74" cy="158" r="2" fill="#FAFCFE"/>
<circle cx="86" cy="158" r="2" fill="#FAFCFE"/>
<circle cx="2" cy="170" r="2" fill="#FAFCFE"/>
<circle cx="14" cy="170" r="2" fill="#FAFCFE"/>
<circle cx="26" cy="170" r="2" fill="#FAFCFE"/>
<circle cx="38" cy="170" r="2" fill="#FAFCFE"/>
<circle cx="50" cy="170" r="2" fill="#FAFCFE"/>
<circle cx="62" cy="170" r="2" fill="#FAFCFE"/>
<circle cx="74" cy="170" r="2" fill="#FAFCFE"/>
<circle cx="86" cy="170" r="2" fill="#FAFCFE"/>
<circle cx="2" cy="182" r="2" fill="#FAFCFE"/>
<circle cx="14" cy="182" r="2" fill="#FAFCFE"/>
<circle cx="26" cy="182" r="2" fill="#FAFCFE"/>
<circle cx="38" cy="182" r="2" fill="#FAFCFE"/>
<circle cx="50" cy="182" r="2" fill="#FAFCFE"/>
<circle cx="62" cy="182" r="2" fill="#FAFCFE"/>
<circle cx="74" cy="182" r="2" fill="#FAFCFE"/>
<circle cx="86" cy="182" r="2" fill="#FAFCFE"/>
<circle cx="2" cy="194" r="2" fill="#FAFCFE"/>
<circle cx="14" cy="194" r="2" fill="#FAFCFE"/>
<circle cx="26" cy="194" r="2" fill="#FAFCFE"/>
<circle cx="38" cy="194" r="2" fill="#FAFCFE"/>
<circle cx="50" cy="194" r="2" fill="#FAFCFE"/>
<circle cx="62" cy="194" r="2" fill="#FAFCFE"/>
<circle cx="74" cy="194" r="2" fill="#FAFCFE"/>
<circle cx="86" cy="194" r="2" fill="#FAFCFE"/>
<circle cx="2" cy="206" r="2" fill="#FAFCFE"/>
<circle cx="14" cy="206" r="2" fill="#FAFCFE"/>
<circle cx="26" cy="206" r="2" fill="#FAFCFE"/>
<circle cx="38" cy="206" r="2" fill="#FAFCFE"/>
<circle cx="50" cy="206" r="2" fill="#FAFCFE"/>
<circle cx="62" cy="206" r="2" fill="#FAFCFE"/>
<circle cx="74" cy="206" r="2" fill="#FAFCFE"/>
<circle cx="86" cy="206" r="2" fill="#FAFCFE"/>
<circle cx="2" cy="218" r="2" fill="#FAFCFE"/>
<circle cx="14" cy="218" r="2" fill="#FAFCFE"/>
<circle cx="26" cy="218" r="2" fill="#FAFCFE"/>
<circle cx="38" cy="218" r="2" fill="#FAFCFE"/>
<circle cx="50" cy="218" r="2" fill="#FAFCFE"/>
<circle cx="62" cy="218" r="2" fill="#FAFCFE"/>
<circle cx="74" cy="218" r="2" fill="#FAFCFE"/>
<circle cx="86" cy="218" r="2" fill="#FAFCFE"/>
<circle cx="2" cy="230" r="2" fill="#FAFCFE"/>
<circle cx="14" cy="230" r="2" fill="#FAFCFE"/>
<circle cx="26" cy="230" r="2" fill="#FAFCFE"/>
<circle cx="38" cy="230" r="2" fill="#FAFCFE"/>
<circle cx="50" cy="230" r="2" fill="#FAFCFE"/>
<circle cx="62" cy="230" r="2" fill="#FAFCFE"/>
<circle cx="74" cy="230" r="2" fill="#FAFCFE"/>
<circle cx="86" cy="230" r="2" fill="#FAFCFE"/>
<circle cx="2" cy="242" r="2" fill="#FAFCFE"/>
<circle cx="14" cy="242" r="2" fill="#FAFCFE"/>
<circle cx="26" cy="242" r="2" fill="#FAFCFE"/>
<circle cx="38" cy="242" r="2" fill="#FAFCFE"/>
<circle cx="50" cy="242" r="2" fill="#FAFCFE"/>
<circle cx="62" cy="242" r="2" fill="#FAFCFE"/>
<circle cx="74" cy="242" r="2" fill="#FAFCFE"/>
<circle cx="86" cy="242" r="2" fill="#FAFCFE"/>
<circle cx="2" cy="254" r="2" fill="#FAFCFE"/>
<circle cx="14" cy="254" r="2" fill="#FAFCFE"/>
<circle cx="26" cy="254" r="2" fill="#FAFCFE"/>
<circle cx="38" cy="254" r="2" fill="#FAFCFE"/>
<circle cx="50" cy="254" r="2" fill="#FAFCFE"/>
<circle cx="62" cy="254" r="2" fill="#FAFCFE"/>
<circle cx="74" cy="254" r="2" fill="#FAFCFE"/>
<circle cx="86" cy="254" r="2" fill="#FAFCFE"/>
<circle cx="2" cy="266" r="2" fill="#FAFCFE"/>
<circle cx="14" cy="266" r="2" fill="#FAFCFE"/>
<circle cx="26" cy="266" r="2" fill="#FAFCFE"/>
<circle cx="38" cy="266" r="2" fill="#FAFCFE"/>
<circle cx="50" cy="266" r="2" fill="#FAFCFE"/>
<circle cx="62" cy="266" r="2" fill="#FAFCFE"/>
<circle cx="74" cy="266" r="2" fill="#FAFCFE"/>
<circle cx="86" cy="266" r="2" fill="#FAFCFE"/>
<circle cx="2" cy="278" r="2" fill="#FAFCFE"/>
<circle cx="14" cy="278" r="2" fill="#FAFCFE"/>
<circle cx="26" cy="278" r="2" fill="#FAFCFE"/>
<circle cx="38" cy="278" r="2" fill="#FAFCFE"/>
<circle cx="50" cy="278" r="2" fill="#FAFCFE"/>
<circle cx="62" cy="278" r="2" fill="#FAFCFE"/>
<circle cx="74" cy="278" r="2" fill="#FAFCFE"/>
<circle cx="86" cy="278" r="2" fill="#FAFCFE"/>
<circle cx="2" cy="290" r="2" fill="#FAFCFE"/>
<circle cx="14" cy="290" r="2" fill="#FAFCFE"/>
<circle cx="26" cy="290" r="2" fill="#FAFCFE"/>
<circle cx="38" cy="290" r="2" fill="#FAFCFE"/>
<circle cx="50" cy="290" r="2" fill="#FAFCFE"/>
<circle cx="62" cy="290" r="2" fill="#FAFCFE"/>
<circle cx="74" cy="290" r="2" fill="#FAFCFE"/>
<circle cx="86" cy="290" r="2" fill="#FAFCFE"/>
<circle cx="2" cy="302" r="2" fill="#FAFCFE"/>
<circle cx="14" cy="302" r="2" fill="#FAFCFE"/>
<circle cx="26" cy="302" r="2" fill="#FAFCFE"/>
<circle cx="38" cy="302" r="2" fill="#FAFCFE"/>
<circle cx="50" cy="302" r="2" fill="#FAFCFE"/>
<circle cx="62" cy="302" r="2" fill="#FAFCFE"/>
<circle cx="74" cy="302" r="2" fill="#FAFCFE"/>
<circle cx="86" cy="302" r="2" fill="#FAFCFE"/>
<circle cx="2" cy="314" r="2" fill="#FAFCFE"/>
<circle cx="14" cy="314" r="2" fill="#FAFCFE"/>
<circle cx="26" cy="314" r="2" fill="#FAFCFE"/>
<circle cx="38" cy="314" r="2" fill="#FAFCFE"/>
<circle cx="50" cy="314" r="2" fill="#FAFCFE"/>
<circle cx="62" cy="314" r="2" fill="#FAFCFE"/>
<circle cx="74" cy="314" r="2" fill="#FAFCFE"/>
<circle cx="86" cy="314" r="2" fill="#FAFCFE"/>
<circle cx="2" cy="326" r="2" fill="#FAFCFE"/>
<circle cx="14" cy="326" r="2" fill="#FAFCFE"/>
<circle cx="26" cy="326" r="2" fill="#FAFCFE"/>
<circle cx="38" cy="326" r="2" fill="#FAFCFE"/>
<circle cx="50" cy="326" r="2" fill="#FAFCFE"/>
<circle cx="62" cy="326" r="2" fill="#FAFCFE"/>
<circle cx="74" cy="326" r="2" fill="#FAFCFE"/>
<circle cx="86" cy="326" r="2" fill="#FAFCFE"/>
<circle cx="2" cy="338" r="2" fill="#FAFCFE"/>
<circle cx="14" cy="338" r="2" fill="#FAFCFE"/>
<circle cx="26" cy="338" r="2" fill="#FAFCFE"/>
<circle cx="38" cy="338" r="2" fill="#FAFCFE"/>
<circle cx="50" cy="338" r="2" fill="#FAFCFE"/>
<circle cx="62" cy="338" r="2" fill="#FAFCFE"/>
<circle cx="74" cy="338" r="2" fill="#FAFCFE"/>
<circle cx="86" cy="338" r="2" fill="#FAFCFE"/>
<circle cx="2" cy="350" r="2" fill="#FAFCFE"/>
<circle cx="14" cy="350" r="2" fill="#FAFCFE"/>
<circle cx="26" cy="350" r="2" fill="#FAFCFE"/>
<circle cx="38" cy="350" r="2" fill="#FAFCFE"/>
<circle cx="50" cy="350" r="2" fill="#FAFCFE"/>
<circle cx="62" cy="350" r="2" fill="#FAFCFE"/>
<circle cx="74" cy="350" r="2" fill="#FAFCFE"/>
<circle cx="86" cy="350" r="2" fill="#FAFCFE"/>
<circle cx="2" cy="362" r="2" fill="#FAFCFE"/>
<circle cx="14" cy="362" r="2" fill="#FAFCFE"/>
<circle cx="26" cy="362" r="2" fill="#FAFCFE"/>
<circle cx="38" cy="362" r="2" fill="#FAFCFE"/>
<circle cx="50" cy="362" r="2" fill="#FAFCFE"/>
<circle cx="62" cy="362" r="2" fill="#FAFCFE"/>
<circle cx="74" cy="362" r="2" fill="#FAFCFE"/>
<circle cx="86" cy="362" r="2" fill="#FAFCFE"/>
<circle cx="2" cy="374" r="2" fill="#FAFCFE"/>
<circle cx="14" cy="374" r="2" fill="#FAFCFE"/>
<circle cx="26" cy="374" r="2" fill="#FAFCFE"/>
<circle cx="38" cy="374" r="2" fill="#FAFCFE"/>
<circle cx="50" cy="374" r="2" fill="#FAFCFE"/>
<circle cx="62" cy="374" r="2" fill="#FAFCFE"/>
<circle cx="74" cy="374" r="2" fill="#FAFCFE"/>
<circle cx="86" cy="374" r="2" fill="#FAFCFE"/>
<circle cx="2" cy="386" r="2" fill="#FAFCFE"/>
<circle cx="14" cy="386" r="2" fill="#FAFCFE"/>
<circle cx="26" cy="386" r="2" fill="#FAFCFE"/>
<circle cx="38" cy="386" r="2" fill="#FAFCFE"/>
<circle cx="50" cy="386" r="2" fill="#FAFCFE"/>
<circle cx="62" cy="386" r="2" fill="#FAFCFE"/>
<circle cx="74" cy="386" r="2" fill="#FAFCFE"/>
<circle cx="86" cy="386" r="2" fill="#FAFCFE"/>
<circle cx="2" cy="398" r="2" fill="#FAFCFE"/>
<circle cx="14" cy="398" r="2" fill="#FAFCFE"/>
<circle cx="26" cy="398" r="2" fill="#FAFCFE"/>
<circle cx="38" cy="398" r="2" fill="#FAFCFE"/>
<circle cx="50" cy="398" r="2" fill="#FAFCFE"/>
<circle cx="62" cy="398" r="2" fill="#FAFCFE"/>
<circle cx="74" cy="398" r="2" fill="#FAFCFE"/>
<circle cx="86" cy="398" r="2" fill="#FAFCFE"/>
<circle cx="2" cy="410" r="2" fill="#FAFCFE"/>
<circle cx="14" cy="410" r="2" fill="#FAFCFE"/>
<circle cx="26" cy="410" r="2" fill="#FAFCFE"/>
<circle cx="38" cy="410" r="2" fill="#FAFCFE"/>
<circle cx="50" cy="410" r="2" fill="#FAFCFE"/>
<circle cx="62" cy="410" r="2" fill="#FAFCFE"/>
<circle cx="74" cy="410" r="2" fill="#FAFCFE"/>
<circle cx="86" cy="410" r="2" fill="#FAFCFE"/>
<circle cx="2" cy="422" r="2" fill="#FAFCFE"/>
<circle cx="14" cy="422" r="2" fill="#FAFCFE"/>
<circle cx="26" cy="422" r="2" fill="#FAFCFE"/>
<circle cx="38" cy="422" r="2" fill="#FAFCFE"/>
<circle cx="50" cy="422" r="2" fill="#FAFCFE"/>
<circle cx="62" cy="422" r="2" fill="#FAFCFE"/>
<circle cx="74" cy="422" r="2" fill="#FAFCFE"/>
<circle cx="86" cy="422" r="2" fill="#FAFCFE"/>
<circle cx="2" cy="434" r="2" fill="#FAFCFE"/>
<circle cx="14" cy="434" r="2" fill="#FAFCFE"/>
<circle cx="26" cy="434" r="2" fill="#FAFCFE"/>
<circle cx="38" cy="434" r="2" fill="#FAFCFE"/>
<circle cx="50" cy="434" r="2" fill="#FAFCFE"/>
<circle cx="62" cy="434" r="2" fill="#FAFCFE"/>
<circle cx="74" cy="434" r="2" fill="#FAFCFE"/>
<circle cx="86" cy="434" r="2" fill="#FAFCFE"/>
<circle cx="2" cy="446" r="2" fill="#FAFCFE"/>
<circle cx="14" cy="446" r="2" fill="#FAFCFE"/>
<circle cx="26" cy="446" r="2" fill="#FAFCFE"/>
<circle cx="38" cy="446" r="2" fill="#FAFCFE"/>
<circle cx="50" cy="446" r="2" fill="#FAFCFE"/>
<circle cx="62" cy="446" r="2" fill="#FAFCFE"/>
<circle cx="74" cy="446" r="2" fill="#FAFCFE"/>
<circle cx="86" cy="446" r="2" fill="#FAFCFE"/>
<circle cx="2" cy="458" r="2" fill="#FAFCFE"/>
<circle cx="14" cy="458" r="2" fill="#FAFCFE"/>
<circle cx="26" cy="458" r="2" fill="#FAFCFE"/>
<circle cx="38" cy="458" r="2" fill="#FAFCFE"/>
<circle cx="50" cy="458" r="2" fill="#FAFCFE"/>
<circle cx="62" cy="458" r="2" fill="#FAFCFE"/>
<circle cx="74" cy="458" r="2" fill="#FAFCFE"/>
<circle cx="86" cy="458" r="2" fill="#FAFCFE"/>
<circle cx="98" cy="2" r="2" fill="#FAFCFE"/>
<circle cx="110" cy="2" r="2" fill="#FAFCFE"/>
<circle cx="122" cy="2" r="2" fill="#FAFCFE"/>
<circle cx="134" cy="2" r="2" fill="#FAFCFE"/>
<circle cx="146" cy="2" r="2" fill="#FAFCFE"/>
<circle cx="158" cy="2" r="2" fill="#FAFCFE"/>
<circle cx="170" cy="2" r="2" fill="#FAFCFE"/>
<circle cx="182" cy="2" r="2" fill="#FAFCFE"/>
<circle cx="98" cy="14" r="2" fill="#FAFCFE"/>
<circle cx="110" cy="14" r="2" fill="#FAFCFE"/>
<circle cx="122" cy="14" r="2" fill="#FAFCFE"/>
<circle cx="134" cy="14" r="2" fill="#FAFCFE"/>
<circle cx="146" cy="14" r="2" fill="#FAFCFE"/>
<circle cx="158" cy="14" r="2" fill="#FAFCFE"/>
<circle cx="170" cy="14" r="2" fill="#FAFCFE"/>
<circle cx="182" cy="14" r="2" fill="#FAFCFE"/>
<circle cx="98" cy="26" r="2" fill="#FAFCFE"/>
<circle cx="110" cy="26" r="2" fill="#FAFCFE"/>
<circle cx="122" cy="26" r="2" fill="#FAFCFE"/>
<circle cx="134" cy="26" r="2" fill="#FAFCFE"/>
<circle cx="146" cy="26" r="2" fill="#FAFCFE"/>
<circle cx="158" cy="26" r="2" fill="#FAFCFE"/>
<circle cx="170" cy="26" r="2" fill="#FAFCFE"/>
<circle cx="182" cy="26" r="2" fill="#FAFCFE"/>
<circle cx="98" cy="38" r="2" fill="#FAFCFE"/>
<circle cx="110" cy="38" r="2" fill="#FAFCFE"/>
<circle cx="122" cy="38" r="2" fill="#FAFCFE"/>
<circle cx="134" cy="38" r="2" fill="#FAFCFE"/>
<circle cx="146" cy="38" r="2" fill="#FAFCFE"/>
<circle cx="158" cy="38" r="2" fill="#FAFCFE"/>
<circle cx="170" cy="38" r="2" fill="#FAFCFE"/>
<circle cx="182" cy="38" r="2" fill="#FAFCFE"/>
<circle cx="98" cy="50" r="2" fill="#FAFCFE"/>
<circle cx="110" cy="50" r="2" fill="#FAFCFE"/>
<circle cx="122" cy="50" r="2" fill="#FAFCFE"/>
<circle cx="134" cy="50" r="2" fill="#FAFCFE"/>
<circle cx="146" cy="50" r="2" fill="#FAFCFE"/>
<circle cx="158" cy="50" r="2" fill="#FAFCFE"/>
<circle cx="170" cy="50" r="2" fill="#FAFCFE"/>
<circle cx="182" cy="50" r="2" fill="#FAFCFE"/>
<circle cx="98" cy="62" r="2" fill="#FAFCFE"/>
<circle cx="110" cy="62" r="2" fill="#FAFCFE"/>
<circle cx="122" cy="62" r="2" fill="#FAFCFE"/>
<circle cx="134" cy="62" r="2" fill="#FAFCFE"/>
<circle cx="146" cy="62" r="2" fill="#FAFCFE"/>
<circle cx="158" cy="62" r="2" fill="#FAFCFE"/>
<circle cx="170" cy="62" r="2" fill="#FAFCFE"/>
<circle cx="182" cy="62" r="2" fill="#FAFCFE"/>
<circle cx="98" cy="74" r="2" fill="#FAFCFE"/>
<circle cx="110" cy="74" r="2" fill="#FAFCFE"/>
<circle cx="122" cy="74" r="2" fill="#FAFCFE"/>
<circle cx="134" cy="74" r="2" fill="#FAFCFE"/>
<circle cx="146" cy="74" r="2" fill="#FAFCFE"/>
<circle cx="158" cy="74" r="2" fill="#FAFCFE"/>
<circle cx="170" cy="74" r="2" fill="#FAFCFE"/>
<circle cx="182" cy="74" r="2" fill="#FAFCFE"/>
<circle cx="98" cy="86" r="2" fill="#FAFCFE"/>
<circle cx="110" cy="86" r="2" fill="#FAFCFE"/>
<circle cx="122" cy="86" r="2" fill="#FAFCFE"/>
<circle cx="134" cy="86" r="2" fill="#FAFCFE"/>
<circle cx="146" cy="86" r="2" fill="#FAFCFE"/>
<circle cx="158" cy="86" r="2" fill="#FAFCFE"/>
<circle cx="170" cy="86" r="2" fill="#FAFCFE"/>
<circle cx="182" cy="86" r="2" fill="#FAFCFE"/>
<circle cx="98" cy="98" r="2" fill="#FAFCFE"/>
<circle cx="110" cy="98" r="2" fill="#FAFCFE"/>
<circle cx="122" cy="98" r="2" fill="#FAFCFE"/>
<circle cx="134" cy="98" r="2" fill="#FAFCFE"/>
<circle cx="146" cy="98" r="2" fill="#FAFCFE"/>
<circle cx="158" cy="98" r="2" fill="#FAFCFE"/>
<circle cx="170" cy="98" r="2" fill="#FAFCFE"/>
<circle cx="182" cy="98" r="2" fill="#FAFCFE"/>
<circle cx="98" cy="110" r="2" fill="#FAFCFE"/>
<circle cx="110" cy="110" r="2" fill="#FAFCFE"/>
<circle cx="122" cy="110" r="2" fill="#FAFCFE"/>
<circle cx="134" cy="110" r="2" fill="#FAFCFE"/>
<circle cx="146" cy="110" r="2" fill="#FAFCFE"/>
<circle cx="158" cy="110" r="2" fill="#FAFCFE"/>
<circle cx="170" cy="110" r="2" fill="#FAFCFE"/>
<circle cx="182" cy="110" r="2" fill="#FAFCFE"/>
<circle cx="98" cy="122" r="2" fill="#FAFCFE"/>
<circle cx="110" cy="122" r="2" fill="#FAFCFE"/>
<circle cx="122" cy="122" r="2" fill="#FAFCFE"/>
<circle cx="134" cy="122" r="2" fill="#FAFCFE"/>
<circle cx="146" cy="122" r="2" fill="#FAFCFE"/>
<circle cx="158" cy="122" r="2" fill="#FAFCFE"/>
<circle cx="170" cy="122" r="2" fill="#FAFCFE"/>
<circle cx="182" cy="122" r="2" fill="#FAFCFE"/>
<circle cx="98" cy="134" r="2" fill="#FAFCFE"/>
<circle cx="110" cy="134" r="2" fill="#FAFCFE"/>
<circle cx="122" cy="134" r="2" fill="#FAFCFE"/>
<circle cx="134" cy="134" r="2" fill="#FAFCFE"/>
<circle cx="146" cy="134" r="2" fill="#FAFCFE"/>
<circle cx="158" cy="134" r="2" fill="#FAFCFE"/>
<circle cx="170" cy="134" r="2" fill="#FAFCFE"/>
<circle cx="182" cy="134" r="2" fill="#FAFCFE"/>
<circle cx="98" cy="146" r="2" fill="#FAFCFE"/>
<circle cx="110" cy="146" r="2" fill="#FAFCFE"/>
<circle cx="122" cy="146" r="2" fill="#FAFCFE"/>
<circle cx="134" cy="146" r="2" fill="#FAFCFE"/>
<circle cx="146" cy="146" r="2" fill="#FAFCFE"/>
<circle cx="158" cy="146" r="2" fill="#FAFCFE"/>
<circle cx="170" cy="146" r="2" fill="#FAFCFE"/>
<circle cx="182" cy="146" r="2" fill="#FAFCFE"/>
<circle cx="98" cy="158" r="2" fill="#FAFCFE"/>
<circle cx="110" cy="158" r="2" fill="#FAFCFE"/>
<circle cx="122" cy="158" r="2" fill="#FAFCFE"/>
<circle cx="134" cy="158" r="2" fill="#FAFCFE"/>
<circle cx="146" cy="158" r="2" fill="#FAFCFE"/>
<circle cx="158" cy="158" r="2" fill="#FAFCFE"/>
<circle cx="170" cy="158" r="2" fill="#FAFCFE"/>
<circle cx="182" cy="158" r="2" fill="#FAFCFE"/>
<circle cx="98" cy="170" r="2" fill="#FAFCFE"/>
<circle cx="110" cy="170" r="2" fill="#FAFCFE"/>
<circle cx="122" cy="170" r="2" fill="#FAFCFE"/>
<circle cx="134" cy="170" r="2" fill="#FAFCFE"/>
<circle cx="146" cy="170" r="2" fill="#FAFCFE"/>
<circle cx="158" cy="170" r="2" fill="#FAFCFE"/>
<circle cx="170" cy="170" r="2" fill="#FAFCFE"/>
<circle cx="182" cy="170" r="2" fill="#FAFCFE"/>
<circle cx="98" cy="182" r="2" fill="#FAFCFE"/>
<circle cx="110" cy="182" r="2" fill="#FAFCFE"/>
<circle cx="122" cy="182" r="2" fill="#FAFCFE"/>
<circle cx="134" cy="182" r="2" fill="#FAFCFE"/>
<circle cx="146" cy="182" r="2" fill="#FAFCFE"/>
<circle cx="158" cy="182" r="2" fill="#FAFCFE"/>
<circle cx="170" cy="182" r="2" fill="#FAFCFE"/>
<circle cx="182" cy="182" r="2" fill="#FAFCFE"/>
<circle cx="98" cy="194" r="2" fill="#FAFCFE"/>
<circle cx="110" cy="194" r="2" fill="#FAFCFE"/>
<circle cx="122" cy="194" r="2" fill="#FAFCFE"/>
<circle cx="134" cy="194" r="2" fill="#FAFCFE"/>
<circle cx="146" cy="194" r="2" fill="#FAFCFE"/>
<circle cx="158" cy="194" r="2" fill="#FAFCFE"/>
<circle cx="170" cy="194" r="2" fill="#FAFCFE"/>
<circle cx="182" cy="194" r="2" fill="#FAFCFE"/>
<circle cx="98" cy="206" r="2" fill="#FAFCFE"/>
<circle cx="110" cy="206" r="2" fill="#FAFCFE"/>
<circle cx="122" cy="206" r="2" fill="#FAFCFE"/>
<circle cx="134" cy="206" r="2" fill="#FAFCFE"/>
<circle cx="146" cy="206" r="2" fill="#FAFCFE"/>
<circle cx="158" cy="206" r="2" fill="#FAFCFE"/>
<circle cx="170" cy="206" r="2" fill="#FAFCFE"/>
<circle cx="182" cy="206" r="2" fill="#FAFCFE"/>
<circle cx="98" cy="218" r="2" fill="#FAFCFE"/>
<circle cx="110" cy="218" r="2" fill="#FAFCFE"/>
<circle cx="122" cy="218" r="2" fill="#FAFCFE"/>
<circle cx="134" cy="218" r="2" fill="#FAFCFE"/>
<circle cx="146" cy="218" r="2" fill="#FAFCFE"/>
<circle cx="158" cy="218" r="2" fill="#FAFCFE"/>
<circle cx="170" cy="218" r="2" fill="#FAFCFE"/>
<circle cx="182" cy="218" r="2" fill="#FAFCFE"/>
<circle cx="98" cy="230" r="2" fill="#FAFCFE"/>
<circle cx="110" cy="230" r="2" fill="#FAFCFE"/>
<circle cx="122" cy="230" r="2" fill="#FAFCFE"/>
<circle cx="134" cy="230" r="2" fill="#FAFCFE"/>
<circle cx="146" cy="230" r="2" fill="#FAFCFE"/>
<circle cx="158" cy="230" r="2" fill="#FAFCFE"/>
<circle cx="170" cy="230" r="2" fill="#FAFCFE"/>
<circle cx="182" cy="230" r="2" fill="#FAFCFE"/>
<circle cx="98" cy="242" r="2" fill="#FAFCFE"/>
<circle cx="110" cy="242" r="2" fill="#FAFCFE"/>
<circle cx="122" cy="242" r="2" fill="#FAFCFE"/>
<circle cx="134" cy="242" r="2" fill="#FAFCFE"/>
<circle cx="146" cy="242" r="2" fill="#FAFCFE"/>
<circle cx="158" cy="242" r="2" fill="#FAFCFE"/>
<circle cx="170" cy="242" r="2" fill="#FAFCFE"/>
<circle cx="182" cy="242" r="2" fill="#FAFCFE"/>
<circle cx="98" cy="254" r="2" fill="#FAFCFE"/>
<circle cx="110" cy="254" r="2" fill="#FAFCFE"/>
<circle cx="122" cy="254" r="2" fill="#FAFCFE"/>
<circle cx="134" cy="254" r="2" fill="#FAFCFE"/>
<circle cx="146" cy="254" r="2" fill="#FAFCFE"/>
<circle cx="158" cy="254" r="2" fill="#FAFCFE"/>
<circle cx="170" cy="254" r="2" fill="#FAFCFE"/>
<circle cx="182" cy="254" r="2" fill="#FAFCFE"/>
<circle cx="98" cy="266" r="2" fill="#FAFCFE"/>
<circle cx="110" cy="266" r="2" fill="#FAFCFE"/>
<circle cx="122" cy="266" r="2" fill="#FAFCFE"/>
<circle cx="134" cy="266" r="2" fill="#FAFCFE"/>
<circle cx="146" cy="266" r="2" fill="#FAFCFE"/>
<circle cx="158" cy="266" r="2" fill="#FAFCFE"/>
<circle cx="170" cy="266" r="2" fill="#FAFCFE"/>
<circle cx="182" cy="266" r="2" fill="#FAFCFE"/>
<circle cx="98" cy="278" r="2" fill="#FAFCFE"/>
<circle cx="110" cy="278" r="2" fill="#FAFCFE"/>
<circle cx="122" cy="278" r="2" fill="#FAFCFE"/>
<circle cx="134" cy="278" r="2" fill="#FAFCFE"/>
<circle cx="146" cy="278" r="2" fill="#FAFCFE"/>
<circle cx="158" cy="278" r="2" fill="#FAFCFE"/>
<circle cx="170" cy="278" r="2" fill="#FAFCFE"/>
<circle cx="182" cy="278" r="2" fill="#FAFCFE"/>
<circle cx="98" cy="290" r="2" fill="#FAFCFE"/>
<circle cx="110" cy="290" r="2" fill="#FAFCFE"/>
<circle cx="122" cy="290" r="2" fill="#FAFCFE"/>
<circle cx="134" cy="290" r="2" fill="#FAFCFE"/>
<circle cx="146" cy="290" r="2" fill="#FAFCFE"/>
<circle cx="158" cy="290" r="2" fill="#FAFCFE"/>
<circle cx="170" cy="290" r="2" fill="#FAFCFE"/>
<circle cx="182" cy="290" r="2" fill="#FAFCFE"/>
<circle cx="98" cy="302" r="2" fill="#FAFCFE"/>
<circle cx="110" cy="302" r="2" fill="#FAFCFE"/>
<circle cx="122" cy="302" r="2" fill="#FAFCFE"/>
<circle cx="134" cy="302" r="2" fill="#FAFCFE"/>
<circle cx="146" cy="302" r="2" fill="#FAFCFE"/>
<circle cx="158" cy="302" r="2" fill="#FAFCFE"/>
<circle cx="170" cy="302" r="2" fill="#FAFCFE"/>
<circle cx="182" cy="302" r="2" fill="#FAFCFE"/>
<circle cx="98" cy="314" r="2" fill="#FAFCFE"/>
<circle cx="110" cy="314" r="2" fill="#FAFCFE"/>
<circle cx="122" cy="314" r="2" fill="#FAFCFE"/>
<circle cx="134" cy="314" r="2" fill="#FAFCFE"/>
<circle cx="146" cy="314" r="2" fill="#FAFCFE"/>
<circle cx="158" cy="314" r="2" fill="#FAFCFE"/>
<circle cx="170" cy="314" r="2" fill="#FAFCFE"/>
<circle cx="182" cy="314" r="2" fill="#FAFCFE"/>
<circle cx="98" cy="326" r="2" fill="#FAFCFE"/>
<circle cx="110" cy="326" r="2" fill="#FAFCFE"/>
<circle cx="122" cy="326" r="2" fill="#FAFCFE"/>
<circle cx="134" cy="326" r="2" fill="#FAFCFE"/>
<circle cx="146" cy="326" r="2" fill="#FAFCFE"/>
<circle cx="158" cy="326" r="2" fill="#FAFCFE"/>
<circle cx="170" cy="326" r="2" fill="#FAFCFE"/>
<circle cx="182" cy="326" r="2" fill="#FAFCFE"/>
<circle cx="98" cy="338" r="2" fill="#FAFCFE"/>
<circle cx="110" cy="338" r="2" fill="#FAFCFE"/>
<circle cx="122" cy="338" r="2" fill="#FAFCFE"/>
<circle cx="134" cy="338" r="2" fill="#FAFCFE"/>
<circle cx="146" cy="338" r="2" fill="#FAFCFE"/>
<circle cx="158" cy="338" r="2" fill="#FAFCFE"/>
<circle cx="170" cy="338" r="2" fill="#FAFCFE"/>
<circle cx="182" cy="338" r="2" fill="#FAFCFE"/>
<circle cx="98" cy="350" r="2" fill="#FAFCFE"/>
<circle cx="110" cy="350" r="2" fill="#FAFCFE"/>
<circle cx="122" cy="350" r="2" fill="#FAFCFE"/>
<circle cx="134" cy="350" r="2" fill="#FAFCFE"/>
<circle cx="146" cy="350" r="2" fill="#FAFCFE"/>
<circle cx="158" cy="350" r="2" fill="#FAFCFE"/>
<circle cx="170" cy="350" r="2" fill="#FAFCFE"/>
<circle cx="182" cy="350" r="2" fill="#FAFCFE"/>
<circle cx="98" cy="362" r="2" fill="#FAFCFE"/>
<circle cx="110" cy="362" r="2" fill="#FAFCFE"/>
<circle cx="122" cy="362" r="2" fill="#FAFCFE"/>
<circle cx="134" cy="362" r="2" fill="#FAFCFE"/>
<circle cx="146" cy="362" r="2" fill="#FAFCFE"/>
<circle cx="158" cy="362" r="2" fill="#FAFCFE"/>
<circle cx="170" cy="362" r="2" fill="#FAFCFE"/>
<circle cx="182" cy="362" r="2" fill="#FAFCFE"/>
<circle cx="98" cy="374" r="2" fill="#FAFCFE"/>
<circle cx="110" cy="374" r="2" fill="#FAFCFE"/>
<circle cx="122" cy="374" r="2" fill="#FAFCFE"/>
<circle cx="134" cy="374" r="2" fill="#FAFCFE"/>
<circle cx="146" cy="374" r="2" fill="#FAFCFE"/>
<circle cx="158" cy="374" r="2" fill="#FAFCFE"/>
<circle cx="170" cy="374" r="2" fill="#FAFCFE"/>
<circle cx="182" cy="374" r="2" fill="#FAFCFE"/>
<circle cx="98" cy="386" r="2" fill="#FAFCFE"/>
<circle cx="110" cy="386" r="2" fill="#FAFCFE"/>
<circle cx="122" cy="386" r="2" fill="#FAFCFE"/>
<circle cx="134" cy="386" r="2" fill="#FAFCFE"/>
<circle cx="146" cy="386" r="2" fill="#FAFCFE"/>
<circle cx="158" cy="386" r="2" fill="#FAFCFE"/>
<circle cx="170" cy="386" r="2" fill="#FAFCFE"/>
<circle cx="182" cy="386" r="2" fill="#FAFCFE"/>
<circle cx="98" cy="398" r="2" fill="#FAFCFE"/>
<circle cx="110" cy="398" r="2" fill="#FAFCFE"/>
<circle cx="122" cy="398" r="2" fill="#FAFCFE"/>
<circle cx="134" cy="398" r="2" fill="#FAFCFE"/>
<circle cx="146" cy="398" r="2" fill="#FAFCFE"/>
<circle cx="158" cy="398" r="2" fill="#FAFCFE"/>
<circle cx="170" cy="398" r="2" fill="#FAFCFE"/>
<circle cx="182" cy="398" r="2" fill="#FAFCFE"/>
<circle cx="98" cy="410" r="2" fill="#FAFCFE"/>
<circle cx="110" cy="410" r="2" fill="#FAFCFE"/>
<circle cx="122" cy="410" r="2" fill="#FAFCFE"/>
<circle cx="134" cy="410" r="2" fill="#FAFCFE"/>
<circle cx="146" cy="410" r="2" fill="#FAFCFE"/>
<circle cx="158" cy="410" r="2" fill="#FAFCFE"/>
<circle cx="170" cy="410" r="2" fill="#FAFCFE"/>
<circle cx="182" cy="410" r="2" fill="#FAFCFE"/>
<circle cx="98" cy="422" r="2" fill="#FAFCFE"/>
<circle cx="110" cy="422" r="2" fill="#FAFCFE"/>
<circle cx="122" cy="422" r="2" fill="#FAFCFE"/>
<circle cx="134" cy="422" r="2" fill="#FAFCFE"/>
<circle cx="146" cy="422" r="2" fill="#FAFCFE"/>
<circle cx="158" cy="422" r="2" fill="#FAFCFE"/>
<circle cx="170" cy="422" r="2" fill="#FAFCFE"/>
<circle cx="182" cy="422" r="2" fill="#FAFCFE"/>
<circle cx="98" cy="434" r="2" fill="#FAFCFE"/>
<circle cx="110" cy="434" r="2" fill="#FAFCFE"/>
<circle cx="122" cy="434" r="2" fill="#FAFCFE"/>
<circle cx="134" cy="434" r="2" fill="#FAFCFE"/>
<circle cx="146" cy="434" r="2" fill="#FAFCFE"/>
<circle cx="158" cy="434" r="2" fill="#FAFCFE"/>
<circle cx="170" cy="434" r="2" fill="#FAFCFE"/>
<circle cx="182" cy="434" r="2" fill="#FAFCFE"/>
<circle cx="98" cy="446" r="2" fill="#FAFCFE"/>
<circle cx="110" cy="446" r="2" fill="#FAFCFE"/>
<circle cx="122" cy="446" r="2" fill="#FAFCFE"/>
<circle cx="134" cy="446" r="2" fill="#FAFCFE"/>
<circle cx="146" cy="446" r="2" fill="#FAFCFE"/>
<circle cx="158" cy="446" r="2" fill="#FAFCFE"/>
<circle cx="170" cy="446" r="2" fill="#FAFCFE"/>
<circle cx="182" cy="446" r="2" fill="#FAFCFE"/>
<circle cx="98" cy="458" r="2" fill="#FAFCFE"/>
<circle cx="110" cy="458" r="2" fill="#FAFCFE"/>
<circle cx="122" cy="458" r="2" fill="#FAFCFE"/>
<circle cx="134" cy="458" r="2" fill="#FAFCFE"/>
<circle cx="146" cy="458" r="2" fill="#FAFCFE"/>
<circle cx="158" cy="458" r="2" fill="#FAFCFE"/>
<circle cx="170" cy="458" r="2" fill="#FAFCFE"/>
<circle cx="182" cy="458" r="2" fill="#FAFCFE"/>
</g>
</svg>
