<svg width="88" height="28" viewBox="0 0 88 28" fill="none" xmlns="http://www.w3.org/2000/svg">
<circle cx="2" cy="2" r="2" fill="#FFD05A"/>
<circle cx="14" cy="2" r="2" fill="#FFD05A"/>
<circle cx="26" cy="2" r="2" fill="#FFD05A"/>
<circle cx="38" cy="2" r="2" fill="#FFD05A"/>
<circle cx="50" cy="2" r="2" fill="#FFD05A"/>
<circle cx="62" cy="2" r="2" fill="#FFD05A"/>
<circle cx="74" cy="2" r="2" fill="#FFD05A"/>
<circle cx="86" cy="2" r="2" fill="#FFD05A"/>
<circle cx="2" cy="14" r="2" fill="#FFD05A"/>
<circle cx="14" cy="14" r="2" fill="#FFD05A"/>
<circle cx="26" cy="14" r="2" fill="#FFD05A"/>
<circle cx="38" cy="14" r="2" fill="#FFD05A"/>
<circle cx="50" cy="14" r="2" fill="#FFD05A"/>
<circle cx="62" cy="14" r="2" fill="#FFD05A"/>
<circle cx="74" cy="14" r="2" fill="#FFD05A"/>
<circle cx="86" cy="14" r="2" fill="#FFD05A"/>
<circle cx="2" cy="26" r="2" fill="#FFD05A"/>
<circle cx="14" cy="26" r="2" fill="#FFD05A"/>
<circle cx="26" cy="26" r="2" fill="#FFD05A"/>
<circle cx="38" cy="26" r="2" fill="#FFD05A"/>
<circle cx="50" cy="26" r="2" fill="#FFD05A"/>
<circle cx="62" cy="26" r="2" fill="#FFD05A"/>
<circle cx="74" cy="26" r="2" fill="#FFD05A"/>
<circle cx="86" cy="26" r="2" fill="#FFD05A"/>
</svg>
