<svg width="184" height="59" viewBox="0 0 184 59" fill="none" xmlns="http://www.w3.org/2000/svg">
<circle cx="2" cy="2" r="2" fill="#FFD05A"/>
<circle cx="14" cy="2" r="2" fill="#FFD05A"/>
<circle cx="26" cy="2" r="2" fill="#FFD05A"/>
<circle cx="38" cy="2" r="2" fill="#FFD05A"/>
<circle cx="50" cy="2" r="2" fill="#FFD05A"/>
<circle cx="62" cy="2" r="2" fill="#FFD05A"/>
<circle cx="74" cy="2" r="2" fill="#FFD05A"/>
<circle cx="86" cy="2" r="2" fill="#FFD05A"/>
<circle cx="2" cy="14" r="2" fill="#FFD05A"/>
<circle cx="14" cy="14" r="2" fill="#FFD05A"/>
<circle cx="26" cy="14" r="2" fill="#FFD05A"/>
<circle cx="38" cy="14" r="2" fill="#FFD05A"/>
<circle cx="50" cy="14" r="2" fill="#FFD05A"/>
<circle cx="62" cy="14" r="2" fill="#FFD05A"/>
<circle cx="74" cy="14" r="2" fill="#FFD05A"/>
<circle cx="86" cy="14" r="2" fill="#FFD05A"/>
<circle cx="2" cy="26" r="2" fill="#FFD05A"/>
<circle cx="14" cy="26" r="2" fill="#FFD05A"/>
<circle cx="26" cy="26" r="2" fill="#FFD05A"/>
<circle cx="38" cy="26" r="2" fill="#FFD05A"/>
<circle cx="50" cy="26" r="2" fill="#FFD05A"/>
<circle cx="62" cy="26" r="2" fill="#FFD05A"/>
<circle cx="74" cy="26" r="2" fill="#FFD05A"/>
<circle cx="86" cy="26" r="2" fill="#FFD05A"/>
<circle cx="2" cy="38" r="2" fill="#FFD05A"/>
<circle cx="14" cy="38" r="2" fill="#FFD05A"/>
<circle cx="26" cy="38" r="2" fill="#FFD05A"/>
<circle cx="38" cy="38" r="2" fill="#FFD05A"/>
<circle cx="50" cy="38" r="2" fill="#FFD05A"/>
<circle cx="62" cy="38" r="2" fill="#FFD05A"/>
<circle cx="74" cy="38" r="2" fill="#FFD05A"/>
<circle cx="86" cy="38" r="2" fill="#FFD05A"/>
<circle cx="2" cy="50" r="2" fill="#FFD05A"/>
<circle cx="14" cy="50" r="2" fill="#FFD05A"/>
<circle cx="26" cy="50" r="2" fill="#FFD05A"/>
<circle cx="38" cy="50" r="2" fill="#FFD05A"/>
<circle cx="50" cy="50" r="2" fill="#FFD05A"/>
<circle cx="62" cy="50" r="2" fill="#FFD05A"/>
<circle cx="74" cy="50" r="2" fill="#FFD05A"/>
<circle cx="86" cy="50" r="2" fill="#FFD05A"/>
<circle cx="98" cy="2" r="2" fill="#FFD05A"/>
<circle cx="110" cy="2" r="2" fill="#FFD05A"/>
<circle cx="122" cy="2" r="2" fill="#FFD05A"/>
<circle cx="134" cy="2" r="2" fill="#FFD05A"/>
<circle cx="146" cy="2" r="2" fill="#FFD05A"/>
<circle cx="158" cy="2" r="2" fill="#FFD05A"/>
<circle cx="170" cy="2" r="2" fill="#FFD05A"/>
<circle cx="182" cy="2" r="2" fill="#FFD05A"/>
<circle cx="98" cy="14" r="2" fill="#FFD05A"/>
<circle cx="110" cy="14" r="2" fill="#FFD05A"/>
<circle cx="122" cy="14" r="2" fill="#FFD05A"/>
<circle cx="134" cy="14" r="2" fill="#FFD05A"/>
<circle cx="146" cy="14" r="2" fill="#FFD05A"/>
<circle cx="158" cy="14" r="2" fill="#FFD05A"/>
<circle cx="170" cy="14" r="2" fill="#FFD05A"/>
<circle cx="182" cy="14" r="2" fill="#FFD05A"/>
<circle cx="98" cy="26" r="2" fill="#FFD05A"/>
<circle cx="110" cy="26" r="2" fill="#FFD05A"/>
<circle cx="122" cy="26" r="2" fill="#FFD05A"/>
<circle cx="134" cy="26" r="2" fill="#FFD05A"/>
<circle cx="146" cy="26" r="2" fill="#FFD05A"/>
<circle cx="158" cy="26" r="2" fill="#FFD05A"/>
<circle cx="170" cy="26" r="2" fill="#FFD05A"/>
<circle cx="182" cy="26" r="2" fill="#FFD05A"/>
<circle cx="98" cy="38" r="2" fill="#FFD05A"/>
<circle cx="110" cy="38" r="2" fill="#FFD05A"/>
<circle cx="122" cy="38" r="2" fill="#FFD05A"/>
<circle cx="134" cy="38" r="2" fill="#FFD05A"/>
<circle cx="146" cy="38" r="2" fill="#FFD05A"/>
<circle cx="158" cy="38" r="2" fill="#FFD05A"/>
<circle cx="170" cy="38" r="2" fill="#FFD05A"/>
<circle cx="182" cy="38" r="2" fill="#FFD05A"/>
<circle cx="98" cy="50" r="2" fill="#FFD05A"/>
<circle cx="110" cy="50" r="2" fill="#FFD05A"/>
<circle cx="122" cy="50" r="2" fill="#FFD05A"/>
<circle cx="134" cy="50" r="2" fill="#FFD05A"/>
<circle cx="146" cy="50" r="2" fill="#FFD05A"/>
<circle cx="158" cy="50" r="2" fill="#FFD05A"/>
<circle cx="170" cy="50" r="2" fill="#FFD05A"/>
<circle cx="182" cy="50" r="2" fill="#FFD05A"/>
</svg>
