<svg xmlns="http://www.w3.org/2000/svg" xmlns:xlink="http://www.w3.org/1999/xlink" viewBox="0 0 393.55 298.48"><defs><style>.cls-1{fill:none;}.cls-2{fill:#2fc3cb;}.cls-3{fill:#fafdff;}.cls-4{fill:#ffd05a;}.cls-5{fill:url(#dot-turquoise);}</style><pattern id="dot-turquoise" data-name="dot-turquoise" width="28" height="28" patternTransform="translate(60.44 58.75) scale(0.34)" patternUnits="userSpaceOnUse" viewBox="0 0 28 28"><rect class="cls-1" width="28" height="28"/><circle class="cls-2" cx="21" cy="28" r="6"/><circle class="cls-2" cx="7" cy="28" r="6"/><circle class="cls-2" cx="28" cy="14" r="6"/><circle class="cls-2" cx="14" cy="14" r="6"/><circle class="cls-2" cy="14" r="6"/><circle class="cls-2" cx="21" r="6"/><circle class="cls-2" cx="7" r="6"/></pattern></defs><g id="Layer_2" data-name="Layer 2"><g id="Layer_1-2" data-name="Layer 1"><path class="cls-3" d="M128.73,298.48c-18.69,0-36-3.51-51.37-10.42a111.79,111.79,0,0,1-38-28.09,134.2,134.2,0,0,1-17.65-25.41A171.8,171.8,0,0,1,6.75,195.81,222.54,222.54,0,0,1,0,140.5a157.49,157.49,0,0,1,9-52C15.7,69.61,25.7,53.24,38.69,39.87A118.13,118.13,0,0,1,72.11,15.76C90.2,7,111,2.55,133.77,2.55h.1A84.14,84.14,0,0,1,153.7,4.88c1.52.37,3.45,1.72,4,6.08a29.42,29.42,0,0,1-.85,9.86c-1.73,7.14-5.5,13.85-10,12.76a54.78,54.78,0,0,0-12.91-1.5c-15.65,0-30,2.51-42.52,7.47A89.53,89.53,0,0,0,61.64,58.68,95.52,95.52,0,0,0,47.57,76.11a113.26,113.26,0,0,0-12.34,27,127.53,127.53,0,0,0-5.7,37.41,195.08,195.08,0,0,0,5.64,47.24c3.93,15.63,9.77,29.43,17.36,41a93.13,93.13,0,0,0,18.14,20.62,81.31,81.31,0,0,0,33.22,16.7A104.06,104.06,0,0,0,128.8,269a44.27,44.27,0,0,0,13.3-2.09,53.32,53.32,0,0,0,12.77-6.12,77,77,0,0,0,22.24-23A99.36,99.36,0,0,0,192.74,185c0-1.08,0-2.16-.06-3.23a79.84,79.84,0,0,1-8.1,7.69A64.34,64.34,0,0,1,161,202a63.46,63.46,0,0,1-17.16,2.32h-.06a59.11,59.11,0,0,1-17.67-2.67,56.91,56.91,0,0,1-15.49-7.54A58,58,0,0,1,89.74,167.7a61.94,61.94,0,0,1-4.36-23A62.72,62.72,0,0,1,89,124.22a68.33,68.33,0,0,1,10.54-19.43,61.13,61.13,0,0,1,11.12-11,54.86,54.86,0,0,1,20.11-9.7,56.91,56.91,0,0,1,13.73-1.66h0a55.28,55.28,0,0,1,17.82,3,61.88,61.88,0,0,1,15.21,7.74c8.24,5.71,15.53,13.28,22.29,23.14,1.58,2.32,3.12,4.74,4.6,7.26,1.57-.74,3.18-1.42,4.85-2a57.15,57.15,0,0,1,19.53-3.39c46.43,0,68,48.51,86.95,91.31,12.67,28.56,24.64,55.53,41.9,60.5,5,1.45,7.76,6.46,6.81,12.46-1.3,8.11-9.07,16.62-23.1,16.11-24.06-.85-37.28-35.61-51.27-72.41C275.45,187.47,260.29,147.6,232,147.6c-5.29,0-10.16,2.16-14.53,5.35.28.89.55,1.79.81,2.67a95.27,95.27,0,0,1,2.45,10.55A114.41,114.41,0,0,1,222.27,185,128.32,128.32,0,0,1,196.89,261a107.29,107.29,0,0,1-18,18.78,84.37,84.37,0,0,1-30.23,16,73,73,0,0,1-19.84,2.77Zm5-293.74c-22.49,0-42.92,4.37-60.71,13a116,116,0,0,0-32.8,23.66C27.49,54.54,17.66,70.64,11,89.25A154.64,154.64,0,0,0,2.19,140.5a220.48,220.48,0,0,0,6.68,54.76,169.07,169.07,0,0,0,14.72,38.26,131.56,131.56,0,0,0,17.36,25,109.58,109.58,0,0,0,37.31,27.54c15.13,6.8,32.17,10.21,50.53,10.23h0a71,71,0,0,0,19.25-2.68A82.15,82.15,0,0,0,177.51,278a104.69,104.69,0,0,0,17.63-18.4A126.08,126.08,0,0,0,220.08,185a113.11,113.11,0,0,0-1.51-18.5,93.49,93.49,0,0,0-2.41-10.31c-.17-.62-.36-1.23-.55-1.85-6.77,5.54-12.18,13.29-15.77,18.43-1.21,1.73-2.25,3.22-3.08,4.25-.66.83-1.33,1.63-2,2.42.11,1.84.17,3.69.17,5.56a101.53,101.53,0,0,1-16,53.87,79.12,79.12,0,0,1-22.89,23.67,55,55,0,0,1-13.3,6.36,46.45,46.45,0,0,1-14,2.2,106.87,106.87,0,0,1-25.43-2.95,83.4,83.4,0,0,1-34.1-17.14A95.39,95.39,0,0,1,50.7,229.94C43,218.16,37,204.14,33,188.27a198.4,198.4,0,0,1-5.7-47.77,129.52,129.52,0,0,1,5.81-38A115,115,0,0,1,45.72,74.94a97.65,97.65,0,0,1,14.4-17.83,91.82,91.82,0,0,1,30.41-19.6c12.82-5,27.39-7.62,43.32-7.62a57.46,57.46,0,0,1,13.42,1.56c1.61.4,3.18-1.52,4-2.7a27.54,27.54,0,0,0,3.43-8.45c1.66-6.85,1-12.69-1.48-13.3a82.5,82.5,0,0,0-19.32-2.26ZM232,145.41c29.81,0,45.24,40.59,60.17,79.85,13.73,36.1,26.7,70.2,49.3,71,12.72.44,19.72-7.08,20.87-14.27.78-4.94-1.28-8.87-5.25-10-18.24-5.25-29.85-31.41-43.3-61.71-18.72-42.19-39.94-90-84.95-90A55.14,55.14,0,0,0,210,123.52q-2.31.84-4.5,1.88c1.51,2.67,3,5.45,4.32,8.3a148.51,148.51,0,0,1,6.9,17.06C221.3,147.57,226.4,145.41,232,145.41ZM143.8,202.08h0a60.63,60.63,0,0,0,39.35-14.27,78.76,78.76,0,0,0,9.32-9.09c-.19-2.6-.49-5.17-.91-7.68a71.06,71.06,0,0,0-2.09-8.54,114.35,114.35,0,0,0-4.12-11.27c-.51-1.2-1-2.39-1.59-3.56-1.57,2.62-3.35,5.47-5.37,8.31a71.47,71.47,0,0,1-6.54,8,44.16,44.16,0,0,1-12.16,9.25,34.58,34.58,0,0,1-7.3,2.67,36.86,36.86,0,0,1-8.62,1,31.65,31.65,0,0,1-12.42-2.48A30,30,0,0,1,118,163a33.87,33.87,0,0,1-5.23-18.36A35.73,35.73,0,0,1,114.88,133a41.73,41.73,0,0,1,4.49-9,36.33,36.33,0,0,1,4.76-5.82,29.63,29.63,0,0,1,9-6.14,28.91,28.91,0,0,1,20.61-.76,34.39,34.39,0,0,1,7.53,3.76,54.52,54.52,0,0,1,12.27,11.51,96.2,96.2,0,0,1,10.5,16.5l0-.07c.91-1.55,1.76-3,2.66-4.45.52-.82,1.15-1.81,1.94-2.89a24.06,24.06,0,0,1,3.15-3.6,50.51,50.51,0,0,1,10.71-7.56c-1.43-2.43-2.92-4.78-4.45-7-6.61-9.63-13.71-17-21.73-22.57a59.43,59.43,0,0,0-14.67-7.47,53.07,53.07,0,0,0-17.11-2.84h0a54.47,54.47,0,0,0-13.2,1.6A52.61,52.61,0,0,0,112,95.49a58.34,58.34,0,0,0-10.71,10.65,65.81,65.81,0,0,0-10.2,18.8,60.5,60.5,0,0,0-3.49,19.74,59.69,59.69,0,0,0,4.2,22.21,55.83,55.83,0,0,0,20.09,25.37,54.92,54.92,0,0,0,14.9,7.26,57.12,57.12,0,0,0,17,2.56Zm41.35-56.69q1.18,2.46,2.25,5a115.49,115.49,0,0,1,4.2,11.5,73.29,73.29,0,0,1,2.16,8.81q.47,2.81.75,5.69l.55-.68c.78-1,1.8-2.44,3-4.13,3.8-5.43,9.54-13.65,16.87-19.42a145.08,145.08,0,0,0-7-17.49q-2-4.28-4.31-8.28a48.35,48.35,0,0,0-10.31,7.28,21.79,21.79,0,0,0-2.88,3.29c-.74,1-1.35,2-1.85,2.75-.87,1.41-1.72,2.86-2.62,4.4l-.63,1.07ZM144.5,111.92A26.27,26.27,0,0,0,134,114a27.6,27.6,0,0,0-8.28,5.7,34.5,34.5,0,0,0-4.48,5.47,39.81,39.81,0,0,0-4.25,8.54,33.93,33.93,0,0,0-2,10.93,31.64,31.64,0,0,0,4.88,17.18,27.89,27.89,0,0,0,12.46,10.58,29.34,29.34,0,0,0,11.56,2.3,34.64,34.64,0,0,0,8.11-.93,31.56,31.56,0,0,0,6.84-2.5,42,42,0,0,0,11.54-8.8,70.18,70.18,0,0,0,6.35-7.79c2.3-3.24,4.29-6.5,6-9.42a94.8,94.8,0,0,0-10.89-17.38,52.77,52.77,0,0,0-11.76-11,32.39,32.39,0,0,0-7-3.52A26,26,0,0,0,144.5,111.92Z"/><path class="cls-4" d="M193.87,59.42a2.93,2.93,0,0,1-1.79-.59A97,97,0,0,1,184,51.64c-2.17-2.07-4.22-4-6-5.5h0a135,135,0,0,1-12.65-10.21c-2.82-2.6-6.75-9.68-1.45-17.81A27.43,27.43,0,0,1,170.39,10c4.07-3.29,9.26-4.26,14.24-5,4.42-.63,9.51-1.48,14-3.67.35-.18.67-.32,1-.45l.07,0h0l.11-.05h0c2.14-.9,3.23-.88,3.77-.73a2.09,2.09,0,0,1,1.69,1.42c.56,1.72.8,5-3.77,7.7-1.93,1.14-3.7,2.08-5.12,2.84a23.67,23.67,0,0,0-3.9,2.31,5.34,5.34,0,0,0-1.84,3.51.69.69,0,0,0,.33.6c1.76,1.16,10.79,5.9,10.88,5.95a2.13,2.13,0,0,1,1.07,1.37l0,.06c0,.12.07.24.1.35a3.35,3.35,0,0,1-3.15,4.8l-.42.05a1.69,1.69,0,0,0-.79.29c0,.26.11.72.17,1.05s.15.8.19,1.16a4,4,0,0,1-3.26,4.64l-1,.22-.79.17a2.35,2.35,0,0,0,0,.75l.12.41a3.34,3.34,0,0,1-3.16,4.79l-.42,0c-.16,0-.44,0-.76.07s-.51,0-.83.06c1.92,2.21,6,6.82,7.69,8.42a3.34,3.34,0,0,1,.24,4.8A4,4,0,0,1,193.87,59.42Zm6.61-56.54-.92.43c-4.75,2.34-10,3.23-14.63,3.88s-9.53,1.55-13.17,4.49a25.32,25.32,0,0,0-6,7.48l-.06.11c-5.69,8.66.79,14.8,1.07,15.06a130.19,130.19,0,0,0,12.48,10.06c1.94,1.59,4,3.57,6.22,5.67a94.46,94.46,0,0,0,7.88,7c.51.38,1.33,0,1.8-.54a1.21,1.21,0,0,0-.05-1.81c-2.38-2.21-8.65-9.51-8.91-9.82l-.54-.62.45-.69c.6-.9,1.94-1.05,3.51-1.14.23,0,.43,0,.56,0l.5-.06c.8-.09,1.1-.15,1.35-.53s.19-.69,0-1.45c0-.16-.1-.33-.14-.49a3.87,3.87,0,0,1,.41-2.86c.3-.4.67-.47,2-.76l.93-.21a1.83,1.83,0,0,0,1.6-2.24c0-.32-.11-.68-.17-1a3.85,3.85,0,0,1,0-2.36,3.19,3.19,0,0,1,2.48-1.54l.51-.07c.79-.08,1.09-.15,1.34-.53s.2-.68,0-1.44c0-.16-.09-.32-.14-.48-.36-.22-9.19-4.85-11-6.07A2.87,2.87,0,0,1,188.42,18c-.16-1.9,1.21-4.07,2.54-5.3a23.52,23.52,0,0,1,4.35-2.64c1.48-.78,3.15-1.67,5-2.78,1.69-1,3.55-2.7,2.82-5.09h-.06l-.19,0a6.62,6.62,0,0,0-2.43.69Z"/><path class="cls-4" d="M373.61,147.87a16.17,16.17,0,0,1-3.23-.33,250.22,250.22,0,0,1-29.33-7.63,211.89,211.89,0,0,1-41.58-18.37,239.44,239.44,0,0,1-30.92-21l1.38-1.7a234.43,234.43,0,0,0,30.64,20.81,209.59,209.59,0,0,0,41.15,18.19,249.5,249.5,0,0,0,29.08,7.57,13.69,13.69,0,0,0,6.88-.35l.18,0a13.35,13.35,0,0,0,6.19-2.54,13,13,0,0,0,4.47-4.7l.1-.15a12.25,12.25,0,0,0,2.53-5.82c.41-2.88.57-8.36-2.91-12.61a18.65,18.65,0,0,0-11.19-6.72c-5.42-1-10.86-2.29-16.23-3.75v.06l-.05,0-4.55-1.35,0,0a212.55,212.55,0,0,1-34-14.33q-3.11-1.64-6.22-3.42l0,0h0l-4-2.41h0v0c-15.37-9.46-26.42-17.35-33.69-24.06l1.48-1.61c7.4,6.83,18.82,14.92,34.84,24.72,2.87,1.69,5.76,3.31,8.63,4.83A211.6,211.6,0,0,0,359,106c6.09,1.73,12.3,3.21,18.48,4.38a20.83,20.83,0,0,1,12.47,7.48c3,3.63,4.18,8.72,3.38,14.32a14.32,14.32,0,0,1-2.92,6.79,15,15,0,0,1-5.1,5.35,15.29,15.29,0,0,1-7,2.9A15.63,15.63,0,0,1,373.61,147.87Z"/><path class="cls-4" d="M261.44,71.51c-1.33,1.6-6.69,3.46-9.55,2.94-.35-.06-.95-.22-1.07-.56-.57-1.89,1.34-20.85,3-27.14a1,1,0,0,0-.75-1.27,1,1,0,0,0-1.28.75c-1.53,6-3.73,25.94-2.89,28.34a3.1,3.1,0,0,0,2.67,1.94,11.16,11.16,0,0,0,3.75-.1c3.08-.52,6.43-2,7.78-3.56a1,1,0,0,0-1.61-1.34Z"/><path class="cls-4" d="M280.93,46.46a5.09,5.09,0,0,0-.56,0V39h0v-.7s0,0,0-.05a27.62,27.62,0,0,0-55.22.75c0,.26,0,.52,0,.75V46.5a3.89,3.89,0,0,0-.49,0c-2.86,0-5.2,3.06-5.2,6.82A8.1,8.1,0,0,0,220.87,58a4.71,4.71,0,0,0,3.79,2.12,3.89,3.89,0,0,0,.49,0v27.3c0,8.89,19.39,21.77,27.61,21.77a8.75,8.75,0,0,0,1.49-.13c4.54-.77,10.88-4.66,15.28-8,2.54-2,10.84-8.72,10.84-13.6V60.05a3.43,3.43,0,0,0,.56,0,4,4,0,0,0,.69-.06,4.88,4.88,0,0,0,3.1-2.06,8.1,8.1,0,0,0,1.41-4.69C286.13,49.52,283.8,46.46,280.93,46.46ZM224.66,58a2.66,2.66,0,0,1-2.09-1.26,5.92,5.92,0,0,1-1-3.46c0-2.56,1.43-4.73,3.11-4.72a2,2,0,0,1,.49.06v9.31A2,2,0,0,1,224.66,58Zm53.61,29.35c0,2.53-4,7.33-10,11.94S256,107,252.76,107c-7.21,0-25.52-12.07-25.52-19.68V39.73c0-.24,0-.48,0-.72a25.56,25.56,0,0,1,21.21-25.16,25.67,25.67,0,0,1,4.31-.36,25.39,25.39,0,0,1,25.52,24.84h0v.11c0,.19,0,.38,0,.57v9s0,.07,0,.1ZM284,53.28a5.92,5.92,0,0,1-1,3.46A2.64,2.64,0,0,1,280.93,58a2.1,2.1,0,0,1-.56-.08V48.63a1.76,1.76,0,0,1,.56-.07C282.61,48.56,284,50.72,284,53.28Z"/><path class="cls-5" d="M282.2,31.43c6.09-.36,12.45-4.25,12.45-8,0-2.62-1.75-4.81-6.57-4.81S275.82,1.09,256,1.09c-11.09,0-19.26,11.36-19.26,11.36a6.88,6.88,0,0,0-6-3.07c-7,0-11.57,6-11.57,16.35,0,9.19,5.62,26.41,5.62,28.06V71.3s-1.6,13.58-1.6,19.42c0,9.49,16.86,21.6,21.54,21.6h16.06c4.67,0,21.54-12.11,21.54-21.6,0-5.84-1.61-19.42-1.61-19.42l.15-17.51Zm-4.33,22.36s-1,15.14-1,17.66c0,8-9.34,13.14-11.82,13.14-3.79,0-7.16-3.5-12.26-3.51s-8.47,3.51-12.27,3.51c-2.48,0-11.82-5.11-11.82-13.14,0-2.52-.93-17.66-.93-17.66l-.32-7.1s5.39-5.8,5.39-8.38-2.22-5.2-3.77-7.08a5.93,5.93,0,0,1,6.05-5.76c8,0,11.29,7.3,17.71,7.3s9.88-7.3,15-7.3c4.49,0,8.71,5.76,8.71,5.76-1.56,1.88-3.7,4.5-3.7,7.08s5.39,8.38,5.39,8.38l-.32,7.1Z"/></g></g></svg>