<svg xmlns="http://www.w3.org/2000/svg" viewBox="0 0 871 276"><defs><style>.cls-1{fill:#262b62;}.cls-2{fill:#ffd05a;}.cls-3{fill:none;}.cls-4{fill:#f3715d;}</style></defs><g id="Layer_2" data-name="Layer 2"><g id="Layer_1-2" data-name="Layer 1"><path class="cls-1" d="M215.79,109.78a2.14,2.14,0,0,1-.5-.06c-4.84-1.21-16.68-9.7-17.27-17.41-.86-11.24,5.56-19.9,11.25-26.19a2,2,0,1,1,3,2.71c-5.14,5.69-10.95,13.46-10.21,23.17.4,5.2,10,12.74,14.23,13.8a2,2,0,0,1-.49,4Z"/><path class="cls-1" d="M245.6,79.57a12,12,0,0,1-5.52-1.5c-3.08-1.66-4.69-4.1-4.31-6.54.67-4.33,17.53-28.06,21.93-29.69,2.33-.86,5.09-.1,7.36,2s3.49,5.32,2.75,7.8c-1.19,4-14.73,23.5-18,26.45A6.08,6.08,0,0,1,245.6,79.57Zm13.51-33.94c-3,1.41-18.69,22.94-19.35,26.52-.08.53.74,1.55,2.24,2.36,2.12,1.15,4.39,1.24,5.1.61,2.91-2.63,16-21.72,16.83-24.61.29-1-.42-2.54-1.64-3.69S260,45.33,259.11,45.63Z"/><path class="cls-1" d="M267,77a2,2,0,0,1-1.23-3.63c13.41-10.25,29.25-23.58,30.49-25.2a3.15,3.15,0,0,0-.41-3c-.64-1.08-1.81-2.11-3-2-2,.4-18.56,9.27-31.64,19.43a2,2,0,1,1-2.48-3.2c12.45-9.66,30.66-20,33.76-20.26a7.38,7.38,0,0,1,6.82,4c1.5,2.56,1.59,5.37.24,7.33-1.64,2.4-20.7,18-31.35,26.12A2,2,0,0,1,267,77Z"/><path class="cls-1" d="M231.29,77.18a12.76,12.76,0,0,1-4.71-.94c-3.08-1.26-4.86-3.44-4.74-5.81C222.05,66,236.91,40,241.31,37.8c2.25-1.15,5.2-.7,7.7,1.17s3.92,4.76,3.45,7.24c-.8,4.27-13.31,26.05-15.91,29A6.88,6.88,0,0,1,231.29,77.18ZM243.16,41.4c-2.91,1.78-16.95,25.52-17.28,29.23,0,.38.66,1.22,2.24,1.86,2.33,1,4.72.76,5.41,0,2.81-3.15,14.41-24.11,15-27,.17-.94-.63-2.3-1.9-3.26S244,41,243.16,41.4Z"/><path class="cls-1" d="M217.9,71.5a10.39,10.39,0,0,1-3.84-.76c-2.6-1.07-4.09-2.93-4-5,.17-3.49,12-24.13,15.49-25.92h0a6.2,6.2,0,0,1,6.49,1,6.47,6.47,0,0,1,2.87,6.1c-.64,3.44-10.36,20.43-12.56,22.89A5.81,5.81,0,0,1,217.9,71.5Zm9.52-28.07C225,45.09,214.5,62.93,214.1,66a4.05,4.05,0,0,0,2.4,1.3,3.47,3.47,0,0,0,2.83-.19c2.09-2.34,11.2-18.79,11.61-20.95A2.75,2.75,0,0,0,229.62,44,2.48,2.48,0,0,0,227.42,43.43Zm-.95-1.79h0Z"/><path class="cls-1" d="M233.87,112.43h-.14a126.49,126.49,0,0,1-18.44-2.71,2,2,0,1,1,1-3.92,122.41,122.41,0,0,0,17.34,2.56c12.58-4.1,26.34-9,28.32-10.27,1.32-2,1.95-14.56,2.25-20.61.22-4.43.37-7.17.6-8.65-1.39.32-4.41,1.76-7.9,5.08-1,1.08-1.36,8-.74,14.71a2,2,0,0,1-3.45,1.6c-.44-.43-10.85-10.73-20.12-3.73-8.89,6.72-5.76,11.23-5.62,11.42a2,2,0,0,1-.4,2.81,2,2,0,0,1-2.79-.33,8.32,8.32,0,0,1-1.43-6.09c.48-3.77,3.1-7.48,7.81-11,7.61-5.76,16.15-2.78,21.67,1-.18-5,.08-11.22,2.28-13.31,3.23-3.06,9.65-7.74,13.16-5.79.64.35,2.08,1.45,1.56,4-.22,1.13-.4,4.7-.59,8.47-.77,15.2-1.46,21.83-3.76,23.57-2.94,2.22-25.48,9.62-30,11.08A2,2,0,0,1,233.87,112.43Z"/><path class="cls-1" d="M547.18,109.4a10,10,0,0,1-1.42-.09,2,2,0,1,1,.55-4c4.32.6,16.05-2.8,18.36-7.47,4.32-8.72,1.84-18.11-.8-25.31a2,2,0,0,1,3.8-1.39c2.92,8,5.63,18.4.62,28.5C565.15,106,553,109.4,547.18,109.4Z"/><path class="cls-1" d="M533.17,70.77c-3.07,0-6.32-1.07-7.59-3.68-1.92-4-7.18-27.12-6.79-31.27.25-2.57,2.39-5,5.47-6.2,2.91-1.12,5.75-.8,7.59.88,3.47,3.15,10.22,31.47,9.22,35.74-.56,2.4-3,4.06-6.45,4.45A13.79,13.79,0,0,1,533.17,70.77ZM527.6,33a5.42,5.42,0,0,0-1.88.38c-1.56.61-2.8,1.82-2.9,2.81-.28,3,4.68,25.59,6.4,29.12.42.86,2.56,1.62,4.95,1.35,1.7-.19,2.84-.84,3-1.36.73-3.56-5.77-29.41-8-31.83A2.28,2.28,0,0,0,527.6,33Zm1.53.48h0Z"/><path class="cls-1" d="M510.81,59.78a2,2,0,0,1-1.74-1c-6.83-11.54-18.67-33.12-19.3-35.95-.51-2.33.63-4.9,3-6.71s5.49-2.37,7.83-1.17c2.77,1.41,15.79,17.8,23.72,31.42a2,2,0,0,1-3.5,2c-8.33-14.32-20.34-28.74-22.12-29.89-1-.51-2.46,0-3.46.8A3.13,3.13,0,0,0,493.72,22c.54,2,10.24,20.24,18.83,34.76a2,2,0,0,1-.71,2.77A2,2,0,0,1,510.81,59.78Z"/><path class="cls-1" d="M547.77,74c-3.43,0-7.62-1.47-8.79-4.71-1.32-3.68-4.77-28.56-3.91-32.82.49-2.47,2.81-4.6,5.91-5.42s5.92-.11,7.58,1.79h0c3.23,3.72,7.29,33.39,5.84,37.54-.78,2.24-3.24,3.59-6.58,3.61ZM543.45,34.8A5.8,5.8,0,0,0,542,35c-1.54.41-2.79,1.38-3,2.3-.58,2.91,2.33,26.69,3.76,30.66.34,1,2.47,2,5,2h0c1.71,0,2.65-.53,2.78-.9,1.07-3.56-3.05-30.83-5.08-33.57A2.7,2.7,0,0,0,543.45,34.8Z"/><path class="cls-1" d="M561.46,73.63c-2.83,0-6.31-1.24-7.3-4-1.11-3.11-3.77-22.5-3.08-25.93.42-2.1,2.37-3.9,4.95-4.59a6.24,6.24,0,0,1,6.38,1.55h0c2.57,3,5.81,26.53,4.65,29.83-.67,1.94-2.75,3.11-5.56,3.12Zm-3.39-30.72a3.93,3.93,0,0,0-1,.13,2.75,2.75,0,0,0-2,1.47c-.43,2.16,1.86,20.82,2.92,23.77.13.37,1,1,2.56,1.23a3.65,3.65,0,0,0,2.73-.36c.75-2.93-2.35-23.41-3.93-25.85A1.74,1.74,0,0,0,558.07,42.91Z"/><path class="cls-1" d="M546,109.33a1.27,1.27,0,0,1-.28,0,125.14,125.14,0,0,1-18.11-4.39,2.14,2.14,0,0,1-.68-.37c-3.61-3-21.75-18.34-23.64-21.51-1.49-2.47.36-8.88,5.34-23.25,1.23-3.57,2.4-6.95,2.62-8.08a3.44,3.44,0,0,1,2.95-3.16c4-.48,8.19,6.25,10,10.3,1.26,2.76-.84,8.66-2.87,13.19C528,70.6,537,71,541.89,79.22c3,5.06,4.07,9.48,3.11,13.16a8.36,8.36,0,0,1-3.61,5.11,2,2,0,1,1-2-3.52c.16-.1,4.75-3.1-1-12.67-6-10-19.48-4.31-20-4.07a2,2,0,0,1-2.6-2.78c3.1-6,5.36-12.53,4.82-13.92-2-4.38-4.26-6.85-5.42-7.66-.34,1.46-1.23,4.05-2.68,8.24-2,5.72-6.09,17.56-5.63,20,1.34,2,12.28,11.62,22.41,20.13a121.38,121.38,0,0,0,17,4.12,2,2,0,0,1-.27,4Z"/><path class="cls-2" d="M550.67,266.33c7.74-2.56,16.54-4.25,27.68-5.33q5.16-.5,10.44-.5a114.15,114.15,0,0,1,12.48.69,152.06,152.06,0,0,1,27.65,5.26,147.18,147.18,0,0,1,16.53,6.12q-2,1.71-4,3.43h6.22c.62-.53,1.23-1.06,1.86-1.58,1.09.5,2.17,1.05,3.26,1.58h8.71c-1.73-1-3.47-1.91-5.22-2.8-1.1-.55-2.2-1.1-3.31-1.63q6.39-5.2,13.19-10.29a309.19,309.19,0,0,1,35.35-22.86c3.69-2,7.57-4,11.32-5.88a197,197,0,0,0,18.79-10.31,2.06,2.06,0,0,0,1-.42l4.55-3.52.14-.11a2,2,0,0,0,.78-.61l1.63-2.11a2,2,0,0,0,1.13-1.09l.34-.81.11-.14a2.07,2.07,0,0,0,1-1.48l.18-1.4a2,2,0,0,0,.6-1.42l.06-.13a2,2,0,0,0-.19-1.92l.15-1.11a2,2,0,0,0-.62-1.74,1.87,1.87,0,0,0-.15-.8l-.07-.56a2,2,0,0,0-.7-1.27l-1.5-3.57a2.11,2.11,0,0,0-.69-.86l-3.13-4a2,2,0,0,0-.48-.45l-4.51-3.49a2.19,2.19,0,0,0-.82-.38l-5.24-2.21a2,2,0,0,0-1.39-.06l-1.51-.41a2,2,0,0,0-1.18-.59l-6-.8a2,2,0,0,0-1.24.23q-3.4-.1-6.92.08a1.92,1.92,0,0,0-1.09-.15l-6,.8h0a1.93,1.93,0,0,0-1,.41,132.62,132.62,0,0,0-20.35,6.16,2,2,0,0,0-.67.15l-5.37,2.27a2.06,2.06,0,0,0-.46.27c-4.42,2-8.79,4-13.07,6-9.45,4.43-19.22,9-29.17,12.6a100.54,100.54,0,0,1-18.18,4.82c-7.36,1.17-15.2,2.24-23.06,1.24l-1-.13a65.06,65.06,0,0,1-12.53-2.38,63,63,0,0,1-12.72-5.59A57.53,57.53,0,0,1,544,194.41l-.19-.26c-4.3-5.75-7-12.58-8.88-17.9-2.42-6.87-3.38-14.33-4.22-20.91-1.44-11.23-1-22.47-.38-32.07,1.91-.91,9.53-2.13,20.56-2.31,11.85-.21,18.82,1,20.41,1.92a192.59,192.59,0,0,0-.24,26.58,2,2,0,0,0-.1.94l.8,6a2.06,2.06,0,0,0,.44,1q.56,2.54,1.24,4.89a2,2,0,0,0,.1,1.31l2.16,5.12a1.93,1.93,0,0,0,.37.81L578,172a2,2,0,0,0,.76,1.29l.58.44.26.35a2,2,0,0,0,1.12.73l.62.47a2,2,0,0,0,1.07,1.06l.65.27.25.2a2.11,2.11,0,0,0,1.21.42l2.29,1a2,2,0,0,0,1,.43h0a2,2,0,0,0,1,.13l5,.67a2,2,0,0,0,1.39-.32q1.08,0,2.16,0a2,2,0,0,0,1.19.2l6-.8h0a1.92,1.92,0,0,0,1.05-.47,114.47,114.47,0,0,0,14.83-4.42,2.41,2.41,0,0,0,.78-.16l5.37-2.27a2,2,0,0,0,.49-.3c4-1.77,7.89-3.61,11.73-5.41,5.27-2.47,10.72-5,16.14-7.36,12.6-5.41,25-10.44,38.34-12.41a117,117,0,0,1,20.09-1.7,91.78,91.78,0,0,1,19.71,2.6,68.86,68.86,0,0,1,31.7,17.62,64.89,64.89,0,0,1,17,29.46,51.15,51.15,0,0,1,1.65,16.84,64.24,64.24,0,0,1-1.75,11.09,63.48,63.48,0,0,1-4.2,10.4,54.83,54.83,0,0,1-10.13,13.75,84.19,84.19,0,0,1-13.71,11,167.48,167.48,0,0,1-18.18,10.12l-4.81,2.44c-4.16,2.13-8.28,4.39-12.36,6.73h8.28q3-1.61,5.93-3.14l4.77-2.42a170,170,0,0,0,18.63-10.38,88.11,88.11,0,0,0,14.35-11.52,58.93,58.93,0,0,0,10.86-14.79,66.74,66.74,0,0,0,4.46-11.08,66.9,66.9,0,0,0,1.89-11.81,55.15,55.15,0,0,0-1.75-18.18,68.05,68.05,0,0,0-18.09-31.36A72.89,72.89,0,0,0,734,142.64a95.46,95.46,0,0,0-20.58-2.72,120,120,0,0,0-20.79,1.74c-13.8,2-26.49,7.17-39.35,12.7-5.48,2.36-11,4.92-16.26,7.41-4.7,2.2-9.54,4.47-14.4,6.6a109.6,109.6,0,0,1-21.71,6.42,58.86,58.86,0,0,1-9.35.14,44.5,44.5,0,0,1-4.74-1.26c-1.06-.56-2.1-1.16-3.1-1.82-.9-.82-1.76-1.68-2.58-2.59a44,44,0,0,1-2.73-4.76,70.2,70.2,0,0,1-3-11.85,176.56,176.56,0,0,1,0-30,3.37,3.37,0,0,0-1.78-3.11c-6.28-4-39.06-3.16-45.39.28a3.08,3.08,0,0,0-1.87,2.6c-.67,9.91-1.15,21.63.36,33.43.87,6.78,1.86,14.46,4.43,21.74,2,5.58,4.83,12.79,9.45,19l.19.26a68.31,68.31,0,0,0,8.32,9.77A70,70,0,0,0,560.27,215a67.37,67.37,0,0,0,13.52,6,70.79,70.79,0,0,0,13.29,2.55l1,.13c8.38,1.06,16.55,0,24.19-1.27a103.22,103.22,0,0,0,18.91-5c10.13-3.64,20-8.27,29.53-12.74,5.14-2.41,10.42-4.89,15.71-7.2a129.92,129.92,0,0,1,26.94-8.09,79.22,79.22,0,0,1,14.17-.14,58.88,58.88,0,0,1,8.71,2.32,45.66,45.66,0,0,1,4.81,2.76,45.27,45.27,0,0,1,3.72,3.74,46,46,0,0,1,2.64,4.47c.41,1.25.77,2.5,1,3.76,0,.78,0,1.55,0,2.32-.14.58-.29,1.15-.47,1.72-.44.81-.91,1.62-1.42,2.4a47.35,47.35,0,0,1-4.36,4.21c-6.63,4.68-14,8.4-21.24,12-3.79,1.9-7.71,3.86-11.47,5.95A312.79,312.79,0,0,0,663.74,258q-7.68,5.74-14.83,11.64a141.68,141.68,0,0,0-47.2-12.51A115.81,115.81,0,0,0,578,257c-11.45,1.11-20.52,2.87-28.56,5.53A120.78,120.78,0,0,0,521.24,276H529A118.25,118.25,0,0,1,550.67,266.33Z"/><path class="cls-2" d="M324,247a148.19,148.19,0,0,0-8.44-21.53c-4.81-10.22-11.63-20.54-20.86-31.56-6.7-8-14.77-15.46-26.18-24.19a145.92,145.92,0,0,0-26.29-16A180.09,180.09,0,0,0,208,141.43q3.1-2.91,6.51-6c.54-.5,1-.93,1.38-1.32l0,0h0c.81-.85,1.15-1.53.78-2.33-.32-10.86-11-19.23-21-23.49-8.6-3.64-19.3-5.31-23.78-.82q-2.44,2.43-4.9,4.85c-6.39,6.3-13,12.82-18.78,20-1.89,2.36-3.69,4.65-5.4,6.9-1.88.33-3.76.7-5.66,1.1-10.37,2.19-21.38,6-33.66,11.75a141.67,141.67,0,0,0-25.74,15.58c-11.21,8.51-19.29,15.83-26.18,23.7-16.28,18.6-27.93,39.27-34.65,61.43A146.36,146.36,0,0,0,12,276H16a141.16,141.16,0,0,1,4.76-22.08c6.55-21.61,17.93-41.78,33.82-59.94,6.71-7.67,14.6-14.81,25.59-23.15a137,137,0,0,1,25-15.13c12.16-5.66,22.58-9.31,32.79-11.46l1.27-.27a176.71,176.71,0,0,0-13.47,21.47,190.07,190.07,0,0,0-13.64,33q-3.82,2.35-7.53,5a2,2,0,0,0-.69.35h0l-4.51,3.48,0,0h0a2,2,0,0,0-.54.63,148.81,148.81,0,0,0-17.1,17.14,2,2,0,0,0-.58.51l-3.52,4.56a2.08,2.08,0,0,0-.36.73,143.09,143.09,0,0,0-11.61,19.76,2,2,0,0,0-.5.7l-2.27,5.38a2,2,0,0,0-.16.8A134.14,134.14,0,0,0,57.49,276H61.6a130.25,130.25,0,0,1,6.13-20.22,139.61,139.61,0,0,1,15-25.53,144.56,144.56,0,0,1,21.59-21.6q3-2.24,6.18-4.31a166.48,166.48,0,0,0-5.75,39,141.75,141.75,0,0,0,3,32.62h4.13a137.6,137.6,0,0,1-3.06-32.52,163.21,163.21,0,0,1,6.82-42.35,134.7,134.7,0,0,1,14.08-7.36A127.12,127.12,0,0,1,156,186.51q4.92-.52,9.9-.68-2.38,4.35-4.49,8.79a1.93,1.93,0,0,0-.45.66l-2.26,5.36h0a2.08,2.08,0,0,0-.16.72A156.61,156.61,0,0,0,151.15,228a2,2,0,0,0-.27.77l-.8,5.93v0h0a1.9,1.9,0,0,0,.07.89,133.62,133.62,0,0,0-.09,20.59,2,2,0,0,0-.09.94l.8,6a2,2,0,0,0,.33.86,114.61,114.61,0,0,0,3,12h4.24a113,113,0,0,1-3.92-16.28,129.72,129.72,0,0,1,.11-27.64,151.39,151.39,0,0,1,9-32.3q3.16-7.11,7.07-14a132.25,132.25,0,0,1,14.16.82,142.55,142.55,0,0,1,30.24,8.3,143.55,143.55,0,0,1,26.44,15.4,134.14,134.14,0,0,1,19.72,19.64,120.94,120.94,0,0,1,12.64,21.5,102.92,102.92,0,0,1,5.57,19.86c.16,1.58.25,3.15.31,4.71h4c0-.47,0-.93,0-1.4a2.06,2.06,0,0,0,.14-1.05h0l-.8-5.95h0a2,2,0,0,0-.43-1,106.63,106.63,0,0,0-3.68-13,1.94,1.94,0,0,0-.15-.94l-2.27-5.37a2,2,0,0,0-.52-.73,125.38,125.38,0,0,0-9.35-15.91,1.91,1.91,0,0,0-.37-.79l-3.52-4.56a1.91,1.91,0,0,0-.63-.54,138.32,138.32,0,0,0-15.49-15.41,2.07,2.07,0,0,0-.52-.59h0l-4.53-3.5h0a1.93,1.93,0,0,0-.75-.36A148.21,148.21,0,0,0,220,192.76a2.15,2.15,0,0,0-.68-.46L214,190h0a2.17,2.17,0,0,0-.78-.16,148.15,148.15,0,0,0-23.92-6.61,2.07,2.07,0,0,0-.82-.3l-6-.8a1.92,1.92,0,0,0-.83.06c-2.91-.25-5.81-.4-8.7-.47q4.27-7.09,9.31-13.89c4.93-6,12.38-13.77,22.25-23.11a176.23,176.23,0,0,1,36,12.58,142.69,142.69,0,0,1,25.56,15.58c11.16,8.54,19,15.81,25.54,23.58,9,10.75,15.64,20.78,20.3,30.68a144.63,144.63,0,0,1,8.22,21,125.54,125.54,0,0,1,4.14,22.45c.19,1.82.31,3.63.39,5.43h4.06c-.08-1.95-.22-3.9-.43-5.87A129.58,129.58,0,0,0,324,247ZM181.78,162.15a2.13,2.13,0,0,0-.74.6h0l-3.5,4.54h0a2.05,2.05,0,0,0-.33.64c-3.22,4.49-6.2,9.1-8.94,13.79q-4.49.06-8.92.41a2,2,0,0,0-.89-.08l-6,.81a1.91,1.91,0,0,0-.85.32,130.56,130.56,0,0,0-19.77,5.44,1.9,1.9,0,0,0-.87.16l-5.37,2.26a2,2,0,0,0-.67.46c-2.55,1.22-5.07,2.53-7.55,3.91a187,187,0,0,1,12-28.1,180,180,0,0,1,15.71-24.43,148.42,148.42,0,0,1,27.78-2.11,156.46,156.46,0,0,1,26.83,2.95Q188.57,154.38,181.78,162.15Zm21.5-21.82A161.05,161.05,0,0,0,173,136.74c-1,0-2,0-3.06,0a151.34,151.34,0,0,0-21.26,1.55q1.32-1.69,2.72-3.43a240.14,240.14,0,0,1,18.47-19.63c1.64-1.62,3.29-3.24,4.92-4.87,2.24-2.24,10.09-2.23,19.34,1.69,13.24,5.6,18.25,13.67,18.58,19.65l-.87.79Q207.31,136.55,203.28,140.33Z"/><path class="cls-3" d="M476,251.76h3.29v-1.47a2,2,0,0,0-3.29,1.47Z"/><path class="cls-3" d="M433.88,133.25a2,2,0,0,0-2-2v3.95A2,2,0,0,0,433.88,133.25Z"/><path class="cls-3" d="M510.94,150.17c0-.26,0-.51,0-.76v1.37C510.93,150.58,510.94,150.37,510.94,150.17Z"/><path class="cls-3" d="M399,144.45a2,2,0,0,0-2,2H401A2,2,0,0,0,399,144.45Z"/><path class="cls-3" d="M431.9,131.28a2,2,0,0,0,0,3.95h0v-3.95Z"/><path class="cls-3" d="M464.82,148.39a2,2,0,0,0,1.77-1.1c-.27-.3-.55-.58-.82-.87h-2.92A2,2,0,0,0,464.82,148.39Z"/><path class="cls-3" d="M431.9,270.86a5.92,5.92,0,0,1-5-9,24.07,24.07,0,0,0-2.76.57,5.85,5.85,0,0,1,.57,2.51,5.92,5.92,0,0,1-11.55,1.85c-.76.31-1.51.58-2.26.81a5.9,5.9,0,0,1-5.28,3.27V276h1.05a5.91,5.91,0,0,1,11.06,0h2.1a5.91,5.91,0,0,1,11.07,0h1v-5.14Z"/><path class="cls-3" d="M375.92,208.85a.58.58,0,0,0,.69.25v-.68Z"/><path class="cls-3" d="M483.34,270.73v3a9.22,9.22,0,0,1-.15,1.54,5.4,5.4,0,0,1,.33.74h1.05v-5.14h0A6.26,6.26,0,0,1,483.34,270.73Z"/><path class="cls-3" d="M478.65,264.93a5.8,5.8,0,0,1,.65-2.68v-4.71a6.34,6.34,0,0,1-1.31.15,5.93,5.93,0,0,1-5.11-2.94A30.11,30.11,0,0,1,469,259.5a5.81,5.81,0,0,1,2.37-.49,5.93,5.93,0,1,1-5.2,3.08c-.72.59-1.44,1.14-2.17,1.65a5.86,5.86,0,0,1,.12,1.19,5.93,5.93,0,0,1-5.92,5.93V276h1.05a5.91,5.91,0,0,1,11.07,0h2.09a5.94,5.94,0,0,1,5.54-3.83,6.34,6.34,0,0,1,1.31.15v-4.71A5.74,5.74,0,0,1,478.65,264.93Z"/><path class="cls-3" d="M483.34,259.14a5.58,5.58,0,0,1,1.23-.13h0v-7.25h-.65a5.8,5.8,0,0,1-.58,2.53Z"/><path class="cls-3" d="M483.34,263.4v3.06a1.92,1.92,0,0,0,1.23.45h0v-4h0A2,2,0,0,0,483.34,263.4Z"/><path class="cls-3" d="M477.55,223.5c0,.64-.08,1.28-.11,1.93h1.86V224a2,2,0,0,0-1.31-.51A2.2,2.2,0,0,0,477.55,223.5Z"/><path class="cls-3" d="M464.82,152.35a5.93,5.93,0,0,1-5.92-5.93h-.66v7.24a5.93,5.93,0,0,1,5.91,5.68c.45.12.9.25,1.34.39,0,0,0-.1,0-.14a5.94,5.94,0,0,1,5.93-5.93h0c-.71-1.11-1.47-2.19-2.27-3.24A5.9,5.9,0,0,1,464.82,152.35Z"/><circle class="cls-3" cx="471.41" cy="159.59" r="1.97"/><path class="cls-3" d="M382.82,230.53a5.89,5.89,0,0,1-2.16-2.19v4.51A6,6,0,0,1,383,234C383,232.92,382.89,231.74,382.82,230.53Z"/><path class="cls-3" d="M431.9,263a2,2,0,0,0,0,4h0v-4Z"/><path class="cls-3" d="M484.57,210.29a2,2,0,0,0-1.23.44v3.06a2,2,0,0,0,1.23.44h0v-3.94Z"/><path class="cls-3" d="M445.07,266.91a2,2,0,0,0,1.15-.38c-1-.43-2.05-.9-3.1-1.37A2,2,0,0,0,445.07,266.91Z"/><path class="cls-3" d="M458.9,146.42a5.92,5.92,0,0,1,2-4.47c-.87-.71-1.78-1.39-2.7-2v6.51Z"/><path class="cls-3" d="M484.57,214.23a1.84,1.84,0,0,0,.53-.08c0-1.55-.09-2.87-.2-3.83a1.69,1.69,0,0,0-.33,0Z"/><path class="cls-3" d="M382.21,220.73c-.07-1.12-.14-2.21-.2-3.24a5.52,5.52,0,0,1-1.35.51v4.52A5.92,5.92,0,0,1,382.21,220.73Z"/><path class="cls-3" d="M479.3,197.91a1.51,1.51,0,0,1,0-.3l-.25-.19-.08,1.67h.35Z"/><path class="cls-3" d="M479.3,207.66v-2.79a6.17,6.17,0,0,1-.62.1l-.18,3.88h0A2.61,2.61,0,0,1,479.3,207.66Z"/><path class="cls-3" d="M479.3,199.09H479l-.08,1.76a2.16,2.16,0,0,0,.43-.29Z"/><path class="cls-3" d="M462.85,146.42h2.92c-.58-.61-1.17-1.21-1.78-1.79A2,2,0,0,0,462.85,146.42Z"/><path class="cls-3" d="M458.86,266.8a2.23,2.23,0,0,0,.49-.24Z"/><path class="cls-3" d="M383.69,246.24a20.35,20.35,0,0,1-.28-3.25v-.2a5.89,5.89,0,0,1-2.75,1.55v4.51A5.92,5.92,0,0,1,383.69,246.24Z"/><path class="cls-3" d="M433.88,264.93a2,2,0,0,0-2-2v4A2,2,0,0,0,433.88,264.93Z"/><path class="cls-3" d="M385.81,272.17a5.94,5.94,0,0,1,5.54,3.83h2.1a5.91,5.91,0,0,1,11.07,0h1.05v-5.14h0a5.94,5.94,0,0,1-5.81-4.73c-.47-.25-1-.53-1.46-.83a5.92,5.92,0,1,1-7.63-6c-.7-.73-1.38-1.49-2-2.3a5.9,5.9,0,0,1-8-2.29v4.52a5.92,5.92,0,0,1,0,11.49v3a8.31,8.31,0,0,0,.1,1.3A5.92,5.92,0,0,1,385.81,272.17Z"/><path class="cls-3" d="M380.66,237.24V240a1.94,1.94,0,0,0,0-2.71Z"/><circle class="cls-3" cx="471.41" cy="264.93" r="1.97"/><path class="cls-3" d="M380.66,263.57v2.72a2,2,0,0,0,0-2.72Z"/><path class="cls-3" d="M485.29,206.38l.21-5.51a6.19,6.19,0,0,1-.27-1.78h-.66v7.24A5.68,5.68,0,0,1,485.29,206.38Z"/><path class="cls-3" d="M483.34,201.62v4.84a6.26,6.26,0,0,1,1.23-.13h0v-7.24h-.65A5.8,5.8,0,0,1,483.34,201.62Z"/><path class="cls-3" d="M390.42,264.93a2,2,0,1,0,2-2A2,2,0,0,0,390.42,264.93Z"/><path class="cls-3" d="M383.84,251.76a2,2,0,0,0,2,2,1.81,1.81,0,0,0,.58-.1c-.35-.61-.67-1.24-1-1.88Z"/><path class="cls-3" d="M474.78,164.45c.68.49,1.08.81,1.08.81a48,48,0,0,0-5.13,7.08c0,.14,0,.27,0,.42h1.31a5.94,5.94,0,0,1,5.36-5.9c-.36-1.28-.77-2.55-1.23-3.79A5.77,5.77,0,0,1,474.78,164.45Z"/><path class="cls-3" d="M0,0V276H372.92c.06-1.2.12-2.47.21-3.8.11-1.81.25-3.71.41-5.65.11-1.38.23-2.78.35-4.17.15-1.68.3-3.34.46-4.94.19-2,.39-3.92.57-5.68.21-2,.4-3.76.56-5.2s.28-2.46.36-3.11c.05-.48.08-.74.08-.74s-.24-3.69-.5-8.65c-.05-1.06-.11-2.17-.16-3.32-.08-1.72-.16-3.52-.22-5.31-.06-1.5-.11-3-.14-4.45-5.19-.52-9.29-6.2-9.29-13.11,0-5.69,2.78-10.54,6.65-12.37l-.58-2.25c-.3-1.2-.61-2.45-.92-3.73-.69-2.84-1.38-5.84-2-8.88q-.48-2.25-.93-4.5c-.22-1.13-.44-2.26-.65-3.38-.08-.47-.17-.93-.25-1.4-.35-2-.66-4-.93-5.85-.19-1.39-.36-2.74-.49-4s-.24-2.46-.31-3.62-.1-2.21-.1-3.22c0-.29,0-.58,0-.87a57.86,57.86,0,0,1,.54-7.33,42.07,42.07,0,0,1,1.7-7.38,27.85,27.85,0,0,1,4.18-8.16,19.53,19.53,0,0,1,7.74-6.23,18,18,0,0,1,2.06-.75,21,21,0,0,1,6.12-.88,15.35,15.35,0,0,1,3.32.36,13,13,0,0,1,8.2,5.57s1.13-1.56,3.17-3.84c.62-.69,1.33-1.45,2.12-2.26.42-.43.87-.88,1.35-1.33.23-.23.46-.46.71-.69l.81-.75a63.12,63.12,0,0,1,7-5.57q1.46-1,3-1.89a45.32,45.32,0,0,1,7.05-3.37c.67-.25,1.34-.48,2-.69a37.18,37.18,0,0,1,3.84-1c.61-.11,1.23-.21,1.85-.29s1.3-.16,2-.21,1.53-.09,2.31-.09c.56,0,1.1,0,1.65,0s.89,0,1.33,0c1.37.07,2.71.16,4,.31s2.43.32,3.6.53c1.35.24,2.66.53,3.94.85.72.18,1.43.36,2.13.56q2.82.83,5.41,1.88c.85.34,1.68.7,2.49,1.07,1.29.6,2.53,1.24,3.73,1.9a65.89,65.89,0,0,1,5.8,3.56c.65.45,1.27.9,1.89,1.35.45.33.87.66,1.3,1,2.37,1.83,4.55,3.71,6.55,5.57.78.72,1.53,1.44,2.26,2.15s1.57,1.54,2.31,2.29c2,2,3.81,3.88,5.45,5.48,3.26,3.17,5.9,5.29,8.23,5.29a25.08,25.08,0,0,1,3.5.23c4.64.66,7.28,2.68,8.44,5.33l.06.1a9.09,9.09,0,0,1,.66,2.89c0,.25,0,.5,0,.76s0,.41,0,.61a8.11,8.11,0,0,1-.91,3,16.84,16.84,0,0,1-5,5.48c-.43.32-.89.64-1.36.94a35.83,35.83,0,0,1-16.76,5.48l-.13,3.17-.15,3.95-.14,3.59-.15,3.91-.18,4.47-.1,2.51-.17,4.46-.12,3.12c4.93.85,8.74,6.37,8.74,13.05,0,7-4.18,12.7-9.43,13.12,0,1.45-.09,2.94-.14,4.44-.09,2.48-.21,5-.32,7.24,0,.12,0,.23,0,.34-.06,1.29-.13,2.52-.19,3.63-.08,1.54-.16,2.87-.22,3.88-.08,1.38-.14,2.19-.14,2.19s.08.65.21,1.79c.09.81.21,1.86.34,3.09s.29,2.63.45,4.17c.23,2.24.49,4.75.73,7.36.15,1.54.29,3.1.43,4.67.05.67.11,1.33.17,2,.12,1.58.24,3.15.35,4.67.08,1.2.16,2.38.22,3.51,0,.7.07,1.37.1,2H871V0Z"/><path class="cls-3" d="M453.42,268.37a13.7,13.7,0,0,1-3.23-.47,5.92,5.92,0,0,1-11.05-3,6.21,6.21,0,0,1,.17-1.38c-.6-.24-1.22-.46-1.85-.66a6,6,0,0,1,.37,2,5.94,5.94,0,0,1-5.93,5.93V276H433A5.91,5.91,0,0,1,444,276h2.1a5.91,5.91,0,0,1,11.07,0h1.05v-5.14h0A5.93,5.93,0,0,1,453.42,268.37Z"/><path class="cls-3" d="M458.46,135.2a2,2,0,0,0-.22-3.92v3.78Z"/><path class="cls-3" d="M429.93,159.59a2,2,0,0,0,2,2h0v-3.95h0A2,2,0,0,0,429.93,159.59Z"/><path class="cls-3" d="M381.08,158.92a2,2,0,0,0-1.85-1.31v3.95a1.9,1.9,0,0,0,.85-.2C380.39,160.54,380.73,159.72,381.08,158.92Z"/><path class="cls-3" d="M433.88,159.59a2,2,0,0,0-2-2v3.95A2,2,0,0,0,433.88,159.59Z"/><circle class="cls-3" cx="445.07" cy="159.59" r="1.97"/><path class="cls-3" d="M477.08,231.28c-.1,1.73-.19,3.38-.27,4.89a6,6,0,0,1,.52,2.43,5.84,5.84,0,0,1-.77,2.9c0,.62,0,1.13,0,1.49a19.75,19.75,0,0,1-.25,3.1,6,6,0,0,1,1.71-.25,5.72,5.72,0,0,1,1.31.15v-4.71a5.87,5.87,0,0,1,0-5.37V231.2a5.72,5.72,0,0,1-1.31.15A6.84,6.84,0,0,1,477.08,231.28Z"/><path class="cls-3" d="M404.91,146.42h.66v-7.24h0a5.93,5.93,0,0,1-2.16-.41c-1,.62-1.92,1.26-2.84,1.95A5.92,5.92,0,0,1,404.91,146.42Z"/><path class="cls-3" d="M385.81,170.78a2,2,0,0,0-2,2h4A2,2,0,0,0,385.81,170.78Z"/><path class="cls-3" d="M381.21,212.26a2,2,0,0,0-.55-1.36v2.72A2,2,0,0,0,381.21,212.26Z"/><path class="cls-3" d="M478,253.74a2,2,0,0,0,1.31-.51v-1.47H476A2,2,0,0,0,478,253.74Z"/><path class="cls-3" d="M418.73,157.61a2,2,0,1,0,2,2A2,2,0,0,0,418.73,157.61Z"/><path class="cls-3" d="M376.61,203.48a6,6,0,0,1-1.9,1.16c.35,1.25.64,2.26.85,3a6,6,0,0,1,1.05-.67Z"/><path class="cls-3" d="M383.84,172.76a2,2,0,0,0,4,0h-4Z"/><path class="cls-3" d="M459,158.63c.32,0,.63,0,1,.05a2,2,0,0,0-1.74-1.07v1C458.5,158.64,458.76,158.63,459,158.63Z"/><path class="cls-3" d="M458.24,157.61h0a2,2,0,0,0-1.84,1.28,11.42,11.42,0,0,1,1.84-.23Z"/><path class="cls-3" d="M477.44,225.43l-.12,1.85a2.09,2.09,0,0,0,.67.12,2,2,0,0,0,1.31-.5v-1.47Z"/><path class="cls-3" d="M479.3,207.66a2.61,2.61,0,0,0-.79,1.19h.79Z"/><path class="cls-3" d="M384.73,250.12a2,2,0,0,0-.89,1.64h1.58C385.17,251.23,384.94,250.68,384.73,250.12Z"/><path class="cls-3" d="M431.9,139.18v7.24h.66a5.93,5.93,0,1,1,11.85,0h1.32a5.93,5.93,0,1,1,11.85,0h.66v-6.51l-1.3-.88a6,6,0,0,1-3.21-1.94c-1-.57-2.1-1.1-3.18-1.6a5.92,5.92,0,0,1-11.41-2.24,6.28,6.28,0,0,1,.17-1.38c-.57-.11-1.15-.22-1.73-.31a5.92,5.92,0,0,1-5.68,7.62Z"/><path class="cls-3" d="M458.24,131.28h0a2,2,0,0,0-2,2,1.87,1.87,0,0,0,.14.71c.62.36,1.23.72,1.84,1.1Z"/><path class="cls-3" d="M478.51,208.85s-.32,4.71-.7,10.66H478a6.34,6.34,0,0,1,1.31.15v-4.71a5.85,5.85,0,0,1,0-5.36v-.73Z"/><path class="cls-3" d="M418.73,266.91a2,2,0,0,0,2-2,2,2,0,0,0-.46-1.24c-1.19.47-2.34,1-3.47,1.49A2,2,0,0,0,418.73,266.91Z"/><path class="cls-3" d="M405.57,139.18v7.24h.65a5.93,5.93,0,0,1,11.86,0h1.31a5.93,5.93,0,1,1,11.85,0h.66v-7.24h0a5.93,5.93,0,0,1-5.92-5.93,5.8,5.8,0,0,1,.4-2.13c-.69,0-1.37.11-2.06.18a5.79,5.79,0,0,1,.34,1.95,5.92,5.92,0,0,1-11.79.78l-1.55.61A5.94,5.94,0,0,1,405.57,139.18Z"/><path class="cls-3" d="M473.38,185.92a2,2,0,0,0-2-2,1.91,1.91,0,0,0-.76.15c.62,1.07,1.35,2.17,2.12,3.24A2,2,0,0,0,473.38,185.92Z"/><path class="cls-3" d="M418.73,135.23a2,2,0,0,0,2-2,1.94,1.94,0,0,0-.51-1.3c-1.14.23-2.26.51-3.37.81a2,2,0,0,0-.07.49A2,2,0,0,0,418.73,135.23Z"/><path class="cls-3" d="M381.35,203a6.17,6.17,0,0,1-.69-1v4.52a5.19,5.19,0,0,1,.87.28Z"/><path class="cls-3" d="M443.09,133.25a2,2,0,0,0,2,2A2,2,0,0,0,446.9,134c-1.22-.45-2.47-.84-3.74-1.19A1.84,1.84,0,0,0,443.09,133.25Z"/><path class="cls-3" d="M478,144.45a2,2,0,0,0-2,2H480A2,2,0,0,0,478,144.45Z"/><path class="cls-3" d="M483.34,249.24a5.76,5.76,0,0,1,.58,2.52h.65v-4.17c-.13-1.23-.25-2.28-.34-3.09a5.28,5.28,0,0,1-.89-.11Z"/><path class="cls-3" d="M485,251.76c-.16-1.54-.31-2.94-.45-4.17v4.17Z"/><path class="cls-3" d="M484.57,259a6.47,6.47,0,0,1,1.18.11c-.24-2.61-.5-5.12-.73-7.36h-.45Z"/><path class="cls-3" d="M486.55,133.25a2,2,0,0,0-2-2v3.95A2,2,0,0,0,486.55,133.25Z"/><path class="cls-3" d="M484.57,263v4a2,2,0,0,0,1.78-1.12c-.06-.67-.12-1.33-.17-2A2,2,0,0,0,484.57,263Z"/><path class="cls-3" d="M504.33,148.39a2,2,0,0,0,2-2h-3.95A2,2,0,0,0,504.33,148.39Z"/><path class="cls-3" d="M504.33,144.45a2,2,0,0,0-2,2h3.95A2,2,0,0,0,504.33,144.45Z"/><path class="cls-3" d="M483.34,240.13a1.89,1.89,0,0,0,.82.39c.06-1,.14-2.34.22-3.88a1.93,1.93,0,0,0-1,.43Z"/><circle class="cls-3" cx="497.74" cy="159.59" r="1.97"/><path class="cls-3" d="M485.23,172.76h-.66V180a5.86,5.86,0,0,1,1.74.26l.15-3.91a5.86,5.86,0,0,1-1.23-3.59Z"/><path class="cls-3" d="M504.33,152.35a5.94,5.94,0,0,1-5.93-5.93h-1.32a5.93,5.93,0,1,1-11.85,0h-.66v7.24a5.93,5.93,0,1,1,0,11.85v7.25h.66a5.88,5.88,0,0,1,1.52-3.95l.13-3.17a35,35,0,0,0,7.37-1.28,5.92,5.92,0,1,1,9.42-4.77,5.44,5.44,0,0,1,0,.57c.47-.3.93-.62,1.36-.94a5.92,5.92,0,0,1,5-5.48,8.11,8.11,0,0,0,.91-3v-1.37a9.09,9.09,0,0,0-.66-2.89A5.94,5.94,0,0,1,504.33,152.35Z"/><path class="cls-3" d="M484.57,184v4a2,2,0,0,0,1.46-.66l.1-2.51A2,2,0,0,0,484.57,184Z"/><path class="cls-3" d="M484.57,276h1.05a5.84,5.84,0,0,1,1.3-2c-.06-1.13-.14-2.31-.22-3.51a6,6,0,0,1-2.13.4Z"/><path class="cls-3" d="M484.57,225.43h.34c0-1.5.1-3,.14-4.44l-.48,0Z"/><path class="cls-3" d="M484.57,131.28a2,2,0,0,0,0,3.95h0v-3.95Z"/><path class="cls-3" d="M436.51,146.42a2,2,0,0,0,3.95,0h-3.95Z"/><path class="cls-3" d="M484.57,232.67h0c.11-2.28.23-4.76.32-7.24h-.34Z"/><path class="cls-3" d="M484.57,194.71a8.92,8.92,0,0,1,1.17.11l.12-3.12a5.43,5.43,0,0,1-1.29.15Z"/><path class="cls-3" d="M384.6,152.22a5.93,5.93,0,0,1-4.71-5.8h-.66v7.24A5.89,5.89,0,0,1,383,155C383.49,154.06,384,153.13,384.6,152.22Z"/><path class="cls-3" d="M376.61,259.62v-3.47a6,6,0,0,1-2.26,1.29c-.16,1.6-.31,3.26-.46,4.94A6,6,0,0,1,376.61,259.62Z"/><path class="cls-3" d="M377.25,159.59a2,2,0,0,0,2,2v-3.95A2,2,0,0,0,377.25,159.59Z"/><path class="cls-3" d="M374.62,199.09a1.37,1.37,0,0,0,0-.19,4.6,4.6,0,0,0-.52.19Z"/><path class="cls-3" d="M374.62,199.09h-.54a5.28,5.28,0,0,0-.77.42l.34,1.27A2,2,0,0,0,374.62,199.09Z"/><path class="cls-3" d="M407.14,132.07a2,2,0,0,0-1.57-.79v1.58C406.09,132.59,406.61,132.32,407.14,132.07Z"/><path class="cls-3" d="M383.84,146.42a2,2,0,0,0,4,0h-4Z"/><path class="cls-3" d="M370.67,172.76a2,2,0,0,0,3.95,0h-3.95Z"/><path class="cls-3" d="M385.81,144.45a2,2,0,0,0-2,2h4A2,2,0,0,0,385.81,144.45Z"/><path class="cls-3" d="M376.61,243.9a5.35,5.35,0,0,1-.77-.45c-.08.65-.2,1.73-.36,3.11a5.72,5.72,0,0,1,1.13.82Z"/><path class="cls-3" d="M489.18,146.42a2,2,0,0,0,3.95,0h-3.95Z"/><path class="cls-3" d="M376.61,229.82a6.31,6.31,0,0,1-1.35.92c.05,1.15.11,2.26.16,3.32a6.54,6.54,0,0,1,1.19-.77Z"/><path class="cls-3" d="M375.92,208.85l-.36-1.23c-.21-.72-.5-1.73-.85-3s-.67-2.41-1.06-3.86l-.34-1.27c-2.13,1.42-3.66,4.67-3.66,8.36,0,4.51,2.3,8.37,5.18,9v-.67C374.82,211.07,375.09,207.6,375.92,208.85Z"/><path class="cls-3" d="M374.83,216.21v.67a4,4,0,0,0,.84.11A5.63,5.63,0,0,1,374.83,216.21Z"/><path class="cls-3" d="M491.16,144.45a2,2,0,0,0-2,2h3.95A2,2,0,0,0,491.16,144.45Z"/><path class="cls-3" d="M376.54,221l.07.06V221Z"/><path class="cls-3" d="M385.16,133.25a5.94,5.94,0,0,1-5.93,5.93v7.24h.66a5.92,5.92,0,0,1,11.22-2.65A53.64,53.64,0,0,1,400.3,136a5.91,5.91,0,0,1,5.27-8.63h0v-5.81c-.48.45-.93.9-1.35,1.33a6,6,0,0,1-2.12,2.26c-2,2.28-3.17,3.84-3.17,3.84a13,13,0,0,0-8.2-5.57,5.91,5.91,0,0,1-9.44.52,18,18,0,0,0-2.06.75v2.68A5.93,5.93,0,0,1,385.16,133.25Zm7.24-5.92a5.93,5.93,0,1,1-5.93,5.92A5.92,5.92,0,0,1,392.4,127.33Z"/><path class="cls-3" d="M425.32,118.11a2,2,0,0,0-2,2h4A2,2,0,0,0,425.32,118.11Z"/><path class="cls-3" d="M392.4,135.23a2,2,0,1,0-2-2A2,2,0,0,0,392.4,135.23Z"/><path class="cls-3" d="M405.57,131.28h0a2,2,0,0,0-2,2,1.84,1.84,0,0,0,.11.62c.61-.35,1.24-.69,1.87-1Z"/><path class="cls-3" d="M372.65,140.49a5.93,5.93,0,0,1,5.92,5.93h.66v-7.24a5.93,5.93,0,1,1,0-11.85v-2.68a19.53,19.53,0,0,0-7.74,6.23,5.85,5.85,0,0,1,.5,2.37,5.93,5.93,0,0,1-4.68,5.79,42.07,42.07,0,0,0-1.7,7.38h1.11A5.94,5.94,0,0,1,372.65,140.49Z"/><path class="cls-3" d="M412.15,118.11a2,2,0,0,0-2,2h3.95A2,2,0,0,0,412.15,118.11Z"/><path class="cls-3" d="M464.82,118.11a2,2,0,0,0-2,2h3.95A2,2,0,0,0,464.82,118.11Z"/><path class="cls-3" d="M410.81,130.5c1.17-.45,2.35-.87,3.56-1.24a5.88,5.88,0,0,1,4.36-1.93,6,6,0,0,1,2.12.39,53.7,53.7,0,0,1,9.12-.79c.65,0,1.29,0,1.93,0v-6.9h-.66a5.93,5.93,0,1,1-11.85,0h-1.31a5.92,5.92,0,0,1-11.8.75c-.25.23-.48.46-.71.69v5.81A5.92,5.92,0,0,1,410.81,130.5Z"/><path class="cls-3" d="M425.32,122.06a2,2,0,0,0,2-2h-4A2,2,0,0,0,425.32,122.06Z"/><path class="cls-3" d="M418.08,120.08h1.31a5.93,5.93,0,0,1,11.85,0h.66v-7.24h0a5.93,5.93,0,0,1-5.69-4.28c-.69.21-1.36.44-2,.69a5.94,5.94,0,0,1-5.45,3.59,6.06,6.06,0,0,1-1.6-.22q-1.54.9-3,1.89A5.92,5.92,0,0,1,418.08,120.08Z"/><path class="cls-3" d="M372.65,148.39a2,2,0,0,0,2-2h-3.95A2,2,0,0,0,372.65,148.39Z"/><path class="cls-3" d="M376.61,194.7v-3.47a5.91,5.91,0,0,1,0-10.62v-.11c0-.07,0-.13,0-.2,0-.27,0-.53,0-.79v-.57c0-.07,0-.13,0-.2,0-.56,0-1.12.07-1.68a5.9,5.9,0,0,1-8.91-.92q.45,2.25.93,4.5a5.89,5.89,0,0,1,2,8.88c.31,1.28.62,2.53.92,3.73a6.24,6.24,0,0,1,1-.08A5.89,5.89,0,0,1,376.61,194.7Z"/><path class="cls-3" d="M381.21,133.25a2,2,0,0,0-2-2v3.95A2,2,0,0,0,381.21,133.25Z"/><path class="cls-3" d="M377.25,133.25a2,2,0,0,0,2,2v-3.95A2,2,0,0,0,377.25,133.25Z"/><path class="cls-3" d="M410.17,120.08a2,2,0,1,0,3.95,0h-3.95Z"/><path class="cls-3" d="M368,159.59a2,2,0,0,0-2.88-1.75c.07,1.16.18,2.37.31,3.62a1.92,1.92,0,0,0,.59.1A2,2,0,0,0,368,159.59Z"/><path class="cls-3" d="M372.65,166.83a5.92,5.92,0,0,1,5,2.8c.28-1.41.64-2.78,1-4.14a5.93,5.93,0,0,1,.53-11.83v-7.24h-.66a5.93,5.93,0,1,1-11.85,0h-1.11a57.86,57.86,0,0,0-.54,7.33,6.39,6.39,0,0,1,1-.09,5.93,5.93,0,1,1,0,11.85H366c.27,1.9.58,3.86.93,5.85A5.94,5.94,0,0,1,372.65,166.83Z"/><path class="cls-3" d="M464.82,122.06a2,2,0,0,0,2-2h-3.95A2,2,0,0,0,464.82,122.06Z"/><path class="cls-3" d="M468.9,177a10.12,10.12,0,0,0-.19,1.9,5.69,5.69,0,0,0,.27,1.58,5.92,5.92,0,0,1,6.19,10c.82,1,1.59,1.95,2.24,2.7a5.49,5.49,0,0,1,.58,0,5.72,5.72,0,0,1,1.31.15v-4.71a5.87,5.87,0,0,1,0-5.37V180.3c0-.59,0-1.17-.05-1.76a5.86,5.86,0,0,1-1.26.14,5.93,5.93,0,0,1-5.93-5.92h-1.31A5.88,5.88,0,0,1,468.9,177Z"/><path class="cls-3" d="M459,158.63c-.27,0-.53,0-.79,0a11.42,11.42,0,0,0-1.84.23,11.89,11.89,0,0,0-4,1.62,20.83,20.83,0,0,0-1.83,1.29c-1.52,1.18-3,2.51-4.7,3.66a16.2,16.2,0,0,1-4.53,2.1,19,19,0,0,1-5.16.66c-.47,0-.94,0-1.42-.06a20.36,20.36,0,0,1-2.85-.46,41.81,41.81,0,0,1-9.29-3.64c-3.17-1.61-6.41-3.45-9.77-5.12l-1.52-.73a55.17,55.17,0,0,0-5.75-2.37q-1.76-.59-3.54-1a27.81,27.81,0,0,0-6.2-.73c-.31,0-.66,0-1,0a11.73,11.73,0,0,0-8.21,4.3,12.81,12.81,0,0,0-2.46,6.79l1.31,1.59a38.45,38.45,0,0,1,4.14,5.91,16.38,16.38,0,0,1,1.32,3,10.51,10.51,0,0,1,.53,3.15,5.12,5.12,0,0,1-.16,1.17c-.54,2.24-2.4,5.21-4.4,7.92a90.73,90.73,0,0,1-5.87,7.11l0,.49.16,3.46.18,3.89.18,3.82.1,2h-.19s.25,3.68.57,8.64c.06,1,.13,2.12.2,3.24.1,1.52.2,3.1.3,4.7s.21,3.43.31,5.1c.07,1.21.14,2.39.2,3.51.22,4,.38,7.25.39,8.75v.2a20.71,20.71,0,0,0,1.32,7.13c.21.56.44,1.11.69,1.64s.62,1.27,1,1.88a27.31,27.31,0,0,0,2.26,3.32c.64.81,1.32,1.57,2,2.3a37.48,37.48,0,0,0,7.63,6c.5.3,1,.58,1.46.83a19.23,19.23,0,0,0,5.81,2.19,4.6,4.6,0,0,0,.7.07,15.16,15.16,0,0,0,4.58-.8c.75-.23,1.5-.5,2.26-.81,1.2-.49,2.42-1,3.67-1.6s2.28-1,3.47-1.49a33.21,33.21,0,0,1,3.84-1.27,24.07,24.07,0,0,1,2.76-.57,22.42,22.42,0,0,1,3.12-.24h0c.66,0,1.3,0,1.93.1a24.6,24.6,0,0,1,5.56,1.18c.63.2,1.25.42,1.85.66,1.32.5,2.58,1.05,3.81,1.61,1.05.47,2.09.94,3.1,1.37a27.91,27.91,0,0,0,4,1.37,13.7,13.7,0,0,0,3.23.47l.26,0a12.7,12.7,0,0,0,4.56-1.31l.62-.28.49-.24a35.09,35.09,0,0,0,4.69-2.82c.73-.51,1.45-1.06,2.17-1.65A36,36,0,0,0,469,259.5a30.11,30.11,0,0,0,3.84-4.75,24.68,24.68,0,0,0,1.64-3,21.15,21.15,0,0,0,1.76-5.67,19.75,19.75,0,0,0,.25-3.1c0-.36,0-.87,0-1.49.05-1.32.13-3.17.25-5.33.08-1.51.17-3.16.27-4.89.08-1.31.16-2.65.24-4l.12-1.85c0-.65.07-1.29.11-1.93.09-1.36.18-2.7.26-4,.38-5.95.69-10.65.7-10.66h0l.18-3.88.19-4.12.08-1.76.08-1.67.11-2.28s-.7-.75-1.73-1.94c-.65-.75-1.42-1.67-2.24-2.7s-1.61-2.05-2.4-3.16-1.5-2.17-2.12-3.24a16.8,16.8,0,0,1-1.67-3.58,5.69,5.69,0,0,1-.27-1.58,10.12,10.12,0,0,1,.19-1.9,15.48,15.48,0,0,1,1.6-4.28l.23-.42a48,48,0,0,1,5.13-7.08s-.4-.32-1.08-.81a35.62,35.62,0,0,0-9.29-4.72c-.44-.14-.89-.27-1.34-.39a20.72,20.72,0,0,0-4.17-.66C459.66,158.66,459.35,158.63,459,158.63ZM427.58,257c-3.4-.61-4.69-2.37-5.16-3.74-1.63-4.64,2.64-43.24,5.6-54.77a2,2,0,1,1,3.91,1c-3.11,12.16-6.8,48.8-5.69,52.45.23.66,1.39,1,2.06,1.08,5.53,1,15.88-2.58,18.45-5.67a2,2,0,0,1,3.11,2.59c-3.27,3.93-12.71,7.29-19.49,7.29A15.37,15.37,0,0,1,427.58,257Z"/><path class="cls-3" d="M458.24,120.08h.66a5.91,5.91,0,0,1,5.56-5.9c-1.2-.66-2.44-1.3-3.73-1.9a5.79,5.79,0,0,1-2.49.56Z"/><path class="cls-3" d="M472.06,120.08h-1.31a5.93,5.93,0,1,1-11.85,0h-.66v7.25a5.93,5.93,0,0,1,5.92,5.92,5.86,5.86,0,0,1-2.05,4.47q1.77,1.35,3.42,2.82a5.93,5.93,0,0,1,5.19,5.35l.46.53h.88a5.93,5.93,0,0,1,11.86,0h.65v-7.24h0a5.93,5.93,0,0,1-2.31-11.38c-.73-.71-1.48-1.43-2.26-2.15a5.82,5.82,0,0,1-2,.36A5.94,5.94,0,0,1,472.06,120.08Zm-.65,19.1a5.93,5.93,0,1,1,5.92-5.93A5.94,5.94,0,0,1,471.41,139.18Z"/><path class="cls-3" d="M472.06,120.08a6.62,6.62,0,0,1,.09-1c-.62-.45-1.24-.9-1.89-1.35a5.9,5.9,0,0,1,.49,2.34Z"/><path class="cls-3" d="M451.65,144.45a2,2,0,0,0-2,2h3.95A2,2,0,0,0,451.65,144.45Z"/><circle class="cls-3" cx="471.41" cy="133.25" r="1.97"/><path class="cls-3" d="M449.68,146.42a2,2,0,0,0,3.95,0h-3.95Z"/><path class="cls-3" d="M445.07,108.89a2,2,0,0,0,1.69-1c-1.17-.21-2.37-.39-3.6-.53A2,2,0,0,0,445.07,108.89Z"/><path class="cls-3" d="M433.86,107.09c-.66,0-1.31.12-2,.21v1.59A2,2,0,0,0,433.86,107.09Z"/><path class="cls-3" d="M431.9,108.89h0V107.3c-.62.08-1.24.18-1.85.29A2,2,0,0,0,431.9,108.89Z"/><path class="cls-3" d="M484.57,139.18v7.24h.66a5.93,5.93,0,1,1,11.85,0h1.32a5.94,5.94,0,0,1,3.35-5.33,25.08,25.08,0,0,0-3.5-.23c-2.33,0-5-2.12-8.23-5.29A5.92,5.92,0,0,1,484.57,139.18Z"/><path class="cls-3" d="M372.65,170.78a2,2,0,0,0-2,2h3.95A2,2,0,0,0,372.65,170.78Z"/><path class="cls-3" d="M478,174.73a2,2,0,0,0,.95-.25c-.07-.58-.13-1.16-.22-1.72H476A2,2,0,0,0,478,174.73Z"/><path class="cls-3" d="M431.9,112.84v7.24h.66a5.93,5.93,0,0,1,11.85,0h1.32a5.93,5.93,0,0,1,11.85,0h.66v-7.24h0a5.93,5.93,0,0,1-5.41-3.51c-.7-.2-1.41-.38-2.13-.56a5.93,5.93,0,0,1-11.55-1.69c-.44,0-.89,0-1.33,0A5.93,5.93,0,0,1,431.9,112.84Z"/><path class="cls-3" d="M478.37,170.82a2.33,2.33,0,0,0-.38,0,2,2,0,0,0-2,2h2.71C478.62,172.11,478.5,171.46,478.37,170.82Z"/><path class="cls-3" d="M372.65,144.45a2,2,0,0,0-2,2h3.95A2,2,0,0,0,372.65,144.45Z"/><path class="cls-3" d="M476,146.42a2,2,0,0,0,3.95,0H476Z"/><path class="cls-3" d="M451.65,118.11a2,2,0,0,0-2,2h3.95A2,2,0,0,0,451.65,118.11Z"/><path class="cls-3" d="M449.68,120.08a2,2,0,1,0,3.95,0h-3.95Z"/><path class="cls-3" d="M412.15,144.45a2,2,0,0,0-2,2h3.95A2,2,0,0,0,412.15,144.45Z"/><path class="cls-3" d="M384.12,165.26a12.81,12.81,0,0,1,2.46-6.79,5.91,5.91,0,0,1,8.21-4.3c.38,0,.73,0,1,0a27.81,27.81,0,0,1,6.2.73,5.87,5.87,0,0,1,3.54-1.19h0v-7.24h-.66a5.93,5.93,0,0,1-11.75,1.09,49.44,49.44,0,0,0-8,12.22,5.91,5.91,0,0,1-1.61,3.91c-.52,1.46-1,2.94-1.37,4.45a5.93,5.93,0,0,1,3.26-1.24Z"/><path class="cls-3" d="M438.49,144.45a2,2,0,0,0-2,2h3.95A2,2,0,0,0,438.49,144.45Z"/><path class="cls-3" d="M472.06,146.42h-.88c.35.43.69.88,1,1.32A5.75,5.75,0,0,1,472.06,146.42Z"/><path class="cls-3" d="M411.32,158.21l1.52.73a5.93,5.93,0,1,1,9.77,5.12,41.81,41.81,0,0,0,9.29,3.64v-2.19h0a5.93,5.93,0,0,1,0-11.85h0v-7.24h-.66a5.93,5.93,0,1,1-11.85,0h-1.31a5.93,5.93,0,0,1-11.86,0h-.65v7.24A5.92,5.92,0,0,1,411.32,158.21Z"/><path class="cls-3" d="M410.17,146.42a2,2,0,0,0,3.95,0h-3.95Z"/><path class="cls-3" d="M423.34,146.42a2,2,0,0,0,4,0h-4Z"/><path class="cls-3" d="M437.83,159.59a5.93,5.93,0,0,1-5.93,5.92v2.19a20.36,20.36,0,0,0,2.85.46,5.91,5.91,0,0,1,6.58-.6,16.2,16.2,0,0,0,4.53-2.1,6.84,6.84,0,0,1-.79,0,5.93,5.93,0,1,1,5.93-5.92,5.85,5.85,0,0,1-.44,2.21,20.83,20.83,0,0,1,1.83-1.29,5.62,5.62,0,0,1-.08-.92,5.94,5.94,0,0,1,5.93-5.93h0v-7.24h-.66a5.93,5.93,0,1,1-11.85,0h-1.32a5.93,5.93,0,1,1-11.85,0h-.66v7.24A5.94,5.94,0,0,1,437.83,159.59Z"/><path class="cls-3" d="M445.07,127.33a5.92,5.92,0,0,1,5.5,3.74c.64.27,1.27.55,1.9.85a5.93,5.93,0,0,1,5.77-4.59h0v-7.25h-.66a5.93,5.93,0,1,1-11.85,0h-1.32a5.93,5.93,0,1,1-11.85,0h-.66V127a52.72,52.72,0,0,1,10,1.3A5.9,5.9,0,0,1,445.07,127.33Z"/><path class="cls-3" d="M436.51,120.08a2,2,0,1,0,3.95,0h-3.95Z"/><path class="cls-3" d="M438.49,118.11a2,2,0,0,0-2,2h3.95A2,2,0,0,0,438.49,118.11Z"/><path class="cls-3" d="M425.32,144.45a2,2,0,0,0-2,2h4A2,2,0,0,0,425.32,144.45Z"/><path class="cls-3" d="M399,148.39a2,2,0,0,0,2-2H397A2,2,0,0,0,399,148.39Z"/><path class="cls-3" d="M483.9,198.78c0,.1,0,.21,0,.31h.65v-.33l-.15,0A4.55,4.55,0,0,0,483.9,198.78Z"/><path class="cls-3" d="M478,152.35a5.87,5.87,0,0,1-3.18-.94,52.5,52.5,0,0,1,3.92,7.23,5.93,5.93,0,0,1,5.84-5h0v-7.24h-.65A5.94,5.94,0,0,1,478,152.35Z"/><path class="cls-3" d="M483.34,191.72v3.05a7.83,7.83,0,0,1,1.08-.07h.15v-2.86h0A6.26,6.26,0,0,1,483.34,191.72Z"/><path class="cls-3" d="M376.61,270.24a5.93,5.93,0,0,1-3.07-3.69c-.16,1.94-.3,3.84-.41,5.65a5.91,5.91,0,0,1,3.48,1.51Z"/><path class="cls-3" d="M483.34,221v1.94a5.8,5.8,0,0,1,.58,2.53h.65V221h-.15A7.83,7.83,0,0,1,483.34,221Z"/><path class="cls-3" d="M381,195.14a90.73,90.73,0,0,0,5.87-7.11,5.92,5.92,0,0,1,4.4-7.92,5.12,5.12,0,0,0,.16-1.17,10.51,10.51,0,0,0-.53-3.15,5.91,5.91,0,0,1-10.05.17c-.1,1.18-.16,2.36-.18,3.55v.67a5.92,5.92,0,0,1,0,11.49v4.51c.11-.19.23-.37.35-.55Z"/><path class="cls-3" d="M483.34,228v4.84a6.26,6.26,0,0,1,1.23-.13h0v-7.24h-.65A5.84,5.84,0,0,1,483.34,228Z"/><path class="cls-3" d="M485.5,200.87l-.21,5.51-.1,2.47h-.59a5.24,5.24,0,0,1,.3,1.47c.11,1,.17,2.28.2,3.83,0,.86,0,1.79,0,2.77,2.95-.54,5.33-4.46,5.33-9,0-4.35-2.13-8.1-4.86-9v.17Z"/><path class="cls-3" d="M486.55,159.59a2,2,0,0,0-2-2v3.95A2,2,0,0,0,486.55,159.59Z"/><path class="cls-3" d="M380.66,184.57v2.71a1.94,1.94,0,0,0,0-2.71Z"/><path class="cls-3" d="M483.34,184.39v3.06a1.92,1.92,0,0,0,1.23.45h0v-4h0A2,2,0,0,0,483.34,184.39Z"/><path class="cls-3" d="M484.57,157.61a2,2,0,0,0,0,3.95h0v-3.95Z"/><path class="cls-3" d="M484,208.85h-.68v.25A.56.56,0,0,0,484,208.85Z"/><path class="cls-3" d="M483.92,172.76a5.84,5.84,0,0,1-.79,2.93c.08.94.13,1.88.17,2.83a2.72,2.72,0,0,1,0,.42v1.19a5.58,5.58,0,0,1,1.23-.13h0v-7.24Z"/><path class="cls-3" d="M480.85,164.19c.44,1.38.81,2.78,1.14,4.2a6,6,0,0,1,1.93,4.37h.65v-7.25h0A5.86,5.86,0,0,1,480.85,164.19Z"/><path class="cls-3" d="M485.23,199.09c0-.08,0-.16,0-.25a3.72,3.72,0,0,0-.67-.08v.33Z"/><path class="cls-1" d="M485.58,198.92c2.73.85,4.86,4.6,4.86,9,0,4.59-2.38,8.51-5.33,9,0,.4,0,.82,0,1.24,0,.91,0,1.86-.05,2.83,5.25-.42,9.43-6.14,9.43-13.12,0-6.68-3.81-12.2-8.74-13.05l-.08,2.08Z"/><path class="cls-1" d="M483.34,218.05V221a7.83,7.83,0,0,0,1.08.07h.15v-2.83h0A5.59,5.59,0,0,1,483.34,218.05Z"/><path class="cls-1" d="M484.57,218.19V221l.48,0c0-1,0-1.92.05-2.83C484.93,218.17,484.75,218.19,484.57,218.19Z"/><path class="cls-1" d="M484.57,198.76a3.72,3.72,0,0,1,.67.08,5.7,5.7,0,0,1,.42-1.94l.08-2.08a8.92,8.92,0,0,0-1.17-.11Z"/><path class="cls-1" d="M483.34,194.77v1.79a5.91,5.91,0,0,1,.56,2.22,4.55,4.55,0,0,1,.52,0l.15,0v-4h-.15A7.83,7.83,0,0,0,483.34,194.77Z"/><path class="cls-1" d="M479.3,197.91v-.29h0A1.51,1.51,0,0,0,479.3,197.91Z"/><path class="cls-1" d="M374.6,198.9a2,2,0,0,0-1.92-1.78c.18.68.35,1.34.52,2h.88A4.6,4.6,0,0,1,374.6,198.9Z"/><path class="cls-1" d="M376.61,217.57a7,7,0,0,1-.94-.58,4,4,0,0,1-.84-.11c0,1,0,2,0,3.06a5.65,5.65,0,0,1,1.67,1h.07Z"/><path class="cls-1" d="M374.83,216.88c-2.88-.64-5.18-4.5-5.18-9,0-3.69,1.53-6.94,3.66-8.36,0-.14-.07-.28-.11-.42-.17-.63-.34-1.29-.52-2q-.21-.8-.42-1.62c-3.87,1.83-6.65,6.68-6.65,12.37,0,6.91,4.1,12.59,9.29,13.11l0-1C374.85,218.88,374.84,217.86,374.83,216.88Z"/><path class="cls-1" d="M373.2,199.09c0,.14.07.28.11.42a5.28,5.28,0,0,1,.77-.42Z"/><path class="cls-1" d="M482.6,238.6a2,2,0,0,0,.74,1.53v-3.06A2,2,0,0,0,482.6,238.6Z"/><path class="cls-1" d="M479.3,231.2v4.71a5.93,5.93,0,0,1,4-3.11V228A5.92,5.92,0,0,1,479.3,231.2Z"/><path class="cls-1" d="M380.66,206.52V202a5.85,5.85,0,0,1-.77-2.91,1.89,1.89,0,0,1-.66.34v6.9A5.67,5.67,0,0,1,380.66,206.52Z"/><path class="cls-1" d="M482.6,212.26a2,2,0,0,0,.74,1.53v-3.06A2,2,0,0,0,482.6,212.26Z"/><path class="cls-1" d="M479.57,217.14a2,2,0,0,1,.76-.75,5.78,5.78,0,0,1-1-1.45v4.71a6,6,0,0,1,4,3.25V221a8.43,8.43,0,0,1-3-1.06A2,2,0,0,1,479.57,217.14Z"/><path class="cls-1" d="M377.25,264.93a2,2,0,0,0,2,2v-4A2,2,0,0,0,377.25,264.93Z"/><path class="cls-1" d="M480.18,182a2,2,0,0,1-.88-1.67v2.94A5.55,5.55,0,0,1,480.18,182Z"/><path class="cls-1" d="M482.6,185.92a2,2,0,0,0,.74,1.53v-3.06A2,2,0,0,0,482.6,185.92Z"/><path class="cls-1" d="M480,251.76h0a2,2,0,0,0-.66-1.47v1.47Z"/><path class="cls-1" d="M380.66,228.34a5.85,5.85,0,0,1-.77-2.91h-.66v7.24a6.15,6.15,0,0,1,1.43.18Z"/><path class="cls-1" d="M479.3,188.61v4.71a5.86,5.86,0,0,1,3,1.68,8.32,8.32,0,0,1,1.08-.23v-3.05A6,6,0,0,1,479.3,188.61Z"/><path class="cls-1" d="M379.23,199.43a2,2,0,0,1-.68.09,5.92,5.92,0,0,1-1.94,4V207a5.91,5.91,0,0,1,2.62-.62Z"/><path class="cls-1" d="M379.23,195.55v-3.7a5.91,5.91,0,0,1-2.62-.62v3.47l.07.06A8.11,8.11,0,0,1,379.23,195.55Z"/><path class="cls-1" d="M376.61,180.5v.11h0S376.62,180.53,376.61,180.5Z"/><path class="cls-1" d="M380.44,196.6c.07-.14.14-.28.22-.42v-4.51a6.15,6.15,0,0,1-1.43.18v3.7c.13.06.26.11.38.18A2,2,0,0,1,380.44,196.6Z"/><path class="cls-1" d="M379.23,210.29v3.94a2,2,0,0,0,1.43-.61V210.9A2,2,0,0,0,379.23,210.29Z"/><path class="cls-1" d="M380.66,187.28v-2.71a2,2,0,0,0-1.43-.62v4A2,2,0,0,0,380.66,187.28Z"/><path class="cls-1" d="M479.3,241.28V246a5.91,5.91,0,0,1,4,3.25v-4.85A5.93,5.93,0,0,1,479.3,241.28Z"/><path class="cls-1" d="M479.3,204.87v2.79a1.44,1.44,0,0,1,1.58,0,6,6,0,0,1,2.46-1.17v-4.84A6,6,0,0,1,479.3,204.87Z"/><path class="cls-1" d="M482.77,208.85a1.84,1.84,0,0,0,.57.25v-.25Z"/><path class="cls-1" d="M377.25,212.26a2,2,0,0,0,2,2v-3.94A2,2,0,0,0,377.25,212.26Z"/><path class="cls-1" d="M480.88,207.63a1.44,1.44,0,0,0-1.58,0v1.19h.43A6.33,6.33,0,0,1,480.88,207.63Z"/><path class="cls-1" d="M380.64,180.17h0v-.67C380.65,179.73,380.64,180,380.64,180.17Z"/><path class="cls-1" d="M482.6,264.93a2,2,0,0,0,.74,1.53V263.4A2,2,0,0,0,482.6,264.93Z"/><path class="cls-1" d="M479.3,253.23a2,2,0,0,0,.66-1.47h-.66Z"/><path class="cls-1" d="M380.66,222.52V218h0a2,2,0,0,1-1,2c-.12.07-.25.12-.38.18v5.25h.66A5.85,5.85,0,0,1,380.66,222.52Z"/><path class="cls-1" d="M479.3,267.61v4.71a6,6,0,0,1,3.89,2.94,9.22,9.22,0,0,0,.15-1.54v-3A6,6,0,0,1,479.3,267.61Z"/><path class="cls-1" d="M377.25,238.6a2,2,0,0,0,2,2v-3.95A2,2,0,0,0,377.25,238.6Z"/><path class="cls-1" d="M377.25,185.92a2,2,0,0,0,2,2v-4A2,2,0,0,0,377.25,185.92Z"/><path class="cls-1" d="M479.3,257.54v4.71a5.91,5.91,0,0,1,4-3.11v-4.85A5.93,5.93,0,0,1,479.3,257.54Z"/><path class="cls-1" d="M479.3,209.58a5.37,5.37,0,0,1,.43-.73h-.43Z"/><path class="cls-1" d="M380.66,266.29v-2.72a2,2,0,0,0-1.43-.61v4A2,2,0,0,0,380.66,266.29Z"/><path class="cls-1" d="M379.89,251.76a5.88,5.88,0,0,1,.77-2.91v-4.51a6.15,6.15,0,0,1-1.43.18v7.24Z"/><path class="cls-1" d="M379.23,251.76h-.66a5.9,5.9,0,0,1-2,4.39v3.47a5.9,5.9,0,0,1,2.62-.61Z"/><path class="cls-1" d="M380.76,275a8.31,8.31,0,0,1-.1-1.3v-3a6.15,6.15,0,0,1-1.43.18V276h1A5.93,5.93,0,0,1,380.76,275Z"/><path class="cls-1" d="M479.3,200.56a1.94,1.94,0,0,0,.66-1.45l0,0h-.64Z"/><path class="cls-1" d="M479.94,199.09a1.94,1.94,0,0,1-.64-1.18v1.18Z"/><path class="cls-1" d="M378.57,251.76h.66v-7.24a5.78,5.78,0,0,1-2.62-.62v3.48A5.88,5.88,0,0,1,378.57,251.76Z"/><path class="cls-1" d="M479.3,226.9a2,2,0,0,0,.66-1.47h-.66Z"/><path class="cls-1" d="M380.66,254.67a5.85,5.85,0,0,1-.77-2.91h-.66V259a5.66,5.66,0,0,1,1.43.18Z"/><path class="cls-1" d="M378.57,225.43h.66v-5.25a8.25,8.25,0,0,1-2.62.79V221A5.9,5.9,0,0,1,378.57,225.43Z"/><path class="cls-1" d="M379.23,225.43h-.66a5.92,5.92,0,0,1-2,4.39v3.47a5.91,5.91,0,0,1,2.62-.62Z"/><path class="cls-1" d="M380.66,240v-2.71a2,2,0,0,0-1.43-.62v3.95A2,2,0,0,0,380.66,240Z"/><path class="cls-1" d="M378.18,276h1.05v-5.14a5.91,5.91,0,0,1-2.62-.62v3.47A6.06,6.06,0,0,1,378.18,276Z"/><path class="cls-1" d="M378.73,207.11l-2.12,1.31v.68a12.26,12.26,0,0,0,2.15-1.3Z"/><path class="cls-1" d="M376.61,178.94v.57c0-.26,0-.51,0-.77C376.63,178.81,376.61,178.87,376.61,178.94Z"/><path class="cls-1" d="M480,225.43a2,2,0,0,0-.66-1.47v1.47Z"/><path class="cls-1" d="M480,199.11v0h0Z"/><path class="cls-1" d="M483.34,196.56v-1.79a8.32,8.32,0,0,0-1.08.23A5.81,5.81,0,0,1,483.34,196.56Z"/><path class="cls-1" d="M479.55,198.62a1.78,1.78,0,0,0,.39.47h0a2,2,0,0,0-.66-1.47v.29A1.78,1.78,0,0,0,479.55,198.62Z"/><path class="cls-1" d="M480.33,216.39a2,2,0,0,0,0,3.51,8.43,8.43,0,0,0,3,1.06v-2.91A5.87,5.87,0,0,1,480.33,216.39Z"/><path class="cls-1" d="M379.89,199.09h-.66v.34a1.89,1.89,0,0,0,.66-.34Z"/><path class="cls-1" d="M379.89,199.09a5.93,5.93,0,0,1,.55-2.49,2,2,0,0,0-.83-.87c-.12-.07-.25-.12-.38-.18v3.54Z"/><path class="cls-1" d="M378.55,199.52a2,2,0,0,0,.68-.09v-.34h-.66C378.57,199.23,378.56,199.38,378.55,199.52Z"/><path class="cls-1" d="M380.65,218a6.07,6.07,0,0,1-1.42.18v2c.13-.06.26-.11.38-.18A2,2,0,0,0,380.65,218Z"/><path class="cls-1" d="M376.61,217.57V221a8.25,8.25,0,0,0,2.62-.79v-2A5.91,5.91,0,0,1,376.61,217.57Z"/><path class="cls-1" d="M379.23,195.55a8.11,8.11,0,0,0-2.55-.79,5.92,5.92,0,0,1,1.89,4.33h.66Z"/><path class="cls-1" d="M483.34,180.13v-1.19a2.72,2.72,0,0,0,0-.42c0,.53,0,1.07,0,1.61Z"/><path class="cls-1" d="M424.32,131.3c.69-.07,1.37-.13,2.06-.18a5.92,5.92,0,0,1,5.52-3.79h0V127c-.64,0-1.28,0-1.93,0a53.7,53.7,0,0,0-9.12.79A6,6,0,0,1,424.32,131.3Z"/><path class="cls-1" d="M380.66,178.94v.57c0-1.19.08-2.37.18-3.55a5.84,5.84,0,0,1-.95-3.2h-.66V177A2,2,0,0,1,380.66,178.94Z"/><path class="cls-1" d="M458.24,135.23h0v-.17c-.61-.38-1.22-.74-1.84-1.1A2,2,0,0,0,458.24,135.23Z"/><path class="cls-1" d="M437.58,131.56c.58.09,1.16.2,1.73.31a5.92,5.92,0,0,1,2.55-3.59,52.72,52.72,0,0,0-10-1.3v.35A5.94,5.94,0,0,1,437.58,131.56Z"/><path class="cls-1" d="M379.23,172.76v-7.25l-.53,0c-.39,1.36-.75,2.73-1,4.14a5.85,5.85,0,0,1,.9,3.13Z"/><path class="cls-1" d="M382.17,168.09c.39-1.51.85-3,1.37-4.45a5.89,5.89,0,0,1-4.31,1.87v7.25h.66A5.91,5.91,0,0,1,382.17,168.09Z"/><path class="cls-1" d="M458.24,135.23l.22,0-.22-.14Z"/><path class="cls-1" d="M478.94,174.48a2,2,0,0,0,1-1.72h-1.24C478.81,173.32,478.87,173.9,478.94,174.48Z"/><path class="cls-1" d="M470.75,146.42a5.91,5.91,0,0,1-1.57,4c.8,1.05,1.56,2.13,2.27,3.24a5.92,5.92,0,0,1,4.74,9.41c.46,1.24.87,2.51,1.23,3.79a5.44,5.44,0,0,1,.57,0,6,6,0,0,1,4,1.56c-.33-1.42-.7-2.82-1.14-4.2a5.87,5.87,0,0,1-2.12-5.55,52.5,52.5,0,0,0-3.92-7.23,5.91,5.91,0,0,1-2.59-3.67c-.35-.44-.69-.89-1-1.32Z"/><path class="cls-1" d="M418.73,131.28a2,2,0,0,0-1.9,1.48c1.11-.3,2.23-.58,3.37-.81A1.94,1.94,0,0,0,418.73,131.28Z"/><path class="cls-1" d="M479.3,178.94a1.93,1.93,0,0,1,0-.42l-.09,0c0,.59.05,1.17.05,1.76Z"/><path class="cls-1" d="M480,172.76a2,2,0,0,0-1.59-1.94c.13.64.25,1.29.35,1.94Z"/><path class="cls-1" d="M445.07,131.28a2,2,0,0,0-1.91,1.5c1.27.35,2.52.74,3.74,1.19a2,2,0,0,0-1.83-2.69Z"/><path class="cls-1" d="M456.94,139l1.3.88v-.73h0A6.16,6.16,0,0,1,456.94,139Z"/><path class="cls-1" d="M393.06,146.42a5.93,5.93,0,0,1,5.92-5.93,6,6,0,0,1,1.59.23c.92-.69,1.87-1.33,2.84-1.95A6,6,0,0,1,400.3,136a53.64,53.64,0,0,0-9.19,7.81,5.91,5.91,0,0,1,.63,2.65Z"/><path class="cls-1" d="M450.55,135.49c1.08.5,2.14,1,3.18,1.6a5.93,5.93,0,0,1-1.42-3.84,5.83,5.83,0,0,1,.16-1.33c-.63-.3-1.26-.58-1.9-.85a5.84,5.84,0,0,1,.43,2.18A5.78,5.78,0,0,1,450.55,135.49Z"/><path class="cls-1" d="M407.54,133.25a2,2,0,0,0-.4-1.18c-.53.25-1.05.52-1.57.79v2.37A2,2,0,0,0,407.54,133.25Z"/><path class="cls-1" d="M385.16,159.59s0,.09,0,.14a49.44,49.44,0,0,1,8-12.22,5.67,5.67,0,0,1-.1-1.09h-1.32a5.94,5.94,0,0,1-5.93,5.93,6.06,6.06,0,0,1-1.21-.13c-.56.91-1.11,1.84-1.62,2.79A5.88,5.88,0,0,1,385.16,159.59Z"/><path class="cls-1" d="M403.7,133.87a2,2,0,0,0,1.87,1.36h0v-2.37C404.94,133.18,404.31,133.52,403.7,133.87Z"/><path class="cls-1" d="M411.32,134.64l1.55-.61a4.93,4.93,0,0,1-.06-.78,5.86,5.86,0,0,1,1.56-4c-1.21.37-2.39.79-3.56,1.24a5.92,5.92,0,0,1,.68,2.75A5.75,5.75,0,0,1,411.32,134.64Z"/><path class="cls-1" d="M376.59,180.3c0,.07,0,.13,0,.2v-1C376.61,179.77,376.59,180,376.59,180.3Z"/><path class="cls-1" d="M378.64,176.92a2.34,2.34,0,0,1,.59.09v-4.25h-.66a5.89,5.89,0,0,1-1.87,4.3c0,.56-.05,1.12-.07,1.68A2,2,0,0,1,378.64,176.92Z"/><path class="cls-1" d="M482.05,177.06a2,2,0,0,1,1.25,1.46c0-1-.09-1.89-.17-2.83A6,6,0,0,1,482.05,177.06Z"/><path class="cls-1" d="M381.21,159.59a1.86,1.86,0,0,0-.13-.67c-.35.8-.69,1.62-1,2.44A2,2,0,0,0,381.21,159.59Z"/><path class="cls-1" d="M466.59,147.29a2,2,0,0,0,.21-.87h-1C466,146.71,466.32,147,466.59,147.29Z"/><path class="cls-1" d="M471.18,146.42l-.46-.53a4.58,4.58,0,0,1,0,.53Z"/><path class="cls-1" d="M465.77,146.42h1a2,2,0,0,0-2-2,2.06,2.06,0,0,0-.83.18C464.6,145.21,465.19,145.81,465.77,146.42Z"/><path class="cls-1" d="M458.24,139.91c.92.65,1.83,1.33,2.7,2a5.93,5.93,0,0,1,3.88-1.46,5.52,5.52,0,0,1,.71,0q-1.65-1.47-3.42-2.82a5.85,5.85,0,0,1-3.87,1.46Z"/><path class="cls-1" d="M380.66,179.51v-.57a2,2,0,0,0-1.43-1.93v3a5.92,5.92,0,0,1,1.41.17C380.64,180,380.65,179.73,380.66,179.51Z"/><path class="cls-1" d="M379.23,180v-3a2.34,2.34,0,0,0-.59-.09,2,2,0,0,0-2,1.82c0,.26,0,.51,0,.77v1s0,.07,0,.11A5.79,5.79,0,0,1,379.23,180Z"/><path class="cls-1" d="M482.05,177.06a6,6,0,0,1-2.71,1.46,1.93,1.93,0,0,0,0,.42v1.36a2,2,0,0,1,4-.17h0c0-.54,0-1.08,0-1.61A2,2,0,0,0,482.05,177.06Z"/><path class="cls-1" d="M480.18,182a5.92,5.92,0,0,1,3.14-1.84,2,2,0,1,0-3.14,1.84Z"/><path class="cls-4" d="M498.4,146.42h4a2,2,0,0,1,3.95,0h3.89c-1.16-2.65-3.8-4.67-8.44-5.33A5.94,5.94,0,0,0,498.4,146.42Z"/><path class="cls-4" d="M491.16,144.45a2,2,0,0,1,2,2h3.95a5.93,5.93,0,1,0-11.85,0h3.95A2,2,0,0,1,491.16,144.45Z"/><path class="cls-4" d="M486.55,133.25a2,2,0,0,1-2,2v4a5.92,5.92,0,0,0,5.45-3.61c-1.64-1.6-3.45-3.48-5.45-5.48v1.19A2,2,0,0,1,486.55,133.25Z"/><path class="cls-4" d="M486.6,172.76l.15-3.95a5.88,5.88,0,0,0-1.52,3.95Z"/><path class="cls-4" d="M505,159.22a16.84,16.84,0,0,0,5-5.48A5.92,5.92,0,0,0,505,159.22Z"/><path class="cls-4" d="M497.74,153.66a5.92,5.92,0,0,0-3.49,10.7,34.94,34.94,0,0,0,9.39-4.2,5.44,5.44,0,0,0,0-.57A5.94,5.94,0,0,0,497.74,153.66Zm0,7.9a2,2,0,1,1,2-2A2,2,0,0,1,497.74,161.56Z"/><path class="cls-4" d="M486.55,159.59a2,2,0,0,1-2,2v3.95a5.93,5.93,0,1,0,0-11.85v4A2,2,0,0,1,486.55,159.59Z"/><path class="cls-4" d="M506.3,146.42a2,2,0,0,1-3.95,0h-4a5.93,5.93,0,0,0,11.85.1l-.06-.1Z"/><path class="cls-4" d="M491.16,152.35a5.93,5.93,0,0,0,5.92-5.93h-3.95a2,2,0,0,1-3.95,0h-3.95A5.94,5.94,0,0,0,491.16,152.35Z"/><path class="cls-4" d="M485.57,199.09v-.17l-.34-.08c0,.09,0,.17,0,.25Z"/><path class="cls-4" d="M485.66,196.9a5.7,5.7,0,0,0-.42,1.94l.34.08Z"/><path class="cls-4" d="M484.57,187.9v3.95a5.43,5.43,0,0,0,1.29-.15l.17-4.46A2,2,0,0,1,484.57,187.9Z"/><path class="cls-4" d="M484.57,184a2,2,0,0,1,1.56.78l.18-4.47a5.86,5.86,0,0,0-1.74-.26Z"/><path class="cls-4" d="M485.23,172.76a5.86,5.86,0,0,0,1.23,3.59l.14-3.59Z"/><path class="cls-4" d="M484.57,208.81l0,0h.59l.1-2.47a5.68,5.68,0,0,0-.72,0Z"/><path class="cls-4" d="M485.5,200.87l.07-1.78h-.34A6.19,6.19,0,0,0,485.5,200.87Z"/><path class="cls-4" d="M473.45,120.08c-.43-.33-.85-.66-1.3-1a6.62,6.62,0,0,0-.09,1Z"/><path class="cls-4" d="M458.9,120.08h4a2,2,0,0,1,3.95,0h3.95a5.9,5.9,0,0,0-.49-2.34,65.89,65.89,0,0,0-5.8-3.56A5.91,5.91,0,0,0,458.9,120.08Z"/><path class="cls-4" d="M460.73,112.28c-.81-.37-1.64-.73-2.49-1.07v1.63A5.79,5.79,0,0,0,460.73,112.28Z"/><path class="cls-4" d="M478,144.45a2,2,0,0,1,2,2h4a5.93,5.93,0,0,0-11.86,0H476A2,2,0,0,1,478,144.45Z"/><path class="cls-4" d="M458.9,146.42h4a2,2,0,0,1,1.14-1.79c-1-.93-2-1.83-3.05-2.68A5.92,5.92,0,0,0,458.9,146.42Z"/><path class="cls-4" d="M470.72,145.89a5.93,5.93,0,0,0-5.19-5.35A54.63,54.63,0,0,1,470.72,145.89Z"/><path class="cls-4" d="M460.94,142c1.06.85,2.07,1.75,3.05,2.68a2.06,2.06,0,0,1,.83-.18,2,2,0,0,1,2,2h3.95a4.58,4.58,0,0,0,0-.53,54.63,54.63,0,0,0-5.19-5.35,5.52,5.52,0,0,0-.71,0A5.93,5.93,0,0,0,460.94,142Z"/><path class="cls-4" d="M478.65,133.25a5.93,5.93,0,0,0,5.92,5.93h0v-4h0a2,2,0,0,1,0-3.95h0v-1.19c-.74-.75-1.51-1.52-2.31-2.29A5.93,5.93,0,0,0,478.65,133.25Z"/><path class="cls-4" d="M471.41,127.33a5.93,5.93,0,1,0,5.92,5.92A5.93,5.93,0,0,0,471.41,127.33Zm0,7.9a2,2,0,1,1,2-2A2,2,0,0,1,471.41,135.23Z"/><path class="cls-4" d="M460.21,133.25a2,2,0,0,1-1.75,1.95c1.25.8,2.47,1.63,3.65,2.52a5.86,5.86,0,0,0,2.05-4.47,5.93,5.93,0,0,0-5.92-5.92v4A2,2,0,0,1,460.21,133.25Z"/><path class="cls-4" d="M458.24,135.23v4a5.85,5.85,0,0,0,3.87-1.46c-1.18-.89-2.4-1.72-3.65-2.52Z"/><path class="cls-4" d="M472.06,120.08A5.94,5.94,0,0,0,478,126a5.82,5.82,0,0,0,2-.36c-2-1.86-4.18-3.74-6.55-5.57Z"/><path class="cls-4" d="M464.82,126a5.94,5.94,0,0,0,5.93-5.93H466.8a2,2,0,1,1-3.95,0h-4A5.93,5.93,0,0,0,464.82,126Z"/><path class="cls-4" d="M472.06,172.76H476a2,2,0,0,1,2-2,2.33,2.33,0,0,1,.38,0c-.26-1.34-.58-2.66-.95-4A5.94,5.94,0,0,0,472.06,172.76Z"/><path class="cls-4" d="M483.92,172.76a6,6,0,0,0-1.93-4.37c.32,1.44.6,2.89.81,4.37Z"/><path class="cls-4" d="M480,172.76h2.84c-.21-1.48-.49-2.93-.81-4.37a6,6,0,0,0-4-1.56,5.44,5.44,0,0,0-.57,0c.37,1.3.69,2.62.95,4A2,2,0,0,1,480,172.76Z"/><path class="cls-4" d="M470.75,172.76c0-.15,0-.28,0-.42l-.23.42Z"/><path class="cls-4" d="M478.73,158.64a52.92,52.92,0,0,1,2.12,5.55,5.86,5.86,0,0,0,3.72,1.32h0v-3.95h0a2,2,0,0,1,0-3.95h0v-4h0A5.93,5.93,0,0,0,478.73,158.64Z"/><path class="cls-4" d="M478.65,159.59a5.9,5.9,0,0,0,2.2,4.6,52.92,52.92,0,0,0-2.12-5.55A5.89,5.89,0,0,0,478.65,159.59Z"/><path class="cls-4" d="M465.48,159.59s0,.09,0,.14a35.62,35.62,0,0,1,9.29,4.72,5.77,5.77,0,0,0,1.41-1.38,49.38,49.38,0,0,0-4.74-9.41h0A5.94,5.94,0,0,0,465.48,159.59Zm7.9,0a2,2,0,1,1-2-2A2,2,0,0,1,473.38,159.59Z"/><path class="cls-4" d="M477.33,159.59a5.94,5.94,0,0,0-5.88-5.93,49.38,49.38,0,0,1,4.74,9.41A5.92,5.92,0,0,0,477.33,159.59Z"/><path class="cls-4" d="M460,158.68a20.72,20.72,0,0,1,4.17.66,5.93,5.93,0,0,0-5.91-5.68v4A2,2,0,0,1,460,158.68Z"/><path class="cls-4" d="M472.22,147.74c.91,1.19,1.78,2.41,2.59,3.67a5.87,5.87,0,0,0,3.18.94,5.94,5.94,0,0,0,5.93-5.93h-4a2,2,0,0,1-3.95,0h-3.95A5.75,5.75,0,0,0,472.22,147.74Z"/><path class="cls-4" d="M474.81,151.41c-.81-1.26-1.68-2.48-2.59-3.67A5.91,5.91,0,0,0,474.81,151.41Z"/><path class="cls-4" d="M464.82,148.39a2,2,0,0,1-2-2h-4a5.91,5.91,0,0,0,10.28,4c-.82-1.08-1.69-2.13-2.59-3.13A2,2,0,0,1,464.82,148.39Z"/><path class="cls-4" d="M466.59,147.29c.9,1,1.77,2.05,2.59,3.13a5.91,5.91,0,0,0,1.57-4H466.8A2,2,0,0,1,466.59,147.29Z"/><path class="cls-4" d="M477.41,193.2c1,1.19,1.73,1.94,1.73,1.94l-.11,2.28.25.19a1.42,1.42,0,0,1,0-.29v-4a5.72,5.72,0,0,0-1.31-.15A5.49,5.49,0,0,0,477.41,193.2Z"/><path class="cls-4" d="M483.34,199.09h.58c0-.1,0-.21,0-.31a3.73,3.73,0,0,0-.56.12Z"/><path class="cls-4" d="M479.28,197.61h0v-.3A1.42,1.42,0,0,0,479.28,197.61Z"/><path class="cls-4" d="M483.9,198.78a5.91,5.91,0,0,0-.56-2.22v2.34A3.73,3.73,0,0,1,483.9,198.78Z"/><path class="cls-4" d="M483.34,198.9a3.86,3.86,0,0,0-.54.19h.54Z"/><path class="cls-4" d="M480.27,195.85a8.23,8.23,0,0,1,2-.85,5.86,5.86,0,0,0-3-1.68v4A2,2,0,0,1,480.27,195.85Z"/><path class="cls-4" d="M480.27,195.85a2,2,0,0,0-1,1.47v.3a2,2,0,0,1,.66,1.47h2.84a3.86,3.86,0,0,1,.54-.19v-2.34a5.81,5.81,0,0,0-1.08-1.56A8.23,8.23,0,0,0,480.27,195.85Z"/><path class="cls-4" d="M479.3,188.61v-5.37a5.87,5.87,0,0,0,0,5.37Z"/><path class="cls-4" d="M483.34,180.13v4.26a2,2,0,0,1,1.23-.44h0V180h0A5.58,5.58,0,0,0,483.34,180.13Z"/><path class="cls-4" d="M483.34,187.45v4.27a6.26,6.26,0,0,0,1.23.13h0V187.9h0A1.92,1.92,0,0,1,483.34,187.45Z"/><path class="cls-4" d="M481.32,182.32a2,2,0,0,1-1.14-.35,5.55,5.55,0,0,0-.88,1.27v5.37a6,6,0,0,0,4,3.11v-4.27a2,2,0,0,1,0-3.06V180.3A2,2,0,0,1,481.32,182.32Z"/><path class="cls-4" d="M483.34,180.3v-.17h0Z"/><path class="cls-4" d="M483.32,180.13a1,1,0,0,1,0,.17v-.17Z"/><path class="cls-4" d="M480.18,182a2,2,0,0,0,3.16-1.67,1,1,0,0,0,0-.17A5.92,5.92,0,0,0,480.18,182Z"/><path class="cls-4" d="M477.33,185.92a5.92,5.92,0,0,0-8.35-5.4,16.8,16.8,0,0,0,1.67,3.58,1.91,1.91,0,0,1,.76-.15,2,2,0,0,1,1.36,3.39c.79,1.11,1.61,2.18,2.4,3.16A5.93,5.93,0,0,0,477.33,185.92Z"/><path class="cls-4" d="M478,178.68a5.86,5.86,0,0,0,1.26-.14c-.05-1.37-.15-2.72-.31-4.06a2,2,0,0,1-.95.25,2,2,0,0,1-2-2h-3.95A5.93,5.93,0,0,0,478,178.68Z"/><path class="cls-4" d="M483.13,175.69a5.84,5.84,0,0,0,.79-2.93H482.8C482.94,173.73,483,174.71,483.13,175.69Z"/><path class="cls-4" d="M480,172.76h0a2,2,0,0,1-1,1.72c.16,1.34.26,2.69.31,4.06l.09,0a2,2,0,0,1,2-1.6,2,2,0,0,1,.73.14,6,6,0,0,0,1.08-1.37c-.09-1-.19-2-.33-2.93Z"/><path class="cls-4" d="M481.32,176.92a2,2,0,0,0-2,1.6,6,6,0,0,0,2.71-1.46A2,2,0,0,0,481.32,176.92Z"/><path class="cls-4" d="M468.9,177a5.88,5.88,0,0,0,1.85-4.28h-.25A15.48,15.48,0,0,0,468.9,177Z"/><path class="cls-4" d="M484,208.85h0c.22-.33.41-.33.55,0v-2.48h0a6.26,6.26,0,0,0-1.23.13v2.39Z"/><path class="cls-4" d="M482.77,208.85h.57v-2.39a6,6,0,0,0-2.46,1.17C481.54,208,482.2,208.51,482.77,208.85Z"/><path class="cls-4" d="M483.34,201.62a5.8,5.8,0,0,0,.58-2.53h-.58Z"/><path class="cls-4" d="M479.3,200.56a2.16,2.16,0,0,1-.43.29l-.19,4.12a6.17,6.17,0,0,0,.62-.1Z"/><path class="cls-4" d="M480,199.11a1.94,1.94,0,0,1-.66,1.45v4.31a6,6,0,0,0,4-3.25v-2.53h-.54c-.16.07-.32.16-.49.25A2,2,0,0,1,480,199.11Z"/><path class="cls-4" d="M480,199.11a2,2,0,0,0,2.35.23c.17-.09.33-.18.49-.25H480Z"/><path class="cls-4" d="M451.65,118.11a2,2,0,0,1,2,2h3.95a5.93,5.93,0,0,0-11.85,0h3.95A2,2,0,0,1,451.65,118.11Z"/><path class="cls-4" d="M438.49,118.11a2,2,0,0,1,2,2h4a5.93,5.93,0,0,0-11.85,0h3.95A2,2,0,0,1,438.49,118.11Z"/><path class="cls-4" d="M458.24,112.84h0v-1.63q-2.6-1-5.41-1.88A5.93,5.93,0,0,0,458.24,112.84Z"/><path class="cls-4" d="M445.07,112.84a5.94,5.94,0,0,0,5.63-4.07c-1.28-.32-2.59-.61-3.94-.85a2,2,0,0,1-3.6-.53c-1.3-.15-2.64-.24-4-.31A5.93,5.93,0,0,0,445.07,112.84Z"/><path class="cls-4" d="M431.9,108.89v4a5.93,5.93,0,0,0,5.92-5.79c-.55,0-1.09,0-1.65,0-.78,0-1.55,0-2.31.09A2,2,0,0,1,431.9,108.89Z"/><path class="cls-4" d="M451.65,144.45a2,2,0,0,1,2,2h3.95a5.93,5.93,0,1,0-11.85,0h3.95A2,2,0,0,1,451.65,144.45Z"/><path class="cls-4" d="M438.49,144.45a2,2,0,0,1,2,2h4a5.93,5.93,0,1,0-11.85,0h3.95A2,2,0,0,1,438.49,144.45Z"/><path class="cls-4" d="M456.94,139c-1-.68-2.11-1.34-3.21-1.94A6,6,0,0,0,456.94,139Z"/><path class="cls-4" d="M452.47,131.92c1.34.62,2.65,1.31,3.93,2a1.87,1.87,0,0,1-.14-.71,2,2,0,0,1,2-2h0v-4h0A5.93,5.93,0,0,0,452.47,131.92Z"/><path class="cls-4" d="M453.73,137.09c1.1.6,2.17,1.26,3.21,1.94a6.16,6.16,0,0,0,1.3.15h0v-4h0A2,2,0,0,1,456.4,134c-1.28-.73-2.59-1.42-3.93-2a5.83,5.83,0,0,0-.16,1.33A5.93,5.93,0,0,0,453.73,137.09Z"/><path class="cls-4" d="M445.07,139.18a5.92,5.92,0,0,0,5.48-3.69c-1.19-.55-2.4-1.07-3.65-1.52a2,2,0,0,1-1.83,1.26,2,2,0,0,1-2-2,1.84,1.84,0,0,1,.07-.47c-1.26-.35-2.55-.66-3.85-.91a6.28,6.28,0,0,0-.17,1.38A5.94,5.94,0,0,0,445.07,139.18Z"/><path class="cls-4" d="M445.07,127.33a5.9,5.9,0,0,0-3.21,1,53.28,53.28,0,0,1,8.71,2.79A5.92,5.92,0,0,0,445.07,127.33Z"/><path class="cls-4" d="M445.07,131.28A2,2,0,0,1,446.9,134c1.25.45,2.46,1,3.65,1.52a5.78,5.78,0,0,0,.45-2.24,5.84,5.84,0,0,0-.43-2.18,53.28,53.28,0,0,0-8.71-2.79,5.92,5.92,0,0,0-2.55,3.59c1.3.25,2.59.56,3.85.91A2,2,0,0,1,445.07,131.28Z"/><path class="cls-4" d="M431.9,131.28a2,2,0,1,1,0,3.95v4a5.92,5.92,0,0,0,5.68-7.62,50.57,50.57,0,0,0-5.68-.54Z"/><path class="cls-4" d="M437.58,131.56a5.94,5.94,0,0,0-5.68-4.23V131A50.57,50.57,0,0,1,437.58,131.56Z"/><path class="cls-4" d="M451.65,126a5.94,5.94,0,0,0,5.93-5.93h-3.95a2,2,0,1,1-3.95,0h-3.95A5.93,5.93,0,0,0,451.65,126Z"/><path class="cls-4" d="M438.49,126a5.93,5.93,0,0,0,5.92-5.93h-4a2,2,0,1,1-3.95,0h-3.95A5.94,5.94,0,0,0,438.49,126Z"/><path class="cls-4" d="M441.33,167.56a5.91,5.91,0,0,0-6.58.6c.48,0,.95.06,1.42.06A19,19,0,0,0,441.33,167.56Z"/><path class="cls-4" d="M452.31,159.59a5.62,5.62,0,0,0,.08.92,11.89,11.89,0,0,1,4-1.62,2,2,0,0,1,1.84-1.28h0v-4h0A5.94,5.94,0,0,0,452.31,159.59Z"/><path class="cls-4" d="M451,159.59a5.93,5.93,0,1,0-5.93,5.92,6.84,6.84,0,0,0,.79,0c1.73-1.15,3.18-2.48,4.7-3.66A5.85,5.85,0,0,0,451,159.59Zm-5.93,2a2,2,0,1,1,2-2A2,2,0,0,1,445.07,161.56Z"/><path class="cls-4" d="M437.83,159.59a5.94,5.94,0,0,0-5.93-5.93v4a2,2,0,1,1,0,3.95v3.95A5.93,5.93,0,0,0,437.83,159.59Z"/><path class="cls-4" d="M451.65,152.35a5.94,5.94,0,0,0,5.93-5.93h-3.95a2,2,0,0,1-3.95,0h-3.95A5.93,5.93,0,0,0,451.65,152.35Z"/><path class="cls-4" d="M438.49,152.35a5.93,5.93,0,0,0,5.92-5.93h-4a2,2,0,0,1-3.95,0h-3.95A5.94,5.94,0,0,0,438.49,152.35Z"/><path class="cls-4" d="M425.32,114.16a5.93,5.93,0,0,0-5.93,5.92h3.95a2,2,0,0,1,4,0h3.95A5.93,5.93,0,0,0,425.32,114.16Z"/><path class="cls-4" d="M412.15,118.11a2,2,0,0,1,2,2h4a5.92,5.92,0,0,0-3.95-5.57,63.12,63.12,0,0,0-7,5.57h3.08A2,2,0,0,1,412.15,118.11Z"/><path class="cls-4" d="M431.9,112.84h0v-4h0a2,2,0,0,1-1.85-1.3,37.18,37.18,0,0,0-3.84,1A5.93,5.93,0,0,0,431.9,112.84Z"/><path class="cls-4" d="M424.18,109.25a45.32,45.32,0,0,0-7.05,3.37,6.06,6.06,0,0,0,1.6.22A5.94,5.94,0,0,0,424.18,109.25Z"/><path class="cls-4" d="M425.32,144.45a2,2,0,0,1,2,2h3.95a5.93,5.93,0,1,0-11.85,0h3.95A2,2,0,0,1,425.32,144.45Z"/><path class="cls-4" d="M412.15,144.45a2,2,0,0,1,2,2h4a5.93,5.93,0,0,0-11.86,0h3.95A2,2,0,0,1,412.15,144.45Z"/><path class="cls-4" d="M431.9,139.18h0v-4h0a2,2,0,0,1,0-3.95h0V131c-.64,0-1.28-.05-1.93-.05-1.21,0-2.4.06-3.59.15a5.8,5.8,0,0,0-.4,2.13A5.93,5.93,0,0,0,431.9,139.18Z"/><path class="cls-4" d="M431.9,131v-3.69h0a5.92,5.92,0,0,0-5.52,3.79c1.19-.09,2.38-.15,3.59-.15C430.62,131,431.26,131,431.9,131Z"/><path class="cls-4" d="M418.73,127.33a5.88,5.88,0,0,0-4.36,1.93,51.79,51.79,0,0,1,6.48-1.54A6,6,0,0,0,418.73,127.33Z"/><path class="cls-4" d="M418.73,139.18a5.94,5.94,0,0,0,5.93-5.93,5.79,5.79,0,0,0-.34-1.95c-1.39.16-2.76.37-4.12.65a1.94,1.94,0,0,1,.51,1.3,2,2,0,1,1-3.88-.49c-1.35.37-2.67.79-4,1.27A5.92,5.92,0,0,0,418.73,139.18Z"/><path class="cls-4" d="M412.87,134c1.29-.48,2.61-.9,4-1.27a2,2,0,0,1,3.37-.81c1.36-.28,2.73-.49,4.12-.65a6,6,0,0,0-3.47-3.58,51.79,51.79,0,0,0-6.48,1.54,5.86,5.86,0,0,0-1.56,4A4.93,4.93,0,0,0,412.87,134Z"/><path class="cls-4" d="M411.32,134.64a48.61,48.61,0,0,0-5.75,2.82v1.72A5.94,5.94,0,0,0,411.32,134.64Z"/><path class="cls-4" d="M407.14,132.07c1.2-.57,2.42-1.09,3.67-1.57a5.92,5.92,0,0,0-5.24-3.17v4A2,2,0,0,1,407.14,132.07Z"/><path class="cls-4" d="M407.54,133.25a2,2,0,0,1-2,2v2.23a48.61,48.61,0,0,1,5.75-2.82,5.75,5.75,0,0,0,.17-1.39,5.92,5.92,0,0,0-.68-2.75c-1.25.48-2.47,1-3.67,1.57A2,2,0,0,1,407.54,133.25Z"/><path class="cls-4" d="M427.29,120.08a2,2,0,1,1-4,0h-3.95a5.93,5.93,0,1,0,11.85,0h-3.95Z"/><path class="cls-4" d="M412.15,126a5.94,5.94,0,0,0,5.93-5.93h-4a2,2,0,1,1-3.95,0h-3.08l-.81.75A5.93,5.93,0,0,0,412.15,126Z"/><path class="cls-4" d="M431.9,161.56a2,2,0,0,1,0-3.95h0v-4h0a5.93,5.93,0,0,0,0,11.85h0v-3.95Z"/><path class="cls-4" d="M424.66,159.59a5.93,5.93,0,0,0-11.82-.65c3.36,1.67,6.6,3.51,9.77,5.12A5.93,5.93,0,0,0,424.66,159.59Zm-5.93,2a2,2,0,1,1,2-2A2,2,0,0,1,418.73,161.56Z"/><path class="cls-4" d="M411.32,158.21a5.92,5.92,0,0,0-5.75-4.55v2.18A55.17,55.17,0,0,1,411.32,158.21Z"/><path class="cls-4" d="M425.32,152.35a5.93,5.93,0,0,0,5.92-5.93h-3.95a2,2,0,0,1-4,0h-3.95A5.94,5.94,0,0,0,425.32,152.35Z"/><path class="cls-4" d="M412.15,152.35a5.94,5.94,0,0,0,5.93-5.93h-4a2,2,0,0,1-3.95,0h-3.95A5.94,5.94,0,0,0,412.15,152.35Z"/><path class="cls-4" d="M394.16,146.42H397a2,2,0,0,1,3.95,0h4a5.92,5.92,0,0,0-4.34-5.7A49.56,49.56,0,0,0,394.16,146.42Z"/><path class="cls-4" d="M400.57,140.72a6,6,0,0,0-1.59-.23,5.93,5.93,0,0,0-5.92,5.93h1.1A49.56,49.56,0,0,1,400.57,140.72Z"/><path class="cls-4" d="M385.81,144.45a2,2,0,0,1,2,2h1c.75-.91,1.54-1.79,2.35-2.65a5.92,5.92,0,0,0-11.22,2.65h3.95A2,2,0,0,1,385.81,144.45Z"/><path class="cls-4" d="M391.74,146.42a5.91,5.91,0,0,0-.63-2.65c-.81.86-1.6,1.74-2.35,2.65Z"/><path class="cls-4" d="M405.57,139.18v-1.72c-.74.42-1.46.85-2.16,1.31a5.93,5.93,0,0,0,2.16.41Z"/><path class="cls-4" d="M403.59,133.25a2,2,0,0,1,2-2h0v-4h0A5.91,5.91,0,0,0,400.3,136c1.1-.74,2.24-1.43,3.4-2.09A1.84,1.84,0,0,1,403.59,133.25Z"/><path class="cls-4" d="M403.41,138.77c.7-.46,1.42-.89,2.16-1.31v-2.23h0a2,2,0,0,1-1.87-1.36c-1.16.66-2.3,1.35-3.4,2.09A6,6,0,0,0,403.41,138.77Z"/><path class="cls-4" d="M392.4,139.18a5.93,5.93,0,1,0-5.93-5.93A5.93,5.93,0,0,0,392.4,139.18Zm0-7.9a2,2,0,1,1-2,2A2,2,0,0,1,392.4,131.28Z"/><path class="cls-4" d="M385.16,133.25a5.93,5.93,0,0,0-5.93-5.92v4a2,2,0,1,1,0,3.95v4A5.94,5.94,0,0,0,385.16,133.25Z"/><path class="cls-4" d="M404.22,122.85c-.79.81-1.5,1.57-2.12,2.26A6,6,0,0,0,404.22,122.85Z"/><path class="cls-4" d="M385.81,126a5.9,5.9,0,0,0,4.92-2.63,15.35,15.35,0,0,0-3.32-.36,21,21,0,0,0-6.12.88A5.89,5.89,0,0,0,385.81,126Z"/><path class="cls-4" d="M383.84,172.76a2,2,0,1,1,4,0h1.78a38.45,38.45,0,0,0-4.14-5.91,5.93,5.93,0,0,0-3.26,1.24c-.39,1.53-.71,3.09-1,4.67Z"/><path class="cls-4" d="M382.17,168.09a5.91,5.91,0,0,0-2.28,4.67h1.32C381.46,171.18,381.78,169.62,382.17,168.09Z"/><path class="cls-4" d="M405.57,153.66h0a5.87,5.87,0,0,0-3.54,1.19q1.79.41,3.54,1Z"/><path class="cls-4" d="M394.79,154.17a5.91,5.91,0,0,0-8.21,4.3A11.73,11.73,0,0,1,394.79,154.17Z"/><path class="cls-4" d="M381.08,158.92c.58-1.34,1.21-2.64,1.9-3.91a5.89,5.89,0,0,0-3.75-1.35v4A2,2,0,0,1,381.08,158.92Z"/><path class="cls-4" d="M383.54,163.64a5.91,5.91,0,0,0,1.61-3.91C384.56,161,384,162.31,383.54,163.64Z"/><path class="cls-4" d="M379.23,161.56v2.2c.26-.81.54-1.61.85-2.4A1.9,1.9,0,0,1,379.23,161.56Z"/><path class="cls-4" d="M383.54,163.64c.48-1.33,1-2.63,1.61-3.91,0,0,0-.09,0-.14A5.88,5.88,0,0,0,383,155c-.69,1.27-1.32,2.57-1.9,3.91a1.86,1.86,0,0,1,.13.67,2,2,0,0,1-1.13,1.77c-.31.79-.59,1.59-.85,2.4v1.75A5.89,5.89,0,0,0,383.54,163.64Z"/><path class="cls-4" d="M399,152.35a5.94,5.94,0,0,0,5.93-5.93h-4a2,2,0,0,1-3.95,0h-2.85c-.33.36-.67.72-1,1.09A5.93,5.93,0,0,0,399,152.35Z"/><path class="cls-4" d="M393.16,147.51c.33-.37.67-.73,1-1.09h-1.1A5.67,5.67,0,0,0,393.16,147.51Z"/><path class="cls-4" d="M384.6,152.22a53.18,53.18,0,0,1,4.16-5.8h-1a2,2,0,0,1-4,0h-3.95A5.93,5.93,0,0,0,384.6,152.22Z"/><path class="cls-4" d="M391.74,146.42h-3a53.18,53.18,0,0,0-4.16,5.8,6.06,6.06,0,0,0,1.21.13A5.94,5.94,0,0,0,391.74,146.42Z"/><path class="cls-4" d="M381.17,199.09l-.16-3.46c-.12.18-.24.36-.35.55v2.91Z"/><path class="cls-4" d="M380.41,198.48a2.06,2.06,0,0,1-.52.61h.77v-2.91c-.08.14-.15.28-.22.42A2,2,0,0,1,380.41,198.48Z"/><path class="cls-4" d="M380.41,198.48a2,2,0,0,0,0-1.88,5.93,5.93,0,0,0-.55,2.49h0A2.06,2.06,0,0,0,380.41,198.48Z"/><path class="cls-4" d="M386.47,185.92a5.9,5.9,0,0,0,.39,2.11c2-2.71,3.86-5.68,4.4-7.92A5.94,5.94,0,0,0,386.47,185.92Z"/><path class="cls-4" d="M385.16,185.92a5.93,5.93,0,0,0-4.5-5.74v4.39a1.94,1.94,0,0,1,0,2.71v4.39A5.93,5.93,0,0,0,385.16,185.92Z"/><path class="cls-4" d="M380.66,187.28a2,2,0,0,1-1.43.62v3.95a6.15,6.15,0,0,0,1.43-.18Z"/><path class="cls-4" d="M380.66,184.57v-4.39h0v.13a2,2,0,0,1-1.41,1.92V184A2,2,0,0,1,380.66,184.57Z"/><path class="cls-4" d="M380.64,180.3v-.13a5.92,5.92,0,0,0-1.41-.17v2.22A2,2,0,0,0,380.64,180.3Z"/><path class="cls-4" d="M385.81,178.68a5.92,5.92,0,0,0,5.08-2.89,16.38,16.38,0,0,0-1.32-3h-1.78a2,2,0,0,1-4,0h-2.63c-.16,1.05-.28,2.13-.37,3.2A5.91,5.91,0,0,0,385.81,178.68Z"/><path class="cls-4" d="M379.89,172.76h0a5.84,5.84,0,0,0,.95,3.2c.09-1.07.21-2.15.37-3.2Z"/><path class="cls-4" d="M381.53,206.8a5.19,5.19,0,0,0-.87-.28v1.15a2.64,2.64,0,0,1,.78,1.18h.19Z"/><path class="cls-4" d="M380.66,207.67v-1.15a5.67,5.67,0,0,0-1.43-.19v1.23A1.34,1.34,0,0,1,380.66,207.67Z"/><path class="cls-4" d="M381.17,199.09h-.51V202a6.17,6.17,0,0,0,.69,1Z"/><path class="cls-4" d="M379.89,199.09h0a5.85,5.85,0,0,0,.77,2.91v-2.91Z"/><polygon class="cls-4" points="379.89 199.09 379.89 199.09 379.89 199.09 379.89 199.09 379.89 199.09"/><path class="cls-4" d="M372.65,140.49a5.94,5.94,0,0,0-5.93,5.93h3.95a2,2,0,0,1,3.95,0h3.95A5.93,5.93,0,0,0,372.65,140.49Z"/><path class="cls-4" d="M377.25,133.25a2,2,0,0,1,2-2v-4a5.93,5.93,0,1,0,0,11.85v-4A2,2,0,0,1,377.25,133.25Z"/><path class="cls-4" d="M372,133.25a5.85,5.85,0,0,0-.5-2.37,27.85,27.85,0,0,0-4.18,8.16A5.93,5.93,0,0,0,372,133.25Z"/><path class="cls-4" d="M372.65,170.78a2,2,0,0,1,2,2h2.52c.15-1.06.32-2.1.53-3.13a5.92,5.92,0,0,0-10.78,1.73c.08.47.17.93.25,1.4h3.53A2,2,0,0,1,372.65,170.78Z"/><path class="cls-4" d="M377.67,169.63c-.21,1-.38,2.07-.53,3.13h1.43A5.85,5.85,0,0,0,377.67,169.63Z"/><path class="cls-4" d="M379.23,161.56a2,2,0,1,1,0-3.95v-4a5.93,5.93,0,0,0-.53,11.83c.17-.58.34-1.16.53-1.73Z"/><path class="cls-4" d="M379.23,163.76c-.19.57-.36,1.15-.53,1.73l.53,0Z"/><path class="cls-4" d="M372,159.59a5.94,5.94,0,0,0-5.93-5.93,6.39,6.39,0,0,0-1,.09c0,.29,0,.58,0,.87,0,1,0,2.09.1,3.22a2,2,0,1,1,.9,3.72,1.92,1.92,0,0,1-.59-.1c.13,1.31.3,2.66.49,4h.1A5.93,5.93,0,0,0,372,159.59Z"/><path class="cls-4" d="M374.62,146.42a2,2,0,0,1-3.95,0h-3.95a5.93,5.93,0,1,0,11.85,0h-3.95Z"/><path class="cls-4" d="M376.61,199.09v-.23a4.25,4.25,0,0,0-.94-.12,3.91,3.91,0,0,0-1.07.16,1.37,1.37,0,0,1,0,.19Z"/><path class="cls-4" d="M376.61,194.76v-.06a5.89,5.89,0,0,0-4-1.53,6.24,6.24,0,0,0-1,.08l.58,2.25a7.84,7.84,0,0,1,3.41-.8A7.3,7.3,0,0,1,376.61,194.76Z"/><path class="cls-4" d="M374.6,198.9a3.91,3.91,0,0,1,1.07-.16,4.25,4.25,0,0,1,.94.12v-4.1a7.3,7.3,0,0,0-.94-.06,7.84,7.84,0,0,0-3.41.8q.21.83.42,1.62A2,2,0,0,1,374.6,198.9Z"/><path class="cls-4" d="M376.61,194.7v.06h.07Z"/><path class="cls-4" d="M377.28,199.09a5.3,5.3,0,0,0-.67-.23v.23Z"/><path class="cls-4" d="M378.57,199.09a5.92,5.92,0,0,0-1.89-4.33h-.07v4.1a5.3,5.3,0,0,1,.67.23Z"/><path class="cls-4" d="M373.3,185.92a5.94,5.94,0,0,0,3.31,5.31V180.61A6,6,0,0,0,373.3,185.92Z"/><path class="cls-4" d="M379.23,187.9a2,2,0,1,1,0-4v-1.73a2.11,2.11,0,0,1-.61.1,2,2,0,0,1-2-1.71h0v10.62a5.91,5.91,0,0,0,2.62.62Z"/><path class="cls-4" d="M376.63,180.61a2,2,0,0,0,2,1.71,2.11,2.11,0,0,0,.61-.1V180A5.79,5.79,0,0,0,376.63,180.61Z"/><path class="cls-4" d="M368.72,180.64c.66,3,1.35,6,2,8.88a5.89,5.89,0,0,0-2-8.88Z"/><path class="cls-4" d="M372.65,178.68a5.9,5.9,0,0,0,4.05-1.62c.09-1.45.23-2.88.44-4.3h-2.52a2,2,0,0,1-3.95,0h-3.53c.21,1.12.43,2.25.65,3.38A5.93,5.93,0,0,0,372.65,178.68Z"/><path class="cls-4" d="M378.57,172.76h-1.43c-.21,1.42-.35,2.85-.44,4.3A5.89,5.89,0,0,0,378.57,172.76Z"/><path class="cls-4" d="M375.92,208.85l.69-.43V207a6,6,0,0,0-1.05.67l.36,1.23Z"/><path class="cls-4" d="M378.76,207.8a2.61,2.61,0,0,1,.47-.24v-1.23a5.91,5.91,0,0,0-2.62.62v1.47l2.12-1.31Z"/><path class="cls-4" d="M376.61,199.09h-2a2,2,0,0,1-1,1.69c.39,1.45.75,2.75,1.06,3.86a6,6,0,0,0,1.9-1.16Z"/><path class="cls-4" d="M378.55,199.52a2.1,2.1,0,0,1-.89-.25c-.12-.07-.25-.12-.38-.18h-.67v4.39A5.92,5.92,0,0,0,378.55,199.52Z"/><path class="cls-4" d="M378.55,199.52c0-.14,0-.29,0-.43h-1.29c.13.06.26.11.38.18A2.1,2.1,0,0,0,378.55,199.52Z"/><path class="cls-4" d="M485.1,214.15a1.84,1.84,0,0,1-.53.08V217a5,5,0,0,0,.54-.06C485.12,215.94,485.11,215,485.1,214.15Z"/><path class="cls-4" d="M484.57,210.29a1.69,1.69,0,0,1,.33,0,5.24,5.24,0,0,0-.3-1.47h0Z"/><path class="cls-4" d="M484.57,218.19c.18,0,.36,0,.53,0,0-.42,0-.84,0-1.24a5,5,0,0,1-.54.06Z"/><path class="cls-4" d="M484.57,208.85h0l0,0Z"/><path class="cls-4" d="M484.57,233c0-.11,0-.22,0-.34h0Z"/><path class="cls-4" d="M485.62,276H487c0-.66-.06-1.33-.1-2A5.84,5.84,0,0,0,485.62,276Z"/><path class="cls-4" d="M484.57,263a2,2,0,0,1,1.61.83c-.14-1.57-.28-3.13-.43-4.67a6.47,6.47,0,0,0-1.18-.11Z"/><path class="cls-4" d="M484.57,266.91v3.95a6,6,0,0,0,2.13-.4c-.11-1.52-.23-3.09-.35-4.67A2,2,0,0,1,484.57,266.91Z"/><path class="cls-4" d="M477.81,219.51c-.08,1.29-.17,2.63-.26,4a2.2,2.2,0,0,1,.44-.05,2,2,0,0,1,1.31.51v-4.31a6.34,6.34,0,0,0-1.31-.15Z"/><path class="cls-4" d="M483.92,225.43a5.8,5.8,0,0,0-.58-2.53v2.53Z"/><path class="cls-4" d="M479.3,219.65V224a2,2,0,0,1,.66,1.47h3.38V222.9A6,6,0,0,0,479.3,219.65Z"/><path class="cls-4" d="M483.34,209.1v1.63a2,2,0,0,1,1.23-.44h0v-1.44H484A.56.56,0,0,1,483.34,209.1Z"/><path class="cls-4" d="M479.3,214.94v-5.36a5.85,5.85,0,0,0,0,5.36Z"/><path class="cls-4" d="M483.34,213.79v3a4,4,0,0,0,1.08.16h.15v-2.75h0A2,2,0,0,1,483.34,213.79Z"/><path class="cls-4" d="M484.42,217a4,4,0,0,1-1.08-.16v1.22a5.59,5.59,0,0,0,1.23.14h0V217Z"/><path class="cls-4" d="M482.6,212.26a2,2,0,0,1,.74-1.53V209.1a1.84,1.84,0,0,1-.57-.25h-3a5.37,5.37,0,0,0-.43.73v5.36a5.78,5.78,0,0,0,1,1.45,2,2,0,0,1,2,0,4.2,4.2,0,0,0,1,.43v-3A2,2,0,0,1,482.6,212.26Z"/><path class="cls-4" d="M480.33,216.39a5.87,5.87,0,0,0,3,1.66v-1.22a4.2,4.2,0,0,1-1-.43A2,2,0,0,0,480.33,216.39Z"/><path class="cls-4" d="M484,208.85h.55v0C484.43,208.52,484.24,208.52,484,208.85Z"/><path class="cls-4" d="M479.73,208.85h3c-.57-.34-1.23-.9-1.89-1.22A6.33,6.33,0,0,0,479.73,208.85Z"/><path class="cls-4" d="M476.28,246.09a21.15,21.15,0,0,1-1.76,5.67H476a2,2,0,0,1,3.29-1.47V246a5.72,5.72,0,0,0-1.31-.15A6,6,0,0,0,476.28,246.09Z"/><path class="cls-4" d="M483.92,251.76h0a5.76,5.76,0,0,0-.58-2.52v2.52Z"/><path class="cls-4" d="M479.3,246v4.3a2,2,0,0,1,.66,1.47h3.38v-2.52A5.91,5.91,0,0,0,479.3,246Z"/><path class="cls-4" d="M479.3,241.28v-5.37a5.87,5.87,0,0,0,0,5.37Z"/><path class="cls-4" d="M483.34,244.39a5.28,5.28,0,0,0,.89.11c-.13-1.14-.21-1.79-.21-1.79s.06-.81.14-2.19a1.89,1.89,0,0,1-.82-.39Z"/><path class="cls-4" d="M484.57,232.67a6.26,6.26,0,0,0-1.23.13v4.27a1.93,1.93,0,0,1,1-.43c.06-1.11.13-2.34.19-3.63v-.34Z"/><path class="cls-4" d="M479.3,235.91v5.37a5.93,5.93,0,0,0,4,3.11v-4.26a2,2,0,0,1,0-3.06V232.8A5.93,5.93,0,0,0,479.3,235.91Z"/><path class="cls-4" d="M477.33,238.6a6,6,0,0,0-.52-2.43c-.12,2.16-.2,4-.25,5.33A5.84,5.84,0,0,0,477.33,238.6Z"/><path class="cls-4" d="M478,227.4a2.09,2.09,0,0,1-.67-.12c-.08,1.35-.16,2.69-.24,4a6.84,6.84,0,0,0,.91.07,5.72,5.72,0,0,0,1.31-.15v-4.3A2,2,0,0,1,478,227.4Z"/><path class="cls-4" d="M483.34,228a5.84,5.84,0,0,0,.58-2.53h-.58Z"/><path class="cls-4" d="M480,225.43a2,2,0,0,1-.66,1.47v4.3a5.92,5.92,0,0,0,4-3.24v-2.53Z"/><path class="cls-4" d="M483,276h.5a5.4,5.4,0,0,0-.33-.74C483.15,275.5,483.08,275.75,483,276Z"/><path class="cls-4" d="M472.45,276h6.39a7.1,7.1,0,0,0,.46-2.28v-1.4a6.34,6.34,0,0,0-1.31-.15A5.94,5.94,0,0,0,472.45,276Z"/><path class="cls-4" d="M479.3,272.32v1.4a7.1,7.1,0,0,1-.46,2.28H483c.06-.25.13-.5.17-.74A6,6,0,0,0,479.3,272.32Z"/><path class="cls-4" d="M464.82,272.17a5.93,5.93,0,0,0-5.53,3.83h11.07A5.94,5.94,0,0,0,464.82,272.17Z"/><path class="cls-4" d="M483.34,259.14v4.26a2,2,0,0,1,1.23-.44h0V259h0A5.58,5.58,0,0,0,483.34,259.14Z"/><path class="cls-4" d="M479.3,267.61v-5.36a5.8,5.8,0,0,0-.65,2.68A5.74,5.74,0,0,0,479.3,267.61Z"/><path class="cls-4" d="M483.34,266.46v4.27a6.26,6.26,0,0,0,1.23.13h0v-3.95h0A1.92,1.92,0,0,1,483.34,266.46Z"/><path class="cls-4" d="M479.3,262.25v5.36a6,6,0,0,0,4,3.12v-4.27a2,2,0,0,1,0-3.06v-4.26A5.91,5.91,0,0,0,479.3,262.25Z"/><path class="cls-4" d="M466.21,262.09a5.92,5.92,0,1,0,5.2-3.08,5.81,5.81,0,0,0-2.37.49A36,36,0,0,1,466.21,262.09Zm5.2.87a2,2,0,1,1-2,2A2,2,0,0,1,471.41,263Z"/><path class="cls-4" d="M458.86,266.8l-.62.28v3.78a5.93,5.93,0,0,0,5.92-5.93,5.86,5.86,0,0,0-.12-1.19,35.09,35.09,0,0,1-4.69,2.82A2.23,2.23,0,0,1,458.86,266.8Z"/><path class="cls-4" d="M483.34,254.29a5.8,5.8,0,0,0,.58-2.53h-.58Z"/><path class="cls-4" d="M478,257.69a6.34,6.34,0,0,0,1.31-.15v-4.31a2,2,0,0,1-3.29-1.47h-1.49a24.68,24.68,0,0,1-1.64,3A5.93,5.93,0,0,0,478,257.69Z"/><path class="cls-4" d="M479.3,253.23v4.31a5.93,5.93,0,0,0,4-3.25v-2.53H480A2,2,0,0,1,479.3,253.23Z"/><path class="cls-4" d="M451.65,272.17a5.94,5.94,0,0,0-5.53,3.83h11.07A5.94,5.94,0,0,0,451.65,272.17Z"/><path class="cls-4" d="M438.49,272.17A5.94,5.94,0,0,0,433,276H444A5.94,5.94,0,0,0,438.49,272.17Z"/><path class="cls-4" d="M453.68,268.39l-.26,0a5.93,5.93,0,0,0,4.82,2.49h0v-3.78A12.7,12.7,0,0,1,453.68,268.39Z"/><path class="cls-4" d="M445.07,270.86a5.93,5.93,0,0,0,5.12-3,27.91,27.91,0,0,1-4-1.37,2,2,0,0,1-3.1-1.37c-1.23-.56-2.49-1.11-3.81-1.61a6.21,6.21,0,0,0-.17,1.38A5.94,5.94,0,0,0,445.07,270.86Z"/><path class="cls-4" d="M433.88,264.93a2,2,0,0,1-2,2v3.95a5.94,5.94,0,0,0,5.93-5.93,6,6,0,0,0-.37-2,24.6,24.6,0,0,0-5.56-1.18V263A2,2,0,0,1,433.88,264.93Z"/><path class="cls-4" d="M425.32,272.17a5.94,5.94,0,0,0-5.54,3.83h11.07A5.94,5.94,0,0,0,425.32,272.17Z"/><path class="cls-4" d="M412.15,272.17a5.93,5.93,0,0,0-5.53,3.83h11.06A5.93,5.93,0,0,0,412.15,272.17Z"/><path class="cls-4" d="M431.9,270.86h0v-3.95h0a2,2,0,0,1,0-4h0v-1.25c-.63-.06-1.27-.1-1.93-.1a22.42,22.42,0,0,0-3.12.24,5.92,5.92,0,0,0,5,9Z"/><polygon class="cls-4" points="429.97 261.61 429.97 261.61 429.98 261.61 429.97 261.61"/><path class="cls-4" d="M418.73,270.86a5.94,5.94,0,0,0,5.93-5.93,5.85,5.85,0,0,0-.57-2.51,33.21,33.21,0,0,0-3.84,1.27,2,2,0,0,1,.46,1.24,2,2,0,0,1-3.93.25c-1.25.56-2.47,1.11-3.67,1.6A5.92,5.92,0,0,0,418.73,270.86Z"/><path class="cls-4" d="M410.85,267.59a15.16,15.16,0,0,1-4.58.8,4.6,4.6,0,0,1-.7-.07v2.54A5.9,5.9,0,0,0,410.85,267.59Z"/><path class="cls-4" d="M382.51,225.43c-.1-1.6-.2-3.18-.3-4.7a5.92,5.92,0,0,0-1.55,1.79v2.91Z"/><path class="cls-4" d="M380.66,222.52a5.85,5.85,0,0,0-.77,2.91h.77Z"/><path class="cls-4" d="M381.44,208.85h-.78v2.05a2,2,0,0,1,0,2.72V218a5.52,5.52,0,0,0,1.35-.51C381.69,212.53,381.44,208.86,381.44,208.85Z"/><path class="cls-4" d="M379.23,210.29a2,2,0,0,1,1.43.61v-2.05h-1.43Z"/><path class="cls-4" d="M379.23,214.23v2.07a2.08,2.08,0,0,1,1.18.95,2.17,2.17,0,0,1,.24.76h0v-4.38A2,2,0,0,1,379.23,214.23Z"/><path class="cls-4" d="M379.23,216.3v1.89a6.07,6.07,0,0,0,1.42-.18,2.17,2.17,0,0,0-.24-.76A2.08,2.08,0,0,0,379.23,216.3Z"/><path class="cls-4" d="M380.66,207.67v1.18h.78A2.64,2.64,0,0,0,380.66,207.67Z"/><path class="cls-4" d="M379.23,207.56v1.29h1.43v-1.18A1.34,1.34,0,0,0,379.23,207.56Z"/><path class="cls-4" d="M383.84,251.76h0a2,2,0,0,1,.89-1.64,20.17,20.17,0,0,1-1-3.88,5.92,5.92,0,0,0-3,2.61v2.91Z"/><path class="cls-4" d="M380.66,248.85a5.88,5.88,0,0,0-.77,2.91h.77Z"/><path class="cls-4" d="M383,234a6,6,0,0,0-2.36-1.19v4.39a1.94,1.94,0,0,1,0,2.71v4.39a5.89,5.89,0,0,0,2.75-1.55C383.4,241.29,383.24,238,383,234Z"/><path class="cls-4" d="M380.66,240a2,2,0,0,1-1.43.62v4a6.15,6.15,0,0,0,1.43-.18Z"/><path class="cls-4" d="M380.66,237.24v-4.39a6.15,6.15,0,0,0-1.43-.18v4A2,2,0,0,1,380.66,237.24Z"/><path class="cls-4" d="M382.82,230.53c-.1-1.67-.21-3.39-.31-5.1h-1.85v2.91A5.89,5.89,0,0,0,382.82,230.53Z"/><path class="cls-4" d="M379.89,225.43a5.85,5.85,0,0,0,.77,2.91v-2.91Z"/><path class="cls-4" d="M399,272.17a5.93,5.93,0,0,0-5.53,3.83h11.07A5.94,5.94,0,0,0,399,272.17Z"/><path class="cls-4" d="M385.81,272.17a5.92,5.92,0,0,0-5.05,2.85,8.9,8.9,0,0,0,.19,1h10.4A5.94,5.94,0,0,0,385.81,272.17Z"/><path class="cls-4" d="M380.28,276H381a8.9,8.9,0,0,1-.19-1A5.93,5.93,0,0,0,380.28,276Z"/><path class="cls-4" d="M399.76,266.13a5.94,5.94,0,0,0,5.81,4.73h0v-2.54A19.23,19.23,0,0,1,399.76,266.13Z"/><path class="cls-4" d="M390.67,259.26a5.93,5.93,0,1,0,7.63,6A37.48,37.48,0,0,1,390.67,259.26Zm3.7,5.67a2,2,0,1,1-2-2A2,2,0,0,1,394.37,264.93Z"/><path class="cls-4" d="M385.16,264.93a5.93,5.93,0,0,0-4.5-5.74v4.38a2,2,0,0,1,0,2.72v4.39A5.94,5.94,0,0,0,385.16,264.93Z"/><path class="cls-4" d="M380.66,263.57v-4.38a5.66,5.66,0,0,0-1.43-.18V263A2,2,0,0,1,380.66,263.57Z"/><path class="cls-4" d="M380.66,266.29a2,2,0,0,1-1.43.62v3.95a6.15,6.15,0,0,0,1.43-.18Z"/><path class="cls-4" d="M385.81,257.69a5.91,5.91,0,0,0,2.84-.73,27.31,27.31,0,0,1-2.26-3.32,1.81,1.81,0,0,1-.58.1,2,2,0,0,1-2-2h-3.18v2.91A5.92,5.92,0,0,0,385.81,257.69Z"/><path class="cls-4" d="M379.89,251.76a5.85,5.85,0,0,0,.77,2.91v-2.91Z"/><path class="cls-4" d="M376.61,221l-.07-.06a8.14,8.14,0,0,1-.87.05,6.49,6.49,0,0,1-.77-.05c0,1.45.08,3,.14,4.45h1.57Z"/><path class="cls-4" d="M376.54,221a5.65,5.65,0,0,0-1.67-1l0,1a6.49,6.49,0,0,0,.77.05A8.14,8.14,0,0,0,376.54,221Z"/><path class="cls-4" d="M376.61,221v4.39h2A5.9,5.9,0,0,0,376.61,221Z"/><path class="cls-4" d="M376.61,216.87V209.1a.58.58,0,0,1-.69-.25h0c-.83-1.25-1.1,2.22-1.09,7.36a5.63,5.63,0,0,0,.84.78h0A4.25,4.25,0,0,0,376.61,216.87Z"/><path class="cls-4" d="M375.67,217h0a7,7,0,0,0,.94.58v-.7A4.25,4.25,0,0,1,375.67,217Z"/><path class="cls-4" d="M377.25,212.26a2,2,0,0,1,2-2v-1.44h-.43l0-1a12.26,12.26,0,0,1-2.15,1.3v7.77a4.67,4.67,0,0,0,1.05-.41,2,2,0,0,1,1.57-.16v-2.07A2,2,0,0,1,377.25,212.26Z"/><path class="cls-4" d="M379.23,216.3a2,2,0,0,0-1.57.16,4.67,4.67,0,0,1-1.05.41v.7a5.91,5.91,0,0,0,2.62.62Z"/><polygon class="cls-4" points="375.92 208.85 375.92 208.85 375.92 208.85 375.92 208.85 375.92 208.85"/><path class="cls-4" d="M378.76,207.8l0,1h.43v-1.29A2.61,2.61,0,0,0,378.76,207.8Z"/><path class="cls-4" d="M376.61,247.38a5.72,5.72,0,0,0-1.13-.82c-.16,1.44-.35,3.21-.56,5.2h1.69Z"/><path class="cls-4" d="M378.57,251.76a5.88,5.88,0,0,0-2-4.38v4.38Z"/><path class="cls-4" d="M376.61,233.29a6.54,6.54,0,0,0-1.19.77c.26,5,.5,8.65.5,8.65s0,.26-.08.74a5.35,5.35,0,0,0,.77.45Z"/><path class="cls-4" d="M379.23,240.57a2,2,0,1,1,0-3.95v-4a5.91,5.91,0,0,0-2.62.62V243.9a5.78,5.78,0,0,0,2.62.62Z"/><path class="cls-4" d="M376.61,225.43H375c.06,1.79.14,3.59.22,5.31a6.31,6.31,0,0,0,1.35-.92Z"/><path class="cls-4" d="M378.57,225.43h-2v4.39A5.92,5.92,0,0,0,378.57,225.43Z"/><path class="cls-4" d="M376.61,273.72h0a5.91,5.91,0,0,0-3.48-1.51c-.09,1.33-.15,2.6-.21,3.8h3.92A13.77,13.77,0,0,1,376.61,273.72Z"/><path class="cls-4" d="M376.61,273.71h0a13.77,13.77,0,0,0,.23,2.28h1.34A6.06,6.06,0,0,0,376.61,273.71Z"/><path class="cls-4" d="M376.61,270.24V259.62a6,6,0,0,0-2.72,2.76c-.12,1.39-.24,2.79-.35,4.17A5.93,5.93,0,0,0,376.61,270.24Z"/><path class="cls-4" d="M379.23,266.91a2,2,0,1,1,0-4V259a5.9,5.9,0,0,0-2.62.61v10.62a5.91,5.91,0,0,0,2.62.62Z"/><path class="cls-4" d="M376.61,251.76h-1.69c-.18,1.76-.38,3.67-.57,5.68a6,6,0,0,0,2.26-1.29Z"/><path class="cls-4" d="M378.57,251.76h-2v4.39A5.9,5.9,0,0,0,378.57,251.76Z"/><path class="cls-1" d="M449.86,249.93a2,2,0,0,0-3.11-2.59c-2.57,3.09-12.92,6.67-18.45,5.67-.67-.12-1.83-.42-2.06-1.08-1.11-3.65,2.58-40.29,5.69-52.45a2,2,0,1,0-3.91-1c-3,11.53-7.23,50.13-5.6,54.77.47,1.37,1.76,3.13,5.16,3.74a15.37,15.37,0,0,0,2.79.23C437.15,257.22,446.59,253.86,449.86,249.93Z"/></g></g></svg>