<svg xmlns="http://www.w3.org/2000/svg" xmlns:xlink="http://www.w3.org/1999/xlink" viewBox="0 0 428.52 343.09"><defs><style>.cls-1,.cls-2,.cls-4,.cls-5,.cls-7,.cls-8{fill:none;}.cls-2{stroke:#00dced;stroke-miterlimit:10;stroke-width:6px;}.cls-3{clip-path:url(#clip-path);}.cls-4,.cls-5,.cls-7{stroke:#ffd05a;}.cls-4,.cls-5,.cls-7,.cls-8{stroke-linecap:round;stroke-linejoin:round;}.cls-4{stroke-width:2.74px;}.cls-5{stroke-width:3.25px;}.cls-6{fill:url(#ring_light_blue);}.cls-7,.cls-8{stroke-width:3.29px;}.cls-8{stroke:#262b62;}</style><clipPath id="clip-path" transform="translate(57.92 -7.5)"><rect class="cls-1" width="372" height="253"/></clipPath><pattern id="ring_light_blue" data-name="ring light blue" width="40" height="40" patternTransform="translate(50.3 73.2) rotate(8.89) scale(0.34)" patternUnits="userSpaceOnUse" viewBox="0 0 40 40"><rect class="cls-1" width="40" height="40"/><circle class="cls-2" cx="30" cy="40" r="6"/><circle class="cls-2" cx="10" cy="40" r="6"/><circle class="cls-2" cx="40" cy="20" r="6"/><circle class="cls-2" cx="20" cy="20" r="6"/><circle class="cls-2" cy="20" r="6"/><circle class="cls-2" cx="30" r="6"/><circle class="cls-2" cx="10" r="6"/></pattern></defs><g id="Layer_2" data-name="Layer 2"><g id="Layer_1-2" data-name="Layer 1"><g class="cls-3"><path class="cls-4" d="M55.32,99c-1.28.95-2.69,1.92-4.23,2.88a106.42,106.42,0,0,1-17.52,8.59A187.47,187.47,0,0,1-1,120a215.8,215.8,0,0,1-38.18,3.5A17.37,17.37,0,0,0-56.55,140.9a17.37,17.37,0,0,0,17.37,17.37,250.72,250.72,0,0,0,44-4,234,234,0,0,0,31.12-7.76,175.21,175.21,0,0,0,21-8.32,123.46,123.46,0,0,0,14-7.73l.85-.55" transform="translate(57.92 -7.5)"/><path class="cls-5" d="M125.29,68.24a3.79,3.79,0,0,1,2-.24c2.76.43,4.5,3.87,3.91,7.68s-3.31,6.56-6.06,6.13a3.87,3.87,0,0,1-1.84-.83" transform="translate(57.92 -7.5)"/><path class="cls-5" d="M61.7,58.24a3.84,3.84,0,0,0-1.76-.78c-2.75-.43-5.46,2.32-6.06,6.13s1.15,7.25,3.9,7.68a3.76,3.76,0,0,0,1.91-.19" transform="translate(57.92 -7.5)"/><path class="cls-5" d="M127.11,56.68l-.13.85c0-.29.09-.57.12-.85Z" transform="translate(57.92 -7.5)"/><path class="cls-5" d="M63.49,46.76c0,.27-.09.54-.13.82s-.09.55-.12.82l-8.92,57.06c-1.56,10,18.83,28.37,27.92,29.79s34.49-12.15,35.69-19.85l9-57.87c0-.29.09-.57.12-.85a32.2,32.2,0,0,0-63.6-10Z" transform="translate(57.92 -7.5)"/><path class="cls-6" d="M148.26,41.73c-.71,4.5-9,8-16.41,7.25l-5.23,26.61-4.15-.65,1.72-8.43s-5.37-8-4.88-11.05,3.54-5.83,5.75-7.78c0,0-4.41-4.9-9.79-5.74-6.12-.95-7.39,4.93-15.09,3.73S86.13,34.52,76.55,33a7.21,7.21,0,0,0-8.33,5.77h0c1.52,2.54,3.68,6.09,3.2,9.18s-8,9-8,9l-.94,8.56-1.75-.28.13-1.08L58.92,65s-3.2-23.65-1.48-34.66C59.38,17.94,66,11.63,74.35,12.94a8.34,8.34,0,0,1,6.57,4.79s11.91-12.07,25.2-10c23.77,3.72,29.4,26.09,35.17,27S148.75,38.58,148.26,41.73Z" transform="translate(57.92 -7.5)"/><path class="cls-6" d="M87.29,102.93c6.11.95,9.49,5.78,14,6.49,3,.47,15.12-3.9,16.62-13.52.47-3,4.53-21,4.53-21,1.33-2.3,2.63,1.4,3.42.54,1.88-2.06-3.28,21-3.28,21S122,113,120.9,120c-1.78,11.37-24.25,22.72-29.84,21.84l-19.23-3c-5.6-.87-23.53-18.54-21.75-29.9,1.09-7,5.56-23,5.56-23s2.12-23.51,3.28-21c.49,1.06,2.86-2.07,3.42.53,0,0-1.62,18.33-2.09,21.34-1.5,9.62,8.73,17.48,11.7,18,4.55.71,9.23-2.86,15.35-1.9" transform="translate(57.92 -7.5)"/><path class="cls-5" d="M93.52,64.12C90.41,71.34,85,90.4,85.42,92.93c.68,3.69,7,4.36,10.79,3.13" transform="translate(57.92 -7.5)"/><path class="cls-7" d="M312,63.44a1.2,1.2,0,0,1,.91-1c.8-.18,4.52-1,7.14,4.54s3.34,10.54,5.18,11.32,5.91-7.46,7.57-9.92,12.07-20.08,12.89-21.5c1.61-2.77,6.79-.39,5.13,2.66-.88,1.6-7.71,13.52-9.46,17.53-.32.73-.31,1.11.2,1.38s.81,0,1.32-.64c3.15-4,12.05-22,12.73-23.36,1.72-3.39,7.14-.26,5.8,2.52-.66,1.37-12.27,24.92-12.27,24.92s-.47,1.23.28,1.51,1.16-.67,1.16-.67,5-9.87,6.25-13a73.74,73.74,0,0,1,3.88-7.9c1.09-1.86,5.8-.37,5.14,2.32a48.22,48.22,0,0,1-2.11,6c-.71,1.77-6.15,16.14-7.36,18.46s-1.41,3-.56,3.36a.84.84,0,0,0,1.15-.4s5.58-12.45,7-15.45,5.79-.64,5,1.82c-1.81,5.29-4.06,10.46-6.11,15.65-4.49,11.35-10.62,31.15-26.37,28.89a24.39,24.39,0,0,1-16.6-10.47c-3.23-4.86-3.75-10.83-4-16.51s-.79-11.68-2.86-17.1c-.16-.41-.28-.78-.4-1.12l0-.08C311.48,64.25,311.94,63.45,312,63.44Z" transform="translate(57.92 -7.5)"/><path class="cls-8" d="M-16.92,229.21c10.43-2.6,20.75-5,30.93-6.69a180.85,180.85,0,0,1,30.08-2.76H45a112.4,112.4,0,0,1,29.13,3.87,85.16,85.16,0,0,1,13.27,4.86,70.77,70.77,0,0,1,11.85,6.92,60.34,60.34,0,0,1,9.59,8.64,57.48,57.48,0,0,1,10.26,16.07,49.43,49.43,0,0,1,2.73,8.7,43.12,43.12,0,0,1,.93,8.79c0,.58,0,1.17,0,1.75a38.83,38.83,0,0,1-3,13.08,44.33,44.33,0,0,1-5.09,9.13,45.72,45.72,0,0,1-11.27,11,39.39,39.39,0,0,1-13.86,6,32.65,32.65,0,0,1-6.71.72,26.85,26.85,0,0,1-4.09-.3,20.1,20.1,0,0,1-5.12-1.46,14.3,14.3,0,0,1-2-1.09,11.56,11.56,0,0,1-1.63-1.29h0A13.59,13.59,0,0,1,67.65,312a19.55,19.55,0,0,1-1.46-3.24,32.71,32.71,0,0,1-1.49-6.36,55.69,55.69,0,0,1-.49-7.6c0-1,0-1.94.06-2.92a112.16,112.16,0,0,1,74.34-101.58,115.43,115.43,0,0,1,39-6.86,108.61,108.61,0,0,1,14.43,1h0c5,.66,10.09,1.68,15.41,2.89,8,1.8,16.36,4,25.19,5.87,4.41.92,8.95,1.74,13.61,2.33a114.51,114.51,0,0,0,14.39,1,89.85,89.85,0,0,0,11.47-.71l1.63-.21-1.63.21a80.17,80.17,0,0,0,25.31-7.7,86.38,86.38,0,0,0,16.48-10.63,87.62,87.62,0,0,0,19.25-22.07,82.68,82.68,0,0,0,7.69-16.4A10.14,10.14,0,0,0,333,125.7L323.64,124a10.09,10.09,0,0,0-11.28,6.42,52.26,52.26,0,0,1-3.5,7.62,56.58,56.58,0,0,1-7.52,10.45,57.82,57.82,0,0,1-15.18,12,51,51,0,0,1-17.84,5.86h0a61.27,61.27,0,0,1-7.71.47,91.77,91.77,0,0,1-14.33-1.25c-7.48-1.19-15.41-3.14-23.78-5.17A258,258,0,0,0,195.94,155h0a137.87,137.87,0,0,0-18.36-1.22,144.88,144.88,0,0,0-49,8.62A143,143,0,0,0,34.62,290.75c0,1.33-.08,2.69-.08,4.07a85.87,85.87,0,0,0,.6,10.36,68.68,68.68,0,0,0,1.45,8.06,53.68,53.68,0,0,0,4.57,12.18,45,45,0,0,0,3.69,5.85,42.48,42.48,0,0,0,4.79,5.4h0a42,42,0,0,0,7.7,5.76,46.64,46.64,0,0,0,12.66,5A55.31,55.31,0,0,0,82.88,349a61.76,61.76,0,0,0,12.89-1.37,68.64,68.64,0,0,0,21.89-8.89,74.35,74.35,0,0,0,13.62-10.89,75.16,75.16,0,0,0,14.82-21.41,68.92,68.92,0,0,0,6.3-25.74c0-1,.07-2,.07-3a73.36,73.36,0,0,0-2.74-19.69A83.56,83.56,0,0,0,137,231.77a90.35,90.35,0,0,0-20.35-20.4A101.38,101.38,0,0,0,100,201.59a119.28,119.28,0,0,0-27-8.73,146.53,146.53,0,0,0-27.71-2.77H44.09a210.79,210.79,0,0,0-35,3.17c-11.37,1.91-22.43,4.48-33.19,7.16l7.18,28.79Z" transform="translate(57.92 -7.5)"/></g></g></g></svg>