<svg xmlns="http://www.w3.org/2000/svg" xmlns:xlink="http://www.w3.org/1999/xlink" viewBox="0 0 196.2 248.88"><defs><style>.cls-1{fill:none;}.cls-2{clip-path:url(#clip-path);}.cls-3{fill:#262b62;}.cls-4{clip-path:url(#clip-path-2);}.cls-5{clip-path:url(#clip-path-3);}.cls-6{fill:#ffd05a;}.cls-7{clip-path:url(#clip-path-4);}.cls-8{clip-path:url(#clip-path-5);}.cls-9{clip-path:url(#clip-path-6);}.cls-10{clip-path:url(#clip-path-7);}.cls-11{clip-path:url(#clip-path-8);}.cls-12{clip-path:url(#clip-path-9);}.cls-13{clip-path:url(#clip-path-10);}.cls-14{clip-path:url(#clip-path-11);}.cls-15{clip-path:url(#clip-path-12);}.cls-16{clip-path:url(#clip-path-13);}.cls-17{clip-path:url(#clip-path-14);}.cls-18{clip-path:url(#clip-path-15);}.cls-19{clip-path:url(#clip-path-16);}.cls-20{clip-path:url(#clip-path-17);}.cls-21{clip-path:url(#clip-path-18);}.cls-22{clip-path:url(#clip-path-19);}.cls-23{clip-path:url(#clip-path-20);}.cls-24{clip-path:url(#clip-path-21);}.cls-25{clip-path:url(#clip-path-22);}.cls-26{clip-path:url(#clip-path-23);}.cls-27{clip-path:url(#clip-path-24);}.cls-28{clip-path:url(#clip-path-25);}.cls-29{clip-path:url(#clip-path-26);}.cls-30{clip-path:url(#clip-path-27);}.cls-31{clip-path:url(#clip-path-28);}.cls-32{clip-path:url(#clip-path-29);}.cls-33{clip-path:url(#clip-path-30);}.cls-34{clip-path:url(#clip-path-31);}.cls-35{clip-path:url(#clip-path-32);}.cls-36{clip-path:url(#clip-path-33);}.cls-37{clip-path:url(#clip-path-34);}.cls-38{clip-path:url(#clip-path-35);}.cls-39{clip-path:url(#clip-path-36);}.cls-40{clip-path:url(#clip-path-37);}.cls-41{clip-path:url(#clip-path-38);}.cls-42{clip-path:url(#clip-path-40);}.cls-43{clip-path:url(#clip-path-41);}.cls-44{clip-path:url(#clip-path-42);}.cls-45{clip-path:url(#clip-path-43);}.cls-46{clip-path:url(#clip-path-45);}.cls-47{clip-path:url(#clip-path-46);}.cls-48{clip-path:url(#clip-path-47);}.cls-49{clip-path:url(#clip-path-48);}.cls-50{clip-path:url(#clip-path-50);}.cls-51{clip-path:url(#clip-path-51);}.cls-52{clip-path:url(#clip-path-52);}.cls-53{clip-path:url(#clip-path-53);}.cls-54{clip-path:url(#clip-path-55);}.cls-55{clip-path:url(#clip-path-56);}.cls-56{clip-path:url(#clip-path-57);}.cls-57{clip-path:url(#clip-path-58);}.cls-58{clip-path:url(#clip-path-60);}.cls-59{clip-path:url(#clip-path-61);}.cls-60{clip-path:url(#clip-path-62);}.cls-61{clip-path:url(#clip-path-63);}.cls-62{clip-path:url(#clip-path-65);}.cls-63{clip-path:url(#clip-path-66);}.cls-64{clip-path:url(#clip-path-67);}.cls-65{clip-path:url(#clip-path-68);}</style><clipPath id="clip-path" transform="translate(2.15 19.18)"><rect class="cls-1" width="161.79" height="214.99"/></clipPath><clipPath id="clip-path-2" transform="translate(2.15 19.18)"><path class="cls-1" d="M161.83,43.17c0,7.26-12.29,14.78-24.07,15.47l-1.68,43.21h-6.69L130,88.14S119.6,76.93,119.6,71.94s4.14-10.06,7.15-13.68c0,0-8.16-10.26-16.84-10.26-9.87,0-16.61,9-29,9s-18.71-9.88-34.17-9.88c-3.17,0-10.82,1.61-11.7,11.14h0c3,3.62,7.29,8.68,7.29,13.68s-10.42,16.2-10.42,16.2l.63,13.71H29.68l-.06-1.74-2.82,1.74S15.94,65.39,15.94,47.62c0-20,8.81-31.6,22.36-31.6A13.28,13.28,0,0,1,49.81,22S65.61,0,87.06,0c38.37,0,52.76,33.86,62.07,33.86S161.83,38.09,161.83,43.17Z"/></clipPath><clipPath id="clip-path-3" transform="translate(2.15 19.18)"><rect class="cls-1" x="161.79" y="-13.25" width="26.34" height="26.34"/></clipPath><clipPath id="clip-path-4" transform="translate(2.15 19.18)"><rect class="cls-1" x="161.79" y="13.08" width="26.34" height="26.34"/></clipPath><clipPath id="clip-path-5" transform="translate(2.15 19.18)"><rect class="cls-1" x="161.79" y="39.42" width="26.34" height="26.34"/></clipPath><clipPath id="clip-path-6" transform="translate(2.15 19.18)"><rect class="cls-1" x="161.79" y="65.76" width="26.34" height="26.34"/></clipPath><clipPath id="clip-path-7" transform="translate(2.15 19.18)"><rect class="cls-1" x="161.79" y="92.09" width="26.34" height="26.34"/></clipPath><clipPath id="clip-path-8" transform="translate(2.15 19.18)"><rect class="cls-1" x="135.46" y="-13.25" width="26.34" height="26.34"/></clipPath><clipPath id="clip-path-9" transform="translate(2.15 19.18)"><rect class="cls-1" x="135.46" y="13.08" width="26.34" height="26.34"/></clipPath><clipPath id="clip-path-10" transform="translate(2.15 19.18)"><rect class="cls-1" x="135.46" y="39.42" width="26.34" height="26.34"/></clipPath><clipPath id="clip-path-11" transform="translate(2.15 19.18)"><rect class="cls-1" x="135.46" y="65.76" width="26.34" height="26.34"/></clipPath><clipPath id="clip-path-12" transform="translate(2.15 19.18)"><rect class="cls-1" x="135.46" y="92.09" width="26.34" height="26.34"/></clipPath><clipPath id="clip-path-13" transform="translate(2.15 19.18)"><rect class="cls-1" x="109.12" y="-13.25" width="26.34" height="26.34"/></clipPath><clipPath id="clip-path-14" transform="translate(2.15 19.18)"><rect class="cls-1" x="109.12" y="13.08" width="26.34" height="26.34"/></clipPath><clipPath id="clip-path-15" transform="translate(2.15 19.18)"><rect class="cls-1" x="109.12" y="39.42" width="26.34" height="26.34"/></clipPath><clipPath id="clip-path-16" transform="translate(2.15 19.18)"><rect class="cls-1" x="109.12" y="65.76" width="26.34" height="26.34"/></clipPath><clipPath id="clip-path-17" transform="translate(2.15 19.18)"><rect class="cls-1" x="109.12" y="92.09" width="26.34" height="26.34"/></clipPath><clipPath id="clip-path-18" transform="translate(2.15 19.18)"><rect class="cls-1" x="82.78" y="-13.25" width="26.34" height="26.34"/></clipPath><clipPath id="clip-path-19" transform="translate(2.15 19.18)"><rect class="cls-1" x="82.78" y="13.08" width="26.34" height="26.34"/></clipPath><clipPath id="clip-path-20" transform="translate(2.15 19.18)"><rect class="cls-1" x="82.78" y="39.42" width="26.34" height="26.34"/></clipPath><clipPath id="clip-path-21" transform="translate(2.15 19.18)"><rect class="cls-1" x="82.78" y="65.76" width="26.34" height="26.34"/></clipPath><clipPath id="clip-path-22" transform="translate(2.15 19.18)"><rect class="cls-1" x="82.78" y="92.09" width="26.34" height="26.34"/></clipPath><clipPath id="clip-path-23" transform="translate(2.15 19.18)"><rect class="cls-1" x="56.45" y="-13.25" width="26.34" height="26.34"/></clipPath><clipPath id="clip-path-24" transform="translate(2.15 19.18)"><rect class="cls-1" x="56.45" y="13.08" width="26.34" height="26.34"/></clipPath><clipPath id="clip-path-25" transform="translate(2.15 19.18)"><rect class="cls-1" x="56.45" y="39.42" width="26.34" height="26.34"/></clipPath><clipPath id="clip-path-26" transform="translate(2.15 19.18)"><rect class="cls-1" x="56.45" y="65.76" width="26.34" height="26.34"/></clipPath><clipPath id="clip-path-27" transform="translate(2.15 19.18)"><rect class="cls-1" x="56.45" y="92.09" width="26.34" height="26.34"/></clipPath><clipPath id="clip-path-28" transform="translate(2.15 19.18)"><rect class="cls-1" x="30.11" y="-13.25" width="26.34" height="26.34"/></clipPath><clipPath id="clip-path-29" transform="translate(2.15 19.18)"><rect class="cls-1" x="30.11" y="13.08" width="26.34" height="26.34"/></clipPath><clipPath id="clip-path-30" transform="translate(2.15 19.18)"><rect class="cls-1" x="30.11" y="39.42" width="26.34" height="26.34"/></clipPath><clipPath id="clip-path-31" transform="translate(2.15 19.18)"><rect class="cls-1" x="30.11" y="65.76" width="26.34" height="26.34"/></clipPath><clipPath id="clip-path-32" transform="translate(2.15 19.18)"><rect class="cls-1" x="30.11" y="92.09" width="26.34" height="26.34"/></clipPath><clipPath id="clip-path-33" transform="translate(2.15 19.18)"><rect class="cls-1" x="3.78" y="-13.25" width="26.34" height="26.34"/></clipPath><clipPath id="clip-path-34" transform="translate(2.15 19.18)"><rect class="cls-1" x="3.78" y="13.08" width="26.34" height="26.34"/></clipPath><clipPath id="clip-path-35" transform="translate(2.15 19.18)"><rect class="cls-1" x="3.78" y="39.42" width="26.34" height="26.34"/></clipPath><clipPath id="clip-path-36" transform="translate(2.15 19.18)"><rect class="cls-1" x="3.78" y="65.76" width="26.34" height="26.34"/></clipPath><clipPath id="clip-path-37" transform="translate(2.15 19.18)"><rect class="cls-1" x="3.78" y="92.09" width="26.34" height="26.34"/></clipPath><clipPath id="clip-path-38" transform="translate(2.15 19.18)"><path class="cls-1" d="M80.85,154.61c9.87,0,16.37,6.78,23.71,6.78,4.8,0,22.85-9.88,22.85-25.4,0-4.86,2-34.14,2-34.14,1.51-3.95,4.48,1.56,5.52,0,2.45-3.7,0,33.86,0,33.86S138,162,138,173.24c0,18.33-32.6,41.75-41.63,41.75h-31c-9,0-41.63-23.42-41.63-41.75,0-11.29,3.1-37.53,3.1-37.53s-2.45-37.56,0-33.86c1,1.56,4-3.95,5.52,0,0,0,2,29.28,2,34.14,0,15.52,18.05,25.4,22.85,25.4,7.34,0,13.84-6.78,23.71-6.78"/></clipPath><clipPath id="clip-path-40" transform="translate(2.15 19.18)"><rect class="cls-1" x="135.46" y="118.43" width="26.34" height="26.34"/></clipPath><clipPath id="clip-path-41" transform="translate(2.15 19.18)"><rect class="cls-1" x="135.46" y="144.76" width="26.34" height="26.34"/></clipPath><clipPath id="clip-path-42" transform="translate(2.15 19.18)"><rect class="cls-1" x="135.46" y="171.1" width="26.34" height="26.34"/></clipPath><clipPath id="clip-path-43" transform="translate(2.15 19.18)"><rect class="cls-1" x="135.46" y="197.44" width="26.34" height="26.34"/></clipPath><clipPath id="clip-path-45" transform="translate(2.15 19.18)"><rect class="cls-1" x="109.12" y="118.43" width="26.34" height="26.34"/></clipPath><clipPath id="clip-path-46" transform="translate(2.15 19.18)"><rect class="cls-1" x="109.12" y="144.76" width="26.34" height="26.34"/></clipPath><clipPath id="clip-path-47" transform="translate(2.15 19.18)"><rect class="cls-1" x="109.12" y="171.1" width="26.34" height="26.34"/></clipPath><clipPath id="clip-path-48" transform="translate(2.15 19.18)"><rect class="cls-1" x="109.12" y="197.44" width="26.34" height="26.34"/></clipPath><clipPath id="clip-path-50" transform="translate(2.15 19.18)"><rect class="cls-1" x="82.78" y="118.43" width="26.34" height="26.34"/></clipPath><clipPath id="clip-path-51" transform="translate(2.15 19.18)"><rect class="cls-1" x="82.78" y="144.76" width="26.34" height="26.34"/></clipPath><clipPath id="clip-path-52" transform="translate(2.15 19.18)"><rect class="cls-1" x="82.78" y="171.1" width="26.34" height="26.34"/></clipPath><clipPath id="clip-path-53" transform="translate(2.15 19.18)"><rect class="cls-1" x="82.78" y="197.44" width="26.34" height="26.34"/></clipPath><clipPath id="clip-path-55" transform="translate(2.15 19.18)"><rect class="cls-1" x="56.45" y="118.43" width="26.34" height="26.34"/></clipPath><clipPath id="clip-path-56" transform="translate(2.15 19.18)"><rect class="cls-1" x="56.45" y="144.76" width="26.34" height="26.34"/></clipPath><clipPath id="clip-path-57" transform="translate(2.15 19.18)"><rect class="cls-1" x="56.45" y="171.1" width="26.34" height="26.34"/></clipPath><clipPath id="clip-path-58" transform="translate(2.15 19.18)"><rect class="cls-1" x="56.45" y="197.44" width="26.34" height="26.34"/></clipPath><clipPath id="clip-path-60" transform="translate(2.15 19.18)"><rect class="cls-1" x="30.11" y="118.43" width="26.34" height="26.34"/></clipPath><clipPath id="clip-path-61" transform="translate(2.15 19.18)"><rect class="cls-1" x="30.11" y="144.76" width="26.34" height="26.34"/></clipPath><clipPath id="clip-path-62" transform="translate(2.15 19.18)"><rect class="cls-1" x="30.11" y="171.1" width="26.34" height="26.34"/></clipPath><clipPath id="clip-path-63" transform="translate(2.15 19.18)"><rect class="cls-1" x="30.11" y="197.44" width="26.34" height="26.34"/></clipPath><clipPath id="clip-path-65" transform="translate(2.15 19.18)"><rect class="cls-1" x="3.78" y="118.43" width="26.34" height="26.34"/></clipPath><clipPath id="clip-path-66" transform="translate(2.15 19.18)"><rect class="cls-1" x="3.78" y="144.76" width="26.34" height="26.34"/></clipPath><clipPath id="clip-path-67" transform="translate(2.15 19.18)"><rect class="cls-1" x="3.78" y="171.1" width="26.34" height="26.34"/></clipPath><clipPath id="clip-path-68" transform="translate(2.15 19.18)"><rect class="cls-1" x="3.78" y="197.44" width="26.34" height="26.34"/></clipPath></defs><g id="Layer_2" data-name="Layer 2"><g id="Layer_1-2" data-name="Layer 1"><g class="cls-2"><path class="cls-3" d="M135.3,87.7a7.83,7.83,0,0,0-1.08.07V71.94a1.87,1.87,0,0,0,0-.42,53.36,53.36,0,0,0-106.66.22,1.36,1.36,0,0,0,0,.2v.57c0,.26,0,.52,0,.79a1.36,1.36,0,0,0,0,.2V87.76a7.42,7.42,0,0,0-.94-.06c-5.55,0-10.07,5.91-10.07,13.17S21,114,26.56,114a7.42,7.42,0,0,0,.94-.06v52.75c0,17.19,37.47,42.09,53.36,42.09,15.07,0,53.36-28.06,53.36-42.09V114a7.83,7.83,0,0,0,1.08.07c5.55,0,10.07-5.91,10.07-13.16S140.85,87.7,135.3,87.7ZM26.56,110c-3.27,0-6-4.18-6-9.12s2.75-9.13,6-9.13a4.32,4.32,0,0,1,.94.12v18A4.32,4.32,0,0,1,26.56,110Zm84.24,79.82c-11.62,8.94-23.66,14.95-29.94,14.95-6.64,0-19-5.59-30-13.61-11.92-8.68-19.33-18-19.33-24.43V72.51a49.32,49.32,0,0,1,98.64.79v17a2,2,0,0,0,0,.59v75.81C130.18,171.61,122.39,180.89,110.8,189.81ZM135.3,110a4,4,0,0,1-1.08-.16V91.9a4,4,0,0,1,1.08-.16c3.27,0,6,4.18,6,9.13S138.57,110,135.3,110Z" transform="translate(2.15 19.18)"/><path class="cls-3" d="M97.64,140.34C95.06,143.43,84.71,147,79.19,146c-.68-.12-1.84-.42-2.07-1.08-1.11-3.65,2.58-40.29,5.7-52.45a2,2,0,1,0-3.92-1c-3,11.53-7.23,50.13-5.6,54.77.48,1.37,1.76,3.13,5.17,3.74a15.22,15.22,0,0,0,2.79.23c6.77,0,16.21-3.36,19.48-7.29a2,2,0,1,0-3.1-2.59Z" transform="translate(2.15 19.18)"/><g class="cls-4"><g class="cls-5"><path class="cls-6" d="M181.55,19a5.93,5.93,0,1,1,5.92-5.93A5.94,5.94,0,0,1,181.55,19Zm0-7.9a2,2,0,1,0,2,2A2,2,0,0,0,181.55,11.11Z" transform="translate(2.15 19.18)"/><path class="cls-6" d="M168.38,19a5.93,5.93,0,1,1,5.92-5.93A5.94,5.94,0,0,1,168.38,19Zm0-7.9a2,2,0,1,0,2,2A2,2,0,0,0,168.38,11.11Z" transform="translate(2.15 19.18)"/><path class="cls-6" d="M188.13,5.84A5.93,5.93,0,0,1,182.2-.08,5.94,5.94,0,0,1,188.13-6a5.93,5.93,0,0,1,5.92,5.93A5.93,5.93,0,0,1,188.13,5.84Zm0-7.9a2,2,0,0,0-2,2,2,2,0,0,0,2,2,2,2,0,0,0,2-2A2,2,0,0,0,188.13-2.06Z" transform="translate(2.15 19.18)"/><path class="cls-6" d="M175,5.84A5.93,5.93,0,0,1,169-.08,5.93,5.93,0,0,1,175-6a5.94,5.94,0,0,1,5.93,5.93A5.93,5.93,0,0,1,175,5.84Zm0-7.9a2,2,0,0,0-2,2,2,2,0,0,0,2,2,2,2,0,0,0,2-2A2,2,0,0,0,175-2.06Z" transform="translate(2.15 19.18)"/><path class="cls-6" d="M161.79,5.84a5.93,5.93,0,0,1-5.92-5.92A5.93,5.93,0,0,1,161.79-6a5.94,5.94,0,0,1,5.93,5.93A5.93,5.93,0,0,1,161.79,5.84Zm0-7.9a2,2,0,0,0-2,2,2,2,0,0,0,2,2,2,2,0,0,0,2-2A2,2,0,0,0,161.79-2.06Z" transform="translate(2.15 19.18)"/><path class="cls-6" d="M181.55-7.33a5.93,5.93,0,0,1-5.93-5.92,5.94,5.94,0,0,1,5.93-5.93,5.93,5.93,0,0,1,5.92,5.93A5.93,5.93,0,0,1,181.55-7.33Zm0-7.9a2,2,0,0,0-2,2,2,2,0,0,0,2,2,2,2,0,0,0,2-2A2,2,0,0,0,181.55-15.23Z" transform="translate(2.15 19.18)"/><path class="cls-6" d="M168.38-7.33a5.93,5.93,0,0,1-5.93-5.92,5.94,5.94,0,0,1,5.93-5.93,5.93,5.93,0,0,1,5.92,5.93A5.93,5.93,0,0,1,168.38-7.33Zm0-7.9a2,2,0,0,0-2,2,2,2,0,0,0,2,2,2,2,0,0,0,2-2A2,2,0,0,0,168.38-15.23Z" transform="translate(2.15 19.18)"/></g><g class="cls-7"><path class="cls-6" d="M181.55,45.35a5.93,5.93,0,1,1,5.92-5.93A5.94,5.94,0,0,1,181.55,45.35Zm0-7.9a2,2,0,1,0,2,2A2,2,0,0,0,181.55,37.45Z" transform="translate(2.15 19.18)"/><path class="cls-6" d="M168.38,45.35a5.93,5.93,0,1,1,5.92-5.93A5.94,5.94,0,0,1,168.38,45.35Zm0-7.9a2,2,0,1,0,2,2A2,2,0,0,0,168.38,37.45Z" transform="translate(2.15 19.18)"/><path class="cls-6" d="M188.13,32.18a5.93,5.93,0,1,1,5.92-5.93A5.94,5.94,0,0,1,188.13,32.18Zm0-7.9a2,2,0,1,0,2,2A2,2,0,0,0,188.13,24.28Z" transform="translate(2.15 19.18)"/><path class="cls-6" d="M175,32.18a5.93,5.93,0,1,1,5.93-5.93A5.93,5.93,0,0,1,175,32.18Zm0-7.9a2,2,0,1,0,2,2A2,2,0,0,0,175,24.28Z" transform="translate(2.15 19.18)"/><path class="cls-6" d="M161.79,32.18a5.93,5.93,0,1,1,5.93-5.93A5.93,5.93,0,0,1,161.79,32.18Zm0-7.9a2,2,0,1,0,2,2A2,2,0,0,0,161.79,24.28Z" transform="translate(2.15 19.18)"/><path class="cls-6" d="M181.55,19a5.93,5.93,0,1,1,5.92-5.93A5.94,5.94,0,0,1,181.55,19Zm0-7.9a2,2,0,1,0,2,2A2,2,0,0,0,181.55,11.11Z" transform="translate(2.15 19.18)"/><path class="cls-6" d="M168.38,19a5.93,5.93,0,1,1,5.92-5.93A5.94,5.94,0,0,1,168.38,19Zm0-7.9a2,2,0,1,0,2,2A2,2,0,0,0,168.38,11.11Z" transform="translate(2.15 19.18)"/></g><g class="cls-8"><path class="cls-6" d="M181.55,71.68a5.93,5.93,0,1,1,5.92-5.92A5.93,5.93,0,0,1,181.55,71.68Zm0-7.9a2,2,0,1,0,2,2A2,2,0,0,0,181.55,63.78Z" transform="translate(2.15 19.18)"/><path class="cls-6" d="M168.38,71.68a5.93,5.93,0,1,1,5.92-5.92A5.93,5.93,0,0,1,168.38,71.68Zm0-7.9a2,2,0,1,0,2,2A2,2,0,0,0,168.38,63.78Z" transform="translate(2.15 19.18)"/><path class="cls-6" d="M188.13,58.51a5.93,5.93,0,1,1,5.92-5.92A5.93,5.93,0,0,1,188.13,58.51Zm0-7.9a2,2,0,1,0,2,2A2,2,0,0,0,188.13,50.61Z" transform="translate(2.15 19.18)"/><path class="cls-6" d="M175,58.51a5.93,5.93,0,1,1,5.93-5.92A5.92,5.92,0,0,1,175,58.51Zm0-7.9a2,2,0,1,0,2,2A2,2,0,0,0,175,50.61Z" transform="translate(2.15 19.18)"/><path class="cls-6" d="M161.79,58.51a5.93,5.93,0,1,1,5.93-5.92A5.93,5.93,0,0,1,161.79,58.51Zm0-7.9a2,2,0,1,0,2,2A2,2,0,0,0,161.79,50.61Z" transform="translate(2.15 19.18)"/><path class="cls-6" d="M181.55,45.35a5.93,5.93,0,1,1,5.92-5.93A5.94,5.94,0,0,1,181.55,45.35Zm0-7.9a2,2,0,1,0,2,2A2,2,0,0,0,181.55,37.45Z" transform="translate(2.15 19.18)"/><path class="cls-6" d="M168.38,45.35a5.93,5.93,0,1,1,5.92-5.93A5.94,5.94,0,0,1,168.38,45.35Zm0-7.9a2,2,0,1,0,2,2A2,2,0,0,0,168.38,37.45Z" transform="translate(2.15 19.18)"/></g><g class="cls-9"><path class="cls-6" d="M181.55,98a5.93,5.93,0,1,1,5.92-5.93A5.94,5.94,0,0,1,181.55,98Zm0-7.9a2,2,0,1,0,2,2A2,2,0,0,0,181.55,90.12Z" transform="translate(2.15 19.18)"/><path class="cls-6" d="M168.38,98a5.93,5.93,0,1,1,5.92-5.93A5.94,5.94,0,0,1,168.38,98Zm0-7.9a2,2,0,1,0,2,2A2,2,0,0,0,168.38,90.12Z" transform="translate(2.15 19.18)"/><path class="cls-6" d="M188.13,84.85a5.93,5.93,0,1,1,5.92-5.93A5.94,5.94,0,0,1,188.13,84.85Zm0-7.9a2,2,0,1,0,2,2A2,2,0,0,0,188.13,77Z" transform="translate(2.15 19.18)"/><path class="cls-6" d="M175,84.85a5.93,5.93,0,1,1,5.93-5.93A5.93,5.93,0,0,1,175,84.85Zm0-7.9a2,2,0,1,0,2,2A2,2,0,0,0,175,77Z" transform="translate(2.15 19.18)"/><path class="cls-6" d="M161.79,84.85a5.93,5.93,0,1,1,5.93-5.93A5.93,5.93,0,0,1,161.79,84.85Zm0-7.9a2,2,0,1,0,2,2A2,2,0,0,0,161.79,77Z" transform="translate(2.15 19.18)"/><path class="cls-6" d="M181.55,71.68a5.93,5.93,0,1,1,5.92-5.92A5.93,5.93,0,0,1,181.55,71.68Zm0-7.9a2,2,0,1,0,2,2A2,2,0,0,0,181.55,63.78Z" transform="translate(2.15 19.18)"/><path class="cls-6" d="M168.38,71.68a5.93,5.93,0,1,1,5.92-5.92A5.93,5.93,0,0,1,168.38,71.68Zm0-7.9a2,2,0,1,0,2,2A2,2,0,0,0,168.38,63.78Z" transform="translate(2.15 19.18)"/></g><g class="cls-10"><path class="cls-6" d="M181.55,124.35a5.93,5.93,0,1,1,5.92-5.92A5.93,5.93,0,0,1,181.55,124.35Zm0-7.9a2,2,0,1,0,2,2A2,2,0,0,0,181.55,116.45Z" transform="translate(2.15 19.18)"/><path class="cls-6" d="M168.38,124.35a5.93,5.93,0,1,1,5.92-5.92A5.93,5.93,0,0,1,168.38,124.35Zm0-7.9a2,2,0,1,0,2,2A2,2,0,0,0,168.38,116.45Z" transform="translate(2.15 19.18)"/><path class="cls-6" d="M188.13,111.19a5.93,5.93,0,1,1,5.92-5.93A5.94,5.94,0,0,1,188.13,111.19Zm0-7.9a2,2,0,1,0,2,2A2,2,0,0,0,188.13,103.29Z" transform="translate(2.15 19.18)"/><path class="cls-6" d="M175,111.19a5.93,5.93,0,1,1,5.93-5.93A5.93,5.93,0,0,1,175,111.19Zm0-7.9a2,2,0,1,0,2,2A2,2,0,0,0,175,103.29Z" transform="translate(2.15 19.18)"/><path class="cls-6" d="M161.79,111.19a5.93,5.93,0,1,1,5.93-5.93A5.93,5.93,0,0,1,161.79,111.19Zm0-7.9a2,2,0,1,0,2,2A2,2,0,0,0,161.79,103.29Z" transform="translate(2.15 19.18)"/><path class="cls-6" d="M181.55,98a5.93,5.93,0,1,1,5.92-5.93A5.94,5.94,0,0,1,181.55,98Zm0-7.9a2,2,0,1,0,2,2A2,2,0,0,0,181.55,90.12Z" transform="translate(2.15 19.18)"/><path class="cls-6" d="M168.38,98a5.93,5.93,0,1,1,5.92-5.93A5.94,5.94,0,0,1,168.38,98Zm0-7.9a2,2,0,1,0,2,2A2,2,0,0,0,168.38,90.12Z" transform="translate(2.15 19.18)"/></g><g class="cls-11"><path class="cls-6" d="M155.21,19a5.93,5.93,0,1,1,5.92-5.93A5.94,5.94,0,0,1,155.21,19Zm0-7.9a2,2,0,1,0,2,2A2,2,0,0,0,155.21,11.11Z" transform="translate(2.15 19.18)"/><path class="cls-6" d="M142,19A5.93,5.93,0,1,1,148,13.08,5.93,5.93,0,0,1,142,19Zm0-7.9a2,2,0,1,0,2,2A2,2,0,0,0,142,11.11Z" transform="translate(2.15 19.18)"/><path class="cls-6" d="M161.79,5.84a5.93,5.93,0,0,1-5.92-5.92A5.93,5.93,0,0,1,161.79-6a5.94,5.94,0,0,1,5.93,5.93A5.93,5.93,0,0,1,161.79,5.84Zm0-7.9a2,2,0,0,0-2,2,2,2,0,0,0,2,2,2,2,0,0,0,2-2A2,2,0,0,0,161.79-2.06Z" transform="translate(2.15 19.18)"/><path class="cls-6" d="M148.63,5.84A5.93,5.93,0,0,1,142.7-.08,5.94,5.94,0,0,1,148.63-6a5.93,5.93,0,0,1,5.92,5.93A5.93,5.93,0,0,1,148.63,5.84Zm0-7.9a2,2,0,0,0-2,2,2,2,0,0,0,2,2,2,2,0,0,0,2-2A2,2,0,0,0,148.63-2.06Z" transform="translate(2.15 19.18)"/><path class="cls-6" d="M135.46,5.84a5.93,5.93,0,0,1-5.93-5.92A5.94,5.94,0,0,1,135.46-6a5.93,5.93,0,0,1,5.92,5.93A5.93,5.93,0,0,1,135.46,5.84Zm0-7.9a2,2,0,0,0-2,2,2,2,0,0,0,2,2,2,2,0,0,0,2-2A2,2,0,0,0,135.46-2.06Z" transform="translate(2.15 19.18)"/><path class="cls-6" d="M155.21-7.33a5.93,5.93,0,0,1-5.93-5.92,5.94,5.94,0,0,1,5.93-5.93,5.93,5.93,0,0,1,5.92,5.93A5.92,5.92,0,0,1,155.21-7.33Zm0-7.9a2,2,0,0,0-2,2,2,2,0,0,0,2,2,2,2,0,0,0,2-2A2,2,0,0,0,155.21-15.23Z" transform="translate(2.15 19.18)"/><path class="cls-6" d="M142-7.33a5.92,5.92,0,0,1-5.92-5.92A5.93,5.93,0,0,1,142-19.18,5.94,5.94,0,0,1,148-13.25,5.93,5.93,0,0,1,142-7.33Zm0-7.9a2,2,0,0,0-2,2,2,2,0,0,0,2,2,2,2,0,0,0,2-2A2,2,0,0,0,142-15.23Z" transform="translate(2.15 19.18)"/></g><g class="cls-12"><path class="cls-6" d="M155.21,45.35a5.93,5.93,0,1,1,5.92-5.93A5.94,5.94,0,0,1,155.21,45.35Zm0-7.9a2,2,0,1,0,2,2A2,2,0,0,0,155.21,37.45Z" transform="translate(2.15 19.18)"/><path class="cls-6" d="M142,45.35A5.93,5.93,0,1,1,148,39.42,5.93,5.93,0,0,1,142,45.35Zm0-7.9a2,2,0,1,0,2,2A2,2,0,0,0,142,37.45Z" transform="translate(2.15 19.18)"/><path class="cls-6" d="M161.79,32.18a5.93,5.93,0,1,1,5.93-5.93A5.93,5.93,0,0,1,161.79,32.18Zm0-7.9a2,2,0,1,0,2,2A2,2,0,0,0,161.79,24.28Z" transform="translate(2.15 19.18)"/><path class="cls-6" d="M148.63,32.18a5.93,5.93,0,1,1,5.92-5.93A5.94,5.94,0,0,1,148.63,32.18Zm0-7.9a2,2,0,1,0,2,2A2,2,0,0,0,148.63,24.28Z" transform="translate(2.15 19.18)"/><path class="cls-6" d="M135.46,32.18a5.93,5.93,0,1,1,5.92-5.93A5.94,5.94,0,0,1,135.46,32.18Zm0-7.9a2,2,0,1,0,2,2A2,2,0,0,0,135.46,24.28Z" transform="translate(2.15 19.18)"/><path class="cls-6" d="M155.21,19a5.93,5.93,0,1,1,5.92-5.93A5.94,5.94,0,0,1,155.21,19Zm0-7.9a2,2,0,1,0,2,2A2,2,0,0,0,155.21,11.11Z" transform="translate(2.15 19.18)"/><path class="cls-6" d="M142,19A5.93,5.93,0,1,1,148,13.08,5.93,5.93,0,0,1,142,19Zm0-7.9a2,2,0,1,0,2,2A2,2,0,0,0,142,11.11Z" transform="translate(2.15 19.18)"/></g><g class="cls-13"><path class="cls-6" d="M155.21,71.68a5.93,5.93,0,1,1,5.92-5.92A5.93,5.93,0,0,1,155.21,71.68Zm0-7.9a2,2,0,1,0,2,2A2,2,0,0,0,155.21,63.78Z" transform="translate(2.15 19.18)"/><path class="cls-6" d="M142,71.68A5.93,5.93,0,1,1,148,65.76,5.93,5.93,0,0,1,142,71.68Zm0-7.9a2,2,0,1,0,2,2A2,2,0,0,0,142,63.78Z" transform="translate(2.15 19.18)"/><path class="cls-6" d="M161.79,58.51a5.93,5.93,0,1,1,5.93-5.92A5.93,5.93,0,0,1,161.79,58.51Zm0-7.9a2,2,0,1,0,2,2A2,2,0,0,0,161.79,50.61Z" transform="translate(2.15 19.18)"/><path class="cls-6" d="M148.63,58.51a5.93,5.93,0,1,1,5.92-5.92A5.93,5.93,0,0,1,148.63,58.51Zm0-7.9a2,2,0,1,0,2,2A2,2,0,0,0,148.63,50.61Z" transform="translate(2.15 19.18)"/><path class="cls-6" d="M135.46,58.51a5.93,5.93,0,1,1,5.92-5.92A5.93,5.93,0,0,1,135.46,58.51Zm0-7.9a2,2,0,1,0,2,2A2,2,0,0,0,135.46,50.61Z" transform="translate(2.15 19.18)"/><path class="cls-6" d="M155.21,45.35a5.93,5.93,0,1,1,5.92-5.93A5.94,5.94,0,0,1,155.21,45.35Zm0-7.9a2,2,0,1,0,2,2A2,2,0,0,0,155.21,37.45Z" transform="translate(2.15 19.18)"/><path class="cls-6" d="M142,45.35A5.93,5.93,0,1,1,148,39.42,5.93,5.93,0,0,1,142,45.35Zm0-7.9a2,2,0,1,0,2,2A2,2,0,0,0,142,37.45Z" transform="translate(2.15 19.18)"/></g><g class="cls-14"><path class="cls-6" d="M155.21,98a5.93,5.93,0,1,1,5.92-5.93A5.94,5.94,0,0,1,155.21,98Zm0-7.9a2,2,0,1,0,2,2A2,2,0,0,0,155.21,90.12Z" transform="translate(2.15 19.18)"/><path class="cls-6" d="M142,98A5.93,5.93,0,1,1,148,92.09,5.93,5.93,0,0,1,142,98Zm0-7.9a2,2,0,1,0,2,2A2,2,0,0,0,142,90.12Z" transform="translate(2.15 19.18)"/><path class="cls-6" d="M161.79,84.85a5.93,5.93,0,1,1,5.93-5.93A5.93,5.93,0,0,1,161.79,84.85Zm0-7.9a2,2,0,1,0,2,2A2,2,0,0,0,161.79,77Z" transform="translate(2.15 19.18)"/><path class="cls-6" d="M148.63,84.85a5.93,5.93,0,1,1,5.92-5.93A5.94,5.94,0,0,1,148.63,84.85Zm0-7.9a2,2,0,1,0,2,2A2,2,0,0,0,148.63,77Z" transform="translate(2.15 19.18)"/><path class="cls-6" d="M135.46,84.85a5.93,5.93,0,1,1,5.92-5.93A5.94,5.94,0,0,1,135.46,84.85Zm0-7.9a2,2,0,1,0,2,2A2,2,0,0,0,135.46,77Z" transform="translate(2.15 19.18)"/><path class="cls-6" d="M155.21,71.68a5.93,5.93,0,1,1,5.92-5.92A5.93,5.93,0,0,1,155.21,71.68Zm0-7.9a2,2,0,1,0,2,2A2,2,0,0,0,155.21,63.78Z" transform="translate(2.15 19.18)"/><path class="cls-6" d="M142,71.68A5.93,5.93,0,1,1,148,65.76,5.93,5.93,0,0,1,142,71.68Zm0-7.9a2,2,0,1,0,2,2A2,2,0,0,0,142,63.78Z" transform="translate(2.15 19.18)"/></g><g class="cls-15"><path class="cls-6" d="M155.21,124.35a5.93,5.93,0,1,1,5.92-5.92A5.93,5.93,0,0,1,155.21,124.35Zm0-7.9a2,2,0,1,0,2,2A2,2,0,0,0,155.21,116.45Z" transform="translate(2.15 19.18)"/><path class="cls-6" d="M142,124.35a5.93,5.93,0,1,1,5.93-5.92A5.92,5.92,0,0,1,142,124.35Zm0-7.9a2,2,0,1,0,2,2A2,2,0,0,0,142,116.45Z" transform="translate(2.15 19.18)"/><path class="cls-6" d="M161.79,111.19a5.93,5.93,0,1,1,5.93-5.93A5.93,5.93,0,0,1,161.79,111.19Zm0-7.9a2,2,0,1,0,2,2A2,2,0,0,0,161.79,103.29Z" transform="translate(2.15 19.18)"/><path class="cls-6" d="M148.63,111.19a5.93,5.93,0,1,1,5.92-5.93A5.94,5.94,0,0,1,148.63,111.19Zm0-7.9a2,2,0,1,0,2,2A2,2,0,0,0,148.63,103.29Z" transform="translate(2.15 19.18)"/><path class="cls-6" d="M135.46,111.19a5.93,5.93,0,1,1,5.92-5.93A5.94,5.94,0,0,1,135.46,111.19Zm0-7.9a2,2,0,1,0,2,2A2,2,0,0,0,135.46,103.29Z" transform="translate(2.15 19.18)"/><path class="cls-6" d="M155.21,98a5.93,5.93,0,1,1,5.92-5.93A5.94,5.94,0,0,1,155.21,98Zm0-7.9a2,2,0,1,0,2,2A2,2,0,0,0,155.21,90.12Z" transform="translate(2.15 19.18)"/><path class="cls-6" d="M142,98A5.93,5.93,0,1,1,148,92.09,5.93,5.93,0,0,1,142,98Zm0-7.9a2,2,0,1,0,2,2A2,2,0,0,0,142,90.12Z" transform="translate(2.15 19.18)"/></g><g class="cls-16"><path class="cls-6" d="M128.87,19a5.93,5.93,0,1,1,5.93-5.93A5.93,5.93,0,0,1,128.87,19Zm0-7.9a2,2,0,1,0,2,2A2,2,0,0,0,128.87,11.11Z" transform="translate(2.15 19.18)"/><path class="cls-6" d="M115.7,19a5.93,5.93,0,1,1,5.93-5.93A5.93,5.93,0,0,1,115.7,19Zm0-7.9a2,2,0,1,0,2,2A2,2,0,0,0,115.7,11.11Z" transform="translate(2.15 19.18)"/><path class="cls-6" d="M135.46,5.84a5.93,5.93,0,0,1-5.93-5.92A5.94,5.94,0,0,1,135.46-6a5.93,5.93,0,0,1,5.92,5.93A5.93,5.93,0,0,1,135.46,5.84Zm0-7.9a2,2,0,0,0-2,2,2,2,0,0,0,2,2,2,2,0,0,0,2-2A2,2,0,0,0,135.46-2.06Z" transform="translate(2.15 19.18)"/><path class="cls-6" d="M122.29,5.84a5.93,5.93,0,0,1-5.93-5.92A5.94,5.94,0,0,1,122.29-6a5.93,5.93,0,0,1,5.92,5.93A5.93,5.93,0,0,1,122.29,5.84Zm0-7.9a2,2,0,0,0-2,2,2,2,0,0,0,2,2,2,2,0,0,0,2-2A2,2,0,0,0,122.29-2.06Z" transform="translate(2.15 19.18)"/><path class="cls-6" d="M109.12,5.84A5.93,5.93,0,0,1,103.2-.08,5.93,5.93,0,0,1,109.12-6a5.94,5.94,0,0,1,5.93,5.93A5.93,5.93,0,0,1,109.12,5.84Zm0-7.9a2,2,0,0,0-2,2,2,2,0,0,0,2,2,2,2,0,0,0,2-2A2,2,0,0,0,109.12-2.06Z" transform="translate(2.15 19.18)"/><path class="cls-6" d="M128.87-7.33A5.93,5.93,0,0,1,123-13.25a5.93,5.93,0,0,1,5.92-5.93,5.94,5.94,0,0,1,5.93,5.93A5.93,5.93,0,0,1,128.87-7.33Zm0-7.9a2,2,0,0,0-2,2,2,2,0,0,0,2,2,2,2,0,0,0,2-2A2,2,0,0,0,128.87-15.23Z" transform="translate(2.15 19.18)"/><path class="cls-6" d="M115.7-7.33a5.93,5.93,0,0,1-5.92-5.92,5.93,5.93,0,0,1,5.92-5.93,5.94,5.94,0,0,1,5.93,5.93A5.93,5.93,0,0,1,115.7-7.33Zm0-7.9a2,2,0,0,0-2,2,2,2,0,0,0,2,2,2,2,0,0,0,2-2A2,2,0,0,0,115.7-15.23Z" transform="translate(2.15 19.18)"/></g><g class="cls-17"><path class="cls-6" d="M128.87,45.35a5.93,5.93,0,1,1,5.93-5.93A5.93,5.93,0,0,1,128.87,45.35Zm0-7.9a2,2,0,1,0,2,2A2,2,0,0,0,128.87,37.45Z" transform="translate(2.15 19.18)"/><path class="cls-6" d="M115.7,45.35a5.93,5.93,0,1,1,5.93-5.93A5.93,5.93,0,0,1,115.7,45.35Zm0-7.9a2,2,0,1,0,2,2A2,2,0,0,0,115.7,37.45Z" transform="translate(2.15 19.18)"/><path class="cls-6" d="M135.46,32.18a5.93,5.93,0,1,1,5.92-5.93A5.94,5.94,0,0,1,135.46,32.18Zm0-7.9a2,2,0,1,0,2,2A2,2,0,0,0,135.46,24.28Z" transform="translate(2.15 19.18)"/><path class="cls-6" d="M122.29,32.18a5.93,5.93,0,1,1,5.92-5.93A5.94,5.94,0,0,1,122.29,32.18Zm0-7.9a2,2,0,1,0,2,2A2,2,0,0,0,122.29,24.28Z" transform="translate(2.15 19.18)"/><path class="cls-6" d="M109.12,32.18a5.93,5.93,0,1,1,5.93-5.93A5.93,5.93,0,0,1,109.12,32.18Zm0-7.9a2,2,0,1,0,2,2A2,2,0,0,0,109.12,24.28Z" transform="translate(2.15 19.18)"/><path class="cls-6" d="M128.87,19a5.93,5.93,0,1,1,5.93-5.93A5.93,5.93,0,0,1,128.87,19Zm0-7.9a2,2,0,1,0,2,2A2,2,0,0,0,128.87,11.11Z" transform="translate(2.15 19.18)"/><path class="cls-6" d="M115.7,19a5.93,5.93,0,1,1,5.93-5.93A5.93,5.93,0,0,1,115.7,19Zm0-7.9a2,2,0,1,0,2,2A2,2,0,0,0,115.7,11.11Z" transform="translate(2.15 19.18)"/></g><g class="cls-18"><path class="cls-6" d="M128.87,71.68a5.93,5.93,0,1,1,5.93-5.92A5.93,5.93,0,0,1,128.87,71.68Zm0-7.9a2,2,0,1,0,2,2A2,2,0,0,0,128.87,63.78Z" transform="translate(2.15 19.18)"/><path class="cls-6" d="M115.7,71.68a5.93,5.93,0,1,1,5.93-5.92A5.93,5.93,0,0,1,115.7,71.68Zm0-7.9a2,2,0,1,0,2,2A2,2,0,0,0,115.7,63.78Z" transform="translate(2.15 19.18)"/><path class="cls-6" d="M135.46,58.51a5.93,5.93,0,1,1,5.92-5.92A5.93,5.93,0,0,1,135.46,58.51Zm0-7.9a2,2,0,1,0,2,2A2,2,0,0,0,135.46,50.61Z" transform="translate(2.15 19.18)"/><path class="cls-6" d="M122.29,58.51a5.93,5.93,0,1,1,5.92-5.92A5.93,5.93,0,0,1,122.29,58.51Zm0-7.9a2,2,0,1,0,2,2A2,2,0,0,0,122.29,50.61Z" transform="translate(2.15 19.18)"/><path class="cls-6" d="M109.12,58.51a5.93,5.93,0,1,1,5.93-5.92A5.92,5.92,0,0,1,109.12,58.51Zm0-7.9a2,2,0,1,0,2,2A2,2,0,0,0,109.12,50.61Z" transform="translate(2.15 19.18)"/><path class="cls-6" d="M128.87,45.35a5.93,5.93,0,1,1,5.93-5.93A5.93,5.93,0,0,1,128.87,45.35Zm0-7.9a2,2,0,1,0,2,2A2,2,0,0,0,128.87,37.45Z" transform="translate(2.15 19.18)"/><path class="cls-6" d="M115.7,45.35a5.93,5.93,0,1,1,5.93-5.93A5.93,5.93,0,0,1,115.7,45.35Zm0-7.9a2,2,0,1,0,2,2A2,2,0,0,0,115.7,37.45Z" transform="translate(2.15 19.18)"/></g><g class="cls-19"><path class="cls-6" d="M128.87,98a5.93,5.93,0,1,1,5.93-5.93A5.93,5.93,0,0,1,128.87,98Zm0-7.9a2,2,0,1,0,2,2A2,2,0,0,0,128.87,90.12Z" transform="translate(2.15 19.18)"/><path class="cls-6" d="M115.7,98a5.93,5.93,0,1,1,5.93-5.93A5.93,5.93,0,0,1,115.7,98Zm0-7.9a2,2,0,1,0,2,2A2,2,0,0,0,115.7,90.12Z" transform="translate(2.15 19.18)"/><path class="cls-6" d="M135.46,84.85a5.93,5.93,0,1,1,5.92-5.93A5.94,5.94,0,0,1,135.46,84.85Zm0-7.9a2,2,0,1,0,2,2A2,2,0,0,0,135.46,77Z" transform="translate(2.15 19.18)"/><path class="cls-6" d="M122.29,84.85a5.93,5.93,0,1,1,5.92-5.93A5.94,5.94,0,0,1,122.29,84.85Zm0-7.9a2,2,0,1,0,2,2A2,2,0,0,0,122.29,77Z" transform="translate(2.15 19.18)"/><path class="cls-6" d="M109.12,84.85a5.93,5.93,0,1,1,5.93-5.93A5.93,5.93,0,0,1,109.12,84.85Zm0-7.9a2,2,0,1,0,2,2A2,2,0,0,0,109.12,77Z" transform="translate(2.15 19.18)"/><path class="cls-6" d="M128.87,71.68a5.93,5.93,0,1,1,5.93-5.92A5.93,5.93,0,0,1,128.87,71.68Zm0-7.9a2,2,0,1,0,2,2A2,2,0,0,0,128.87,63.78Z" transform="translate(2.15 19.18)"/><path class="cls-6" d="M115.7,71.68a5.93,5.93,0,1,1,5.93-5.92A5.93,5.93,0,0,1,115.7,71.68Zm0-7.9a2,2,0,1,0,2,2A2,2,0,0,0,115.7,63.78Z" transform="translate(2.15 19.18)"/></g><g class="cls-20"><path class="cls-6" d="M128.87,124.35a5.93,5.93,0,1,1,5.93-5.92A5.93,5.93,0,0,1,128.87,124.35Zm0-7.9a2,2,0,1,0,2,2A2,2,0,0,0,128.87,116.45Z" transform="translate(2.15 19.18)"/><path class="cls-6" d="M115.7,124.35a5.93,5.93,0,1,1,5.93-5.92A5.93,5.93,0,0,1,115.7,124.35Zm0-7.9a2,2,0,1,0,2,2A2,2,0,0,0,115.7,116.45Z" transform="translate(2.15 19.18)"/><path class="cls-6" d="M135.46,111.19a5.93,5.93,0,1,1,5.92-5.93A5.94,5.94,0,0,1,135.46,111.19Zm0-7.9a2,2,0,1,0,2,2A2,2,0,0,0,135.46,103.29Z" transform="translate(2.15 19.18)"/><path class="cls-6" d="M122.29,111.19a5.93,5.93,0,1,1,5.92-5.93A5.94,5.94,0,0,1,122.29,111.19Zm0-7.9a2,2,0,1,0,2,2A2,2,0,0,0,122.29,103.29Z" transform="translate(2.15 19.18)"/><path class="cls-6" d="M109.12,111.19a5.93,5.93,0,1,1,5.93-5.93A5.93,5.93,0,0,1,109.12,111.19Zm0-7.9a2,2,0,1,0,2,2A2,2,0,0,0,109.12,103.29Z" transform="translate(2.15 19.18)"/><path class="cls-6" d="M128.87,98a5.93,5.93,0,1,1,5.93-5.93A5.93,5.93,0,0,1,128.87,98Zm0-7.9a2,2,0,1,0,2,2A2,2,0,0,0,128.87,90.12Z" transform="translate(2.15 19.18)"/><path class="cls-6" d="M115.7,98a5.93,5.93,0,1,1,5.93-5.93A5.93,5.93,0,0,1,115.7,98Zm0-7.9a2,2,0,1,0,2,2A2,2,0,0,0,115.7,90.12Z" transform="translate(2.15 19.18)"/></g><g class="cls-21"><path class="cls-6" d="M102.54,19a5.93,5.93,0,1,1,5.92-5.93A5.94,5.94,0,0,1,102.54,19Zm0-7.9a2,2,0,1,0,2,2A2,2,0,0,0,102.54,11.11Z" transform="translate(2.15 19.18)"/><path class="cls-6" d="M89.37,19a5.93,5.93,0,1,1,5.92-5.93A5.94,5.94,0,0,1,89.37,19Zm0-7.9a2,2,0,1,0,2,2A2,2,0,0,0,89.37,11.11Z" transform="translate(2.15 19.18)"/><path class="cls-6" d="M109.12,5.84A5.93,5.93,0,0,1,103.2-.08,5.93,5.93,0,0,1,109.12-6a5.94,5.94,0,0,1,5.93,5.93A5.93,5.93,0,0,1,109.12,5.84Zm0-7.9a2,2,0,0,0-2,2,2,2,0,0,0,2,2,2,2,0,0,0,2-2A2,2,0,0,0,109.12-2.06Z" transform="translate(2.15 19.18)"/><path class="cls-6" d="M96,5.84A5.93,5.93,0,0,1,90-.08,5.93,5.93,0,0,1,96-6a5.94,5.94,0,0,1,5.93,5.93A5.93,5.93,0,0,1,96,5.84Zm0-7.9a2,2,0,0,0-2,2,2,2,0,0,0,2,2,2,2,0,0,0,2-2A2,2,0,0,0,96-2.06Z" transform="translate(2.15 19.18)"/><path class="cls-6" d="M82.78,5.84A5.93,5.93,0,0,1,76.86-.08,5.93,5.93,0,0,1,82.78-6,5.94,5.94,0,0,1,88.71-.08,5.93,5.93,0,0,1,82.78,5.84Zm0-7.9a2,2,0,0,0-2,2,2,2,0,0,0,2,2,2,2,0,0,0,2-2A2,2,0,0,0,82.78-2.06Z" transform="translate(2.15 19.18)"/><path class="cls-6" d="M102.54-7.33a5.93,5.93,0,0,1-5.93-5.92,5.94,5.94,0,0,1,5.93-5.93,5.93,5.93,0,0,1,5.92,5.93A5.93,5.93,0,0,1,102.54-7.33Zm0-7.9a2,2,0,0,0-2,2,2,2,0,0,0,2,2,2,2,0,0,0,2-2A2,2,0,0,0,102.54-15.23Z" transform="translate(2.15 19.18)"/><path class="cls-6" d="M89.37-7.33a5.93,5.93,0,0,1-5.93-5.92,5.94,5.94,0,0,1,5.93-5.93,5.93,5.93,0,0,1,5.92,5.93A5.92,5.92,0,0,1,89.37-7.33Zm0-7.9a2,2,0,0,0-2,2,2,2,0,0,0,2,2,2,2,0,0,0,2-2A2,2,0,0,0,89.37-15.23Z" transform="translate(2.15 19.18)"/></g><g class="cls-22"><path class="cls-6" d="M102.54,45.35a5.93,5.93,0,1,1,5.92-5.93A5.94,5.94,0,0,1,102.54,45.35Zm0-7.9a2,2,0,1,0,2,2A2,2,0,0,0,102.54,37.45Z" transform="translate(2.15 19.18)"/><path class="cls-6" d="M89.37,45.35a5.93,5.93,0,1,1,5.92-5.93A5.94,5.94,0,0,1,89.37,45.35Zm0-7.9a2,2,0,1,0,2,2A2,2,0,0,0,89.37,37.45Z" transform="translate(2.15 19.18)"/><path class="cls-6" d="M109.12,32.18a5.93,5.93,0,1,1,5.93-5.93A5.93,5.93,0,0,1,109.12,32.18Zm0-7.9a2,2,0,1,0,2,2A2,2,0,0,0,109.12,24.28Z" transform="translate(2.15 19.18)"/><path class="cls-6" d="M96,32.18a5.93,5.93,0,1,1,5.93-5.93A5.93,5.93,0,0,1,96,32.18Zm0-7.9a2,2,0,1,0,2,2A2,2,0,0,0,96,24.28Z" transform="translate(2.15 19.18)"/><path class="cls-6" d="M82.78,32.18a5.93,5.93,0,1,1,5.93-5.93A5.93,5.93,0,0,1,82.78,32.18Zm0-7.9a2,2,0,1,0,2,2A2,2,0,0,0,82.78,24.28Z" transform="translate(2.15 19.18)"/><path class="cls-6" d="M102.54,19a5.93,5.93,0,1,1,5.92-5.93A5.94,5.94,0,0,1,102.54,19Zm0-7.9a2,2,0,1,0,2,2A2,2,0,0,0,102.54,11.11Z" transform="translate(2.15 19.18)"/><path class="cls-6" d="M89.37,19a5.93,5.93,0,1,1,5.92-5.93A5.94,5.94,0,0,1,89.37,19Zm0-7.9a2,2,0,1,0,2,2A2,2,0,0,0,89.37,11.11Z" transform="translate(2.15 19.18)"/></g><g class="cls-23"><path class="cls-6" d="M102.54,71.68a5.93,5.93,0,1,1,5.92-5.92A5.93,5.93,0,0,1,102.54,71.68Zm0-7.9a2,2,0,1,0,2,2A2,2,0,0,0,102.54,63.78Z" transform="translate(2.15 19.18)"/><path class="cls-6" d="M89.37,71.68a5.93,5.93,0,1,1,5.92-5.92A5.93,5.93,0,0,1,89.37,71.68Zm0-7.9a2,2,0,1,0,2,2A2,2,0,0,0,89.37,63.78Z" transform="translate(2.15 19.18)"/><path class="cls-6" d="M109.12,58.51a5.93,5.93,0,1,1,5.93-5.92A5.92,5.92,0,0,1,109.12,58.51Zm0-7.9a2,2,0,1,0,2,2A2,2,0,0,0,109.12,50.61Z" transform="translate(2.15 19.18)"/><path class="cls-6" d="M96,58.51a5.93,5.93,0,1,1,5.93-5.92A5.93,5.93,0,0,1,96,58.51Zm0-7.9a2,2,0,1,0,2,2A2,2,0,0,0,96,50.61Z" transform="translate(2.15 19.18)"/><path class="cls-6" d="M82.78,58.51a5.93,5.93,0,1,1,5.93-5.92A5.93,5.93,0,0,1,82.78,58.51Zm0-7.9a2,2,0,1,0,2,2A2,2,0,0,0,82.78,50.61Z" transform="translate(2.15 19.18)"/><path class="cls-6" d="M102.54,45.35a5.93,5.93,0,1,1,5.92-5.93A5.94,5.94,0,0,1,102.54,45.35Zm0-7.9a2,2,0,1,0,2,2A2,2,0,0,0,102.54,37.45Z" transform="translate(2.15 19.18)"/><path class="cls-6" d="M89.37,45.35a5.93,5.93,0,1,1,5.92-5.93A5.94,5.94,0,0,1,89.37,45.35Zm0-7.9a2,2,0,1,0,2,2A2,2,0,0,0,89.37,37.45Z" transform="translate(2.15 19.18)"/></g><g class="cls-24"><path class="cls-6" d="M102.54,98a5.93,5.93,0,1,1,5.92-5.93A5.94,5.94,0,0,1,102.54,98Zm0-7.9a2,2,0,1,0,2,2A2,2,0,0,0,102.54,90.12Z" transform="translate(2.15 19.18)"/><path class="cls-6" d="M89.37,98a5.93,5.93,0,1,1,5.92-5.93A5.94,5.94,0,0,1,89.37,98Zm0-7.9a2,2,0,1,0,2,2A2,2,0,0,0,89.37,90.12Z" transform="translate(2.15 19.18)"/><path class="cls-6" d="M109.12,84.85a5.93,5.93,0,1,1,5.93-5.93A5.93,5.93,0,0,1,109.12,84.85Zm0-7.9a2,2,0,1,0,2,2A2,2,0,0,0,109.12,77Z" transform="translate(2.15 19.18)"/><path class="cls-6" d="M96,84.85a5.93,5.93,0,1,1,5.93-5.93A5.93,5.93,0,0,1,96,84.85ZM96,77a2,2,0,1,0,2,2A2,2,0,0,0,96,77Z" transform="translate(2.15 19.18)"/><path class="cls-6" d="M82.78,84.85a5.93,5.93,0,1,1,5.93-5.93A5.93,5.93,0,0,1,82.78,84.85Zm0-7.9a2,2,0,1,0,2,2A2,2,0,0,0,82.78,77Z" transform="translate(2.15 19.18)"/><path class="cls-6" d="M102.54,71.68a5.93,5.93,0,1,1,5.92-5.92A5.93,5.93,0,0,1,102.54,71.68Zm0-7.9a2,2,0,1,0,2,2A2,2,0,0,0,102.54,63.78Z" transform="translate(2.15 19.18)"/><path class="cls-6" d="M89.37,71.68a5.93,5.93,0,1,1,5.92-5.92A5.93,5.93,0,0,1,89.37,71.68Zm0-7.9a2,2,0,1,0,2,2A2,2,0,0,0,89.37,63.78Z" transform="translate(2.15 19.18)"/></g><g class="cls-25"><path class="cls-6" d="M102.54,124.35a5.93,5.93,0,1,1,5.92-5.92A5.93,5.93,0,0,1,102.54,124.35Zm0-7.9a2,2,0,1,0,2,2A2,2,0,0,0,102.54,116.45Z" transform="translate(2.15 19.18)"/><path class="cls-6" d="M89.37,124.35a5.93,5.93,0,1,1,5.92-5.92A5.93,5.93,0,0,1,89.37,124.35Zm0-7.9a2,2,0,1,0,2,2A2,2,0,0,0,89.37,116.45Z" transform="translate(2.15 19.18)"/><path class="cls-6" d="M109.12,111.19a5.93,5.93,0,1,1,5.93-5.93A5.93,5.93,0,0,1,109.12,111.19Zm0-7.9a2,2,0,1,0,2,2A2,2,0,0,0,109.12,103.29Z" transform="translate(2.15 19.18)"/><path class="cls-6" d="M96,111.19a5.93,5.93,0,1,1,5.93-5.93A5.93,5.93,0,0,1,96,111.19Zm0-7.9a2,2,0,1,0,2,2A2,2,0,0,0,96,103.29Z" transform="translate(2.15 19.18)"/><path class="cls-6" d="M82.78,111.19a5.93,5.93,0,1,1,5.93-5.93A5.93,5.93,0,0,1,82.78,111.19Zm0-7.9a2,2,0,1,0,2,2A2,2,0,0,0,82.78,103.29Z" transform="translate(2.15 19.18)"/><path class="cls-6" d="M102.54,98a5.93,5.93,0,1,1,5.92-5.93A5.94,5.94,0,0,1,102.54,98Zm0-7.9a2,2,0,1,0,2,2A2,2,0,0,0,102.54,90.12Z" transform="translate(2.15 19.18)"/><path class="cls-6" d="M89.37,98a5.93,5.93,0,1,1,5.92-5.93A5.94,5.94,0,0,1,89.37,98Zm0-7.9a2,2,0,1,0,2,2A2,2,0,0,0,89.37,90.12Z" transform="translate(2.15 19.18)"/></g><g class="cls-26"><path class="cls-6" d="M76.2,19a5.93,5.93,0,1,1,5.93-5.93A5.93,5.93,0,0,1,76.2,19Zm0-7.9a2,2,0,1,0,2,2A2,2,0,0,0,76.2,11.11Z" transform="translate(2.15 19.18)"/><path class="cls-6" d="M63,19A5.93,5.93,0,1,1,69,13.08,5.93,5.93,0,0,1,63,19Zm0-7.9a2,2,0,1,0,2,2A2,2,0,0,0,63,11.11Z" transform="translate(2.15 19.18)"/><path class="cls-6" d="M82.78,5.84A5.93,5.93,0,0,1,76.86-.08,5.93,5.93,0,0,1,82.78-6,5.94,5.94,0,0,1,88.71-.08,5.93,5.93,0,0,1,82.78,5.84Zm0-7.9a2,2,0,0,0-2,2,2,2,0,0,0,2,2,2,2,0,0,0,2-2A2,2,0,0,0,82.78-2.06Z" transform="translate(2.15 19.18)"/><path class="cls-6" d="M69.62,5.84A5.93,5.93,0,0,1,63.69-.08,5.94,5.94,0,0,1,69.62-6,5.93,5.93,0,0,1,75.54-.08,5.93,5.93,0,0,1,69.62,5.84Zm0-7.9a2,2,0,0,0-2,2,2,2,0,0,0,2,2,2,2,0,0,0,2-2A2,2,0,0,0,69.62-2.06Z" transform="translate(2.15 19.18)"/><path class="cls-6" d="M56.45,5.84A5.93,5.93,0,0,1,50.52-.08,5.94,5.94,0,0,1,56.45-6,5.93,5.93,0,0,1,62.37-.08,5.93,5.93,0,0,1,56.45,5.84Zm0-7.9a2,2,0,0,0-2,2,2,2,0,0,0,2,2,2,2,0,0,0,2-2A2,2,0,0,0,56.45-2.06Z" transform="translate(2.15 19.18)"/><path class="cls-6" d="M76.2-7.33a5.92,5.92,0,0,1-5.92-5.92,5.93,5.93,0,0,1,5.92-5.93,5.94,5.94,0,0,1,5.93,5.93A5.93,5.93,0,0,1,76.2-7.33Zm0-7.9a2,2,0,0,0-2,2,2,2,0,0,0,2,2,2,2,0,0,0,2-2A2,2,0,0,0,76.2-15.23Z" transform="translate(2.15 19.18)"/><path class="cls-6" d="M63-7.33a5.93,5.93,0,0,1-5.92-5.92A5.93,5.93,0,0,1,63-19.18,5.94,5.94,0,0,1,69-13.25,5.93,5.93,0,0,1,63-7.33Zm0-7.9a2,2,0,0,0-2,2,2,2,0,0,0,2,2,2,2,0,0,0,2-2A2,2,0,0,0,63-15.23Z" transform="translate(2.15 19.18)"/></g><g class="cls-27"><path class="cls-6" d="M76.2,45.35a5.93,5.93,0,1,1,5.93-5.93A5.93,5.93,0,0,1,76.2,45.35Zm0-7.9a2,2,0,1,0,2,2A2,2,0,0,0,76.2,37.45Z" transform="translate(2.15 19.18)"/><path class="cls-6" d="M63,45.35A5.93,5.93,0,1,1,69,39.42,5.93,5.93,0,0,1,63,45.35Zm0-7.9a2,2,0,1,0,2,2A2,2,0,0,0,63,37.45Z" transform="translate(2.15 19.18)"/><path class="cls-6" d="M82.78,32.18a5.93,5.93,0,1,1,5.93-5.93A5.93,5.93,0,0,1,82.78,32.18Zm0-7.9a2,2,0,1,0,2,2A2,2,0,0,0,82.78,24.28Z" transform="translate(2.15 19.18)"/><path class="cls-6" d="M69.62,32.18a5.93,5.93,0,1,1,5.92-5.93A5.94,5.94,0,0,1,69.62,32.18Zm0-7.9a2,2,0,1,0,2,2A2,2,0,0,0,69.62,24.28Z" transform="translate(2.15 19.18)"/><path class="cls-6" d="M56.45,32.18a5.93,5.93,0,1,1,5.92-5.93A5.94,5.94,0,0,1,56.45,32.18Zm0-7.9a2,2,0,1,0,2,2A2,2,0,0,0,56.45,24.28Z" transform="translate(2.15 19.18)"/><path class="cls-6" d="M76.2,19a5.93,5.93,0,1,1,5.93-5.93A5.93,5.93,0,0,1,76.2,19Zm0-7.9a2,2,0,1,0,2,2A2,2,0,0,0,76.2,11.11Z" transform="translate(2.15 19.18)"/><path class="cls-6" d="M63,19A5.93,5.93,0,1,1,69,13.08,5.93,5.93,0,0,1,63,19Zm0-7.9a2,2,0,1,0,2,2A2,2,0,0,0,63,11.11Z" transform="translate(2.15 19.18)"/></g><g class="cls-28"><path class="cls-6" d="M76.2,71.68a5.93,5.93,0,1,1,5.93-5.92A5.93,5.93,0,0,1,76.2,71.68Zm0-7.9a2,2,0,1,0,2,2A2,2,0,0,0,76.2,63.78Z" transform="translate(2.15 19.18)"/><path class="cls-6" d="M63,71.68A5.93,5.93,0,1,1,69,65.76,5.93,5.93,0,0,1,63,71.68Zm0-7.9a2,2,0,1,0,2,2A2,2,0,0,0,63,63.78Z" transform="translate(2.15 19.18)"/><path class="cls-6" d="M82.78,58.51a5.93,5.93,0,1,1,5.93-5.92A5.93,5.93,0,0,1,82.78,58.51Zm0-7.9a2,2,0,1,0,2,2A2,2,0,0,0,82.78,50.61Z" transform="translate(2.15 19.18)"/><path class="cls-6" d="M69.62,58.51a5.93,5.93,0,1,1,5.92-5.92A5.93,5.93,0,0,1,69.62,58.51Zm0-7.9a2,2,0,1,0,2,2A2,2,0,0,0,69.62,50.61Z" transform="translate(2.15 19.18)"/><path class="cls-6" d="M56.45,58.51a5.93,5.93,0,1,1,5.92-5.92A5.93,5.93,0,0,1,56.45,58.51Zm0-7.9a2,2,0,1,0,2,2A2,2,0,0,0,56.45,50.61Z" transform="translate(2.15 19.18)"/><path class="cls-6" d="M76.2,45.35a5.93,5.93,0,1,1,5.93-5.93A5.93,5.93,0,0,1,76.2,45.35Zm0-7.9a2,2,0,1,0,2,2A2,2,0,0,0,76.2,37.45Z" transform="translate(2.15 19.18)"/><path class="cls-6" d="M63,45.35A5.93,5.93,0,1,1,69,39.42,5.93,5.93,0,0,1,63,45.35Zm0-7.9a2,2,0,1,0,2,2A2,2,0,0,0,63,37.45Z" transform="translate(2.15 19.18)"/></g><g class="cls-29"><path class="cls-6" d="M76.2,98a5.93,5.93,0,1,1,5.93-5.93A5.93,5.93,0,0,1,76.2,98Zm0-7.9a2,2,0,1,0,2,2A2,2,0,0,0,76.2,90.12Z" transform="translate(2.15 19.18)"/><path class="cls-6" d="M63,98A5.93,5.93,0,1,1,69,92.09,5.93,5.93,0,0,1,63,98Zm0-7.9a2,2,0,1,0,2,2A2,2,0,0,0,63,90.12Z" transform="translate(2.15 19.18)"/><path class="cls-6" d="M82.78,84.85a5.93,5.93,0,1,1,5.93-5.93A5.93,5.93,0,0,1,82.78,84.85Zm0-7.9a2,2,0,1,0,2,2A2,2,0,0,0,82.78,77Z" transform="translate(2.15 19.18)"/><path class="cls-6" d="M69.62,84.85a5.93,5.93,0,1,1,5.92-5.93A5.94,5.94,0,0,1,69.62,84.85Zm0-7.9a2,2,0,1,0,2,2A2,2,0,0,0,69.62,77Z" transform="translate(2.15 19.18)"/><path class="cls-6" d="M56.45,84.85a5.93,5.93,0,1,1,5.92-5.93A5.94,5.94,0,0,1,56.45,84.85Zm0-7.9a2,2,0,1,0,2,2A2,2,0,0,0,56.45,77Z" transform="translate(2.15 19.18)"/><path class="cls-6" d="M76.2,71.68a5.93,5.93,0,1,1,5.93-5.92A5.93,5.93,0,0,1,76.2,71.68Zm0-7.9a2,2,0,1,0,2,2A2,2,0,0,0,76.2,63.78Z" transform="translate(2.15 19.18)"/><path class="cls-6" d="M63,71.68A5.93,5.93,0,1,1,69,65.76,5.93,5.93,0,0,1,63,71.68Zm0-7.9a2,2,0,1,0,2,2A2,2,0,0,0,63,63.78Z" transform="translate(2.15 19.18)"/></g><g class="cls-30"><path class="cls-6" d="M76.2,124.35a5.93,5.93,0,1,1,5.93-5.92A5.92,5.92,0,0,1,76.2,124.35Zm0-7.9a2,2,0,1,0,2,2A2,2,0,0,0,76.2,116.45Z" transform="translate(2.15 19.18)"/><path class="cls-6" d="M63,124.35A5.93,5.93,0,1,1,69,118.43,5.93,5.93,0,0,1,63,124.35Zm0-7.9a2,2,0,1,0,2,2A2,2,0,0,0,63,116.45Z" transform="translate(2.15 19.18)"/><path class="cls-6" d="M82.78,111.19a5.93,5.93,0,1,1,5.93-5.93A5.93,5.93,0,0,1,82.78,111.19Zm0-7.9a2,2,0,1,0,2,2A2,2,0,0,0,82.78,103.29Z" transform="translate(2.15 19.18)"/><path class="cls-6" d="M69.62,111.19a5.93,5.93,0,1,1,5.92-5.93A5.94,5.94,0,0,1,69.62,111.19Zm0-7.9a2,2,0,1,0,2,2A2,2,0,0,0,69.62,103.29Z" transform="translate(2.15 19.18)"/><path class="cls-6" d="M56.45,111.19a5.93,5.93,0,1,1,5.92-5.93A5.94,5.94,0,0,1,56.45,111.19Zm0-7.9a2,2,0,1,0,2,2A2,2,0,0,0,56.45,103.29Z" transform="translate(2.15 19.18)"/><path class="cls-6" d="M76.2,98a5.93,5.93,0,1,1,5.93-5.93A5.93,5.93,0,0,1,76.2,98Zm0-7.9a2,2,0,1,0,2,2A2,2,0,0,0,76.2,90.12Z" transform="translate(2.15 19.18)"/><path class="cls-6" d="M63,98A5.93,5.93,0,1,1,69,92.09,5.93,5.93,0,0,1,63,98Zm0-7.9a2,2,0,1,0,2,2A2,2,0,0,0,63,90.12Z" transform="translate(2.15 19.18)"/></g><g class="cls-31"><path class="cls-6" d="M49.86,19a5.93,5.93,0,1,1,5.93-5.93A5.93,5.93,0,0,1,49.86,19Zm0-7.9a2,2,0,1,0,2,2A2,2,0,0,0,49.86,11.11Z" transform="translate(2.15 19.18)"/><path class="cls-6" d="M36.7,19a5.93,5.93,0,1,1,5.92-5.93A5.94,5.94,0,0,1,36.7,19Zm0-7.9a2,2,0,1,0,2,2A2,2,0,0,0,36.7,11.11Z" transform="translate(2.15 19.18)"/><path class="cls-6" d="M56.45,5.84A5.93,5.93,0,0,1,50.52-.08,5.94,5.94,0,0,1,56.45-6,5.93,5.93,0,0,1,62.37-.08,5.93,5.93,0,0,1,56.45,5.84Zm0-7.9a2,2,0,0,0-2,2,2,2,0,0,0,2,2,2,2,0,0,0,2-2A2,2,0,0,0,56.45-2.06Z" transform="translate(2.15 19.18)"/><path class="cls-6" d="M43.28,5.84A5.93,5.93,0,0,1,37.36-.08,5.93,5.93,0,0,1,43.28-6,5.94,5.94,0,0,1,49.21-.08,5.93,5.93,0,0,1,43.28,5.84Zm0-7.9a2,2,0,0,0-2,2,2,2,0,0,0,2,2,2,2,0,0,0,2-2A2,2,0,0,0,43.28-2.06Z" transform="translate(2.15 19.18)"/><path class="cls-6" d="M30.11,5.84A5.93,5.93,0,0,1,24.19-.08,5.93,5.93,0,0,1,30.11-6,5.94,5.94,0,0,1,36-.08,5.93,5.93,0,0,1,30.11,5.84Zm0-7.9a2,2,0,0,0-2,2,2,2,0,0,0,2,2,2,2,0,0,0,2-2A2,2,0,0,0,30.11-2.06Z" transform="translate(2.15 19.18)"/><path class="cls-6" d="M49.86-7.33a5.93,5.93,0,0,1-5.92-5.92,5.93,5.93,0,0,1,5.92-5.93,5.94,5.94,0,0,1,5.93,5.93A5.93,5.93,0,0,1,49.86-7.33Zm0-7.9a2,2,0,0,0-2,2,2,2,0,0,0,2,2,2,2,0,0,0,2-2A2,2,0,0,0,49.86-15.23Z" transform="translate(2.15 19.18)"/><path class="cls-6" d="M36.7-7.33a5.93,5.93,0,0,1-5.93-5.92,5.94,5.94,0,0,1,5.93-5.93,5.93,5.93,0,0,1,5.92,5.93A5.93,5.93,0,0,1,36.7-7.33Zm0-7.9a2,2,0,0,0-2,2,2,2,0,0,0,2,2,2,2,0,0,0,2-2A2,2,0,0,0,36.7-15.23Z" transform="translate(2.15 19.18)"/></g><g class="cls-32"><path class="cls-6" d="M49.86,45.35a5.93,5.93,0,1,1,5.93-5.93A5.93,5.93,0,0,1,49.86,45.35Zm0-7.9a2,2,0,1,0,2,2A2,2,0,0,0,49.86,37.45Z" transform="translate(2.15 19.18)"/><path class="cls-6" d="M36.7,45.35a5.93,5.93,0,1,1,5.92-5.93A5.94,5.94,0,0,1,36.7,45.35Zm0-7.9a2,2,0,1,0,2,2A2,2,0,0,0,36.7,37.45Z" transform="translate(2.15 19.18)"/><path class="cls-6" d="M56.45,32.18a5.93,5.93,0,1,1,5.92-5.93A5.94,5.94,0,0,1,56.45,32.18Zm0-7.9a2,2,0,1,0,2,2A2,2,0,0,0,56.45,24.28Z" transform="translate(2.15 19.18)"/><path class="cls-6" d="M43.28,32.18a5.93,5.93,0,1,1,5.93-5.93A5.93,5.93,0,0,1,43.28,32.18Zm0-7.9a2,2,0,1,0,2,2A2,2,0,0,0,43.28,24.28Z" transform="translate(2.15 19.18)"/><path class="cls-6" d="M30.11,32.18A5.93,5.93,0,1,1,36,26.25,5.93,5.93,0,0,1,30.11,32.18Zm0-7.9a2,2,0,1,0,2,2A2,2,0,0,0,30.11,24.28Z" transform="translate(2.15 19.18)"/><path class="cls-6" d="M49.86,19a5.93,5.93,0,1,1,5.93-5.93A5.93,5.93,0,0,1,49.86,19Zm0-7.9a2,2,0,1,0,2,2A2,2,0,0,0,49.86,11.11Z" transform="translate(2.15 19.18)"/><path class="cls-6" d="M36.7,19a5.93,5.93,0,1,1,5.92-5.93A5.94,5.94,0,0,1,36.7,19Zm0-7.9a2,2,0,1,0,2,2A2,2,0,0,0,36.7,11.11Z" transform="translate(2.15 19.18)"/></g><g class="cls-33"><path class="cls-6" d="M49.86,71.68a5.93,5.93,0,1,1,5.93-5.92A5.93,5.93,0,0,1,49.86,71.68Zm0-7.9a2,2,0,1,0,2,2A2,2,0,0,0,49.86,63.78Z" transform="translate(2.15 19.18)"/><path class="cls-6" d="M36.7,71.68a5.93,5.93,0,1,1,5.92-5.92A5.93,5.93,0,0,1,36.7,71.68Zm0-7.9a2,2,0,1,0,2,2A2,2,0,0,0,36.7,63.78Z" transform="translate(2.15 19.18)"/><path class="cls-6" d="M56.45,58.51a5.93,5.93,0,1,1,5.92-5.92A5.93,5.93,0,0,1,56.45,58.51Zm0-7.9a2,2,0,1,0,2,2A2,2,0,0,0,56.45,50.61Z" transform="translate(2.15 19.18)"/><path class="cls-6" d="M43.28,58.51a5.93,5.93,0,1,1,5.93-5.92A5.92,5.92,0,0,1,43.28,58.51Zm0-7.9a2,2,0,1,0,2,2A2,2,0,0,0,43.28,50.61Z" transform="translate(2.15 19.18)"/><path class="cls-6" d="M30.11,58.51A5.93,5.93,0,1,1,36,52.59,5.93,5.93,0,0,1,30.11,58.51Zm0-7.9a2,2,0,1,0,2,2A2,2,0,0,0,30.11,50.61Z" transform="translate(2.15 19.18)"/><path class="cls-6" d="M49.86,45.35a5.93,5.93,0,1,1,5.93-5.93A5.93,5.93,0,0,1,49.86,45.35Zm0-7.9a2,2,0,1,0,2,2A2,2,0,0,0,49.86,37.45Z" transform="translate(2.15 19.18)"/><path class="cls-6" d="M36.7,45.35a5.93,5.93,0,1,1,5.92-5.93A5.94,5.94,0,0,1,36.7,45.35Zm0-7.9a2,2,0,1,0,2,2A2,2,0,0,0,36.7,37.45Z" transform="translate(2.15 19.18)"/></g><g class="cls-34"><path class="cls-6" d="M49.86,98a5.93,5.93,0,1,1,5.93-5.93A5.93,5.93,0,0,1,49.86,98Zm0-7.9a2,2,0,1,0,2,2A2,2,0,0,0,49.86,90.12Z" transform="translate(2.15 19.18)"/><path class="cls-6" d="M36.7,98a5.93,5.93,0,1,1,5.92-5.93A5.94,5.94,0,0,1,36.7,98Zm0-7.9a2,2,0,1,0,2,2A2,2,0,0,0,36.7,90.12Z" transform="translate(2.15 19.18)"/><path class="cls-6" d="M56.45,84.85a5.93,5.93,0,1,1,5.92-5.93A5.94,5.94,0,0,1,56.45,84.85Zm0-7.9a2,2,0,1,0,2,2A2,2,0,0,0,56.45,77Z" transform="translate(2.15 19.18)"/><path class="cls-6" d="M43.28,84.85a5.93,5.93,0,1,1,5.93-5.93A5.93,5.93,0,0,1,43.28,84.85Zm0-7.9a2,2,0,1,0,2,2A2,2,0,0,0,43.28,77Z" transform="translate(2.15 19.18)"/><path class="cls-6" d="M30.11,84.85A5.93,5.93,0,1,1,36,78.92,5.93,5.93,0,0,1,30.11,84.85Zm0-7.9a2,2,0,1,0,2,2A2,2,0,0,0,30.11,77Z" transform="translate(2.15 19.18)"/><path class="cls-6" d="M49.86,71.68a5.93,5.93,0,1,1,5.93-5.92A5.93,5.93,0,0,1,49.86,71.68Zm0-7.9a2,2,0,1,0,2,2A2,2,0,0,0,49.86,63.78Z" transform="translate(2.15 19.18)"/><path class="cls-6" d="M36.7,71.68a5.93,5.93,0,1,1,5.92-5.92A5.93,5.93,0,0,1,36.7,71.68Zm0-7.9a2,2,0,1,0,2,2A2,2,0,0,0,36.7,63.78Z" transform="translate(2.15 19.18)"/></g><g class="cls-35"><path class="cls-6" d="M49.86,124.35a5.93,5.93,0,1,1,5.93-5.92A5.93,5.93,0,0,1,49.86,124.35Zm0-7.9a2,2,0,1,0,2,2A2,2,0,0,0,49.86,116.45Z" transform="translate(2.15 19.18)"/><path class="cls-6" d="M36.7,124.35a5.93,5.93,0,1,1,5.92-5.92A5.93,5.93,0,0,1,36.7,124.35Zm0-7.9a2,2,0,1,0,2,2A2,2,0,0,0,36.7,116.45Z" transform="translate(2.15 19.18)"/><path class="cls-6" d="M56.45,111.19a5.93,5.93,0,1,1,5.92-5.93A5.94,5.94,0,0,1,56.45,111.19Zm0-7.9a2,2,0,1,0,2,2A2,2,0,0,0,56.45,103.29Z" transform="translate(2.15 19.18)"/><path class="cls-6" d="M43.28,111.19a5.93,5.93,0,1,1,5.93-5.93A5.93,5.93,0,0,1,43.28,111.19Zm0-7.9a2,2,0,1,0,2,2A2,2,0,0,0,43.28,103.29Z" transform="translate(2.15 19.18)"/><path class="cls-6" d="M30.11,111.19A5.93,5.93,0,1,1,36,105.26,5.93,5.93,0,0,1,30.11,111.19Zm0-7.9a2,2,0,1,0,2,2A2,2,0,0,0,30.11,103.29Z" transform="translate(2.15 19.18)"/><path class="cls-6" d="M49.86,98a5.93,5.93,0,1,1,5.93-5.93A5.93,5.93,0,0,1,49.86,98Zm0-7.9a2,2,0,1,0,2,2A2,2,0,0,0,49.86,90.12Z" transform="translate(2.15 19.18)"/><path class="cls-6" d="M36.7,98a5.93,5.93,0,1,1,5.92-5.93A5.94,5.94,0,0,1,36.7,98Zm0-7.9a2,2,0,1,0,2,2A2,2,0,0,0,36.7,90.12Z" transform="translate(2.15 19.18)"/></g><g class="cls-36"><path class="cls-6" d="M23.53,19a5.93,5.93,0,1,1,5.92-5.93A5.94,5.94,0,0,1,23.53,19Zm0-7.9a2,2,0,1,0,2,2A2,2,0,0,0,23.53,11.11Z" transform="translate(2.15 19.18)"/><path class="cls-6" d="M10.36,19a5.93,5.93,0,1,1,5.93-5.93A5.93,5.93,0,0,1,10.36,19Zm0-7.9a2,2,0,1,0,2,2A2,2,0,0,0,10.36,11.11Z" transform="translate(2.15 19.18)"/><path class="cls-6" d="M30.11,5.84A5.93,5.93,0,0,1,24.19-.08,5.93,5.93,0,0,1,30.11-6,5.94,5.94,0,0,1,36-.08,5.93,5.93,0,0,1,30.11,5.84Zm0-7.9a2,2,0,0,0-2,2,2,2,0,0,0,2,2,2,2,0,0,0,2-2A2,2,0,0,0,30.11-2.06Z" transform="translate(2.15 19.18)"/><path class="cls-6" d="M17,5.84A5.93,5.93,0,0,1,11-.08,5.94,5.94,0,0,1,17-6,5.93,5.93,0,0,1,22.87-.08,5.93,5.93,0,0,1,17,5.84Zm0-7.9a2,2,0,0,0-2,2,2,2,0,0,0,2,2,2,2,0,0,0,2-2A2,2,0,0,0,17-2.06Z" transform="translate(2.15 19.18)"/><path class="cls-6" d="M3.78,5.84A5.93,5.93,0,0,1-2.15-.08,5.94,5.94,0,0,1,3.78-6,5.93,5.93,0,0,1,9.7-.08,5.93,5.93,0,0,1,3.78,5.84Zm0-7.9a2,2,0,0,0-2,2,2,2,0,0,0,2,2,2,2,0,0,0,2-2A2,2,0,0,0,3.78-2.06Z" transform="translate(2.15 19.18)"/><path class="cls-6" d="M23.53-7.33a5.93,5.93,0,0,1-5.93-5.92,5.94,5.94,0,0,1,5.93-5.93,5.93,5.93,0,0,1,5.92,5.93A5.92,5.92,0,0,1,23.53-7.33Zm0-7.9a2,2,0,0,0-2,2,2,2,0,0,0,2,2,2,2,0,0,0,2-2A2,2,0,0,0,23.53-15.23Z" transform="translate(2.15 19.18)"/><path class="cls-6" d="M10.36-7.33a5.92,5.92,0,0,1-5.92-5.92,5.93,5.93,0,0,1,5.92-5.93,5.94,5.94,0,0,1,5.93,5.93A5.93,5.93,0,0,1,10.36-7.33Zm0-7.9a2,2,0,0,0-2,2,2,2,0,0,0,2,2,2,2,0,0,0,2-2A2,2,0,0,0,10.36-15.23Z" transform="translate(2.15 19.18)"/></g><g class="cls-37"><path class="cls-6" d="M23.53,45.35a5.93,5.93,0,1,1,5.92-5.93A5.94,5.94,0,0,1,23.53,45.35Zm0-7.9a2,2,0,1,0,2,2A2,2,0,0,0,23.53,37.45Z" transform="translate(2.15 19.18)"/><path class="cls-6" d="M10.36,45.35a5.93,5.93,0,1,1,5.93-5.93A5.93,5.93,0,0,1,10.36,45.35Zm0-7.9a2,2,0,1,0,2,2A2,2,0,0,0,10.36,37.45Z" transform="translate(2.15 19.18)"/><path class="cls-6" d="M30.11,32.18A5.93,5.93,0,1,1,36,26.25,5.93,5.93,0,0,1,30.11,32.18Zm0-7.9a2,2,0,1,0,2,2A2,2,0,0,0,30.11,24.28Z" transform="translate(2.15 19.18)"/><path class="cls-6" d="M17,32.18a5.93,5.93,0,1,1,5.92-5.93A5.94,5.94,0,0,1,17,32.18Zm0-7.9a2,2,0,1,0,2,2A2,2,0,0,0,17,24.28Z" transform="translate(2.15 19.18)"/><path class="cls-6" d="M3.78,32.18A5.93,5.93,0,1,1,9.7,26.25,5.94,5.94,0,0,1,3.78,32.18Zm0-7.9a2,2,0,1,0,2,2A2,2,0,0,0,3.78,24.28Z" transform="translate(2.15 19.18)"/><path class="cls-6" d="M23.53,19a5.93,5.93,0,1,1,5.92-5.93A5.94,5.94,0,0,1,23.53,19Zm0-7.9a2,2,0,1,0,2,2A2,2,0,0,0,23.53,11.11Z" transform="translate(2.15 19.18)"/><path class="cls-6" d="M10.36,19a5.93,5.93,0,1,1,5.93-5.93A5.93,5.93,0,0,1,10.36,19Zm0-7.9a2,2,0,1,0,2,2A2,2,0,0,0,10.36,11.11Z" transform="translate(2.15 19.18)"/></g><g class="cls-38"><path class="cls-6" d="M23.53,71.68a5.93,5.93,0,1,1,5.92-5.92A5.93,5.93,0,0,1,23.53,71.68Zm0-7.9a2,2,0,1,0,2,2A2,2,0,0,0,23.53,63.78Z" transform="translate(2.15 19.18)"/><path class="cls-6" d="M10.36,71.68a5.93,5.93,0,1,1,5.93-5.92A5.93,5.93,0,0,1,10.36,71.68Zm0-7.9a2,2,0,1,0,2,2A2,2,0,0,0,10.36,63.78Z" transform="translate(2.15 19.18)"/><path class="cls-6" d="M30.11,58.51A5.93,5.93,0,1,1,36,52.59,5.93,5.93,0,0,1,30.11,58.51Zm0-7.9a2,2,0,1,0,2,2A2,2,0,0,0,30.11,50.61Z" transform="translate(2.15 19.18)"/><path class="cls-6" d="M17,58.51a5.93,5.93,0,1,1,5.92-5.92A5.93,5.93,0,0,1,17,58.51Zm0-7.9a2,2,0,1,0,2,2A2,2,0,0,0,17,50.61Z" transform="translate(2.15 19.18)"/><path class="cls-6" d="M3.78,58.51A5.93,5.93,0,1,1,9.7,52.59,5.93,5.93,0,0,1,3.78,58.51Zm0-7.9a2,2,0,1,0,2,2A2,2,0,0,0,3.78,50.61Z" transform="translate(2.15 19.18)"/><path class="cls-6" d="M23.53,45.35a5.93,5.93,0,1,1,5.92-5.93A5.94,5.94,0,0,1,23.53,45.35Zm0-7.9a2,2,0,1,0,2,2A2,2,0,0,0,23.53,37.45Z" transform="translate(2.15 19.18)"/><path class="cls-6" d="M10.36,45.35a5.93,5.93,0,1,1,5.93-5.93A5.93,5.93,0,0,1,10.36,45.35Zm0-7.9a2,2,0,1,0,2,2A2,2,0,0,0,10.36,37.45Z" transform="translate(2.15 19.18)"/></g><g class="cls-39"><path class="cls-6" d="M23.53,98a5.93,5.93,0,1,1,5.92-5.93A5.94,5.94,0,0,1,23.53,98Zm0-7.9a2,2,0,1,0,2,2A2,2,0,0,0,23.53,90.12Z" transform="translate(2.15 19.18)"/><path class="cls-6" d="M10.36,98a5.93,5.93,0,1,1,5.93-5.93A5.93,5.93,0,0,1,10.36,98Zm0-7.9a2,2,0,1,0,2,2A2,2,0,0,0,10.36,90.12Z" transform="translate(2.15 19.18)"/><path class="cls-6" d="M30.11,84.85A5.93,5.93,0,1,1,36,78.92,5.93,5.93,0,0,1,30.11,84.85Zm0-7.9a2,2,0,1,0,2,2A2,2,0,0,0,30.11,77Z" transform="translate(2.15 19.18)"/><path class="cls-6" d="M17,84.85a5.93,5.93,0,1,1,5.92-5.93A5.94,5.94,0,0,1,17,84.85ZM17,77a2,2,0,1,0,2,2A2,2,0,0,0,17,77Z" transform="translate(2.15 19.18)"/><path class="cls-6" d="M3.78,84.85A5.93,5.93,0,1,1,9.7,78.92,5.94,5.94,0,0,1,3.78,84.85Zm0-7.9a2,2,0,1,0,2,2A2,2,0,0,0,3.78,77Z" transform="translate(2.15 19.18)"/><path class="cls-6" d="M23.53,71.68a5.93,5.93,0,1,1,5.92-5.92A5.93,5.93,0,0,1,23.53,71.68Zm0-7.9a2,2,0,1,0,2,2A2,2,0,0,0,23.53,63.78Z" transform="translate(2.15 19.18)"/><path class="cls-6" d="M10.36,71.68a5.93,5.93,0,1,1,5.93-5.92A5.93,5.93,0,0,1,10.36,71.68Zm0-7.9a2,2,0,1,0,2,2A2,2,0,0,0,10.36,63.78Z" transform="translate(2.15 19.18)"/></g><g class="cls-40"><path class="cls-6" d="M23.53,124.35a5.93,5.93,0,1,1,5.92-5.92A5.93,5.93,0,0,1,23.53,124.35Zm0-7.9a2,2,0,1,0,2,2A2,2,0,0,0,23.53,116.45Z" transform="translate(2.15 19.18)"/><path class="cls-6" d="M10.36,124.35a5.93,5.93,0,1,1,5.93-5.92A5.92,5.92,0,0,1,10.36,124.35Zm0-7.9a2,2,0,1,0,2,2A2,2,0,0,0,10.36,116.45Z" transform="translate(2.15 19.18)"/><path class="cls-6" d="M30.11,111.19A5.93,5.93,0,1,1,36,105.26,5.93,5.93,0,0,1,30.11,111.19Zm0-7.9a2,2,0,1,0,2,2A2,2,0,0,0,30.11,103.29Z" transform="translate(2.15 19.18)"/><path class="cls-6" d="M17,111.19a5.93,5.93,0,1,1,5.92-5.93A5.94,5.94,0,0,1,17,111.19Zm0-7.9a2,2,0,1,0,2,2A2,2,0,0,0,17,103.29Z" transform="translate(2.15 19.18)"/><path class="cls-6" d="M3.78,111.19a5.93,5.93,0,1,1,5.92-5.93A5.94,5.94,0,0,1,3.78,111.19Zm0-7.9a2,2,0,1,0,2,2A2,2,0,0,0,3.78,103.29Z" transform="translate(2.15 19.18)"/><path class="cls-6" d="M23.53,98a5.93,5.93,0,1,1,5.92-5.93A5.94,5.94,0,0,1,23.53,98Zm0-7.9a2,2,0,1,0,2,2A2,2,0,0,0,23.53,90.12Z" transform="translate(2.15 19.18)"/><path class="cls-6" d="M10.36,98a5.93,5.93,0,1,1,5.93-5.93A5.93,5.93,0,0,1,10.36,98Zm0-7.9a2,2,0,1,0,2,2A2,2,0,0,0,10.36,90.12Z" transform="translate(2.15 19.18)"/></g></g><g class="cls-41"><g class="cls-15"><path class="cls-6" d="M155.21,124.35a5.93,5.93,0,1,1,5.92-5.92A5.93,5.93,0,0,1,155.21,124.35Zm0-7.9a2,2,0,1,0,2,2A2,2,0,0,0,155.21,116.45Z" transform="translate(2.15 19.18)"/><path class="cls-6" d="M142,124.35a5.93,5.93,0,1,1,5.93-5.92A5.92,5.92,0,0,1,142,124.35Zm0-7.9a2,2,0,1,0,2,2A2,2,0,0,0,142,116.45Z" transform="translate(2.15 19.18)"/><path class="cls-6" d="M161.79,111.19a5.93,5.93,0,1,1,5.93-5.93A5.93,5.93,0,0,1,161.79,111.19Zm0-7.9a2,2,0,1,0,2,2A2,2,0,0,0,161.79,103.29Z" transform="translate(2.15 19.18)"/><path class="cls-6" d="M148.63,111.19a5.93,5.93,0,1,1,5.92-5.93A5.94,5.94,0,0,1,148.63,111.19Zm0-7.9a2,2,0,1,0,2,2A2,2,0,0,0,148.63,103.29Z" transform="translate(2.15 19.18)"/><path class="cls-6" d="M135.46,111.19a5.93,5.93,0,1,1,5.92-5.93A5.94,5.94,0,0,1,135.46,111.19Zm0-7.9a2,2,0,1,0,2,2A2,2,0,0,0,135.46,103.29Z" transform="translate(2.15 19.18)"/><path class="cls-6" d="M155.21,98a5.93,5.93,0,1,1,5.92-5.93A5.94,5.94,0,0,1,155.21,98Zm0-7.9a2,2,0,1,0,2,2A2,2,0,0,0,155.21,90.12Z" transform="translate(2.15 19.18)"/><path class="cls-6" d="M142,98A5.93,5.93,0,1,1,148,92.09,5.93,5.93,0,0,1,142,98Zm0-7.9a2,2,0,1,0,2,2A2,2,0,0,0,142,90.12Z" transform="translate(2.15 19.18)"/></g><g class="cls-42"><path class="cls-6" d="M155.21,150.69a5.93,5.93,0,1,1,5.92-5.93A5.94,5.94,0,0,1,155.21,150.69Zm0-7.9a2,2,0,1,0,2,2A2,2,0,0,0,155.21,142.79Z" transform="translate(2.15 19.18)"/><path class="cls-6" d="M142,150.69a5.93,5.93,0,1,1,5.93-5.93A5.93,5.93,0,0,1,142,150.69Zm0-7.9a2,2,0,1,0,2,2A2,2,0,0,0,142,142.79Z" transform="translate(2.15 19.18)"/><path class="cls-6" d="M161.79,137.52a5.93,5.93,0,1,1,5.93-5.92A5.93,5.93,0,0,1,161.79,137.52Zm0-7.9a2,2,0,1,0,2,2A2,2,0,0,0,161.79,129.62Z" transform="translate(2.15 19.18)"/><path class="cls-6" d="M148.63,137.52a5.93,5.93,0,1,1,5.92-5.92A5.93,5.93,0,0,1,148.63,137.52Zm0-7.9a2,2,0,1,0,2,2A2,2,0,0,0,148.63,129.62Z" transform="translate(2.15 19.18)"/><path class="cls-6" d="M135.46,137.52a5.93,5.93,0,1,1,5.92-5.92A5.93,5.93,0,0,1,135.46,137.52Zm0-7.9a2,2,0,1,0,2,2A2,2,0,0,0,135.46,129.62Z" transform="translate(2.15 19.18)"/><path class="cls-6" d="M155.21,124.35a5.93,5.93,0,1,1,5.92-5.92A5.93,5.93,0,0,1,155.21,124.35Zm0-7.9a2,2,0,1,0,2,2A2,2,0,0,0,155.21,116.45Z" transform="translate(2.15 19.18)"/><path class="cls-6" d="M142,124.35a5.93,5.93,0,1,1,5.93-5.92A5.92,5.92,0,0,1,142,124.35Zm0-7.9a2,2,0,1,0,2,2A2,2,0,0,0,142,116.45Z" transform="translate(2.15 19.18)"/></g><g class="cls-43"><path class="cls-6" d="M155.21,177a5.93,5.93,0,1,1,5.92-5.93A5.94,5.94,0,0,1,155.21,177Zm0-7.91a2,2,0,1,0,2,2A2,2,0,0,0,155.21,169.12Z" transform="translate(2.15 19.18)"/><path class="cls-6" d="M142,177A5.93,5.93,0,1,1,148,171.1,5.93,5.93,0,0,1,142,177Zm0-7.91a2,2,0,1,0,2,2A2,2,0,0,0,142,169.12Z" transform="translate(2.15 19.18)"/><path class="cls-6" d="M161.79,163.86a5.93,5.93,0,1,1,5.93-5.93A5.93,5.93,0,0,1,161.79,163.86Zm0-7.9a2,2,0,1,0,2,2A2,2,0,0,0,161.79,156Z" transform="translate(2.15 19.18)"/><path class="cls-6" d="M148.63,163.86a5.93,5.93,0,1,1,5.92-5.93A5.94,5.94,0,0,1,148.63,163.86Zm0-7.9a2,2,0,1,0,2,2A2,2,0,0,0,148.63,156Z" transform="translate(2.15 19.18)"/><path class="cls-6" d="M135.46,163.86a5.93,5.93,0,1,1,5.92-5.93A5.94,5.94,0,0,1,135.46,163.86Zm0-7.9a2,2,0,1,0,2,2A2,2,0,0,0,135.46,156Z" transform="translate(2.15 19.18)"/><path class="cls-6" d="M155.21,150.69a5.93,5.93,0,1,1,5.92-5.93A5.94,5.94,0,0,1,155.21,150.69Zm0-7.9a2,2,0,1,0,2,2A2,2,0,0,0,155.21,142.79Z" transform="translate(2.15 19.18)"/><path class="cls-6" d="M142,150.69a5.93,5.93,0,1,1,5.93-5.93A5.93,5.93,0,0,1,142,150.69Zm0-7.9a2,2,0,1,0,2,2A2,2,0,0,0,142,142.79Z" transform="translate(2.15 19.18)"/></g><g class="cls-44"><path class="cls-6" d="M155.21,203.36a5.93,5.93,0,1,1,5.92-5.92A5.93,5.93,0,0,1,155.21,203.36Zm0-7.9a2,2,0,1,0,2,2A2,2,0,0,0,155.21,195.46Z" transform="translate(2.15 19.18)"/><path class="cls-6" d="M142,203.36a5.93,5.93,0,1,1,5.93-5.92A5.93,5.93,0,0,1,142,203.36Zm0-7.9a2,2,0,1,0,2,2A2,2,0,0,0,142,195.46Z" transform="translate(2.15 19.18)"/><path class="cls-6" d="M161.79,190.19a5.93,5.93,0,1,1,5.93-5.92A5.93,5.93,0,0,1,161.79,190.19Zm0-7.9a2,2,0,1,0,2,2A2,2,0,0,0,161.79,182.29Z" transform="translate(2.15 19.18)"/><path class="cls-6" d="M148.63,190.19a5.93,5.93,0,1,1,5.92-5.92A5.93,5.93,0,0,1,148.63,190.19Zm0-7.9a2,2,0,1,0,2,2A2,2,0,0,0,148.63,182.29Z" transform="translate(2.15 19.18)"/><path class="cls-6" d="M135.46,190.19a5.93,5.93,0,1,1,5.92-5.92A5.93,5.93,0,0,1,135.46,190.19Zm0-7.9a2,2,0,1,0,2,2A2,2,0,0,0,135.46,182.29Z" transform="translate(2.15 19.18)"/><path class="cls-6" d="M155.21,177a5.93,5.93,0,1,1,5.92-5.93A5.94,5.94,0,0,1,155.21,177Zm0-7.91a2,2,0,1,0,2,2A2,2,0,0,0,155.21,169.12Z" transform="translate(2.15 19.18)"/><path class="cls-6" d="M142,177A5.93,5.93,0,1,1,148,171.1,5.93,5.93,0,0,1,142,177Zm0-7.91a2,2,0,1,0,2,2A2,2,0,0,0,142,169.12Z" transform="translate(2.15 19.18)"/></g><g class="cls-45"><path class="cls-6" d="M155.21,229.7a5.93,5.93,0,1,1,5.92-5.93A5.94,5.94,0,0,1,155.21,229.7Zm0-7.9a2,2,0,1,0,2,2A2,2,0,0,0,155.21,221.8Z" transform="translate(2.15 19.18)"/><path class="cls-6" d="M142,229.7a5.93,5.93,0,1,1,5.93-5.93A5.93,5.93,0,0,1,142,229.7Zm0-7.9a2,2,0,1,0,2,2A2,2,0,0,0,142,221.8Z" transform="translate(2.15 19.18)"/><path class="cls-6" d="M161.79,216.53a5.93,5.93,0,1,1,5.93-5.93A5.93,5.93,0,0,1,161.79,216.53Zm0-7.9a2,2,0,1,0,2,2A2,2,0,0,0,161.79,208.63Z" transform="translate(2.15 19.18)"/><path class="cls-6" d="M148.63,216.53a5.93,5.93,0,1,1,5.92-5.93A5.94,5.94,0,0,1,148.63,216.53Zm0-7.9a2,2,0,1,0,2,2A2,2,0,0,0,148.63,208.63Z" transform="translate(2.15 19.18)"/><path class="cls-6" d="M135.46,216.53a5.93,5.93,0,1,1,5.92-5.93A5.94,5.94,0,0,1,135.46,216.53Zm0-7.9a2,2,0,1,0,2,2A2,2,0,0,0,135.46,208.63Z" transform="translate(2.15 19.18)"/><path class="cls-6" d="M155.21,203.36a5.93,5.93,0,1,1,5.92-5.92A5.93,5.93,0,0,1,155.21,203.36Zm0-7.9a2,2,0,1,0,2,2A2,2,0,0,0,155.21,195.46Z" transform="translate(2.15 19.18)"/><path class="cls-6" d="M142,203.36a5.93,5.93,0,1,1,5.93-5.92A5.93,5.93,0,0,1,142,203.36Zm0-7.9a2,2,0,1,0,2,2A2,2,0,0,0,142,195.46Z" transform="translate(2.15 19.18)"/></g><g class="cls-20"><path class="cls-6" d="M128.87,124.35a5.93,5.93,0,1,1,5.93-5.92A5.93,5.93,0,0,1,128.87,124.35Zm0-7.9a2,2,0,1,0,2,2A2,2,0,0,0,128.87,116.45Z" transform="translate(2.15 19.18)"/><path class="cls-6" d="M115.7,124.35a5.93,5.93,0,1,1,5.93-5.92A5.93,5.93,0,0,1,115.7,124.35Zm0-7.9a2,2,0,1,0,2,2A2,2,0,0,0,115.7,116.45Z" transform="translate(2.15 19.18)"/><path class="cls-6" d="M135.46,111.19a5.93,5.93,0,1,1,5.92-5.93A5.94,5.94,0,0,1,135.46,111.19Zm0-7.9a2,2,0,1,0,2,2A2,2,0,0,0,135.46,103.29Z" transform="translate(2.15 19.18)"/><path class="cls-6" d="M122.29,111.19a5.93,5.93,0,1,1,5.92-5.93A5.94,5.94,0,0,1,122.29,111.19Zm0-7.9a2,2,0,1,0,2,2A2,2,0,0,0,122.29,103.29Z" transform="translate(2.15 19.18)"/><path class="cls-6" d="M109.12,111.19a5.93,5.93,0,1,1,5.93-5.93A5.93,5.93,0,0,1,109.12,111.19Zm0-7.9a2,2,0,1,0,2,2A2,2,0,0,0,109.12,103.29Z" transform="translate(2.15 19.18)"/><path class="cls-6" d="M128.87,98a5.93,5.93,0,1,1,5.93-5.93A5.93,5.93,0,0,1,128.87,98Zm0-7.9a2,2,0,1,0,2,2A2,2,0,0,0,128.87,90.12Z" transform="translate(2.15 19.18)"/><path class="cls-6" d="M115.7,98a5.93,5.93,0,1,1,5.93-5.93A5.93,5.93,0,0,1,115.7,98Zm0-7.9a2,2,0,1,0,2,2A2,2,0,0,0,115.7,90.12Z" transform="translate(2.15 19.18)"/></g><g class="cls-46"><path class="cls-6" d="M128.87,150.69a5.93,5.93,0,1,1,5.93-5.93A5.93,5.93,0,0,1,128.87,150.69Zm0-7.9a2,2,0,1,0,2,2A2,2,0,0,0,128.87,142.79Z" transform="translate(2.15 19.18)"/><path class="cls-6" d="M115.7,150.69a5.93,5.93,0,1,1,5.93-5.93A5.93,5.93,0,0,1,115.7,150.69Zm0-7.9a2,2,0,1,0,2,2A2,2,0,0,0,115.7,142.79Z" transform="translate(2.15 19.18)"/><path class="cls-6" d="M135.46,137.52a5.93,5.93,0,1,1,5.92-5.92A5.93,5.93,0,0,1,135.46,137.52Zm0-7.9a2,2,0,1,0,2,2A2,2,0,0,0,135.46,129.62Z" transform="translate(2.15 19.18)"/><path class="cls-6" d="M122.29,137.52a5.93,5.93,0,1,1,5.92-5.92A5.93,5.93,0,0,1,122.29,137.52Zm0-7.9a2,2,0,1,0,2,2A2,2,0,0,0,122.29,129.62Z" transform="translate(2.15 19.18)"/><path class="cls-6" d="M109.12,137.52a5.93,5.93,0,1,1,5.93-5.92A5.93,5.93,0,0,1,109.12,137.52Zm0-7.9a2,2,0,1,0,2,2A2,2,0,0,0,109.12,129.62Z" transform="translate(2.15 19.18)"/><path class="cls-6" d="M128.87,124.35a5.93,5.93,0,1,1,5.93-5.92A5.93,5.93,0,0,1,128.87,124.35Zm0-7.9a2,2,0,1,0,2,2A2,2,0,0,0,128.87,116.45Z" transform="translate(2.15 19.18)"/><path class="cls-6" d="M115.7,124.35a5.93,5.93,0,1,1,5.93-5.92A5.93,5.93,0,0,1,115.7,124.35Zm0-7.9a2,2,0,1,0,2,2A2,2,0,0,0,115.7,116.45Z" transform="translate(2.15 19.18)"/></g><g class="cls-47"><path class="cls-6" d="M128.87,177a5.93,5.93,0,1,1,5.93-5.93A5.93,5.93,0,0,1,128.87,177Zm0-7.91a2,2,0,1,0,2,2A2,2,0,0,0,128.87,169.12Z" transform="translate(2.15 19.18)"/><path class="cls-6" d="M115.7,177a5.93,5.93,0,1,1,5.93-5.93A5.93,5.93,0,0,1,115.7,177Zm0-7.91a2,2,0,1,0,2,2A2,2,0,0,0,115.7,169.12Z" transform="translate(2.15 19.18)"/><path class="cls-6" d="M135.46,163.86a5.93,5.93,0,1,1,5.92-5.93A5.94,5.94,0,0,1,135.46,163.86Zm0-7.9a2,2,0,1,0,2,2A2,2,0,0,0,135.46,156Z" transform="translate(2.15 19.18)"/><path class="cls-6" d="M122.29,163.86a5.93,5.93,0,1,1,5.92-5.93A5.94,5.94,0,0,1,122.29,163.86Zm0-7.9a2,2,0,1,0,2,2A2,2,0,0,0,122.29,156Z" transform="translate(2.15 19.18)"/><path class="cls-6" d="M109.12,163.86a5.93,5.93,0,1,1,5.93-5.93A5.93,5.93,0,0,1,109.12,163.86Zm0-7.9a2,2,0,1,0,2,2A2,2,0,0,0,109.12,156Z" transform="translate(2.15 19.18)"/><path class="cls-6" d="M128.87,150.69a5.93,5.93,0,1,1,5.93-5.93A5.93,5.93,0,0,1,128.87,150.69Zm0-7.9a2,2,0,1,0,2,2A2,2,0,0,0,128.87,142.79Z" transform="translate(2.15 19.18)"/><path class="cls-6" d="M115.7,150.69a5.93,5.93,0,1,1,5.93-5.93A5.93,5.93,0,0,1,115.7,150.69Zm0-7.9a2,2,0,1,0,2,2A2,2,0,0,0,115.7,142.79Z" transform="translate(2.15 19.18)"/></g><g class="cls-48"><path class="cls-6" d="M128.87,203.36a5.93,5.93,0,1,1,5.93-5.92A5.93,5.93,0,0,1,128.87,203.36Zm0-7.9a2,2,0,1,0,2,2A2,2,0,0,0,128.87,195.46Z" transform="translate(2.15 19.18)"/><path class="cls-6" d="M115.7,203.36a5.93,5.93,0,1,1,5.93-5.92A5.93,5.93,0,0,1,115.7,203.36Zm0-7.9a2,2,0,1,0,2,2A2,2,0,0,0,115.7,195.46Z" transform="translate(2.15 19.18)"/><path class="cls-6" d="M135.46,190.19a5.93,5.93,0,1,1,5.92-5.92A5.93,5.93,0,0,1,135.46,190.19Zm0-7.9a2,2,0,1,0,2,2A2,2,0,0,0,135.46,182.29Z" transform="translate(2.15 19.18)"/><path class="cls-6" d="M122.29,190.19a5.93,5.93,0,1,1,5.92-5.92A5.93,5.93,0,0,1,122.29,190.19Zm0-7.9a2,2,0,1,0,2,2A2,2,0,0,0,122.29,182.29Z" transform="translate(2.15 19.18)"/><path class="cls-6" d="M109.12,190.19a5.93,5.93,0,1,1,5.93-5.92A5.92,5.92,0,0,1,109.12,190.19Zm0-7.9a2,2,0,1,0,2,2A2,2,0,0,0,109.12,182.29Z" transform="translate(2.15 19.18)"/><path class="cls-6" d="M128.87,177a5.93,5.93,0,1,1,5.93-5.93A5.93,5.93,0,0,1,128.87,177Zm0-7.91a2,2,0,1,0,2,2A2,2,0,0,0,128.87,169.12Z" transform="translate(2.15 19.18)"/><path class="cls-6" d="M115.7,177a5.93,5.93,0,1,1,5.93-5.93A5.93,5.93,0,0,1,115.7,177Zm0-7.91a2,2,0,1,0,2,2A2,2,0,0,0,115.7,169.12Z" transform="translate(2.15 19.18)"/></g><g class="cls-49"><path class="cls-6" d="M128.87,229.7a5.93,5.93,0,1,1,5.93-5.93A5.93,5.93,0,0,1,128.87,229.7Zm0-7.9a2,2,0,1,0,2,2A2,2,0,0,0,128.87,221.8Z" transform="translate(2.15 19.18)"/><path class="cls-6" d="M115.7,229.7a5.93,5.93,0,1,1,5.93-5.93A5.93,5.93,0,0,1,115.7,229.7Zm0-7.9a2,2,0,1,0,2,2A2,2,0,0,0,115.7,221.8Z" transform="translate(2.15 19.18)"/><path class="cls-6" d="M135.46,216.53a5.93,5.93,0,1,1,5.92-5.93A5.94,5.94,0,0,1,135.46,216.53Zm0-7.9a2,2,0,1,0,2,2A2,2,0,0,0,135.46,208.63Z" transform="translate(2.15 19.18)"/><path class="cls-6" d="M122.29,216.53a5.93,5.93,0,1,1,5.92-5.93A5.94,5.94,0,0,1,122.29,216.53Zm0-7.9a2,2,0,1,0,2,2A2,2,0,0,0,122.29,208.63Z" transform="translate(2.15 19.18)"/><path class="cls-6" d="M109.12,216.53a5.93,5.93,0,1,1,5.93-5.93A5.93,5.93,0,0,1,109.12,216.53Zm0-7.9a2,2,0,1,0,2,2A2,2,0,0,0,109.12,208.63Z" transform="translate(2.15 19.18)"/><path class="cls-6" d="M128.87,203.36a5.93,5.93,0,1,1,5.93-5.92A5.93,5.93,0,0,1,128.87,203.36Zm0-7.9a2,2,0,1,0,2,2A2,2,0,0,0,128.87,195.46Z" transform="translate(2.15 19.18)"/><path class="cls-6" d="M115.7,203.36a5.93,5.93,0,1,1,5.93-5.92A5.93,5.93,0,0,1,115.7,203.36Zm0-7.9a2,2,0,1,0,2,2A2,2,0,0,0,115.7,195.46Z" transform="translate(2.15 19.18)"/></g><g class="cls-25"><path class="cls-6" d="M102.54,124.35a5.93,5.93,0,1,1,5.92-5.92A5.93,5.93,0,0,1,102.54,124.35Zm0-7.9a2,2,0,1,0,2,2A2,2,0,0,0,102.54,116.45Z" transform="translate(2.15 19.18)"/><path class="cls-6" d="M89.37,124.35a5.93,5.93,0,1,1,5.92-5.92A5.93,5.93,0,0,1,89.37,124.35Zm0-7.9a2,2,0,1,0,2,2A2,2,0,0,0,89.37,116.45Z" transform="translate(2.15 19.18)"/><path class="cls-6" d="M109.12,111.19a5.93,5.93,0,1,1,5.93-5.93A5.93,5.93,0,0,1,109.12,111.19Zm0-7.9a2,2,0,1,0,2,2A2,2,0,0,0,109.12,103.29Z" transform="translate(2.15 19.18)"/><path class="cls-6" d="M96,111.19a5.93,5.93,0,1,1,5.93-5.93A5.93,5.93,0,0,1,96,111.19Zm0-7.9a2,2,0,1,0,2,2A2,2,0,0,0,96,103.29Z" transform="translate(2.15 19.18)"/><path class="cls-6" d="M82.78,111.19a5.93,5.93,0,1,1,5.93-5.93A5.93,5.93,0,0,1,82.78,111.19Zm0-7.9a2,2,0,1,0,2,2A2,2,0,0,0,82.78,103.29Z" transform="translate(2.15 19.18)"/><path class="cls-6" d="M102.54,98a5.93,5.93,0,1,1,5.92-5.93A5.94,5.94,0,0,1,102.54,98Zm0-7.9a2,2,0,1,0,2,2A2,2,0,0,0,102.54,90.12Z" transform="translate(2.15 19.18)"/><path class="cls-6" d="M89.37,98a5.93,5.93,0,1,1,5.92-5.93A5.94,5.94,0,0,1,89.37,98Zm0-7.9a2,2,0,1,0,2,2A2,2,0,0,0,89.37,90.12Z" transform="translate(2.15 19.18)"/></g><g class="cls-50"><path class="cls-6" d="M102.54,150.69a5.93,5.93,0,1,1,5.92-5.93A5.94,5.94,0,0,1,102.54,150.69Zm0-7.9a2,2,0,1,0,2,2A2,2,0,0,0,102.54,142.79Z" transform="translate(2.15 19.18)"/><path class="cls-6" d="M89.37,150.69a5.93,5.93,0,1,1,5.92-5.93A5.94,5.94,0,0,1,89.37,150.69Zm0-7.9a2,2,0,1,0,2,2A2,2,0,0,0,89.37,142.79Z" transform="translate(2.15 19.18)"/><path class="cls-6" d="M109.12,137.52a5.93,5.93,0,1,1,5.93-5.92A5.93,5.93,0,0,1,109.12,137.52Zm0-7.9a2,2,0,1,0,2,2A2,2,0,0,0,109.12,129.62Z" transform="translate(2.15 19.18)"/><path class="cls-6" d="M96,137.52a5.93,5.93,0,1,1,5.93-5.92A5.93,5.93,0,0,1,96,137.52Zm0-7.9a2,2,0,1,0,2,2A2,2,0,0,0,96,129.62Z" transform="translate(2.15 19.18)"/><path class="cls-6" d="M82.78,137.52a5.93,5.93,0,1,1,5.93-5.92A5.93,5.93,0,0,1,82.78,137.52Zm0-7.9a2,2,0,1,0,2,2A2,2,0,0,0,82.78,129.62Z" transform="translate(2.15 19.18)"/><path class="cls-6" d="M102.54,124.35a5.93,5.93,0,1,1,5.92-5.92A5.93,5.93,0,0,1,102.54,124.35Zm0-7.9a2,2,0,1,0,2,2A2,2,0,0,0,102.54,116.45Z" transform="translate(2.15 19.18)"/><path class="cls-6" d="M89.37,124.35a5.93,5.93,0,1,1,5.92-5.92A5.93,5.93,0,0,1,89.37,124.35Zm0-7.9a2,2,0,1,0,2,2A2,2,0,0,0,89.37,116.45Z" transform="translate(2.15 19.18)"/></g><g class="cls-51"><path class="cls-6" d="M102.54,177a5.93,5.93,0,1,1,5.92-5.93A5.94,5.94,0,0,1,102.54,177Zm0-7.91a2,2,0,1,0,2,2A2,2,0,0,0,102.54,169.12Z" transform="translate(2.15 19.18)"/><path class="cls-6" d="M89.37,177a5.93,5.93,0,1,1,5.92-5.93A5.94,5.94,0,0,1,89.37,177Zm0-7.91a2,2,0,1,0,2,2A2,2,0,0,0,89.37,169.12Z" transform="translate(2.15 19.18)"/><path class="cls-6" d="M109.12,163.86a5.93,5.93,0,1,1,5.93-5.93A5.93,5.93,0,0,1,109.12,163.86Zm0-7.9a2,2,0,1,0,2,2A2,2,0,0,0,109.12,156Z" transform="translate(2.15 19.18)"/><path class="cls-6" d="M96,163.86a5.93,5.93,0,1,1,5.93-5.93A5.93,5.93,0,0,1,96,163.86Zm0-7.9a2,2,0,1,0,2,2A2,2,0,0,0,96,156Z" transform="translate(2.15 19.18)"/><path class="cls-6" d="M82.78,163.86a5.93,5.93,0,1,1,5.93-5.93A5.93,5.93,0,0,1,82.78,163.86Zm0-7.9a2,2,0,1,0,2,2A2,2,0,0,0,82.78,156Z" transform="translate(2.15 19.18)"/><path class="cls-6" d="M102.54,150.69a5.93,5.93,0,1,1,5.92-5.93A5.94,5.94,0,0,1,102.54,150.69Zm0-7.9a2,2,0,1,0,2,2A2,2,0,0,0,102.54,142.79Z" transform="translate(2.15 19.18)"/><path class="cls-6" d="M89.37,150.69a5.93,5.93,0,1,1,5.92-5.93A5.94,5.94,0,0,1,89.37,150.69Zm0-7.9a2,2,0,1,0,2,2A2,2,0,0,0,89.37,142.79Z" transform="translate(2.15 19.18)"/></g><g class="cls-52"><path class="cls-6" d="M102.54,203.36a5.93,5.93,0,1,1,5.92-5.92A5.93,5.93,0,0,1,102.54,203.36Zm0-7.9a2,2,0,1,0,2,2A2,2,0,0,0,102.54,195.46Z" transform="translate(2.15 19.18)"/><path class="cls-6" d="M89.37,203.36a5.93,5.93,0,1,1,5.92-5.92A5.93,5.93,0,0,1,89.37,203.36Zm0-7.9a2,2,0,1,0,2,2A2,2,0,0,0,89.37,195.46Z" transform="translate(2.15 19.18)"/><path class="cls-6" d="M109.12,190.19a5.93,5.93,0,1,1,5.93-5.92A5.92,5.92,0,0,1,109.12,190.19Zm0-7.9a2,2,0,1,0,2,2A2,2,0,0,0,109.12,182.29Z" transform="translate(2.15 19.18)"/><path class="cls-6" d="M96,190.19a5.93,5.93,0,1,1,5.93-5.92A5.93,5.93,0,0,1,96,190.19Zm0-7.9a2,2,0,1,0,2,2A2,2,0,0,0,96,182.29Z" transform="translate(2.15 19.18)"/><path class="cls-6" d="M82.78,190.19a5.93,5.93,0,1,1,5.93-5.92A5.93,5.93,0,0,1,82.78,190.19Zm0-7.9a2,2,0,1,0,2,2A2,2,0,0,0,82.78,182.29Z" transform="translate(2.15 19.18)"/><path class="cls-6" d="M102.54,177a5.93,5.93,0,1,1,5.92-5.93A5.94,5.94,0,0,1,102.54,177Zm0-7.91a2,2,0,1,0,2,2A2,2,0,0,0,102.54,169.12Z" transform="translate(2.15 19.18)"/><path class="cls-6" d="M89.37,177a5.93,5.93,0,1,1,5.92-5.93A5.94,5.94,0,0,1,89.37,177Zm0-7.91a2,2,0,1,0,2,2A2,2,0,0,0,89.37,169.12Z" transform="translate(2.15 19.18)"/></g><g class="cls-53"><path class="cls-6" d="M102.54,229.7a5.93,5.93,0,1,1,5.92-5.93A5.94,5.94,0,0,1,102.54,229.7Zm0-7.9a2,2,0,1,0,2,2A2,2,0,0,0,102.54,221.8Z" transform="translate(2.15 19.18)"/><path class="cls-6" d="M89.37,229.7a5.93,5.93,0,1,1,5.92-5.93A5.94,5.94,0,0,1,89.37,229.7Zm0-7.9a2,2,0,1,0,2,2A2,2,0,0,0,89.37,221.8Z" transform="translate(2.15 19.18)"/><path class="cls-6" d="M109.12,216.53a5.93,5.93,0,1,1,5.93-5.93A5.93,5.93,0,0,1,109.12,216.53Zm0-7.9a2,2,0,1,0,2,2A2,2,0,0,0,109.12,208.63Z" transform="translate(2.15 19.18)"/><path class="cls-6" d="M96,216.53a5.93,5.93,0,1,1,5.93-5.93A5.93,5.93,0,0,1,96,216.53Zm0-7.9a2,2,0,1,0,2,2A2,2,0,0,0,96,208.63Z" transform="translate(2.15 19.18)"/><path class="cls-6" d="M82.78,216.53a5.93,5.93,0,1,1,5.93-5.93A5.93,5.93,0,0,1,82.78,216.53Zm0-7.9a2,2,0,1,0,2,2A2,2,0,0,0,82.78,208.63Z" transform="translate(2.15 19.18)"/><path class="cls-6" d="M102.54,203.36a5.93,5.93,0,1,1,5.92-5.92A5.93,5.93,0,0,1,102.54,203.36Zm0-7.9a2,2,0,1,0,2,2A2,2,0,0,0,102.54,195.46Z" transform="translate(2.15 19.18)"/><path class="cls-6" d="M89.37,203.36a5.93,5.93,0,1,1,5.92-5.92A5.93,5.93,0,0,1,89.37,203.36Zm0-7.9a2,2,0,1,0,2,2A2,2,0,0,0,89.37,195.46Z" transform="translate(2.15 19.18)"/></g><g class="cls-30"><path class="cls-6" d="M76.2,124.35a5.93,5.93,0,1,1,5.93-5.92A5.92,5.92,0,0,1,76.2,124.35Zm0-7.9a2,2,0,1,0,2,2A2,2,0,0,0,76.2,116.45Z" transform="translate(2.15 19.18)"/><path class="cls-6" d="M63,124.35A5.93,5.93,0,1,1,69,118.43,5.93,5.93,0,0,1,63,124.35Zm0-7.9a2,2,0,1,0,2,2A2,2,0,0,0,63,116.45Z" transform="translate(2.15 19.18)"/><path class="cls-6" d="M82.78,111.19a5.93,5.93,0,1,1,5.93-5.93A5.93,5.93,0,0,1,82.78,111.19Zm0-7.9a2,2,0,1,0,2,2A2,2,0,0,0,82.78,103.29Z" transform="translate(2.15 19.18)"/><path class="cls-6" d="M69.62,111.19a5.93,5.93,0,1,1,5.92-5.93A5.94,5.94,0,0,1,69.62,111.19Zm0-7.9a2,2,0,1,0,2,2A2,2,0,0,0,69.62,103.29Z" transform="translate(2.15 19.18)"/><path class="cls-6" d="M56.45,111.19a5.93,5.93,0,1,1,5.92-5.93A5.94,5.94,0,0,1,56.45,111.19Zm0-7.9a2,2,0,1,0,2,2A2,2,0,0,0,56.45,103.29Z" transform="translate(2.15 19.18)"/><path class="cls-6" d="M76.2,98a5.93,5.93,0,1,1,5.93-5.93A5.93,5.93,0,0,1,76.2,98Zm0-7.9a2,2,0,1,0,2,2A2,2,0,0,0,76.2,90.12Z" transform="translate(2.15 19.18)"/><path class="cls-6" d="M63,98A5.93,5.93,0,1,1,69,92.09,5.93,5.93,0,0,1,63,98Zm0-7.9a2,2,0,1,0,2,2A2,2,0,0,0,63,90.12Z" transform="translate(2.15 19.18)"/></g><g class="cls-54"><path class="cls-6" d="M76.2,150.69a5.93,5.93,0,1,1,5.93-5.93A5.93,5.93,0,0,1,76.2,150.69Zm0-7.9a2,2,0,1,0,2,2A2,2,0,0,0,76.2,142.79Z" transform="translate(2.15 19.18)"/><path class="cls-6" d="M63,150.69A5.93,5.93,0,1,1,69,144.76,5.93,5.93,0,0,1,63,150.69Zm0-7.9a2,2,0,1,0,2,2A2,2,0,0,0,63,142.79Z" transform="translate(2.15 19.18)"/><path class="cls-6" d="M82.78,137.52a5.93,5.93,0,1,1,5.93-5.92A5.93,5.93,0,0,1,82.78,137.52Zm0-7.9a2,2,0,1,0,2,2A2,2,0,0,0,82.78,129.62Z" transform="translate(2.15 19.18)"/><path class="cls-6" d="M69.62,137.52a5.93,5.93,0,1,1,5.92-5.92A5.93,5.93,0,0,1,69.62,137.52Zm0-7.9a2,2,0,1,0,2,2A2,2,0,0,0,69.62,129.62Z" transform="translate(2.15 19.18)"/><path class="cls-6" d="M56.45,137.52a5.93,5.93,0,1,1,5.92-5.92A5.93,5.93,0,0,1,56.45,137.52Zm0-7.9a2,2,0,1,0,2,2A2,2,0,0,0,56.45,129.62Z" transform="translate(2.15 19.18)"/><path class="cls-6" d="M76.2,124.35a5.93,5.93,0,1,1,5.93-5.92A5.92,5.92,0,0,1,76.2,124.35Zm0-7.9a2,2,0,1,0,2,2A2,2,0,0,0,76.2,116.45Z" transform="translate(2.15 19.18)"/><path class="cls-6" d="M63,124.35A5.93,5.93,0,1,1,69,118.43,5.93,5.93,0,0,1,63,124.35Zm0-7.9a2,2,0,1,0,2,2A2,2,0,0,0,63,116.45Z" transform="translate(2.15 19.18)"/></g><g class="cls-55"><path class="cls-6" d="M76.2,177a5.93,5.93,0,1,1,5.93-5.93A5.93,5.93,0,0,1,76.2,177Zm0-7.91a2,2,0,1,0,2,2A2,2,0,0,0,76.2,169.12Z" transform="translate(2.15 19.18)"/><path class="cls-6" d="M63,177A5.93,5.93,0,1,1,69,171.1,5.93,5.93,0,0,1,63,177Zm0-7.91a2,2,0,1,0,2,2A2,2,0,0,0,63,169.12Z" transform="translate(2.15 19.18)"/><path class="cls-6" d="M82.78,163.86a5.93,5.93,0,1,1,5.93-5.93A5.93,5.93,0,0,1,82.78,163.86Zm0-7.9a2,2,0,1,0,2,2A2,2,0,0,0,82.78,156Z" transform="translate(2.15 19.18)"/><path class="cls-6" d="M69.62,163.86a5.93,5.93,0,1,1,5.92-5.93A5.94,5.94,0,0,1,69.62,163.86Zm0-7.9a2,2,0,1,0,2,2A2,2,0,0,0,69.62,156Z" transform="translate(2.15 19.18)"/><path class="cls-6" d="M56.45,163.86a5.93,5.93,0,1,1,5.92-5.93A5.94,5.94,0,0,1,56.45,163.86Zm0-7.9a2,2,0,1,0,2,2A2,2,0,0,0,56.45,156Z" transform="translate(2.15 19.18)"/><path class="cls-6" d="M76.2,150.69a5.93,5.93,0,1,1,5.93-5.93A5.93,5.93,0,0,1,76.2,150.69Zm0-7.9a2,2,0,1,0,2,2A2,2,0,0,0,76.2,142.79Z" transform="translate(2.15 19.18)"/><path class="cls-6" d="M63,150.69A5.93,5.93,0,1,1,69,144.76,5.93,5.93,0,0,1,63,150.69Zm0-7.9a2,2,0,1,0,2,2A2,2,0,0,0,63,142.79Z" transform="translate(2.15 19.18)"/></g><g class="cls-56"><path class="cls-6" d="M76.2,203.36a5.93,5.93,0,1,1,5.93-5.92A5.93,5.93,0,0,1,76.2,203.36Zm0-7.9a2,2,0,1,0,2,2A2,2,0,0,0,76.2,195.46Z" transform="translate(2.15 19.18)"/><path class="cls-6" d="M63,203.36A5.93,5.93,0,1,1,69,197.44,5.93,5.93,0,0,1,63,203.36Zm0-7.9a2,2,0,1,0,2,2A2,2,0,0,0,63,195.46Z" transform="translate(2.15 19.18)"/><path class="cls-6" d="M82.78,190.19a5.93,5.93,0,1,1,5.93-5.92A5.93,5.93,0,0,1,82.78,190.19Zm0-7.9a2,2,0,1,0,2,2A2,2,0,0,0,82.78,182.29Z" transform="translate(2.15 19.18)"/><path class="cls-6" d="M69.62,190.19a5.93,5.93,0,1,1,5.92-5.92A5.93,5.93,0,0,1,69.62,190.19Zm0-7.9a2,2,0,1,0,2,2A2,2,0,0,0,69.62,182.29Z" transform="translate(2.15 19.18)"/><path class="cls-6" d="M56.45,190.19a5.93,5.93,0,1,1,5.92-5.92A5.93,5.93,0,0,1,56.45,190.19Zm0-7.9a2,2,0,1,0,2,2A2,2,0,0,0,56.45,182.29Z" transform="translate(2.15 19.18)"/><path class="cls-6" d="M76.2,177a5.93,5.93,0,1,1,5.93-5.93A5.93,5.93,0,0,1,76.2,177Zm0-7.91a2,2,0,1,0,2,2A2,2,0,0,0,76.2,169.12Z" transform="translate(2.15 19.18)"/><path class="cls-6" d="M63,177A5.93,5.93,0,1,1,69,171.1,5.93,5.93,0,0,1,63,177Zm0-7.91a2,2,0,1,0,2,2A2,2,0,0,0,63,169.12Z" transform="translate(2.15 19.18)"/></g><g class="cls-57"><path class="cls-6" d="M76.2,229.7a5.93,5.93,0,1,1,5.93-5.93A5.93,5.93,0,0,1,76.2,229.7Zm0-7.9a2,2,0,1,0,2,2A2,2,0,0,0,76.2,221.8Z" transform="translate(2.15 19.18)"/><path class="cls-6" d="M63,229.7A5.93,5.93,0,1,1,69,223.77,5.93,5.93,0,0,1,63,229.7Zm0-7.9a2,2,0,1,0,2,2A2,2,0,0,0,63,221.8Z" transform="translate(2.15 19.18)"/><path class="cls-6" d="M82.78,216.53a5.93,5.93,0,1,1,5.93-5.93A5.93,5.93,0,0,1,82.78,216.53Zm0-7.9a2,2,0,1,0,2,2A2,2,0,0,0,82.78,208.63Z" transform="translate(2.15 19.18)"/><path class="cls-6" d="M69.62,216.53a5.93,5.93,0,1,1,5.92-5.93A5.94,5.94,0,0,1,69.62,216.53Zm0-7.9a2,2,0,1,0,2,2A2,2,0,0,0,69.62,208.63Z" transform="translate(2.15 19.18)"/><path class="cls-6" d="M56.45,216.53a5.93,5.93,0,1,1,5.92-5.93A5.94,5.94,0,0,1,56.45,216.53Zm0-7.9a2,2,0,1,0,2,2A2,2,0,0,0,56.45,208.63Z" transform="translate(2.15 19.18)"/><path class="cls-6" d="M76.2,203.36a5.93,5.93,0,1,1,5.93-5.92A5.93,5.93,0,0,1,76.2,203.36Zm0-7.9a2,2,0,1,0,2,2A2,2,0,0,0,76.2,195.46Z" transform="translate(2.15 19.18)"/><path class="cls-6" d="M63,203.36A5.93,5.93,0,1,1,69,197.44,5.93,5.93,0,0,1,63,203.36Zm0-7.9a2,2,0,1,0,2,2A2,2,0,0,0,63,195.46Z" transform="translate(2.15 19.18)"/></g><g class="cls-35"><path class="cls-6" d="M49.86,124.35a5.93,5.93,0,1,1,5.93-5.92A5.93,5.93,0,0,1,49.86,124.35Zm0-7.9a2,2,0,1,0,2,2A2,2,0,0,0,49.86,116.45Z" transform="translate(2.15 19.18)"/><path class="cls-6" d="M36.7,124.35a5.93,5.93,0,1,1,5.92-5.92A5.93,5.93,0,0,1,36.7,124.35Zm0-7.9a2,2,0,1,0,2,2A2,2,0,0,0,36.7,116.45Z" transform="translate(2.15 19.18)"/><path class="cls-6" d="M56.45,111.19a5.93,5.93,0,1,1,5.92-5.93A5.94,5.94,0,0,1,56.45,111.19Zm0-7.9a2,2,0,1,0,2,2A2,2,0,0,0,56.45,103.29Z" transform="translate(2.15 19.18)"/><path class="cls-6" d="M43.28,111.19a5.93,5.93,0,1,1,5.93-5.93A5.93,5.93,0,0,1,43.28,111.19Zm0-7.9a2,2,0,1,0,2,2A2,2,0,0,0,43.28,103.29Z" transform="translate(2.15 19.18)"/><path class="cls-6" d="M30.11,111.19A5.93,5.93,0,1,1,36,105.26,5.93,5.93,0,0,1,30.11,111.19Zm0-7.9a2,2,0,1,0,2,2A2,2,0,0,0,30.11,103.29Z" transform="translate(2.15 19.18)"/><path class="cls-6" d="M49.86,98a5.93,5.93,0,1,1,5.93-5.93A5.93,5.93,0,0,1,49.86,98Zm0-7.9a2,2,0,1,0,2,2A2,2,0,0,0,49.86,90.12Z" transform="translate(2.15 19.18)"/><path class="cls-6" d="M36.7,98a5.93,5.93,0,1,1,5.92-5.93A5.94,5.94,0,0,1,36.7,98Zm0-7.9a2,2,0,1,0,2,2A2,2,0,0,0,36.7,90.12Z" transform="translate(2.15 19.18)"/></g><g class="cls-58"><path class="cls-6" d="M49.86,150.69a5.93,5.93,0,1,1,5.93-5.93A5.93,5.93,0,0,1,49.86,150.69Zm0-7.9a2,2,0,1,0,2,2A2,2,0,0,0,49.86,142.79Z" transform="translate(2.15 19.18)"/><path class="cls-6" d="M36.7,150.69a5.93,5.93,0,1,1,5.92-5.93A5.94,5.94,0,0,1,36.7,150.69Zm0-7.9a2,2,0,1,0,2,2A2,2,0,0,0,36.7,142.79Z" transform="translate(2.15 19.18)"/><path class="cls-6" d="M56.45,137.52a5.93,5.93,0,1,1,5.92-5.92A5.93,5.93,0,0,1,56.45,137.52Zm0-7.9a2,2,0,1,0,2,2A2,2,0,0,0,56.45,129.62Z" transform="translate(2.15 19.18)"/><path class="cls-6" d="M43.28,137.52a5.93,5.93,0,1,1,5.93-5.92A5.93,5.93,0,0,1,43.28,137.52Zm0-7.9a2,2,0,1,0,2,2A2,2,0,0,0,43.28,129.62Z" transform="translate(2.15 19.18)"/><path class="cls-6" d="M30.11,137.52A5.93,5.93,0,1,1,36,131.6,5.93,5.93,0,0,1,30.11,137.52Zm0-7.9a2,2,0,1,0,2,2A2,2,0,0,0,30.11,129.62Z" transform="translate(2.15 19.18)"/><path class="cls-6" d="M49.86,124.35a5.93,5.93,0,1,1,5.93-5.92A5.93,5.93,0,0,1,49.86,124.35Zm0-7.9a2,2,0,1,0,2,2A2,2,0,0,0,49.86,116.45Z" transform="translate(2.15 19.18)"/><path class="cls-6" d="M36.7,124.35a5.93,5.93,0,1,1,5.92-5.92A5.93,5.93,0,0,1,36.7,124.35Zm0-7.9a2,2,0,1,0,2,2A2,2,0,0,0,36.7,116.45Z" transform="translate(2.15 19.18)"/></g><g class="cls-59"><path class="cls-6" d="M49.86,177a5.93,5.93,0,1,1,5.93-5.93A5.93,5.93,0,0,1,49.86,177Zm0-7.91a2,2,0,1,0,2,2A2,2,0,0,0,49.86,169.12Z" transform="translate(2.15 19.18)"/><path class="cls-6" d="M36.7,177a5.93,5.93,0,1,1,5.92-5.93A5.94,5.94,0,0,1,36.7,177Zm0-7.91a2,2,0,1,0,2,2A2,2,0,0,0,36.7,169.12Z" transform="translate(2.15 19.18)"/><path class="cls-6" d="M56.45,163.86a5.93,5.93,0,1,1,5.92-5.93A5.94,5.94,0,0,1,56.45,163.86Zm0-7.9a2,2,0,1,0,2,2A2,2,0,0,0,56.45,156Z" transform="translate(2.15 19.18)"/><path class="cls-6" d="M43.28,163.86a5.93,5.93,0,1,1,5.93-5.93A5.93,5.93,0,0,1,43.28,163.86Zm0-7.9a2,2,0,1,0,2,2A2,2,0,0,0,43.28,156Z" transform="translate(2.15 19.18)"/><path class="cls-6" d="M30.11,163.86A5.93,5.93,0,1,1,36,157.93,5.93,5.93,0,0,1,30.11,163.86Zm0-7.9a2,2,0,1,0,2,2A2,2,0,0,0,30.11,156Z" transform="translate(2.15 19.18)"/><path class="cls-6" d="M49.86,150.69a5.93,5.93,0,1,1,5.93-5.93A5.93,5.93,0,0,1,49.86,150.69Zm0-7.9a2,2,0,1,0,2,2A2,2,0,0,0,49.86,142.79Z" transform="translate(2.15 19.18)"/><path class="cls-6" d="M36.7,150.69a5.93,5.93,0,1,1,5.92-5.93A5.94,5.94,0,0,1,36.7,150.69Zm0-7.9a2,2,0,1,0,2,2A2,2,0,0,0,36.7,142.79Z" transform="translate(2.15 19.18)"/></g><g class="cls-60"><path class="cls-6" d="M49.86,203.36a5.93,5.93,0,1,1,5.93-5.92A5.93,5.93,0,0,1,49.86,203.36Zm0-7.9a2,2,0,1,0,2,2A2,2,0,0,0,49.86,195.46Z" transform="translate(2.15 19.18)"/><path class="cls-6" d="M36.7,203.36a5.93,5.93,0,1,1,5.92-5.92A5.93,5.93,0,0,1,36.7,203.36Zm0-7.9a2,2,0,1,0,2,2A2,2,0,0,0,36.7,195.46Z" transform="translate(2.15 19.18)"/><path class="cls-6" d="M56.45,190.19a5.93,5.93,0,1,1,5.92-5.92A5.93,5.93,0,0,1,56.45,190.19Zm0-7.9a2,2,0,1,0,2,2A2,2,0,0,0,56.45,182.29Z" transform="translate(2.15 19.18)"/><path class="cls-6" d="M43.28,190.19a5.93,5.93,0,1,1,5.93-5.92A5.92,5.92,0,0,1,43.28,190.19Zm0-7.9a2,2,0,1,0,2,2A2,2,0,0,0,43.28,182.29Z" transform="translate(2.15 19.18)"/><path class="cls-6" d="M30.11,190.19A5.93,5.93,0,1,1,36,184.27,5.93,5.93,0,0,1,30.11,190.19Zm0-7.9a2,2,0,1,0,2,2A2,2,0,0,0,30.11,182.29Z" transform="translate(2.15 19.18)"/><path class="cls-6" d="M49.86,177a5.93,5.93,0,1,1,5.93-5.93A5.93,5.93,0,0,1,49.86,177Zm0-7.91a2,2,0,1,0,2,2A2,2,0,0,0,49.86,169.12Z" transform="translate(2.15 19.18)"/><path class="cls-6" d="M36.7,177a5.93,5.93,0,1,1,5.92-5.93A5.94,5.94,0,0,1,36.7,177Zm0-7.91a2,2,0,1,0,2,2A2,2,0,0,0,36.7,169.12Z" transform="translate(2.15 19.18)"/></g><g class="cls-61"><path class="cls-6" d="M49.86,229.7a5.93,5.93,0,1,1,5.93-5.93A5.93,5.93,0,0,1,49.86,229.7Zm0-7.9a2,2,0,1,0,2,2A2,2,0,0,0,49.86,221.8Z" transform="translate(2.15 19.18)"/><path class="cls-6" d="M36.7,229.7a5.93,5.93,0,1,1,5.92-5.93A5.94,5.94,0,0,1,36.7,229.7Zm0-7.9a2,2,0,1,0,2,2A2,2,0,0,0,36.7,221.8Z" transform="translate(2.15 19.18)"/><path class="cls-6" d="M56.45,216.53a5.93,5.93,0,1,1,5.92-5.93A5.94,5.94,0,0,1,56.45,216.53Zm0-7.9a2,2,0,1,0,2,2A2,2,0,0,0,56.45,208.63Z" transform="translate(2.15 19.18)"/><path class="cls-6" d="M43.28,216.53a5.93,5.93,0,1,1,5.93-5.93A5.93,5.93,0,0,1,43.28,216.53Zm0-7.9a2,2,0,1,0,2,2A2,2,0,0,0,43.28,208.63Z" transform="translate(2.15 19.18)"/><path class="cls-6" d="M30.11,216.53A5.93,5.93,0,1,1,36,210.6,5.93,5.93,0,0,1,30.11,216.53Zm0-7.9a2,2,0,1,0,2,2A2,2,0,0,0,30.11,208.63Z" transform="translate(2.15 19.18)"/><path class="cls-6" d="M49.86,203.36a5.93,5.93,0,1,1,5.93-5.92A5.93,5.93,0,0,1,49.86,203.36Zm0-7.9a2,2,0,1,0,2,2A2,2,0,0,0,49.86,195.46Z" transform="translate(2.15 19.18)"/><path class="cls-6" d="M36.7,203.36a5.93,5.93,0,1,1,5.92-5.92A5.93,5.93,0,0,1,36.7,203.36Zm0-7.9a2,2,0,1,0,2,2A2,2,0,0,0,36.7,195.46Z" transform="translate(2.15 19.18)"/></g><g class="cls-40"><path class="cls-6" d="M23.53,124.35a5.93,5.93,0,1,1,5.92-5.92A5.93,5.93,0,0,1,23.53,124.35Zm0-7.9a2,2,0,1,0,2,2A2,2,0,0,0,23.53,116.45Z" transform="translate(2.15 19.18)"/><path class="cls-6" d="M10.36,124.35a5.93,5.93,0,1,1,5.93-5.92A5.92,5.92,0,0,1,10.36,124.35Zm0-7.9a2,2,0,1,0,2,2A2,2,0,0,0,10.36,116.45Z" transform="translate(2.15 19.18)"/><path class="cls-6" d="M30.11,111.19A5.93,5.93,0,1,1,36,105.26,5.93,5.93,0,0,1,30.11,111.19Zm0-7.9a2,2,0,1,0,2,2A2,2,0,0,0,30.11,103.29Z" transform="translate(2.15 19.18)"/><path class="cls-6" d="M17,111.19a5.93,5.93,0,1,1,5.92-5.93A5.94,5.94,0,0,1,17,111.19Zm0-7.9a2,2,0,1,0,2,2A2,2,0,0,0,17,103.29Z" transform="translate(2.15 19.18)"/><path class="cls-6" d="M3.78,111.19a5.93,5.93,0,1,1,5.92-5.93A5.94,5.94,0,0,1,3.78,111.19Zm0-7.9a2,2,0,1,0,2,2A2,2,0,0,0,3.78,103.29Z" transform="translate(2.15 19.18)"/><path class="cls-6" d="M23.53,98a5.93,5.93,0,1,1,5.92-5.93A5.94,5.94,0,0,1,23.53,98Zm0-7.9a2,2,0,1,0,2,2A2,2,0,0,0,23.53,90.12Z" transform="translate(2.15 19.18)"/><path class="cls-6" d="M10.36,98a5.93,5.93,0,1,1,5.93-5.93A5.93,5.93,0,0,1,10.36,98Zm0-7.9a2,2,0,1,0,2,2A2,2,0,0,0,10.36,90.12Z" transform="translate(2.15 19.18)"/></g><g class="cls-62"><path class="cls-6" d="M23.53,150.69a5.93,5.93,0,1,1,5.92-5.93A5.94,5.94,0,0,1,23.53,150.69Zm0-7.9a2,2,0,1,0,2,2A2,2,0,0,0,23.53,142.79Z" transform="translate(2.15 19.18)"/><path class="cls-6" d="M10.36,150.69a5.93,5.93,0,1,1,5.93-5.93A5.93,5.93,0,0,1,10.36,150.69Zm0-7.9a2,2,0,1,0,2,2A2,2,0,0,0,10.36,142.79Z" transform="translate(2.15 19.18)"/><path class="cls-6" d="M30.11,137.52A5.93,5.93,0,1,1,36,131.6,5.93,5.93,0,0,1,30.11,137.52Zm0-7.9a2,2,0,1,0,2,2A2,2,0,0,0,30.11,129.62Z" transform="translate(2.15 19.18)"/><path class="cls-6" d="M17,137.52a5.93,5.93,0,1,1,5.92-5.92A5.93,5.93,0,0,1,17,137.52Zm0-7.9a2,2,0,1,0,2,2A2,2,0,0,0,17,129.62Z" transform="translate(2.15 19.18)"/><path class="cls-6" d="M3.78,137.52A5.93,5.93,0,1,1,9.7,131.6,5.93,5.93,0,0,1,3.78,137.52Zm0-7.9a2,2,0,1,0,2,2A2,2,0,0,0,3.78,129.62Z" transform="translate(2.15 19.18)"/><path class="cls-6" d="M23.53,124.35a5.93,5.93,0,1,1,5.92-5.92A5.93,5.93,0,0,1,23.53,124.35Zm0-7.9a2,2,0,1,0,2,2A2,2,0,0,0,23.53,116.45Z" transform="translate(2.15 19.18)"/><path class="cls-6" d="M10.36,124.35a5.93,5.93,0,1,1,5.93-5.92A5.92,5.92,0,0,1,10.36,124.35Zm0-7.9a2,2,0,1,0,2,2A2,2,0,0,0,10.36,116.45Z" transform="translate(2.15 19.18)"/></g><g class="cls-63"><path class="cls-6" d="M23.53,177a5.93,5.93,0,1,1,5.92-5.93A5.94,5.94,0,0,1,23.53,177Zm0-7.91a2,2,0,1,0,2,2A2,2,0,0,0,23.53,169.12Z" transform="translate(2.15 19.18)"/><path class="cls-6" d="M10.36,177a5.93,5.93,0,1,1,5.93-5.93A5.93,5.93,0,0,1,10.36,177Zm0-7.91a2,2,0,1,0,2,2A2,2,0,0,0,10.36,169.12Z" transform="translate(2.15 19.18)"/><path class="cls-6" d="M30.11,163.86A5.93,5.93,0,1,1,36,157.93,5.93,5.93,0,0,1,30.11,163.86Zm0-7.9a2,2,0,1,0,2,2A2,2,0,0,0,30.11,156Z" transform="translate(2.15 19.18)"/><path class="cls-6" d="M17,163.86a5.93,5.93,0,1,1,5.92-5.93A5.94,5.94,0,0,1,17,163.86Zm0-7.9a2,2,0,1,0,2,2A2,2,0,0,0,17,156Z" transform="translate(2.15 19.18)"/><path class="cls-6" d="M3.78,163.86a5.93,5.93,0,1,1,5.92-5.93A5.94,5.94,0,0,1,3.78,163.86Zm0-7.9a2,2,0,1,0,2,2A2,2,0,0,0,3.78,156Z" transform="translate(2.15 19.18)"/><path class="cls-6" d="M23.53,150.69a5.93,5.93,0,1,1,5.92-5.93A5.94,5.94,0,0,1,23.53,150.69Zm0-7.9a2,2,0,1,0,2,2A2,2,0,0,0,23.53,142.79Z" transform="translate(2.15 19.18)"/><path class="cls-6" d="M10.36,150.69a5.93,5.93,0,1,1,5.93-5.93A5.93,5.93,0,0,1,10.36,150.69Zm0-7.9a2,2,0,1,0,2,2A2,2,0,0,0,10.36,142.79Z" transform="translate(2.15 19.18)"/></g><g class="cls-64"><path class="cls-6" d="M23.53,203.36a5.93,5.93,0,1,1,5.92-5.92A5.93,5.93,0,0,1,23.53,203.36Zm0-7.9a2,2,0,1,0,2,2A2,2,0,0,0,23.53,195.46Z" transform="translate(2.15 19.18)"/><path class="cls-6" d="M10.36,203.36a5.93,5.93,0,1,1,5.93-5.92A5.93,5.93,0,0,1,10.36,203.36Zm0-7.9a2,2,0,1,0,2,2A2,2,0,0,0,10.36,195.46Z" transform="translate(2.15 19.18)"/><path class="cls-6" d="M30.11,190.19A5.93,5.93,0,1,1,36,184.27,5.93,5.93,0,0,1,30.11,190.19Zm0-7.9a2,2,0,1,0,2,2A2,2,0,0,0,30.11,182.29Z" transform="translate(2.15 19.18)"/><path class="cls-6" d="M17,190.19a5.93,5.93,0,1,1,5.92-5.92A5.93,5.93,0,0,1,17,190.19Zm0-7.9a2,2,0,1,0,2,2A2,2,0,0,0,17,182.29Z" transform="translate(2.15 19.18)"/><path class="cls-6" d="M3.78,190.19a5.93,5.93,0,1,1,5.92-5.92A5.93,5.93,0,0,1,3.78,190.19Zm0-7.9a2,2,0,1,0,2,2A2,2,0,0,0,3.78,182.29Z" transform="translate(2.15 19.18)"/><path class="cls-6" d="M23.53,177a5.93,5.93,0,1,1,5.92-5.93A5.94,5.94,0,0,1,23.53,177Zm0-7.91a2,2,0,1,0,2,2A2,2,0,0,0,23.53,169.12Z" transform="translate(2.15 19.18)"/><path class="cls-6" d="M10.36,177a5.93,5.93,0,1,1,5.93-5.93A5.93,5.93,0,0,1,10.36,177Zm0-7.91a2,2,0,1,0,2,2A2,2,0,0,0,10.36,169.12Z" transform="translate(2.15 19.18)"/></g><g class="cls-65"><path class="cls-6" d="M23.53,229.7a5.93,5.93,0,1,1,5.92-5.93A5.94,5.94,0,0,1,23.53,229.7Zm0-7.9a2,2,0,1,0,2,2A2,2,0,0,0,23.53,221.8Z" transform="translate(2.15 19.18)"/><path class="cls-6" d="M10.36,229.7a5.93,5.93,0,1,1,5.93-5.93A5.93,5.93,0,0,1,10.36,229.7Zm0-7.9a2,2,0,1,0,2,2A2,2,0,0,0,10.36,221.8Z" transform="translate(2.15 19.18)"/><path class="cls-6" d="M30.11,216.53A5.93,5.93,0,1,1,36,210.6,5.93,5.93,0,0,1,30.11,216.53Zm0-7.9a2,2,0,1,0,2,2A2,2,0,0,0,30.11,208.63Z" transform="translate(2.15 19.18)"/><path class="cls-6" d="M17,216.53a5.93,5.93,0,1,1,5.92-5.93A5.94,5.94,0,0,1,17,216.53Zm0-7.9a2,2,0,1,0,2,2A2,2,0,0,0,17,208.63Z" transform="translate(2.15 19.18)"/><path class="cls-6" d="M3.78,216.53A5.93,5.93,0,1,1,9.7,210.6,5.94,5.94,0,0,1,3.78,216.53Zm0-7.9a2,2,0,1,0,2,2A2,2,0,0,0,3.78,208.63Z" transform="translate(2.15 19.18)"/><path class="cls-6" d="M23.53,203.36a5.93,5.93,0,1,1,5.92-5.92A5.93,5.93,0,0,1,23.53,203.36Zm0-7.9a2,2,0,1,0,2,2A2,2,0,0,0,23.53,195.46Z" transform="translate(2.15 19.18)"/><path class="cls-6" d="M10.36,203.36a5.93,5.93,0,1,1,5.93-5.92A5.93,5.93,0,0,1,10.36,203.36Zm0-7.9a2,2,0,1,0,2,2A2,2,0,0,0,10.36,195.46Z" transform="translate(2.15 19.18)"/></g></g></g></g></g></svg>