<svg xmlns="http://www.w3.org/2000/svg" xmlns:xlink="http://www.w3.org/1999/xlink" viewBox="0 0 319.56 254.71"><defs><style>.cls-1{fill:none;}.cls-2{fill:#262b62;}.cls-3{fill:#fafdff;}.cls-4{fill:#f3715d;}.cls-5{fill:url(#dot-navy);}</style><pattern id="dot-navy" data-name="dot-navy" width="28" height="28" patternTransform="translate(48.88 23.86) rotate(9.61) scale(0.31)" patternUnits="userSpaceOnUse" viewBox="0 0 28 28"><rect class="cls-1" width="28" height="28"/><circle class="cls-2" cx="21" cy="28" r="6"/><circle class="cls-2" cx="7" cy="28" r="6"/><circle class="cls-2" cx="28" cy="14" r="6"/><circle class="cls-2" cx="14" cy="14" r="6"/><circle class="cls-2" cy="14" r="6"/><circle class="cls-2" cx="21" r="6"/><circle class="cls-2" cx="7" r="6"/></pattern></defs><g id="Layer_2" data-name="Layer 2"><g id="Layer_1-2" data-name="Layer 1"><path class="cls-3" d="M80.9,79.21c-3.44,1.45-7,2.79-10.75,4A175.66,175.66,0,0,1,46.92,89a188.08,188.08,0,0,1-32.85,3,12,12,0,0,1,0-24h0A162.9,162.9,0,0,0,42.93,65.3a141.73,141.73,0,0,0,26.16-7.22,81.5,81.5,0,0,0,13.32-6.54,1,1,0,0,0-1.09-1.75,79.76,79.76,0,0,1-13,6.37,140.42,140.42,0,0,1-25.77,7.12,161.92,161.92,0,0,1-28.46,2.61h0a14.08,14.08,0,0,0,0,28.15,191.14,191.14,0,0,0,33.21-3,176.77,176.77,0,0,0,23.51-5.86Q76.57,83.28,81.94,81"/><polygon class="cls-3" points="307.17 24.25 307.17 24.25 307.17 24.25 307.17 24.25"/><path class="cls-3" d="M319.22,40.69a3.6,3.6,0,0,0-3.11-1.85,2.88,2.88,0,0,0-1.4.35l0-.06c.38-1,.67-1.75.78-2s.45-1.09.76-1.94a24.1,24.1,0,0,0,.88-2.76,3.07,3.07,0,0,0,.08-.67,2.84,2.84,0,0,0-.42-1.47,3.65,3.65,0,0,0-1.53-1.32,4.26,4.26,0,0,0-1.86-.43c-.11,0-.22,0-.33,0l.63-1.31h0A2.8,2.8,0,0,0,314,26a3,3,0,0,0-.41-1.48,4,4,0,0,0-1.5-1.49,4.15,4.15,0,0,0-2.07-.58,3.24,3.24,0,0,0-1.62.42,3.2,3.2,0,0,0-1.25,1.37c-.13.24-.58,1.16-1.24,2.45-.05-.12-.09-.26-.15-.38A3.5,3.5,0,0,0,304.36,25a3.89,3.89,0,0,0-1.87-.49,3.32,3.32,0,0,0-1.51.36A3,3,0,0,0,299.75,26c-.3.52-2.41,4.1-4.6,7.77-1.09,1.83-2.2,3.69-3.12,5.2l-1.2,2c-.33.53-.58.94-.72,1.13h0c-.34.51-.74,1.2-1.2,2-.68,1.17-1.48,2.54-2.21,3.57a8.36,8.36,0,0,1-1,1.19,3.16,3.16,0,0,1-.24-.43,30.87,30.87,0,0,1-1.13-3,44.27,44.27,0,0,0-1.69-4.24,7.91,7.91,0,0,0-2.76-3.4,5.16,5.16,0,0,0-2.78-.83,5.36,5.36,0,0,0-1.21.15h0a2,2,0,0,0-1.08.62,2.33,2.33,0,0,0-.45.79h0a2.4,2.4,0,0,0-.21,1.09,9.08,9.08,0,0,0,.53,2.7h0l0,.07c.09.26.19.56.32.89,1.48,3.85,1.86,8.19,2.07,12.46a43.41,43.41,0,0,0,.7,6.62,17.84,17.84,0,0,0,2.53,6.41,19.51,19.51,0,0,0,13.32,8.39,14,14,0,0,0,2,.15,12.45,12.45,0,0,0,7.51-2.52c3.15-2.32,5.42-5.86,7.24-9.54s3.18-7.55,4.37-10.55c1.53-3.87,3.23-7.77,4.61-11.81a2.88,2.88,0,0,0,.14-.87A2.79,2.79,0,0,0,319.22,40.69ZM311,29.74Zm-34.42,9.85Zm0-.06Zm40.44,2.56c-1.33,3.91-3,7.78-4.57,11.7-1.61,4.08-3.47,9.46-6.15,13.74a18.68,18.68,0,0,1-4.62,5.27,10,10,0,0,1-6.05,2,12.13,12.13,0,0,1-1.66-.12,17.1,17.1,0,0,1-11.61-7.32,15.49,15.49,0,0,1-2.17-5.53,42.54,42.54,0,0,1-.65-6.25c-.22-4.33-.59-8.93-2.23-13.22-.11-.28-.2-.54-.28-.79l0-.06a6.69,6.69,0,0,1-.41-1.93v-.14a4.53,4.53,0,0,1,.47,0,2.64,2.64,0,0,1,1.44.44,5.39,5.39,0,0,1,1.86,2.37,55,55,0,0,1,2.12,5.49,14.88,14.88,0,0,0,.9,2.1,4.87,4.87,0,0,0,.59.86,2.67,2.67,0,0,0,.92.67,1.84,1.84,0,0,0,.68.14,2.24,2.24,0,0,0,.77-.17,3.27,3.27,0,0,0,1-.67A11.5,11.5,0,0,0,288.79,49c.67-1,1.34-2.09,1.93-3.11s1.12-1.94,1.44-2.4h0c.18-.27.44-.68.77-1.23,2.36-3.81,8.4-14,9-15a.51.51,0,0,1,.23-.23.88.88,0,0,1,.37-.08,1.56,1.56,0,0,1,.89.32,1.11,1.11,0,0,1,.24.26.68.68,0,0,1,.06.21.83.83,0,0,1-.1.3c-.15.28-.6,1.07-1.19,2.13-.89,1.58-2.13,3.78-3.26,5.87s-2.17,4-2.7,5.27a2.8,2.8,0,0,0-.26,1.07,1.68,1.68,0,0,0,.29,1,1.92,1.92,0,0,0,.68.59h0a1.74,1.74,0,0,0,.79.19,1.91,1.91,0,0,0,1.06-.34,3.1,3.1,0,0,0,.69-.66,20.25,20.25,0,0,0,1.14-1.69C302.3,39,304.31,35.27,306,32s3.12-6.17,3.34-6.6h0a.69.69,0,0,1,.3-.34.65.65,0,0,1,.37-.09,1.82,1.82,0,0,1,1.08.42,1.48,1.48,0,0,1,.34.4.56.56,0,0,1,.09.26l0,.15h0c-.24.5-2.55,5.18-4.79,9.73l-3.05,6.19-1.37,2.78-.05.11s-.05.14-.1.31a3,3,0,0,0-.09.7,2,2,0,0,0,.19.87,1.66,1.66,0,0,0,.36.5,1.82,1.82,0,0,0,.56.35h0a1.82,1.82,0,0,0,.65.12,1.74,1.74,0,0,0,.94-.27,2.25,2.25,0,0,0,.66-.65,2.12,2.12,0,0,0,.17-.31h0s.94-1.86,2-4c.53-1.08,1.09-2.23,1.58-3.26s.9-1.93,1.16-2.55A54.63,54.63,0,0,1,313.15,31a.79.79,0,0,1,.28,0,1.94,1.94,0,0,1,1,.32,1,1,0,0,1,.27.27.29.29,0,0,1,0,.16v.09a25.49,25.49,0,0,1-.79,2.49c-.3.79-.58,1.48-.74,1.88s-.49,1.27-1,2.49c-.71,1.84-1.68,4.36-2.55,6.57-.44,1.11-.86,2.14-1.2,3-.17.42-.33.78-.46,1.08s-.24.52-.3.64c-.27.53-.49,1-.65,1.36a3.18,3.18,0,0,0-.3,1.23,1.77,1.77,0,0,0,.08.54,1.73,1.73,0,0,0,.48.75,2,2,0,0,0,.62.36h0a1.93,1.93,0,0,0,.75.15,1.8,1.8,0,0,0,.79-.18,1.83,1.83,0,0,0,.68-.56,1.47,1.47,0,0,0,.22-.36h0l.67-1.49c1.22-2.73,3.78-8.42,4.56-10.09a.53.53,0,0,1,.23-.28.35.35,0,0,1,.23-.06,1.13,1.13,0,0,1,.71.28.84.84,0,0,1,.22.27.32.32,0,0,1,0,.16Z"/><polygon class="cls-3" points="284.97 51.36 284.97 51.36 284.97 51.36 284.97 51.36"/><path class="cls-4" d="M296.83,87.7a8.84,8.84,0,0,0-5.27-3.1l-7.05-1.26a9.26,9.26,0,0,0-1.57-.14A8.81,8.81,0,0,0,274.66,89a38.45,38.45,0,0,1-2.54,5.55,41.42,41.42,0,0,1-5.48,7.62h0a42.41,42.41,0,0,1-11.08,8.73,37.36,37.36,0,0,1-13,4.26h0a45.28,45.28,0,0,1-5.63.34h0a67.09,67.09,0,0,1-10.56-.93h0c-5.54-.88-11.47-2.33-17.76-3.86h0a199.19,199.19,0,0,0-20.07-4.06h0a105.31,105.31,0,0,0-13.95-.92,110.22,110.22,0,0,0-37.24,6.54,108.19,108.19,0,0,0-32.88,18.85c-1.77,1.49-3.48,3.05-5.14,4.64-1-.23-2-.46-3.08-.67a111.41,111.41,0,0,0-21-2.1h-.88a158.72,158.72,0,0,0-26.49,2.4c-8.59,1.44-16.93,3.37-25,5.39a1.26,1.26,0,0,0-.76.56,1.24,1.24,0,0,0-.14.94l5.39,21.62a1.23,1.23,0,0,0,1.5.9c7.82-1.95,15.54-3.73,23.13-5a134.82,134.82,0,0,1,22.38-2.06h.71q3.3,0,6.57.29-2.46,4.11-4.58,8.4a108.62,108.62,0,0,0-11,43.34c0,1-.06,2.05-.06,3.11a65.57,65.57,0,0,0,.46,7.92A50.15,50.15,0,0,0,67.53,227a41.26,41.26,0,0,0,3.53,9.43,35.72,35.72,0,0,0,2.88,4.55,33.37,33.37,0,0,0,3.73,4.21h0a32.72,32.72,0,0,0,6,4.5,36.23,36.23,0,0,0,9.85,3.91,42.61,42.61,0,0,0,10,1.15,47.94,47.94,0,0,0,9.93-1.05,52.89,52.89,0,0,0,16.84-6.84,56.74,56.74,0,0,0,10.45-8.36A57.63,57.63,0,0,0,152.09,222a53,53,0,0,0,4.84-19.79c0-.78,0-1.56,0-2.34a56.38,56.38,0,0,0-2.1-15.12,63.84,63.84,0,0,0-9.72-20,69.42,69.42,0,0,0-15.56-15.61c-1.42-1-2.87-2-4.33-2.88a84,84,0,0,1,20.49-10.76,85.4,85.4,0,0,1,28.83-5.08h0a80.91,80.91,0,0,1,10.67.71h0c3.66.49,7.48,1.25,11.46,2.15h0c6,1.35,12.27,3,18.94,4.41,3.34.7,6.78,1.32,10.32,1.77a86.82,86.82,0,0,0,11,.73,69,69,0,0,0,8.77-.54h0l1.23-.16h0l.13-.05a61.84,61.84,0,0,0,18-5.69,67,67,0,0,0,27.34-25,63.2,63.2,0,0,0,5.89-12.56,8.81,8.81,0,0,0-1.53-8.47ZM103.5,230h0a18.8,18.8,0,0,1-2.87-.21h0a13.74,13.74,0,0,1-3.52-1h0a9,9,0,0,1-1.31-.72,7.54,7.54,0,0,1-1.06-.84h0a9,9,0,0,1-1.59-2.06,15.1,15.1,0,0,1-1-2.23,23.23,23.23,0,0,1-1-4.54,40.25,40.25,0,0,1-.35-5.52h0c0-.71,0-1.43,0-2.15a83.67,83.67,0,0,1,8.54-33.42A85.92,85.92,0,0,1,107,164.45a52.13,52.13,0,0,1,8,4.76,43.65,43.65,0,0,1,7,6.32,42.19,42.19,0,0,1,7.48,11.71,35.5,35.5,0,0,1,2,6.32,31.12,31.12,0,0,1,.67,6.34q0,.63,0,1.26a27.9,27.9,0,0,1-2.12,9.41,32.24,32.24,0,0,1-3.68,6.6,32.94,32.94,0,0,1-8.16,8,28.18,28.18,0,0,1-10,4.32h0A23.51,23.51,0,0,1,103.5,230Zm2.74-68.59a65.19,65.19,0,0,0-9-3.2,81.21,81.21,0,0,0-11.44-2.25,104.7,104.7,0,0,1,14.25-17.48,86.41,86.41,0,0,1,15.71,5.49c1.7.79,3.38,1.67,5,2.59-.67.53-1.34,1-2,1.6A83.67,83.67,0,0,0,106.24,161.37Zm-31.13-6.15h-.77a138,138,0,0,0-22.78,2.09c-7.3,1.23-14.68,2.91-22.12,4.75l-4.79-19.22c7.69-1.91,15.56-3.71,23.63-5.07a157.68,157.68,0,0,1,26.08-2.36h.85a109.79,109.79,0,0,1,20.58,2.05l1.47.32a108.59,108.59,0,0,0-14.17,17.84C80.45,155.38,77.78,155.24,75.11,155.22Zm53-4.07a66.94,66.94,0,0,1,15,15,61.45,61.45,0,0,1,9.35,19.25,53.52,53.52,0,0,1,2,14.45c0,.74,0,1.49,0,2.23A50.76,50.76,0,0,1,149.84,221,55.11,55.11,0,0,1,139,236.73a54.07,54.07,0,0,1-10,8,50.09,50.09,0,0,1-16,6.52,45.22,45.22,0,0,1-9.42,1,40.23,40.23,0,0,1-9.39-1.08,34,34,0,0,1-9.17-3.64,30.47,30.47,0,0,1-5.55-4.16h0a30.78,30.78,0,0,1-3.45-3.9,31.18,31.18,0,0,1-2.67-4.23,38.7,38.7,0,0,1-3.32-8.86,50.38,50.38,0,0,1-1.07-5.91,64.51,64.51,0,0,1-.44-7.63c0-1,0-2,.06-3a106.13,106.13,0,0,1,10.79-42.35q2.33-4.74,5.1-9.23a78,78,0,0,1,12.25,2.31,63.34,63.34,0,0,1,8.12,2.86,88.72,88.72,0,0,0-7.67,12.77,86.32,86.32,0,0,0-8.79,34.4c0,.75,0,1.49,0,2.23h0v0a43.94,43.94,0,0,0,.38,5.86,25.36,25.36,0,0,0,1.18,5A14.88,14.88,0,0,0,91,226.35h0A11.28,11.28,0,0,0,93,229h0a11.59,11.59,0,0,0,1.39,1.1,12.47,12.47,0,0,0,1.66.91,16.46,16.46,0,0,0,4.17,1.19,21.19,21.19,0,0,0,3.24.24h0a25.55,25.55,0,0,0,5.28-.57h0a30.71,30.71,0,0,0,10.85-4.7,35.21,35.21,0,0,0,8.77-8.54,34.56,34.56,0,0,0,4-7.11,30.54,30.54,0,0,0,2.3-10.24c0-.46,0-.91,0-1.37a33.23,33.23,0,0,0-.73-6.85,36.7,36.7,0,0,0-2.12-6.76,44.37,44.37,0,0,0-7.91-12.41,47.25,47.25,0,0,0-7.4-6.68,55,55,0,0,0-8-4.77A80.9,80.9,0,0,1,120.43,150c.88-.74,1.78-1.46,2.69-2.16C124.83,148.88,126.51,150,128.15,151.15ZM296,95.38a61,61,0,0,1-5.66,12.07,64.54,64.54,0,0,1-14.19,16.26A63.33,63.33,0,0,1,264,131.54a59,59,0,0,1-18.62,5.67h0a67.75,67.75,0,0,1-8.46.52,84.28,84.28,0,0,1-10.65-.71c-3.46-.44-6.83-1.05-10.13-1.74-6.59-1.37-12.87-3-18.9-4.4h0c-4-.91-7.91-1.69-11.69-2.19h0a82.09,82.09,0,0,0-11-.73h0a87.8,87.8,0,0,0-29.67,5.23A86.62,86.62,0,0,0,123,144.88c-2-1.15-4.06-2.22-6.14-3.19a88.55,88.55,0,0,0-14.66-5.27c1.27-1.18,2.57-2.34,3.9-3.46a105.35,105.35,0,0,1,32.12-18.41,107.69,107.69,0,0,1,36.41-6.4,103.73,103.73,0,0,1,13.62.9h0a197.72,197.72,0,0,1,19.82,4h0c6.29,1.53,12.27,3,17.95,3.9a69,69,0,0,0,10.94,1h0a46.94,46.94,0,0,0,5.95-.36h0A39.66,39.66,0,0,0,256.73,113a44.82,44.82,0,0,0,11.74-9.25h0a44.45,44.45,0,0,0,5.81-8.08A41.28,41.28,0,0,0,277,89.8a6.31,6.31,0,0,1,5.95-4.13,6.24,6.24,0,0,1,1.13.1L291.12,87a6.35,6.35,0,0,1,3.8,2.22,6.43,6.43,0,0,1,1.45,4A6.29,6.29,0,0,1,296,95.38Z"/><polygon class="cls-4" points="96.06 231 96.06 231 96.06 231 96.06 231"/><polygon class="cls-4" points="100.23 232.19 100.23 232.19 100.23 232.19 100.23 232.19"/><polygon class="cls-4" points="226 116.96 226 116.96 226 116.96 226 116.96"/><path class="cls-3" d="M113.43,66.51c-1.44,1.24-6.55,2.09-9.05,1.19-.31-.11-.82-.35-.88-.67-.23-1.79,4.39-18.59,6.8-24a1,1,0,1,0-1.75-.77c-2.29,5.14-7.33,22.81-6.94,25.11a2.87,2.87,0,0,0,2.12,2.15,10.45,10.45,0,0,0,3.39.49c2.86,0,6.1-.78,7.56-2a1,1,0,1,0-1.25-1.45Z"/><path class="cls-3" d="M135.16,44.93a4.4,4.4,0,0,0-.51,0l1.15-6.75h0v-.05l.1-.59s0,0,0,0A25.25,25.25,0,0,0,86,29.69c0,.24-.07.47-.1.67l-1,6.08a3.34,3.34,0,0,0-.43-.1c-2.59-.43-5.16,2-5.74,5.34a7.36,7.36,0,0,0,.56,4.45,4.29,4.29,0,0,0,3.1,2.49,3.13,3.13,0,0,0,.44,0L78.63,73.27c-1.36,8,14.16,22.59,21.57,23.85a8.36,8.36,0,0,0,1.36.1c4.21,0,10.53-2.53,15-4.91,2.59-1.37,11.11-6.2,11.85-10.6l4.17-24.62a2.27,2.27,0,0,0,.5.12,3.47,3.47,0,0,0,.64.06,4.42,4.42,0,0,0,3.1-1.39,7.36,7.36,0,0,0,2-4C139.39,48.48,137.75,45.37,135.16,44.93Zm-52.48,1.8A2.41,2.41,0,0,1,81,45.28,5.48,5.48,0,0,1,80.59,42c.39-2.3,2-4,3.53-3.78a2.16,2.16,0,0,1,.43.14l-1.43,8.39A1.61,1.61,0,0,1,82.68,46.73Zm43.85,34.66c-.39,2.28-4.75,6-10.86,9.23s-12.22,5.11-15.15,4.61c-6.5-1.1-21.16-14.78-20-21.64l7.27-42.93c0-.22.06-.43.1-.65a23.37,23.37,0,0,1,23-19.44,24,24,0,0,1,4,.33A23.21,23.21,0,0,1,134,37.19h0s0,.07,0,.1-.05.34-.08.52l-1.37,8.11a.29.29,0,0,0,0,.09Zm10.4-29.84a5.49,5.49,0,0,1-1.45,3,2.41,2.41,0,0,1-2.08.81,2.16,2.16,0,0,1-.49-.16l1.42-8.37a1.75,1.75,0,0,1,.51,0C136.36,47.08,137.32,49.24,136.93,51.55Z"/><path class="cls-5" d="M138.6,31.57c5.55.61,11.88-1.93,12.45-5.31.4-2.37-.84-4.62-5.18-5.35S137.49,3.24,119.59.21c-10-1.69-19.11,7.3-19.11,7.3a6.29,6.29,0,0,0-4.9-3.68c-6.32-1.07-11.34,3.63-12.93,13-1.4,8.3,1,24.68.78,26.16L80.76,58.75s-3.52,12-4.41,17.26c-1.45,8.55,11.9,22,16.12,22.77L107,101.23c4.21.71,21.27-7.63,22.72-16.19.89-5.26,1.51-17.75,1.51-17.75L134,51.53Zm-7.32,19.5s-3.23,13.49-3.61,15.76c-1.23,7.24-10.43,10.42-12.67,10-3.42-.58-5.92-4.25-10.52-5s-8.17,1.87-11.59,1.29c-2.24-.38-9.88-6.42-8.66-13.65.39-2.27,1.87-16.07,1.87-16.07L86.88,37s5.75-4.4,6.15-6.73-1.21-5-2.33-6.95A5.44,5.44,0,0,1,97,19c7.21,1.22,9.07,8.31,14.86,9.29s10-5.07,14.62-4.29c4,.68,7,6.52,7,6.52-1.69,1.45-4,3.49-4.42,5.82s3.58,8.38,3.58,8.38l-1.38,6.35Z"/></g></g></svg>